G04 #@! TF.GenerationSoftware,KiCad,Pcbnew,6.0.10+dfsg-1~bpo11+1*
G04 #@! TF.ProjectId,project,70726f6a-6563-4742-9e6b-696361645f70,rev?*
G04 #@! TF.SameCoordinates,Original*
G04 #@! TF.FileFunction,Soldermask,Bot*
G04 #@! TF.FilePolarity,Negative*
%FSLAX46Y46*%
G04 Gerber Fmt 4.6, Leading zero omitted, Abs format (unit mm)*
%MOMM*%
%LPD*%
G01*
G04 APERTURE LIST*
G04 #@! TA.AperFunction,Profile*
%ADD10C,0.100000*%
G04 #@! TD*
%ADD11C,0.900000*%
%ADD12C,0.650000*%
%ADD13O,1.000000X2.100000*%
%ADD14O,1.000000X1.600000*%
%ADD15C,0.600000*%
G04 APERTURE END LIST*
D10*
X122500000Y-126475000D02*
X101000000Y-126475000D01*
X123500000Y-98000000D02*
X123500000Y-122000000D01*
X100000000Y-98000000D02*
X100000000Y-122000000D01*
X101000000Y-126475000D02*
X101000000Y-123000000D01*
X123500000Y-98000000D02*
G75*
G03*
X121500000Y-96000000I-2000000J0D01*
G01*
X123500000Y-122000000D02*
G75*
G03*
X122500000Y-123000000I0J-1000000D01*
G01*
X122500000Y-126475000D02*
X122500000Y-123000000D01*
X102000000Y-96000000D02*
X121500000Y-96000000D01*
X101000000Y-123000000D02*
G75*
G03*
X100000000Y-122000000I-1000000J0D01*
G01*
X102000000Y-96000000D02*
G75*
G03*
X100000000Y-98000000I0J-2000000D01*
G01*
D11*
X121532000Y-114475000D03*
X121532000Y-111475000D03*
D12*
X115390000Y-101575000D03*
X109610000Y-101575000D03*
D13*
X116820000Y-102105000D03*
D14*
X108180000Y-97925000D03*
D13*
X108180000Y-102105000D03*
D14*
X116820000Y-97925000D03*
D15*
X101505500Y-112850000D03*
X101505500Y-111150000D03*
G36*
G01*
X104170000Y-126050000D02*
X102770000Y-126050000D01*
G75*
G02*
X102470000Y-125750000I0J300000D01*
G01*
X102470000Y-123350000D01*
G75*
G02*
X102770000Y-123050000I300000J0D01*
G01*
X104170000Y-123050000D01*
G75*
G02*
X104470000Y-123350000I0J-300000D01*
G01*
X104470000Y-125750000D01*
G75*
G02*
X104170000Y-126050000I-300000J0D01*
G01*
G37*
G36*
G01*
X106710000Y-126050000D02*
X105310000Y-126050000D01*
G75*
G02*
X105010000Y-125750000I0J300000D01*
G01*
X105010000Y-123350000D01*
G75*
G02*
X105310000Y-123050000I300000J0D01*
G01*
X106710000Y-123050000D01*
G75*
G02*
X107010000Y-123350000I0J-300000D01*
G01*
X107010000Y-125750000D01*
G75*
G02*
X106710000Y-126050000I-300000J0D01*
G01*
G37*
G36*
G01*
X109250000Y-126050000D02*
X107850000Y-126050000D01*
G75*
G02*
X107550000Y-125750000I0J300000D01*
G01*
X107550000Y-123350000D01*
G75*
G02*
X107850000Y-123050000I300000J0D01*
G01*
X109250000Y-123050000D01*
G75*
G02*
X109550000Y-123350000I0J-300000D01*
G01*
X109550000Y-125750000D01*
G75*
G02*
X109250000Y-126050000I-300000J0D01*
G01*
G37*
G36*
G01*
X111790000Y-126050000D02*
X110390000Y-126050000D01*
G75*
G02*
X110090000Y-125750000I0J300000D01*
G01*
X110090000Y-123350000D01*
G75*
G02*
X110390000Y-123050000I300000J0D01*
G01*
X111790000Y-123050000D01*
G75*
G02*
X112090000Y-123350000I0J-300000D01*
G01*
X112090000Y-125750000D01*
G75*
G02*
X111790000Y-126050000I-300000J0D01*
G01*
G37*
G36*
G01*
X114330000Y-126050000D02*
X112930000Y-126050000D01*
G75*
G02*
X112630000Y-125750000I0J300000D01*
G01*
X112630000Y-123350000D01*
G75*
G02*
X112930000Y-123050000I300000J0D01*
G01*
X114330000Y-123050000D01*
G75*
G02*
X114630000Y-123350000I0J-300000D01*
G01*
X114630000Y-125750000D01*
G75*
G02*
X114330000Y-126050000I-300000J0D01*
G01*
G37*
G36*
G01*
X116870000Y-126050000D02*
X115470000Y-126050000D01*
G75*
G02*
X115170000Y-125750000I0J300000D01*
G01*
X115170000Y-123350000D01*
G75*
G02*
X115470000Y-123050000I300000J0D01*
G01*
X116870000Y-123050000D01*
G75*
G02*
X117170000Y-123350000I0J-300000D01*
G01*
X117170000Y-125750000D01*
G75*
G02*
X116870000Y-126050000I-300000J0D01*
G01*
G37*
G36*
G01*
X119410000Y-126050000D02*
X118010000Y-126050000D01*
G75*
G02*
X117710000Y-125750000I0J300000D01*
G01*
X117710000Y-123350000D01*
G75*
G02*
X118010000Y-123050000I300000J0D01*
G01*
X119410000Y-123050000D01*
G75*
G02*
X119710000Y-123350000I0J-300000D01*
G01*
X119710000Y-125750000D01*
G75*
G02*
X119410000Y-126050000I-300000J0D01*
G01*
G37*
G36*
G01*
X121950000Y-126050000D02*
X120550000Y-126050000D01*
G75*
G02*
X120250000Y-125750000I0J300000D01*
G01*
X120250000Y-123350000D01*
G75*
G02*
X120550000Y-123050000I300000J0D01*
G01*
X121950000Y-123050000D01*
G75*
G02*
X122250000Y-123350000I0J-300000D01*
G01*
X122250000Y-125750000D01*
G75*
G02*
X121950000Y-126050000I-300000J0D01*
G01*
G37*
M02*
