G04 #@! TF.GenerationSoftware,KiCad,Pcbnew,6.0.10+dfsg-1~bpo11+1*
G04 #@! TF.ProjectId,project,70726f6a-6563-4742-9e6b-696361645f70,rev?*
G04 #@! TF.SameCoordinates,Original*
G04 #@! TF.FileFunction,Copper,L2,Bot*
G04 #@! TF.FilePolarity,Positive*
%FSLAX46Y46*%
G04 Gerber Fmt 4.6, Leading zero omitted, Abs format (unit mm)*
%MOMM*%
%LPD*%
G01*
G04 APERTURE LIST*
G04 #@! TA.AperFunction,Profile*
%ADD10C,0.100000*%
G04 #@! TD*
G04 #@! TA.AperFunction,ComponentPad*
%ADD11O,1.000000X2.100000*%
G04 #@! TD*
G04 #@! TA.AperFunction,ComponentPad*
%ADD12O,1.000000X1.600000*%
G04 #@! TD*
G04 #@! TA.AperFunction,ViaPad*
%ADD13C,0.700000*%
G04 #@! TD*
G04 #@! TA.AperFunction,Conductor*
%ADD14C,0.500000*%
G04 #@! TD*
G04 #@! TA.AperFunction,Conductor*
%ADD15C,0.300000*%
G04 #@! TD*
G04 #@! TA.AperFunction,Conductor*
%ADD16C,1.000000*%
G04 #@! TD*
G04 APERTURE END LIST*
D10*
X122250000Y-126475000D02*
X101150000Y-126475000D01*
X123500000Y-98000000D02*
X123500000Y-126475000D01*
X100000000Y-98000000D02*
X100000000Y-126475000D01*
X123500000Y-98000000D02*
G75*
G03*
X121500000Y-96000000I-2000000J0D01*
G01*
X122250000Y-126475000D02*
X123500000Y-126475000D01*
X102000000Y-96000000D02*
X121500000Y-96000000D01*
X101150000Y-126475000D02*
X100000000Y-126475000D01*
X102000000Y-96000000D02*
G75*
G03*
X100000000Y-98000000I0J-2000000D01*
G01*
D11*
X116820000Y-102105000D03*
X108180000Y-102105000D03*
D12*
X108180000Y-97925000D03*
X116820000Y-97925000D03*
G04 #@! TA.AperFunction,ConnectorPad*
G36*
G01*
X104120000Y-126050000D02*
X102720000Y-126050000D01*
G75*
G02*
X102420000Y-125750000I0J300000D01*
G01*
X102420000Y-123350000D01*
G75*
G02*
X102720000Y-123050000I300000J0D01*
G01*
X104120000Y-123050000D01*
G75*
G02*
X104420000Y-123350000I0J-300000D01*
G01*
X104420000Y-125750000D01*
G75*
G02*
X104120000Y-126050000I-300000J0D01*
G01*
G37*
G04 #@! TD.AperFunction*
G04 #@! TA.AperFunction,ConnectorPad*
G36*
G01*
X106660000Y-126050000D02*
X105260000Y-126050000D01*
G75*
G02*
X104960000Y-125750000I0J300000D01*
G01*
X104960000Y-123350000D01*
G75*
G02*
X105260000Y-123050000I300000J0D01*
G01*
X106660000Y-123050000D01*
G75*
G02*
X106960000Y-123350000I0J-300000D01*
G01*
X106960000Y-125750000D01*
G75*
G02*
X106660000Y-126050000I-300000J0D01*
G01*
G37*
G04 #@! TD.AperFunction*
G04 #@! TA.AperFunction,ConnectorPad*
G36*
G01*
X109200000Y-126050000D02*
X107800000Y-126050000D01*
G75*
G02*
X107500000Y-125750000I0J300000D01*
G01*
X107500000Y-123350000D01*
G75*
G02*
X107800000Y-123050000I300000J0D01*
G01*
X109200000Y-123050000D01*
G75*
G02*
X109500000Y-123350000I0J-300000D01*
G01*
X109500000Y-125750000D01*
G75*
G02*
X109200000Y-126050000I-300000J0D01*
G01*
G37*
G04 #@! TD.AperFunction*
G04 #@! TA.AperFunction,ConnectorPad*
G36*
G01*
X111740000Y-126050000D02*
X110340000Y-126050000D01*
G75*
G02*
X110040000Y-125750000I0J300000D01*
G01*
X110040000Y-123350000D01*
G75*
G02*
X110340000Y-123050000I300000J0D01*
G01*
X111740000Y-123050000D01*
G75*
G02*
X112040000Y-123350000I0J-300000D01*
G01*
X112040000Y-125750000D01*
G75*
G02*
X111740000Y-126050000I-300000J0D01*
G01*
G37*
G04 #@! TD.AperFunction*
G04 #@! TA.AperFunction,ConnectorPad*
G36*
G01*
X114280000Y-126050000D02*
X112880000Y-126050000D01*
G75*
G02*
X112580000Y-125750000I0J300000D01*
G01*
X112580000Y-123350000D01*
G75*
G02*
X112880000Y-123050000I300000J0D01*
G01*
X114280000Y-123050000D01*
G75*
G02*
X114580000Y-123350000I0J-300000D01*
G01*
X114580000Y-125750000D01*
G75*
G02*
X114280000Y-126050000I-300000J0D01*
G01*
G37*
G04 #@! TD.AperFunction*
G04 #@! TA.AperFunction,ConnectorPad*
G36*
G01*
X116820000Y-126050000D02*
X115420000Y-126050000D01*
G75*
G02*
X115120000Y-125750000I0J300000D01*
G01*
X115120000Y-123350000D01*
G75*
G02*
X115420000Y-123050000I300000J0D01*
G01*
X116820000Y-123050000D01*
G75*
G02*
X117120000Y-123350000I0J-300000D01*
G01*
X117120000Y-125750000D01*
G75*
G02*
X116820000Y-126050000I-300000J0D01*
G01*
G37*
G04 #@! TD.AperFunction*
G04 #@! TA.AperFunction,ConnectorPad*
G36*
G01*
X119360000Y-126050000D02*
X117960000Y-126050000D01*
G75*
G02*
X117660000Y-125750000I0J300000D01*
G01*
X117660000Y-123350000D01*
G75*
G02*
X117960000Y-123050000I300000J0D01*
G01*
X119360000Y-123050000D01*
G75*
G02*
X119660000Y-123350000I0J-300000D01*
G01*
X119660000Y-125750000D01*
G75*
G02*
X119360000Y-126050000I-300000J0D01*
G01*
G37*
G04 #@! TD.AperFunction*
G04 #@! TA.AperFunction,ConnectorPad*
G36*
G01*
X121900000Y-126050000D02*
X120500000Y-126050000D01*
G75*
G02*
X120200000Y-125750000I0J300000D01*
G01*
X120200000Y-123350000D01*
G75*
G02*
X120500000Y-123050000I300000J0D01*
G01*
X121900000Y-123050000D01*
G75*
G02*
X122200000Y-123350000I0J-300000D01*
G01*
X122200000Y-125750000D01*
G75*
G02*
X121900000Y-126050000I-300000J0D01*
G01*
G37*
G04 #@! TD.AperFunction*
D13*
X109487500Y-119787500D03*
X117900000Y-111800000D03*
X100962500Y-106412500D03*
X105200000Y-98387500D03*
X120420000Y-117780000D03*
X101700000Y-98500000D03*
X117945000Y-108330000D03*
X122700000Y-109125000D03*
X108200000Y-103900000D03*
X121100000Y-106275000D03*
X122000000Y-106275000D03*
X115850000Y-104125000D03*
X120050000Y-100725000D03*
X102200000Y-110000000D03*
X122700000Y-116825000D03*
X114500000Y-106575000D03*
X122100000Y-117700000D03*
X118601472Y-102475000D03*
X109050000Y-103850000D03*
X116950736Y-104125736D03*
X103500000Y-98400000D03*
X105543726Y-100443779D03*
X119512500Y-114212500D03*
X121300000Y-119700000D03*
X106312500Y-108562500D03*
X119400000Y-116700000D03*
X112400000Y-99224500D03*
X112417763Y-101246242D03*
X111500000Y-99774500D03*
X111549216Y-101747850D03*
X104700000Y-121700000D03*
X106200000Y-121700000D03*
X115200000Y-121700000D03*
X114950000Y-117600000D03*
X117200000Y-121700000D03*
X119400000Y-121700000D03*
X107100000Y-114200500D03*
X107100000Y-117700000D03*
X106500000Y-113400000D03*
X106000000Y-117700000D03*
X105400000Y-102375000D03*
X101700000Y-102275000D03*
D14*
X103525000Y-98400000D02*
X105543726Y-100418726D01*
X103500000Y-98400000D02*
X103525000Y-98400000D01*
X105543726Y-100418726D02*
X105543726Y-100443779D01*
X119400000Y-118275000D02*
X119400000Y-116700000D01*
X117300000Y-110775000D02*
X118500000Y-110775000D01*
X121300000Y-119700000D02*
X120825000Y-119700000D01*
X118500000Y-110775000D02*
X119512500Y-111787500D01*
X109725000Y-111975000D02*
X116100000Y-111975000D01*
X120825000Y-119700000D02*
X119400000Y-118275000D01*
X119512500Y-111787500D02*
X119512500Y-114212500D01*
X116100000Y-111975000D02*
X117300000Y-110775000D01*
X106312500Y-108562500D02*
X109725000Y-111975000D01*
D15*
X112400000Y-101228479D02*
X112417763Y-101246242D01*
X112400000Y-99224500D02*
X112400000Y-101228479D01*
X111500000Y-99774500D02*
X111500000Y-101698634D01*
X111500000Y-101698634D02*
X111549216Y-101747850D01*
D14*
X103420000Y-122680000D02*
X103420000Y-124550000D01*
X104700000Y-121700000D02*
X104400000Y-121700000D01*
X104400000Y-121700000D02*
X103420000Y-122680000D01*
X106200000Y-121700000D02*
X105960000Y-121940000D01*
X105960000Y-121940000D02*
X105960000Y-124550000D01*
X113580000Y-122720000D02*
X113580000Y-124550000D01*
X114600000Y-121700000D02*
X113580000Y-122720000D01*
X114950000Y-117600000D02*
X115200000Y-117850000D01*
X115200000Y-117850000D02*
X115200000Y-121700000D01*
X115200000Y-121700000D02*
X114600000Y-121700000D01*
X117200000Y-121700000D02*
X116120000Y-122780000D01*
X116120000Y-122780000D02*
X116120000Y-124550000D01*
X119400000Y-121700000D02*
X118660000Y-122440000D01*
X118660000Y-122440000D02*
X118660000Y-124550000D01*
X107100000Y-114200500D02*
X107100000Y-117700000D01*
X106500000Y-113400000D02*
X106000000Y-113900000D01*
X105300000Y-102275000D02*
X105400000Y-102375000D01*
X106000000Y-113900000D02*
X106000000Y-117700000D01*
X101700000Y-102275000D02*
X105300000Y-102275000D01*
D16*
X108180000Y-102105000D02*
X108180000Y-97925000D01*
X116820000Y-102105000D02*
X116820000Y-97925000D01*
G04 #@! TA.AperFunction,Conductor*
G36*
X121478274Y-96402051D02*
G01*
X121500000Y-96405492D01*
X121509793Y-96403941D01*
X121516150Y-96403941D01*
X121536131Y-96403084D01*
X121698466Y-96414695D01*
X121718642Y-96416138D01*
X121736436Y-96418696D01*
X121941826Y-96463376D01*
X121959074Y-96468440D01*
X122156015Y-96541896D01*
X122172367Y-96549364D01*
X122356847Y-96650097D01*
X122371971Y-96659817D01*
X122540239Y-96785781D01*
X122553825Y-96797554D01*
X122702446Y-96946175D01*
X122714219Y-96959761D01*
X122840183Y-97128029D01*
X122849903Y-97143153D01*
X122950636Y-97327633D01*
X122958104Y-97343985D01*
X123031560Y-97540926D01*
X123036624Y-97558174D01*
X123059784Y-97664639D01*
X123081304Y-97763564D01*
X123083862Y-97781358D01*
X123096916Y-97963869D01*
X123096059Y-97983850D01*
X123096059Y-97990207D01*
X123094508Y-98000000D01*
X123096059Y-98009793D01*
X123097949Y-98021726D01*
X123099500Y-98041436D01*
X123099500Y-125948500D01*
X123079498Y-126016621D01*
X123025842Y-126063114D01*
X122973500Y-126074500D01*
X120163964Y-126074500D01*
X120095843Y-126054498D01*
X120049350Y-126000842D01*
X120039246Y-125930568D01*
X120043729Y-125910822D01*
X120053829Y-125878594D01*
X120060500Y-125805993D01*
X120060499Y-123294008D01*
X120060234Y-123291116D01*
X120054440Y-123228060D01*
X120053829Y-123221406D01*
X120003127Y-123059617D01*
X119915297Y-122914592D01*
X119795408Y-122794703D01*
X119650383Y-122706873D01*
X119643136Y-122704602D01*
X119643134Y-122704601D01*
X119592087Y-122688604D01*
X119533065Y-122649146D01*
X119504745Y-122584043D01*
X119516118Y-122513963D01*
X119540671Y-122479275D01*
X119572333Y-122447613D01*
X119622492Y-122416875D01*
X119705298Y-122389970D01*
X119705301Y-122389969D01*
X119711997Y-122387793D01*
X119856623Y-122301578D01*
X119861717Y-122296727D01*
X119861721Y-122296724D01*
X119973454Y-122190322D01*
X119973455Y-122190320D01*
X119978554Y-122185465D01*
X119982454Y-122179596D01*
X120065496Y-122054607D01*
X120071731Y-122045223D01*
X120080781Y-122021400D01*
X120129019Y-121894409D01*
X120131521Y-121887823D01*
X120154955Y-121721088D01*
X120155249Y-121700000D01*
X120136481Y-121532676D01*
X120081108Y-121373668D01*
X119991884Y-121230879D01*
X119983104Y-121222037D01*
X119878205Y-121116403D01*
X119878201Y-121116400D01*
X119873242Y-121111406D01*
X119858878Y-121102290D01*
X119804602Y-121067846D01*
X119731079Y-121021187D01*
X119572462Y-120964706D01*
X119565474Y-120963873D01*
X119565471Y-120963872D01*
X119472300Y-120952762D01*
X119405273Y-120944769D01*
X119398270Y-120945505D01*
X119398269Y-120945505D01*
X119352712Y-120950293D01*
X119237821Y-120962369D01*
X119231155Y-120964638D01*
X119231152Y-120964639D01*
X119085098Y-121014360D01*
X119085095Y-121014361D01*
X119078431Y-121016630D01*
X119072436Y-121020318D01*
X119072432Y-121020320D01*
X118941021Y-121101165D01*
X118941019Y-121101167D01*
X118935022Y-121104856D01*
X118914011Y-121125432D01*
X118833957Y-121203827D01*
X118814724Y-121222661D01*
X118723515Y-121364190D01*
X118721105Y-121370810D01*
X118721104Y-121370813D01*
X118680220Y-121483140D01*
X118650914Y-121529140D01*
X118257302Y-121922752D01*
X118248685Y-121930593D01*
X118242060Y-121934798D01*
X118236633Y-121940577D01*
X118236632Y-121940578D01*
X118194151Y-121985816D01*
X118191396Y-121988658D01*
X118171089Y-122008965D01*
X118168660Y-122012096D01*
X118168655Y-122012102D01*
X118168442Y-122012377D01*
X118160745Y-122021390D01*
X118129552Y-122054607D01*
X118128446Y-122053568D01*
X118079250Y-122091504D01*
X118008514Y-122097579D01*
X117945722Y-122064448D01*
X117910810Y-122002628D01*
X117915748Y-121929346D01*
X117929019Y-121894409D01*
X117931521Y-121887823D01*
X117954955Y-121721088D01*
X117955249Y-121700000D01*
X117936481Y-121532676D01*
X117881108Y-121373668D01*
X117791884Y-121230879D01*
X117783104Y-121222037D01*
X117678205Y-121116403D01*
X117678201Y-121116400D01*
X117673242Y-121111406D01*
X117658878Y-121102290D01*
X117604602Y-121067846D01*
X117531079Y-121021187D01*
X117372462Y-120964706D01*
X117365474Y-120963873D01*
X117365471Y-120963872D01*
X117272300Y-120952762D01*
X117205273Y-120944769D01*
X117198270Y-120945505D01*
X117198269Y-120945505D01*
X117152712Y-120950293D01*
X117037821Y-120962369D01*
X117031155Y-120964638D01*
X117031152Y-120964639D01*
X116885098Y-121014360D01*
X116885095Y-121014361D01*
X116878431Y-121016630D01*
X116872436Y-121020318D01*
X116872432Y-121020320D01*
X116741021Y-121101165D01*
X116741019Y-121101167D01*
X116735022Y-121104856D01*
X116714011Y-121125432D01*
X116633957Y-121203827D01*
X116614724Y-121222661D01*
X116523515Y-121364190D01*
X116521105Y-121370810D01*
X116521104Y-121370813D01*
X116480220Y-121483140D01*
X116450914Y-121529140D01*
X116170065Y-121809989D01*
X116107753Y-121844015D01*
X116036938Y-121838950D01*
X115980102Y-121796403D01*
X115955291Y-121729883D01*
X115954982Y-121719136D01*
X115955194Y-121703946D01*
X115955249Y-121700000D01*
X115936481Y-121532676D01*
X115881108Y-121373668D01*
X115869646Y-121355325D01*
X115850500Y-121288555D01*
X115850500Y-117930999D01*
X115851049Y-117919359D01*
X115852760Y-117911703D01*
X115850562Y-117841768D01*
X115850500Y-117837811D01*
X115850500Y-117809075D01*
X115849961Y-117804807D01*
X115849028Y-117792964D01*
X115847899Y-117757025D01*
X115847597Y-117747430D01*
X115841722Y-117727208D01*
X115837711Y-117707842D01*
X115836065Y-117694806D01*
X115836064Y-117694801D01*
X115835071Y-117686942D01*
X115818297Y-117644574D01*
X115814458Y-117633361D01*
X115803955Y-117597211D01*
X115801744Y-117589601D01*
X115791019Y-117571466D01*
X115782320Y-117553709D01*
X115777486Y-117541498D01*
X115777485Y-117541496D01*
X115774568Y-117534129D01*
X115747788Y-117497269D01*
X115741272Y-117487349D01*
X115718081Y-117448135D01*
X115703188Y-117433242D01*
X115690348Y-117418210D01*
X115688587Y-117415786D01*
X115684181Y-117409722D01*
X115667127Y-117377099D01*
X115633427Y-117280325D01*
X115633424Y-117280319D01*
X115631108Y-117273668D01*
X115541884Y-117130879D01*
X115533723Y-117122661D01*
X115428205Y-117016403D01*
X115428201Y-117016400D01*
X115423242Y-117011406D01*
X115281079Y-116921187D01*
X115122462Y-116864706D01*
X115115474Y-116863873D01*
X115115471Y-116863872D01*
X115022300Y-116852762D01*
X114955273Y-116844769D01*
X114948270Y-116845505D01*
X114948269Y-116845505D01*
X114905351Y-116850016D01*
X114787821Y-116862369D01*
X114781155Y-116864638D01*
X114781152Y-116864639D01*
X114635098Y-116914360D01*
X114635095Y-116914361D01*
X114628431Y-116916630D01*
X114622436Y-116920318D01*
X114622432Y-116920320D01*
X114491021Y-117001165D01*
X114491019Y-117001167D01*
X114485022Y-117004856D01*
X114466688Y-117022810D01*
X114377731Y-117109924D01*
X114364724Y-117122661D01*
X114273515Y-117264190D01*
X114271105Y-117270810D01*
X114271104Y-117270813D01*
X114251793Y-117323869D01*
X114215927Y-117422409D01*
X114194825Y-117589455D01*
X114195512Y-117596462D01*
X114195512Y-117596465D01*
X114200231Y-117644589D01*
X114211255Y-117757025D01*
X114264402Y-117916791D01*
X114268049Y-117922813D01*
X114268050Y-117922815D01*
X114320917Y-118010108D01*
X114351624Y-118060812D01*
X114468586Y-118181929D01*
X114492493Y-118197574D01*
X114538541Y-118251609D01*
X114549500Y-118303005D01*
X114549500Y-120939625D01*
X114529498Y-121007746D01*
X114475842Y-121054239D01*
X114452230Y-121060955D01*
X114452489Y-121061963D01*
X114444806Y-121063936D01*
X114436942Y-121064929D01*
X114429571Y-121067848D01*
X114429569Y-121067848D01*
X114394580Y-121081702D01*
X114383369Y-121085541D01*
X114339602Y-121098256D01*
X114321470Y-121108979D01*
X114321467Y-121108981D01*
X114303719Y-121117676D01*
X114284129Y-121125432D01*
X114247270Y-121152212D01*
X114237354Y-121158725D01*
X114204958Y-121177883D01*
X114204953Y-121177887D01*
X114198135Y-121181919D01*
X114183242Y-121196812D01*
X114168208Y-121209653D01*
X114151163Y-121222037D01*
X114146110Y-121228145D01*
X114122121Y-121257143D01*
X114114131Y-121265923D01*
X113177302Y-122202752D01*
X113168685Y-122210593D01*
X113162060Y-122214798D01*
X113156633Y-122220577D01*
X113156632Y-122220578D01*
X113114151Y-122265816D01*
X113111396Y-122268658D01*
X113091089Y-122288965D01*
X113088660Y-122292096D01*
X113088655Y-122292102D01*
X113088442Y-122292377D01*
X113080745Y-122301390D01*
X113049552Y-122334607D01*
X113045733Y-122341554D01*
X113039404Y-122353066D01*
X113028550Y-122369590D01*
X113015638Y-122386236D01*
X112998335Y-122426222D01*
X112997546Y-122428045D01*
X112992330Y-122438693D01*
X112970373Y-122478632D01*
X112968402Y-122486311D01*
X112968401Y-122486312D01*
X112965133Y-122499041D01*
X112958727Y-122517750D01*
X112953512Y-122529800D01*
X112953510Y-122529805D01*
X112950365Y-122537074D01*
X112949126Y-122544897D01*
X112946912Y-122552517D01*
X112945214Y-122552024D01*
X112918985Y-122607360D01*
X112858719Y-122644890D01*
X112829749Y-122648845D01*
X112829773Y-122649369D01*
X112826888Y-122649501D01*
X112824008Y-122649501D01*
X112821150Y-122649764D01*
X112821141Y-122649764D01*
X112785757Y-122653015D01*
X112751406Y-122656171D01*
X112745028Y-122658170D01*
X112745027Y-122658170D01*
X112596866Y-122704601D01*
X112596864Y-122704602D01*
X112589617Y-122706873D01*
X112444592Y-122794703D01*
X112399095Y-122840200D01*
X112336783Y-122874226D01*
X112265968Y-122869161D01*
X112220905Y-122840200D01*
X112175408Y-122794703D01*
X112030383Y-122706873D01*
X112023136Y-122704602D01*
X112023134Y-122704601D01*
X111956292Y-122683654D01*
X111868594Y-122656171D01*
X111795993Y-122649500D01*
X111793095Y-122649500D01*
X111038039Y-122649501D01*
X110284008Y-122649501D01*
X110281150Y-122649764D01*
X110281141Y-122649764D01*
X110245757Y-122653015D01*
X110211406Y-122656171D01*
X110205028Y-122658170D01*
X110205027Y-122658170D01*
X110056866Y-122704601D01*
X110056864Y-122704602D01*
X110049617Y-122706873D01*
X109904592Y-122794703D01*
X109859095Y-122840200D01*
X109796783Y-122874226D01*
X109725968Y-122869161D01*
X109680905Y-122840200D01*
X109635408Y-122794703D01*
X109490383Y-122706873D01*
X109483136Y-122704602D01*
X109483134Y-122704601D01*
X109416292Y-122683654D01*
X109328594Y-122656171D01*
X109255993Y-122649500D01*
X109253095Y-122649500D01*
X108498039Y-122649501D01*
X107744008Y-122649501D01*
X107741150Y-122649764D01*
X107741141Y-122649764D01*
X107705757Y-122653015D01*
X107671406Y-122656171D01*
X107665028Y-122658170D01*
X107665027Y-122658170D01*
X107516866Y-122704601D01*
X107516864Y-122704602D01*
X107509617Y-122706873D01*
X107364592Y-122794703D01*
X107319095Y-122840200D01*
X107256783Y-122874226D01*
X107185968Y-122869161D01*
X107140905Y-122840200D01*
X107095408Y-122794703D01*
X106950383Y-122706873D01*
X106943136Y-122704602D01*
X106943134Y-122704601D01*
X106876292Y-122683654D01*
X106788594Y-122656171D01*
X106724971Y-122650325D01*
X106658966Y-122624174D01*
X106617578Y-122566490D01*
X106610500Y-122524854D01*
X106610500Y-122398149D01*
X106630502Y-122330028D01*
X106656719Y-122301679D01*
X106656623Y-122301578D01*
X106658215Y-122300062D01*
X106747751Y-122214798D01*
X106773454Y-122190322D01*
X106773455Y-122190320D01*
X106778554Y-122185465D01*
X106782454Y-122179596D01*
X106865496Y-122054607D01*
X106871731Y-122045223D01*
X106880781Y-122021400D01*
X106929019Y-121894409D01*
X106931521Y-121887823D01*
X106954955Y-121721088D01*
X106955249Y-121700000D01*
X106936481Y-121532676D01*
X106881108Y-121373668D01*
X106791884Y-121230879D01*
X106783104Y-121222037D01*
X106678205Y-121116403D01*
X106678201Y-121116400D01*
X106673242Y-121111406D01*
X106658878Y-121102290D01*
X106604602Y-121067846D01*
X106531079Y-121021187D01*
X106372462Y-120964706D01*
X106365474Y-120963873D01*
X106365471Y-120963872D01*
X106272300Y-120952762D01*
X106205273Y-120944769D01*
X106198270Y-120945505D01*
X106198269Y-120945505D01*
X106152712Y-120950293D01*
X106037821Y-120962369D01*
X106031155Y-120964638D01*
X106031152Y-120964639D01*
X105885098Y-121014360D01*
X105885095Y-121014361D01*
X105878431Y-121016630D01*
X105872436Y-121020318D01*
X105872432Y-121020320D01*
X105741021Y-121101165D01*
X105741019Y-121101167D01*
X105735022Y-121104856D01*
X105714011Y-121125432D01*
X105633957Y-121203827D01*
X105614724Y-121222661D01*
X105610908Y-121228583D01*
X105555759Y-121314157D01*
X105502045Y-121360582D01*
X105431758Y-121370597D01*
X105367215Y-121341022D01*
X105342994Y-121312672D01*
X105295617Y-121236853D01*
X105291884Y-121230879D01*
X105283104Y-121222037D01*
X105178205Y-121116403D01*
X105178201Y-121116400D01*
X105173242Y-121111406D01*
X105158878Y-121102290D01*
X105104602Y-121067846D01*
X105031079Y-121021187D01*
X104872462Y-120964706D01*
X104865474Y-120963873D01*
X104865471Y-120963872D01*
X104772300Y-120952762D01*
X104705273Y-120944769D01*
X104698270Y-120945505D01*
X104698269Y-120945505D01*
X104652712Y-120950293D01*
X104537821Y-120962369D01*
X104531155Y-120964638D01*
X104531152Y-120964639D01*
X104385098Y-121014360D01*
X104385095Y-121014361D01*
X104378431Y-121016630D01*
X104372430Y-121020322D01*
X104347449Y-121035690D01*
X104302719Y-121052237D01*
X104297430Y-121052403D01*
X104280523Y-121057315D01*
X104277208Y-121058278D01*
X104257844Y-121062289D01*
X104255665Y-121062564D01*
X104244806Y-121063935D01*
X104244801Y-121063936D01*
X104236942Y-121064929D01*
X104194577Y-121081702D01*
X104183361Y-121085542D01*
X104147211Y-121096045D01*
X104139601Y-121098256D01*
X104121466Y-121108981D01*
X104103712Y-121117678D01*
X104098083Y-121119907D01*
X104091498Y-121122514D01*
X104091496Y-121122515D01*
X104084129Y-121125432D01*
X104055633Y-121146135D01*
X104047269Y-121152212D01*
X104037354Y-121158725D01*
X103998135Y-121181919D01*
X103983242Y-121196812D01*
X103968208Y-121209653D01*
X103951163Y-121222037D01*
X103946110Y-121228145D01*
X103922121Y-121257143D01*
X103914131Y-121265923D01*
X103017302Y-122162752D01*
X103008685Y-122170593D01*
X103002060Y-122174798D01*
X102996633Y-122180577D01*
X102996632Y-122180578D01*
X102954151Y-122225816D01*
X102951408Y-122228646D01*
X102931089Y-122248965D01*
X102928660Y-122252096D01*
X102928655Y-122252102D01*
X102928442Y-122252377D01*
X102920745Y-122261390D01*
X102889552Y-122294607D01*
X102885733Y-122301554D01*
X102879404Y-122313066D01*
X102868550Y-122329590D01*
X102860496Y-122339973D01*
X102855638Y-122346236D01*
X102838329Y-122386236D01*
X102837546Y-122388045D01*
X102832330Y-122398693D01*
X102810373Y-122438632D01*
X102808402Y-122446311D01*
X102808401Y-122446312D01*
X102805133Y-122459041D01*
X102798727Y-122477750D01*
X102793512Y-122489800D01*
X102793510Y-122489805D01*
X102790365Y-122497074D01*
X102783856Y-122538169D01*
X102783239Y-122542065D01*
X102780836Y-122553670D01*
X102780476Y-122555073D01*
X102744171Y-122616085D01*
X102680644Y-122647783D01*
X102665301Y-122649501D01*
X102664008Y-122649501D01*
X102591406Y-122656171D01*
X102585028Y-122658170D01*
X102585027Y-122658170D01*
X102436866Y-122704601D01*
X102436864Y-122704602D01*
X102429617Y-122706873D01*
X102284592Y-122794703D01*
X102164703Y-122914592D01*
X102076873Y-123059617D01*
X102026171Y-123221406D01*
X102019500Y-123294007D01*
X102019501Y-125805992D01*
X102019764Y-125808850D01*
X102019764Y-125808859D01*
X102023015Y-125844243D01*
X102026171Y-125878594D01*
X102036271Y-125910822D01*
X102037554Y-125981807D01*
X102000256Y-126042217D01*
X101936219Y-126072873D01*
X101916036Y-126074500D01*
X100526500Y-126074500D01*
X100458379Y-126054498D01*
X100411886Y-126000842D01*
X100400500Y-125948500D01*
X100400500Y-117689455D01*
X105244825Y-117689455D01*
X105245512Y-117696462D01*
X105245512Y-117696465D01*
X105250509Y-117747430D01*
X105261255Y-117857025D01*
X105314402Y-118016791D01*
X105401624Y-118160812D01*
X105406513Y-118165875D01*
X105406514Y-118165876D01*
X105459959Y-118221219D01*
X105518586Y-118281929D01*
X105524483Y-118285788D01*
X105653577Y-118370266D01*
X105653581Y-118370268D01*
X105659475Y-118374125D01*
X105817289Y-118432815D01*
X105824270Y-118433746D01*
X105824272Y-118433747D01*
X105869812Y-118439823D01*
X105984183Y-118455083D01*
X105991194Y-118454445D01*
X105991198Y-118454445D01*
X106144843Y-118440462D01*
X106151864Y-118439823D01*
X106158566Y-118437645D01*
X106158568Y-118437645D01*
X106305298Y-118389970D01*
X106305301Y-118389969D01*
X106311997Y-118387793D01*
X106456623Y-118301578D01*
X106462516Y-118295966D01*
X106463146Y-118295642D01*
X106467335Y-118292462D01*
X106467894Y-118293198D01*
X106525640Y-118263472D01*
X106596311Y-118270264D01*
X106617853Y-118283050D01*
X106618586Y-118281929D01*
X106753577Y-118370266D01*
X106753581Y-118370268D01*
X106759475Y-118374125D01*
X106917289Y-118432815D01*
X106924270Y-118433746D01*
X106924272Y-118433747D01*
X106969812Y-118439823D01*
X107084183Y-118455083D01*
X107091194Y-118454445D01*
X107091198Y-118454445D01*
X107244843Y-118440462D01*
X107251864Y-118439823D01*
X107258566Y-118437645D01*
X107258568Y-118437645D01*
X107405298Y-118389970D01*
X107405301Y-118389969D01*
X107411997Y-118387793D01*
X107556623Y-118301578D01*
X107561717Y-118296727D01*
X107561721Y-118296724D01*
X107673454Y-118190322D01*
X107673455Y-118190320D01*
X107678554Y-118185465D01*
X107694934Y-118160812D01*
X107758009Y-118065876D01*
X107771731Y-118045223D01*
X107831521Y-117887823D01*
X107854955Y-117721088D01*
X107855249Y-117700000D01*
X107849034Y-117644589D01*
X107837266Y-117539672D01*
X107837265Y-117539669D01*
X107836481Y-117532676D01*
X107781108Y-117373668D01*
X107769646Y-117355325D01*
X107750500Y-117288555D01*
X107750500Y-116689455D01*
X118644825Y-116689455D01*
X118645512Y-116696462D01*
X118645512Y-116696465D01*
X118648311Y-116725010D01*
X118661255Y-116857025D01*
X118714402Y-117016791D01*
X118731277Y-117044655D01*
X118749500Y-117109924D01*
X118749500Y-118194000D01*
X118748951Y-118205640D01*
X118747240Y-118213296D01*
X118747489Y-118221219D01*
X118749438Y-118283230D01*
X118749500Y-118287188D01*
X118749500Y-118315925D01*
X118749995Y-118319842D01*
X118750039Y-118320191D01*
X118750971Y-118332024D01*
X118752403Y-118377569D01*
X118754615Y-118385183D01*
X118754616Y-118385188D01*
X118758278Y-118397792D01*
X118762289Y-118417156D01*
X118764929Y-118438058D01*
X118767848Y-118445429D01*
X118767848Y-118445431D01*
X118781702Y-118480420D01*
X118785541Y-118491631D01*
X118798256Y-118535398D01*
X118808981Y-118553533D01*
X118817676Y-118571281D01*
X118825432Y-118590871D01*
X118852218Y-118627738D01*
X118858725Y-118637646D01*
X118877883Y-118670042D01*
X118877887Y-118670047D01*
X118881919Y-118676865D01*
X118896812Y-118691758D01*
X118909653Y-118706792D01*
X118922037Y-118723837D01*
X118928145Y-118728890D01*
X118957143Y-118752879D01*
X118965923Y-118760869D01*
X120307752Y-120102698D01*
X120315593Y-120111315D01*
X120319798Y-120117940D01*
X120325577Y-120123367D01*
X120325578Y-120123368D01*
X120370816Y-120165849D01*
X120373658Y-120168604D01*
X120393965Y-120188911D01*
X120397096Y-120191340D01*
X120397102Y-120191345D01*
X120397377Y-120191558D01*
X120406390Y-120199255D01*
X120439607Y-120230448D01*
X120446554Y-120234267D01*
X120458066Y-120240596D01*
X120474590Y-120251450D01*
X120491236Y-120264362D01*
X120525681Y-120279268D01*
X120533041Y-120282453D01*
X120543700Y-120287675D01*
X120576686Y-120305809D01*
X120576690Y-120305810D01*
X120583632Y-120309627D01*
X120591305Y-120311597D01*
X120591307Y-120311598D01*
X120604036Y-120314866D01*
X120622740Y-120321270D01*
X120634793Y-120326486D01*
X120634802Y-120326489D01*
X120642073Y-120329635D01*
X120649901Y-120330875D01*
X120649902Y-120330875D01*
X120687067Y-120336761D01*
X120698693Y-120339169D01*
X120735146Y-120348529D01*
X120735147Y-120348529D01*
X120742823Y-120350500D01*
X120763890Y-120350500D01*
X120783602Y-120352051D01*
X120804405Y-120355346D01*
X120812297Y-120354600D01*
X120849756Y-120351059D01*
X120861614Y-120350500D01*
X120885810Y-120350500D01*
X120946529Y-120368603D01*
X120947292Y-120367092D01*
X120953588Y-120370272D01*
X120959475Y-120374125D01*
X120966067Y-120376577D01*
X120966070Y-120376578D01*
X120996227Y-120387793D01*
X121117289Y-120432815D01*
X121124270Y-120433746D01*
X121124272Y-120433747D01*
X121169812Y-120439823D01*
X121284183Y-120455083D01*
X121291194Y-120454445D01*
X121291198Y-120454445D01*
X121444843Y-120440462D01*
X121451864Y-120439823D01*
X121458566Y-120437645D01*
X121458568Y-120437645D01*
X121605298Y-120389970D01*
X121605301Y-120389969D01*
X121611997Y-120387793D01*
X121756623Y-120301578D01*
X121761717Y-120296727D01*
X121761721Y-120296724D01*
X121873454Y-120190322D01*
X121873455Y-120190320D01*
X121878554Y-120185465D01*
X121889757Y-120168604D01*
X121929229Y-120109193D01*
X121971731Y-120045223D01*
X122031521Y-119887823D01*
X122054955Y-119721088D01*
X122055249Y-119700000D01*
X122036481Y-119532676D01*
X121981108Y-119373668D01*
X121891884Y-119230879D01*
X121886920Y-119225880D01*
X121778205Y-119116403D01*
X121778201Y-119116400D01*
X121773242Y-119111406D01*
X121631079Y-119021187D01*
X121472462Y-118964706D01*
X121465474Y-118963873D01*
X121465471Y-118963872D01*
X121372300Y-118952762D01*
X121305273Y-118944769D01*
X121298270Y-118945505D01*
X121298269Y-118945505D01*
X121252712Y-118950293D01*
X121137821Y-118962369D01*
X121131152Y-118964639D01*
X121131149Y-118964640D01*
X121114702Y-118970239D01*
X121043770Y-118973257D01*
X120985002Y-118940056D01*
X120087405Y-118042459D01*
X120053379Y-117980147D01*
X120050500Y-117953364D01*
X120050500Y-117115220D01*
X120067538Y-117058862D01*
X120064612Y-117057359D01*
X120067836Y-117051085D01*
X120071731Y-117045223D01*
X120085193Y-117009785D01*
X120120578Y-116916630D01*
X120131521Y-116887823D01*
X120154955Y-116721088D01*
X120155249Y-116700000D01*
X120136481Y-116532676D01*
X120081108Y-116373668D01*
X119991884Y-116230879D01*
X119983723Y-116222661D01*
X119878205Y-116116403D01*
X119878201Y-116116400D01*
X119873242Y-116111406D01*
X119731079Y-116021187D01*
X119572462Y-115964706D01*
X119565474Y-115963873D01*
X119565471Y-115963872D01*
X119472300Y-115952762D01*
X119405273Y-115944769D01*
X119398270Y-115945505D01*
X119398269Y-115945505D01*
X119352712Y-115950293D01*
X119237821Y-115962369D01*
X119231155Y-115964638D01*
X119231152Y-115964639D01*
X119085098Y-116014360D01*
X119085095Y-116014361D01*
X119078431Y-116016630D01*
X119072436Y-116020318D01*
X119072432Y-116020320D01*
X118941021Y-116101165D01*
X118941019Y-116101167D01*
X118935022Y-116104856D01*
X118814724Y-116222661D01*
X118723515Y-116364190D01*
X118665927Y-116522409D01*
X118644825Y-116689455D01*
X107750500Y-116689455D01*
X107750500Y-114615720D01*
X107767538Y-114559362D01*
X107764612Y-114557859D01*
X107767836Y-114551585D01*
X107771731Y-114545723D01*
X107780512Y-114522608D01*
X107824461Y-114406909D01*
X107831521Y-114388323D01*
X107852717Y-114237510D01*
X107854404Y-114225510D01*
X107854404Y-114225506D01*
X107854955Y-114221588D01*
X107855249Y-114200500D01*
X107854809Y-114196577D01*
X107837266Y-114040172D01*
X107837265Y-114040169D01*
X107836481Y-114033176D01*
X107781108Y-113874168D01*
X107691884Y-113731379D01*
X107685448Y-113724898D01*
X107578205Y-113616903D01*
X107578201Y-113616900D01*
X107573242Y-113611906D01*
X107554600Y-113600075D01*
X107475047Y-113549590D01*
X107431079Y-113521687D01*
X107336323Y-113487946D01*
X107278859Y-113446252D01*
X107253375Y-113383292D01*
X107237266Y-113239672D01*
X107237265Y-113239669D01*
X107236481Y-113232676D01*
X107181108Y-113073668D01*
X107091884Y-112930879D01*
X107083723Y-112922661D01*
X106978205Y-112816403D01*
X106978201Y-112816400D01*
X106973242Y-112811406D01*
X106958295Y-112801920D01*
X106917953Y-112776319D01*
X106831079Y-112721187D01*
X106672462Y-112664706D01*
X106665474Y-112663873D01*
X106665471Y-112663872D01*
X106572300Y-112652762D01*
X106505273Y-112644769D01*
X106498270Y-112645505D01*
X106498269Y-112645505D01*
X106452712Y-112650293D01*
X106337821Y-112662369D01*
X106331155Y-112664638D01*
X106331152Y-112664639D01*
X106185098Y-112714360D01*
X106185095Y-112714361D01*
X106178431Y-112716630D01*
X106172436Y-112720318D01*
X106172432Y-112720320D01*
X106041021Y-112801165D01*
X106041019Y-112801167D01*
X106035022Y-112804856D01*
X105914724Y-112922661D01*
X105910908Y-112928583D01*
X105828713Y-113056125D01*
X105823515Y-113064190D01*
X105821105Y-113070810D01*
X105821104Y-113070813D01*
X105780220Y-113183140D01*
X105750914Y-113229140D01*
X105597302Y-113382752D01*
X105588685Y-113390593D01*
X105582060Y-113394798D01*
X105576633Y-113400577D01*
X105576632Y-113400578D01*
X105534151Y-113445816D01*
X105531396Y-113448658D01*
X105511089Y-113468965D01*
X105508660Y-113472096D01*
X105508655Y-113472102D01*
X105508442Y-113472377D01*
X105500745Y-113481390D01*
X105469552Y-113514607D01*
X105465733Y-113521554D01*
X105459404Y-113533066D01*
X105448550Y-113549590D01*
X105435638Y-113566236D01*
X105420995Y-113600075D01*
X105417546Y-113608045D01*
X105412330Y-113618693D01*
X105390373Y-113658632D01*
X105388402Y-113666311D01*
X105388401Y-113666312D01*
X105385133Y-113679041D01*
X105378727Y-113697750D01*
X105373512Y-113709800D01*
X105373510Y-113709805D01*
X105370365Y-113717074D01*
X105369126Y-113724898D01*
X105363239Y-113762065D01*
X105360831Y-113773690D01*
X105351472Y-113810140D01*
X105351471Y-113810145D01*
X105349500Y-113817823D01*
X105349500Y-113838884D01*
X105347949Y-113858596D01*
X105344653Y-113879405D01*
X105345399Y-113887296D01*
X105348941Y-113924765D01*
X105349500Y-113936623D01*
X105349500Y-117286785D01*
X105330337Y-117351894D01*
X105330464Y-117351957D01*
X105330105Y-117352680D01*
X105329410Y-117355042D01*
X105323515Y-117364190D01*
X105265927Y-117522409D01*
X105244825Y-117689455D01*
X100400500Y-117689455D01*
X100400500Y-112890862D01*
X100750997Y-112890862D01*
X100752237Y-112898078D01*
X100752237Y-112898080D01*
X100779394Y-113056125D01*
X100780634Y-113063340D01*
X100849154Y-113224373D01*
X100952883Y-113365324D01*
X100958461Y-113370063D01*
X100958464Y-113370066D01*
X101080676Y-113473893D01*
X101080680Y-113473896D01*
X101086255Y-113478632D01*
X101165941Y-113519322D01*
X101183187Y-113528128D01*
X101242116Y-113558219D01*
X101249221Y-113559958D01*
X101249225Y-113559959D01*
X101330358Y-113579811D01*
X101412106Y-113599815D01*
X101417706Y-113600162D01*
X101417710Y-113600163D01*
X101421209Y-113600380D01*
X101421218Y-113600380D01*
X101423148Y-113600500D01*
X101549322Y-113600500D01*
X101640869Y-113589827D01*
X101672056Y-113586191D01*
X101672058Y-113586191D01*
X101679328Y-113585343D01*
X101686205Y-113582847D01*
X101686208Y-113582846D01*
X101836952Y-113528128D01*
X101843831Y-113525631D01*
X101990185Y-113429677D01*
X102110540Y-113302628D01*
X102198439Y-113151298D01*
X102249167Y-112983807D01*
X102260003Y-112809138D01*
X102245288Y-112723498D01*
X102231606Y-112643875D01*
X102231605Y-112643873D01*
X102230366Y-112636660D01*
X102178852Y-112515594D01*
X102164711Y-112482360D01*
X102164711Y-112482359D01*
X102161846Y-112475627D01*
X102058117Y-112334676D01*
X102052539Y-112329937D01*
X102052536Y-112329934D01*
X101930324Y-112226107D01*
X101930320Y-112226104D01*
X101924745Y-112221368D01*
X101840562Y-112178382D01*
X101775400Y-112145108D01*
X101775398Y-112145107D01*
X101768884Y-112141781D01*
X101761779Y-112140042D01*
X101761775Y-112140041D01*
X101713174Y-112128149D01*
X101697493Y-112124312D01*
X101636079Y-112088692D01*
X101603671Y-112025524D01*
X101610560Y-111954862D01*
X101654557Y-111899142D01*
X101684449Y-111883484D01*
X101758398Y-111856642D01*
X101843831Y-111825631D01*
X101990185Y-111729677D01*
X102110540Y-111602628D01*
X102198439Y-111451298D01*
X102249167Y-111283807D01*
X102260003Y-111109138D01*
X102253856Y-111073360D01*
X102231606Y-110943875D01*
X102231605Y-110943873D01*
X102230366Y-110936660D01*
X102161846Y-110775627D01*
X102058117Y-110634676D01*
X102052539Y-110629937D01*
X102052536Y-110629934D01*
X101930324Y-110526107D01*
X101930320Y-110526104D01*
X101924745Y-110521368D01*
X101840562Y-110478382D01*
X101775400Y-110445108D01*
X101775398Y-110445107D01*
X101768884Y-110441781D01*
X101761779Y-110440042D01*
X101761775Y-110440041D01*
X101668241Y-110417154D01*
X101598894Y-110400185D01*
X101593294Y-110399838D01*
X101593290Y-110399837D01*
X101589791Y-110399620D01*
X101589782Y-110399620D01*
X101587852Y-110399500D01*
X101461678Y-110399500D01*
X101370131Y-110410173D01*
X101338944Y-110413809D01*
X101338942Y-110413809D01*
X101331672Y-110414657D01*
X101324795Y-110417153D01*
X101324792Y-110417154D01*
X101247781Y-110445108D01*
X101167169Y-110474369D01*
X101020815Y-110570323D01*
X100900460Y-110697372D01*
X100812561Y-110848702D01*
X100761833Y-111016193D01*
X100750997Y-111190862D01*
X100752237Y-111198078D01*
X100752237Y-111198080D01*
X100779394Y-111356125D01*
X100780634Y-111363340D01*
X100849154Y-111524373D01*
X100952883Y-111665324D01*
X100958461Y-111670063D01*
X100958464Y-111670066D01*
X101080676Y-111773893D01*
X101080680Y-111773896D01*
X101086255Y-111778632D01*
X101120219Y-111795975D01*
X101178297Y-111825631D01*
X101242116Y-111858219D01*
X101249221Y-111859958D01*
X101249225Y-111859959D01*
X101297826Y-111871851D01*
X101313507Y-111875688D01*
X101374921Y-111911308D01*
X101407329Y-111974476D01*
X101400440Y-112045138D01*
X101356443Y-112100858D01*
X101326552Y-112116515D01*
X101167169Y-112174369D01*
X101020815Y-112270323D01*
X100900460Y-112397372D01*
X100812561Y-112548702D01*
X100761833Y-112716193D01*
X100750997Y-112890862D01*
X100400500Y-112890862D01*
X100400500Y-108551955D01*
X105557325Y-108551955D01*
X105573755Y-108719525D01*
X105626902Y-108879291D01*
X105714124Y-109023312D01*
X105831086Y-109144429D01*
X105836983Y-109148288D01*
X105966077Y-109232766D01*
X105966081Y-109232768D01*
X105971975Y-109236625D01*
X105978579Y-109239081D01*
X106097005Y-109283123D01*
X106142180Y-109312126D01*
X109207743Y-112377688D01*
X109215593Y-112386315D01*
X109219798Y-112392940D01*
X109225575Y-112398365D01*
X109270832Y-112440864D01*
X109273674Y-112443619D01*
X109293966Y-112463911D01*
X109297372Y-112466553D01*
X109306392Y-112474257D01*
X109339607Y-112505448D01*
X109358070Y-112515598D01*
X109374593Y-112526452D01*
X109384975Y-112534506D01*
X109384977Y-112534507D01*
X109391237Y-112539363D01*
X109432741Y-112557323D01*
X109433046Y-112557455D01*
X109443706Y-112562677D01*
X109483632Y-112584627D01*
X109504037Y-112589866D01*
X109522742Y-112596270D01*
X109542074Y-112604636D01*
X109549900Y-112605876D01*
X109549905Y-112605877D01*
X109587076Y-112611765D01*
X109598696Y-112614171D01*
X109631516Y-112622597D01*
X109642823Y-112625500D01*
X109663884Y-112625500D01*
X109683595Y-112627051D01*
X109696576Y-112629107D01*
X109704405Y-112630347D01*
X109712296Y-112629601D01*
X109749765Y-112626059D01*
X109761623Y-112625500D01*
X116019000Y-112625500D01*
X116030640Y-112626049D01*
X116038296Y-112627760D01*
X116046219Y-112627511D01*
X116108230Y-112625562D01*
X116112188Y-112625500D01*
X116140925Y-112625500D01*
X116145196Y-112624961D01*
X116157024Y-112624029D01*
X116202569Y-112622597D01*
X116210183Y-112620385D01*
X116210188Y-112620384D01*
X116222792Y-112616722D01*
X116242156Y-112612711D01*
X116263058Y-112610071D01*
X116270429Y-112607152D01*
X116270431Y-112607152D01*
X116305420Y-112593298D01*
X116316631Y-112589459D01*
X116360398Y-112576744D01*
X116378536Y-112566018D01*
X116396281Y-112557324D01*
X116415871Y-112549568D01*
X116452738Y-112522782D01*
X116462646Y-112516275D01*
X116495042Y-112497117D01*
X116495047Y-112497113D01*
X116501865Y-112493081D01*
X116516758Y-112478188D01*
X116531792Y-112465347D01*
X116542423Y-112457623D01*
X116548837Y-112452963D01*
X116577880Y-112417856D01*
X116585869Y-112409077D01*
X117532541Y-111462405D01*
X117594853Y-111428379D01*
X117621636Y-111425500D01*
X118178364Y-111425500D01*
X118246485Y-111445502D01*
X118267459Y-111462405D01*
X118825095Y-112020041D01*
X118859121Y-112082353D01*
X118862000Y-112109136D01*
X118862000Y-113799285D01*
X118842837Y-113864394D01*
X118842964Y-113864457D01*
X118842605Y-113865180D01*
X118841910Y-113867542D01*
X118839833Y-113870765D01*
X118836015Y-113876690D01*
X118778427Y-114034909D01*
X118757325Y-114201955D01*
X118758012Y-114208962D01*
X118758012Y-114208965D01*
X118760811Y-114237510D01*
X118773755Y-114369525D01*
X118826902Y-114529291D01*
X118830549Y-114535313D01*
X118830550Y-114535315D01*
X118876860Y-114611781D01*
X118914124Y-114673312D01*
X118919013Y-114678375D01*
X118919014Y-114678376D01*
X118944788Y-114705065D01*
X119031086Y-114794429D01*
X119036983Y-114798288D01*
X119166077Y-114882766D01*
X119166081Y-114882768D01*
X119171975Y-114886625D01*
X119329789Y-114945315D01*
X119336770Y-114946246D01*
X119336772Y-114946247D01*
X119382312Y-114952323D01*
X119496683Y-114967583D01*
X119503694Y-114966945D01*
X119503698Y-114966945D01*
X119657343Y-114952962D01*
X119664364Y-114952323D01*
X119671066Y-114950145D01*
X119671068Y-114950145D01*
X119817798Y-114902470D01*
X119817801Y-114902469D01*
X119824497Y-114900293D01*
X119969123Y-114814078D01*
X119974217Y-114809227D01*
X119974221Y-114809224D01*
X120085954Y-114702822D01*
X120085955Y-114702820D01*
X120091054Y-114697965D01*
X120107434Y-114673312D01*
X120180336Y-114563585D01*
X120184231Y-114557723D01*
X120233795Y-114427244D01*
X120677819Y-114427244D01*
X120678176Y-114434061D01*
X120678176Y-114434065D01*
X120683683Y-114539142D01*
X120687490Y-114611781D01*
X120689301Y-114618354D01*
X120689301Y-114618357D01*
X120714930Y-114711402D01*
X120736562Y-114789936D01*
X120822746Y-114953398D01*
X120942020Y-115094540D01*
X120947444Y-115098687D01*
X120947445Y-115098688D01*
X121083399Y-115202633D01*
X121083403Y-115202636D01*
X121088820Y-115206777D01*
X121095000Y-115209659D01*
X121095002Y-115209660D01*
X121250120Y-115281993D01*
X121250123Y-115281994D01*
X121256297Y-115284873D01*
X121262942Y-115286358D01*
X121262947Y-115286360D01*
X121371207Y-115310558D01*
X121436637Y-115325183D01*
X121442307Y-115325500D01*
X121578164Y-115325500D01*
X121715709Y-115310558D01*
X121890848Y-115251617D01*
X122049244Y-115156443D01*
X122110318Y-115098688D01*
X122178549Y-115034165D01*
X122178551Y-115034163D01*
X122183507Y-115029476D01*
X122287375Y-114876640D01*
X122289910Y-114870303D01*
X122353466Y-114711402D01*
X122353467Y-114711397D01*
X122356000Y-114705065D01*
X122380370Y-114557859D01*
X122385066Y-114529494D01*
X122385066Y-114529490D01*
X122386181Y-114522756D01*
X122380823Y-114420506D01*
X122376867Y-114345032D01*
X122376510Y-114338219D01*
X122350816Y-114244935D01*
X122329251Y-114166646D01*
X122327438Y-114160064D01*
X122241254Y-113996602D01*
X122121980Y-113855460D01*
X122116555Y-113851312D01*
X121980601Y-113747367D01*
X121980597Y-113747364D01*
X121975180Y-113743223D01*
X121969000Y-113740341D01*
X121968998Y-113740340D01*
X121813880Y-113668007D01*
X121813877Y-113668006D01*
X121807703Y-113665127D01*
X121801058Y-113663642D01*
X121801053Y-113663640D01*
X121661129Y-113632365D01*
X121627363Y-113624817D01*
X121621693Y-113624500D01*
X121485836Y-113624500D01*
X121348291Y-113639442D01*
X121173152Y-113698383D01*
X121014756Y-113793557D01*
X121009796Y-113798248D01*
X121009794Y-113798249D01*
X120909787Y-113892822D01*
X120880493Y-113920524D01*
X120776625Y-114073360D01*
X120774092Y-114079694D01*
X120774090Y-114079697D01*
X120710534Y-114238598D01*
X120710533Y-114238603D01*
X120708000Y-114244935D01*
X120706886Y-114251667D01*
X120682276Y-114400323D01*
X120677819Y-114427244D01*
X120233795Y-114427244D01*
X120244021Y-114400323D01*
X120267455Y-114233588D01*
X120267749Y-114212500D01*
X120262606Y-114166646D01*
X120249766Y-114052172D01*
X120249765Y-114052169D01*
X120248981Y-114045176D01*
X120193608Y-113886168D01*
X120182146Y-113867825D01*
X120163000Y-113801055D01*
X120163000Y-111868499D01*
X120163549Y-111856859D01*
X120165260Y-111849203D01*
X120163062Y-111779268D01*
X120163000Y-111775311D01*
X120163000Y-111746575D01*
X120162461Y-111742307D01*
X120161528Y-111730464D01*
X120161504Y-111729677D01*
X120160097Y-111684930D01*
X120154222Y-111664708D01*
X120150211Y-111645342D01*
X120148565Y-111632306D01*
X120148564Y-111632301D01*
X120147571Y-111624442D01*
X120130797Y-111582074D01*
X120126958Y-111570861D01*
X120116455Y-111534711D01*
X120114244Y-111527101D01*
X120103519Y-111508966D01*
X120094820Y-111491209D01*
X120089986Y-111478998D01*
X120089985Y-111478996D01*
X120087068Y-111471629D01*
X120060288Y-111434769D01*
X120055345Y-111427244D01*
X120677819Y-111427244D01*
X120678176Y-111434061D01*
X120678176Y-111434065D01*
X120685644Y-111576558D01*
X120687490Y-111611781D01*
X120689301Y-111618354D01*
X120689301Y-111618357D01*
X120724618Y-111746575D01*
X120736562Y-111789936D01*
X120822746Y-111953398D01*
X120942020Y-112094540D01*
X120947444Y-112098687D01*
X120947445Y-112098688D01*
X121083399Y-112202633D01*
X121083403Y-112202636D01*
X121088820Y-112206777D01*
X121095000Y-112209659D01*
X121095002Y-112209660D01*
X121250120Y-112281993D01*
X121250123Y-112281994D01*
X121256297Y-112284873D01*
X121262942Y-112286358D01*
X121262947Y-112286360D01*
X121371207Y-112310558D01*
X121436637Y-112325183D01*
X121442307Y-112325500D01*
X121578164Y-112325500D01*
X121715709Y-112310558D01*
X121890848Y-112251617D01*
X122049244Y-112156443D01*
X122054206Y-112151751D01*
X122178549Y-112034165D01*
X122178551Y-112034163D01*
X122183507Y-112029476D01*
X122287375Y-111876640D01*
X122289910Y-111870303D01*
X122353466Y-111711402D01*
X122353467Y-111711397D01*
X122356000Y-111705065D01*
X122377274Y-111576558D01*
X122385066Y-111529494D01*
X122385066Y-111529490D01*
X122386181Y-111522756D01*
X122383019Y-111462405D01*
X122376867Y-111345032D01*
X122376510Y-111338219D01*
X122361523Y-111283807D01*
X122329251Y-111166646D01*
X122327438Y-111160064D01*
X122241254Y-110996602D01*
X122121980Y-110855460D01*
X122104862Y-110842372D01*
X121980601Y-110747367D01*
X121980597Y-110747364D01*
X121975180Y-110743223D01*
X121969000Y-110740341D01*
X121968998Y-110740340D01*
X121813880Y-110668007D01*
X121813877Y-110668006D01*
X121807703Y-110665127D01*
X121801058Y-110663642D01*
X121801053Y-110663640D01*
X121661129Y-110632365D01*
X121627363Y-110624817D01*
X121621693Y-110624500D01*
X121485836Y-110624500D01*
X121348291Y-110639442D01*
X121173152Y-110698383D01*
X121014756Y-110793557D01*
X121009796Y-110798248D01*
X121009794Y-110798249D01*
X120949296Y-110855460D01*
X120880493Y-110920524D01*
X120776625Y-111073360D01*
X120774092Y-111079694D01*
X120774090Y-111079697D01*
X120710534Y-111238598D01*
X120710533Y-111238603D01*
X120708000Y-111244935D01*
X120697918Y-111305837D01*
X120683578Y-111392459D01*
X120677819Y-111427244D01*
X120055345Y-111427244D01*
X120053772Y-111424849D01*
X120030581Y-111385635D01*
X120015688Y-111370742D01*
X120002847Y-111355708D01*
X119995123Y-111345077D01*
X119990463Y-111338663D01*
X119955356Y-111309620D01*
X119946577Y-111301631D01*
X119017248Y-110372302D01*
X119009407Y-110363685D01*
X119005202Y-110357060D01*
X118954183Y-110309150D01*
X118951342Y-110306396D01*
X118931035Y-110286089D01*
X118927904Y-110283660D01*
X118927898Y-110283655D01*
X118927623Y-110283442D01*
X118918610Y-110275745D01*
X118885393Y-110244552D01*
X118876071Y-110239427D01*
X118866934Y-110234404D01*
X118850410Y-110223550D01*
X118840027Y-110215496D01*
X118840026Y-110215495D01*
X118833764Y-110210638D01*
X118791952Y-110192545D01*
X118781307Y-110187330D01*
X118741368Y-110165373D01*
X118733689Y-110163402D01*
X118733688Y-110163401D01*
X118720959Y-110160133D01*
X118702250Y-110153727D01*
X118690200Y-110148512D01*
X118690195Y-110148510D01*
X118682926Y-110145365D01*
X118637930Y-110138238D01*
X118626310Y-110135831D01*
X118589860Y-110126472D01*
X118589855Y-110126471D01*
X118582177Y-110124500D01*
X118561116Y-110124500D01*
X118541404Y-110122949D01*
X118536928Y-110122240D01*
X118520595Y-110119653D01*
X118512704Y-110120399D01*
X118475235Y-110123941D01*
X118463377Y-110124500D01*
X117380999Y-110124500D01*
X117369359Y-110123951D01*
X117361703Y-110122240D01*
X117353780Y-110122489D01*
X117291769Y-110124438D01*
X117287811Y-110124500D01*
X117259075Y-110124500D01*
X117255140Y-110124997D01*
X117254807Y-110125039D01*
X117242972Y-110125971D01*
X117197430Y-110127403D01*
X117189813Y-110129616D01*
X117177208Y-110133278D01*
X117157844Y-110137289D01*
X117155665Y-110137564D01*
X117144806Y-110138935D01*
X117144801Y-110138936D01*
X117136942Y-110139929D01*
X117094574Y-110156703D01*
X117083361Y-110160542D01*
X117053592Y-110169191D01*
X117039601Y-110173256D01*
X117021466Y-110183981D01*
X117003712Y-110192678D01*
X116998083Y-110194907D01*
X116991498Y-110197514D01*
X116991496Y-110197515D01*
X116984129Y-110200432D01*
X116970082Y-110210638D01*
X116947269Y-110227212D01*
X116937352Y-110233726D01*
X116898135Y-110256919D01*
X116883242Y-110271812D01*
X116868208Y-110284653D01*
X116851163Y-110297037D01*
X116846110Y-110303145D01*
X116822121Y-110332143D01*
X116814131Y-110340923D01*
X115867459Y-111287595D01*
X115805147Y-111321621D01*
X115778364Y-111324500D01*
X110046636Y-111324500D01*
X109978515Y-111304498D01*
X109957541Y-111287595D01*
X107060763Y-108390817D01*
X107030867Y-108343160D01*
X106993608Y-108236168D01*
X106904384Y-108093379D01*
X106896223Y-108085161D01*
X106790705Y-107978903D01*
X106790701Y-107978900D01*
X106785742Y-107973906D01*
X106643579Y-107883687D01*
X106484962Y-107827206D01*
X106477974Y-107826373D01*
X106477971Y-107826372D01*
X106384800Y-107815262D01*
X106317773Y-107807269D01*
X106310770Y-107808005D01*
X106310769Y-107808005D01*
X106265212Y-107812793D01*
X106150321Y-107824869D01*
X106143655Y-107827138D01*
X106143652Y-107827139D01*
X105997598Y-107876860D01*
X105997595Y-107876861D01*
X105990931Y-107879130D01*
X105984936Y-107882818D01*
X105984932Y-107882820D01*
X105853521Y-107963665D01*
X105853519Y-107963667D01*
X105847522Y-107967356D01*
X105727224Y-108085161D01*
X105636015Y-108226690D01*
X105578427Y-108384909D01*
X105557325Y-108551955D01*
X100400500Y-108551955D01*
X100400500Y-102264455D01*
X100944825Y-102264455D01*
X100945512Y-102271462D01*
X100945512Y-102271465D01*
X100953156Y-102349428D01*
X100961255Y-102432025D01*
X101014402Y-102591791D01*
X101018049Y-102597813D01*
X101018050Y-102597815D01*
X101079271Y-102698902D01*
X101101624Y-102735812D01*
X101218586Y-102856929D01*
X101224483Y-102860788D01*
X101353577Y-102945266D01*
X101353581Y-102945268D01*
X101359475Y-102949125D01*
X101517289Y-103007815D01*
X101524270Y-103008746D01*
X101524272Y-103008747D01*
X101569812Y-103014823D01*
X101684183Y-103030083D01*
X101691194Y-103029445D01*
X101691198Y-103029445D01*
X101844843Y-103015462D01*
X101851864Y-103014823D01*
X101858566Y-103012645D01*
X101858568Y-103012645D01*
X102005298Y-102964970D01*
X102005301Y-102964969D01*
X102011997Y-102962793D01*
X102044745Y-102943271D01*
X102109263Y-102925500D01*
X104836464Y-102925500D01*
X104904585Y-102945502D01*
X104914668Y-102952872D01*
X104918586Y-102956929D01*
X104924483Y-102960788D01*
X105053577Y-103045266D01*
X105053581Y-103045268D01*
X105059475Y-103049125D01*
X105217289Y-103107815D01*
X105224270Y-103108746D01*
X105224272Y-103108747D01*
X105269812Y-103114823D01*
X105384183Y-103130083D01*
X105391194Y-103129445D01*
X105391198Y-103129445D01*
X105544843Y-103115462D01*
X105551864Y-103114823D01*
X105558566Y-103112645D01*
X105558568Y-103112645D01*
X105705298Y-103064970D01*
X105705301Y-103064969D01*
X105711997Y-103062793D01*
X105856623Y-102976578D01*
X105861717Y-102971727D01*
X105861721Y-102971724D01*
X105973454Y-102865322D01*
X105973455Y-102865320D01*
X105978554Y-102860465D01*
X106071731Y-102720223D01*
X106078580Y-102702192D01*
X107279500Y-102702192D01*
X107294326Y-102843256D01*
X107352821Y-103023284D01*
X107356124Y-103029006D01*
X107356125Y-103029007D01*
X107401625Y-103107815D01*
X107447467Y-103187216D01*
X107574129Y-103327888D01*
X107727270Y-103439151D01*
X107900197Y-103516144D01*
X107998212Y-103536978D01*
X108078897Y-103554128D01*
X108078901Y-103554128D01*
X108085354Y-103555500D01*
X108274646Y-103555500D01*
X108281099Y-103554128D01*
X108281103Y-103554128D01*
X108361788Y-103536978D01*
X108459803Y-103516144D01*
X108632730Y-103439151D01*
X108785871Y-103327888D01*
X108912533Y-103187216D01*
X108958375Y-103107815D01*
X109003875Y-103029007D01*
X109003876Y-103029006D01*
X109007179Y-103023284D01*
X109065674Y-102843256D01*
X109080500Y-102702192D01*
X109080500Y-102325077D01*
X109100502Y-102256956D01*
X109154158Y-102210463D01*
X109224432Y-102200359D01*
X109263801Y-102212860D01*
X109355389Y-102259627D01*
X109362498Y-102261367D01*
X109362502Y-102261368D01*
X109462545Y-102285848D01*
X109519717Y-102299838D01*
X109525314Y-102300185D01*
X109525319Y-102300186D01*
X109528449Y-102300380D01*
X109528458Y-102300380D01*
X109530388Y-102300500D01*
X109652363Y-102300500D01*
X109741035Y-102290162D01*
X109770765Y-102286696D01*
X109770766Y-102286696D01*
X109778037Y-102285848D01*
X109784914Y-102283352D01*
X109784917Y-102283351D01*
X109930182Y-102230622D01*
X109937061Y-102228125D01*
X110078540Y-102135367D01*
X110194885Y-102012550D01*
X110279856Y-101866262D01*
X110328895Y-101704350D01*
X110329402Y-101696187D01*
X110334469Y-101614501D01*
X110339370Y-101535499D01*
X110336811Y-101520603D01*
X110311960Y-101375983D01*
X110310720Y-101368767D01*
X110244482Y-101213098D01*
X110210354Y-101166723D01*
X110148547Y-101082736D01*
X110148545Y-101082733D01*
X110144209Y-101076842D01*
X110084021Y-101025708D01*
X110020854Y-100972043D01*
X110020851Y-100972041D01*
X110015280Y-100967308D01*
X109864611Y-100890373D01*
X109857502Y-100888633D01*
X109857498Y-100888632D01*
X109742108Y-100860396D01*
X109700283Y-100850162D01*
X109694686Y-100849815D01*
X109694681Y-100849814D01*
X109691551Y-100849620D01*
X109691542Y-100849620D01*
X109689612Y-100849500D01*
X109567637Y-100849500D01*
X109478965Y-100859838D01*
X109449235Y-100863304D01*
X109449234Y-100863304D01*
X109441963Y-100864152D01*
X109435086Y-100866648D01*
X109435083Y-100866649D01*
X109316604Y-100909655D01*
X109282939Y-100921875D01*
X109275588Y-100926695D01*
X109274621Y-100926988D01*
X109270272Y-100929166D01*
X109269899Y-100928422D01*
X109207656Y-100947320D01*
X109139354Y-100927943D01*
X109092371Y-100874716D01*
X109080500Y-100821325D01*
X109080500Y-99763955D01*
X110744825Y-99763955D01*
X110761255Y-99931525D01*
X110814402Y-100091291D01*
X110818049Y-100097313D01*
X110818050Y-100097315D01*
X110830243Y-100117447D01*
X110901624Y-100235312D01*
X110906514Y-100240376D01*
X110906515Y-100240377D01*
X110914138Y-100248271D01*
X110947070Y-100311169D01*
X110949500Y-100335797D01*
X110949500Y-101255835D01*
X110929411Y-101324090D01*
X110872731Y-101412040D01*
X110870321Y-101418660D01*
X110870320Y-101418663D01*
X110862317Y-101440651D01*
X110815143Y-101570259D01*
X110794041Y-101737305D01*
X110794728Y-101744312D01*
X110794728Y-101744315D01*
X110799959Y-101797661D01*
X110810471Y-101904875D01*
X110863618Y-102064641D01*
X110867265Y-102070663D01*
X110867266Y-102070665D01*
X110945812Y-102200359D01*
X110950840Y-102208662D01*
X110955729Y-102213725D01*
X110955730Y-102213726D01*
X111015176Y-102275284D01*
X111067802Y-102329779D01*
X111073699Y-102333638D01*
X111202793Y-102418116D01*
X111202797Y-102418118D01*
X111208691Y-102421975D01*
X111366505Y-102480665D01*
X111373486Y-102481596D01*
X111373488Y-102481597D01*
X111419028Y-102487673D01*
X111533399Y-102502933D01*
X111540410Y-102502295D01*
X111540414Y-102502295D01*
X111694059Y-102488312D01*
X111701080Y-102487673D01*
X111707782Y-102485495D01*
X111707784Y-102485495D01*
X111854514Y-102437820D01*
X111854517Y-102437819D01*
X111861213Y-102435643D01*
X112005839Y-102349428D01*
X112010933Y-102344577D01*
X112010937Y-102344574D01*
X112122670Y-102238172D01*
X112122671Y-102238170D01*
X112127770Y-102233315D01*
X112133883Y-102224115D01*
X112217052Y-102098935D01*
X112220947Y-102093073D01*
X112227386Y-102076123D01*
X112270272Y-102019547D01*
X112336940Y-101995136D01*
X112361835Y-101995974D01*
X112393557Y-102000206D01*
X112401946Y-102001325D01*
X112408957Y-102000687D01*
X112408961Y-102000687D01*
X112562606Y-101986704D01*
X112569627Y-101986065D01*
X112576329Y-101983887D01*
X112576331Y-101983887D01*
X112723061Y-101936212D01*
X112723064Y-101936211D01*
X112729760Y-101934035D01*
X112874386Y-101847820D01*
X112879480Y-101842969D01*
X112879484Y-101842966D01*
X112991217Y-101736564D01*
X112991218Y-101736562D01*
X112996317Y-101731707D01*
X113074189Y-101614501D01*
X114660630Y-101614501D01*
X114661870Y-101621717D01*
X114661870Y-101621719D01*
X114675316Y-101699966D01*
X114689280Y-101781233D01*
X114755518Y-101936902D01*
X114759855Y-101942795D01*
X114851453Y-102067264D01*
X114851455Y-102067267D01*
X114855791Y-102073158D01*
X114861367Y-102077895D01*
X114979146Y-102177957D01*
X114979149Y-102177959D01*
X114984720Y-102182692D01*
X115135389Y-102259627D01*
X115142498Y-102261367D01*
X115142502Y-102261368D01*
X115242545Y-102285848D01*
X115299717Y-102299838D01*
X115305314Y-102300185D01*
X115305319Y-102300186D01*
X115308449Y-102300380D01*
X115308458Y-102300380D01*
X115310388Y-102300500D01*
X115432363Y-102300500D01*
X115521035Y-102290162D01*
X115550765Y-102286696D01*
X115550766Y-102286696D01*
X115558037Y-102285848D01*
X115564914Y-102283352D01*
X115564917Y-102283351D01*
X115710182Y-102230622D01*
X115717061Y-102228125D01*
X115724412Y-102223305D01*
X115725379Y-102223012D01*
X115729728Y-102220834D01*
X115730101Y-102221578D01*
X115792344Y-102202680D01*
X115860646Y-102222057D01*
X115907629Y-102275284D01*
X115919500Y-102328675D01*
X115919500Y-102702192D01*
X115934326Y-102843256D01*
X115992821Y-103023284D01*
X115996124Y-103029006D01*
X115996125Y-103029007D01*
X116041625Y-103107815D01*
X116087467Y-103187216D01*
X116214129Y-103327888D01*
X116367270Y-103439151D01*
X116540197Y-103516144D01*
X116638212Y-103536978D01*
X116718897Y-103554128D01*
X116718901Y-103554128D01*
X116725354Y-103555500D01*
X116914646Y-103555500D01*
X116921099Y-103554128D01*
X116921103Y-103554128D01*
X117001788Y-103536978D01*
X117099803Y-103516144D01*
X117272730Y-103439151D01*
X117425871Y-103327888D01*
X117552533Y-103187216D01*
X117598375Y-103107815D01*
X117643875Y-103029007D01*
X117643876Y-103029006D01*
X117647179Y-103023284D01*
X117705674Y-102843256D01*
X117720500Y-102702192D01*
X117720500Y-97577808D01*
X117705674Y-97436744D01*
X117647179Y-97256716D01*
X117581614Y-97143153D01*
X117555836Y-97098505D01*
X117552533Y-97092784D01*
X117548114Y-97087876D01*
X117430286Y-96957015D01*
X117430284Y-96957014D01*
X117425871Y-96952112D01*
X117272730Y-96840849D01*
X117099803Y-96763856D01*
X117001788Y-96743022D01*
X116921103Y-96725872D01*
X116921099Y-96725872D01*
X116914646Y-96724500D01*
X116725354Y-96724500D01*
X116718901Y-96725872D01*
X116718897Y-96725872D01*
X116638212Y-96743022D01*
X116540197Y-96763856D01*
X116367270Y-96840849D01*
X116214129Y-96952112D01*
X116209716Y-96957014D01*
X116209714Y-96957015D01*
X116091886Y-97087876D01*
X116087467Y-97092784D01*
X116084164Y-97098505D01*
X116058387Y-97143153D01*
X115992821Y-97256716D01*
X115934326Y-97436744D01*
X115919500Y-97577808D01*
X115919500Y-100824923D01*
X115899498Y-100893044D01*
X115845842Y-100939537D01*
X115775568Y-100949641D01*
X115736199Y-100937140D01*
X115644611Y-100890373D01*
X115637502Y-100888633D01*
X115637498Y-100888632D01*
X115522108Y-100860396D01*
X115480283Y-100850162D01*
X115474686Y-100849815D01*
X115474681Y-100849814D01*
X115471551Y-100849620D01*
X115471542Y-100849620D01*
X115469612Y-100849500D01*
X115347637Y-100849500D01*
X115258965Y-100859838D01*
X115229235Y-100863304D01*
X115229234Y-100863304D01*
X115221963Y-100864152D01*
X115215086Y-100866648D01*
X115215083Y-100866649D01*
X115096604Y-100909655D01*
X115062939Y-100921875D01*
X114921460Y-101014633D01*
X114805115Y-101137450D01*
X114720144Y-101283738D01*
X114718023Y-101290740D01*
X114718022Y-101290743D01*
X114707922Y-101324090D01*
X114671105Y-101445650D01*
X114660630Y-101614501D01*
X113074189Y-101614501D01*
X113089494Y-101591465D01*
X113110323Y-101536633D01*
X113146782Y-101440651D01*
X113149284Y-101434065D01*
X113169122Y-101292918D01*
X113172167Y-101271252D01*
X113172167Y-101271248D01*
X113172718Y-101267330D01*
X113173012Y-101246242D01*
X113172572Y-101242319D01*
X113155029Y-101085914D01*
X113155028Y-101085911D01*
X113154244Y-101078918D01*
X113098871Y-100919910D01*
X113009647Y-100777121D01*
X112987094Y-100754410D01*
X112953287Y-100691979D01*
X112950500Y-100665626D01*
X112950500Y-99788037D01*
X112970502Y-99719916D01*
X112976129Y-99712274D01*
X112978554Y-99709965D01*
X113071731Y-99569723D01*
X113131521Y-99412323D01*
X113154955Y-99245588D01*
X113155249Y-99224500D01*
X113149771Y-99175665D01*
X113137266Y-99064172D01*
X113137265Y-99064169D01*
X113136481Y-99057176D01*
X113081108Y-98898168D01*
X112991884Y-98755379D01*
X112983723Y-98747161D01*
X112878205Y-98640903D01*
X112878201Y-98640900D01*
X112873242Y-98635906D01*
X112731079Y-98545687D01*
X112572462Y-98489206D01*
X112565474Y-98488373D01*
X112565471Y-98488372D01*
X112472300Y-98477262D01*
X112405273Y-98469269D01*
X112398270Y-98470005D01*
X112398269Y-98470005D01*
X112352712Y-98474793D01*
X112237821Y-98486869D01*
X112231155Y-98489138D01*
X112231152Y-98489139D01*
X112085098Y-98538860D01*
X112085095Y-98538861D01*
X112078431Y-98541130D01*
X112072436Y-98544818D01*
X112072432Y-98544820D01*
X111941021Y-98625665D01*
X111941019Y-98625667D01*
X111935022Y-98629356D01*
X111814724Y-98747161D01*
X111723515Y-98888690D01*
X111721105Y-98895310D01*
X111721104Y-98895313D01*
X111703043Y-98944936D01*
X111660949Y-99002107D01*
X111594627Y-99027445D01*
X111569721Y-99026954D01*
X111512273Y-99020103D01*
X111512266Y-99020103D01*
X111505273Y-99019269D01*
X111498270Y-99020005D01*
X111498269Y-99020005D01*
X111452712Y-99024793D01*
X111337821Y-99036869D01*
X111331155Y-99039138D01*
X111331152Y-99039139D01*
X111185098Y-99088860D01*
X111185095Y-99088861D01*
X111178431Y-99091130D01*
X111172436Y-99094818D01*
X111172432Y-99094820D01*
X111041021Y-99175665D01*
X111041019Y-99175667D01*
X111035022Y-99179356D01*
X110914724Y-99297161D01*
X110823515Y-99438690D01*
X110765927Y-99596909D01*
X110744825Y-99763955D01*
X109080500Y-99763955D01*
X109080500Y-97577808D01*
X109065674Y-97436744D01*
X109007179Y-97256716D01*
X108941614Y-97143153D01*
X108915836Y-97098505D01*
X108912533Y-97092784D01*
X108908114Y-97087876D01*
X108790286Y-96957015D01*
X108790284Y-96957014D01*
X108785871Y-96952112D01*
X108632730Y-96840849D01*
X108459803Y-96763856D01*
X108361788Y-96743022D01*
X108281103Y-96725872D01*
X108281099Y-96725872D01*
X108274646Y-96724500D01*
X108085354Y-96724500D01*
X108078901Y-96725872D01*
X108078897Y-96725872D01*
X107998212Y-96743022D01*
X107900197Y-96763856D01*
X107727270Y-96840849D01*
X107574129Y-96952112D01*
X107569716Y-96957014D01*
X107569714Y-96957015D01*
X107451886Y-97087876D01*
X107447467Y-97092784D01*
X107444164Y-97098505D01*
X107418387Y-97143153D01*
X107352821Y-97256716D01*
X107294326Y-97436744D01*
X107279500Y-97577808D01*
X107279500Y-102702192D01*
X106078580Y-102702192D01*
X106131521Y-102562823D01*
X106149396Y-102435643D01*
X106154404Y-102400010D01*
X106154404Y-102400006D01*
X106154955Y-102396088D01*
X106155249Y-102375000D01*
X106146879Y-102300380D01*
X106137266Y-102214672D01*
X106137265Y-102214669D01*
X106136481Y-102207676D01*
X106081108Y-102048668D01*
X105991884Y-101905879D01*
X105952543Y-101866262D01*
X105878205Y-101791403D01*
X105878201Y-101791400D01*
X105873242Y-101786406D01*
X105731079Y-101696187D01*
X105572462Y-101639706D01*
X105565474Y-101638873D01*
X105565471Y-101638872D01*
X105472300Y-101627762D01*
X105405273Y-101619769D01*
X105371308Y-101623339D01*
X105338426Y-101622477D01*
X105328427Y-101620893D01*
X105328423Y-101620893D01*
X105320595Y-101619653D01*
X105310546Y-101620603D01*
X105275235Y-101623941D01*
X105263377Y-101624500D01*
X102112299Y-101624500D01*
X102044788Y-101604887D01*
X102031079Y-101596187D01*
X101872462Y-101539706D01*
X101865474Y-101538873D01*
X101865471Y-101538872D01*
X101772300Y-101527762D01*
X101705273Y-101519769D01*
X101698270Y-101520505D01*
X101698269Y-101520505D01*
X101652712Y-101525293D01*
X101537821Y-101537369D01*
X101531155Y-101539638D01*
X101531152Y-101539639D01*
X101385098Y-101589360D01*
X101385095Y-101589361D01*
X101378431Y-101591630D01*
X101372436Y-101595318D01*
X101372432Y-101595320D01*
X101241021Y-101676165D01*
X101241019Y-101676167D01*
X101235022Y-101679856D01*
X101210010Y-101704350D01*
X101131500Y-101781233D01*
X101114724Y-101797661D01*
X101023515Y-101939190D01*
X101021105Y-101945810D01*
X101021104Y-101945813D01*
X101000899Y-102001325D01*
X100965927Y-102097409D01*
X100944825Y-102264455D01*
X100400500Y-102264455D01*
X100400500Y-98389455D01*
X102744825Y-98389455D01*
X102761255Y-98557025D01*
X102814402Y-98716791D01*
X102818049Y-98722813D01*
X102818050Y-98722815D01*
X102841390Y-98761353D01*
X102901624Y-98860812D01*
X102906513Y-98865875D01*
X102906514Y-98865876D01*
X102931928Y-98892193D01*
X103018586Y-98981929D01*
X103024483Y-98985788D01*
X103153577Y-99070266D01*
X103153581Y-99070268D01*
X103159475Y-99074125D01*
X103166079Y-99076581D01*
X103317289Y-99132815D01*
X103316802Y-99134125D01*
X103368336Y-99163282D01*
X104783482Y-100578428D01*
X104813945Y-100627751D01*
X104858128Y-100760570D01*
X104861775Y-100766592D01*
X104861776Y-100766594D01*
X104922372Y-100866649D01*
X104945350Y-100904591D01*
X104950239Y-100909654D01*
X104950240Y-100909655D01*
X105005915Y-100967308D01*
X105062312Y-101025708D01*
X105068209Y-101029567D01*
X105197303Y-101114045D01*
X105197307Y-101114047D01*
X105203201Y-101117904D01*
X105361015Y-101176594D01*
X105367996Y-101177525D01*
X105367998Y-101177526D01*
X105413538Y-101183602D01*
X105527909Y-101198862D01*
X105534920Y-101198224D01*
X105534924Y-101198224D01*
X105688569Y-101184241D01*
X105695590Y-101183602D01*
X105702292Y-101181424D01*
X105702294Y-101181424D01*
X105849024Y-101133749D01*
X105849027Y-101133748D01*
X105855723Y-101131572D01*
X106000349Y-101045357D01*
X106005443Y-101040506D01*
X106005447Y-101040503D01*
X106117180Y-100934101D01*
X106117181Y-100934099D01*
X106122280Y-100929244D01*
X106132452Y-100913935D01*
X106191591Y-100824923D01*
X106215457Y-100789002D01*
X106275247Y-100631602D01*
X106298681Y-100464867D01*
X106298975Y-100443779D01*
X106280207Y-100276455D01*
X106224834Y-100117447D01*
X106135610Y-99974658D01*
X106085817Y-99924516D01*
X106021931Y-99860182D01*
X106021927Y-99860179D01*
X106016968Y-99855185D01*
X105874805Y-99764966D01*
X105800775Y-99738605D01*
X105753947Y-99709001D01*
X104234905Y-98189959D01*
X104205009Y-98142301D01*
X104183427Y-98080325D01*
X104183424Y-98080319D01*
X104181108Y-98073668D01*
X104091884Y-97930879D01*
X104083723Y-97922661D01*
X103978205Y-97816403D01*
X103978201Y-97816400D01*
X103973242Y-97811406D01*
X103831079Y-97721187D01*
X103672462Y-97664706D01*
X103665474Y-97663873D01*
X103665471Y-97663872D01*
X103572300Y-97652762D01*
X103505273Y-97644769D01*
X103498270Y-97645505D01*
X103498269Y-97645505D01*
X103452712Y-97650293D01*
X103337821Y-97662369D01*
X103331155Y-97664638D01*
X103331152Y-97664639D01*
X103185098Y-97714360D01*
X103185095Y-97714361D01*
X103178431Y-97716630D01*
X103172436Y-97720318D01*
X103172432Y-97720320D01*
X103041021Y-97801165D01*
X103041019Y-97801167D01*
X103035022Y-97804856D01*
X102914724Y-97922661D01*
X102823515Y-98064190D01*
X102765927Y-98222409D01*
X102744825Y-98389455D01*
X100400500Y-98389455D01*
X100400500Y-98041436D01*
X100402051Y-98021726D01*
X100403941Y-98009793D01*
X100405492Y-98000000D01*
X100403941Y-97990207D01*
X100403941Y-97983850D01*
X100403084Y-97963869D01*
X100416138Y-97781358D01*
X100418696Y-97763564D01*
X100440216Y-97664639D01*
X100463376Y-97558174D01*
X100468440Y-97540926D01*
X100541896Y-97343985D01*
X100549364Y-97327633D01*
X100650097Y-97143153D01*
X100659817Y-97128029D01*
X100785781Y-96959761D01*
X100797554Y-96946175D01*
X100946175Y-96797554D01*
X100959761Y-96785781D01*
X101128029Y-96659817D01*
X101143153Y-96650097D01*
X101327633Y-96549364D01*
X101343985Y-96541896D01*
X101540926Y-96468440D01*
X101558174Y-96463376D01*
X101763564Y-96418696D01*
X101781358Y-96416138D01*
X101801534Y-96414695D01*
X101963869Y-96403084D01*
X101983850Y-96403941D01*
X101990207Y-96403941D01*
X102000000Y-96405492D01*
X102021726Y-96402051D01*
X102041436Y-96400500D01*
X121458564Y-96400500D01*
X121478274Y-96402051D01*
G37*
G04 #@! TD.AperFunction*
M02*
