M48
; FORMAT={-:-/ absolute / metric / decimal}
; #@! TF.GenerationSoftware,Kicad,Pcbnew,6.0.7+dfsg-1~bpo11+1
; #@! TF.FileFunction,Plated,1,2,PTH
FMAT,2
METRIC
; #@! TA.AperFunction,Plated,PTH,ViaDrill
T1C0.300
; #@! TA.AperFunction,Plated,PTH,ComponentDrill
T2C0.600
%
G90
G05
T1
X100.962Y-106.412
X101.7Y-98.5
X101.7Y-102.275
X102.2Y-110.0
X103.5Y-98.4
X104.487Y-98.387
X104.7Y-121.7
X105.4Y-102.375
X105.544Y-100.444
X106.0Y-117.7
X106.2Y-121.7
X106.312Y-108.562
X106.5Y-113.4
X107.1Y-114.2
X107.1Y-117.7
X108.2Y-103.9
X109.05Y-103.85
X109.487Y-119.787
X111.5Y-99.774
X111.549Y-101.748
X112.4Y-99.224
X112.418Y-101.246
X114.5Y-106.575
X114.95Y-117.6
X115.2Y-121.7
X115.85Y-104.125
X116.951Y-104.126
X117.2Y-121.7
X117.9Y-111.8
X117.945Y-108.33
X118.601Y-102.475
X119.4Y-116.7
X119.4Y-121.7
X119.512Y-114.212
X120.05Y-100.725
X120.42Y-117.78
X121.1Y-106.275
X121.3Y-119.7
X122.0Y-106.275
X122.1Y-117.7
X122.7Y-109.125
X122.7Y-116.825
T2
G00X108.18Y-98.225
M15
G01X108.18Y-97.625
M16
G05
G00X108.18Y-102.655
M15
G01X108.18Y-101.555
M16
G05
G00X116.82Y-98.225
M15
G01X116.82Y-97.625
M16
G05
G00X116.82Y-102.655
M15
G01X116.82Y-101.555
M16
G05
T0
M30
