G04 #@! TF.GenerationSoftware,KiCad,Pcbnew,6.0.10+dfsg-1~bpo11+1*
G04 #@! TF.ProjectId,panel,70616e65-6c2e-46b6-9963-61645f706362,rev?*
G04 #@! TF.SameCoordinates,Original*
G04 #@! TF.FileFunction,Paste,Bot*
G04 #@! TF.FilePolarity,Positive*
%FSLAX46Y46*%
G04 Gerber Fmt 4.6, Leading zero omitted, Abs format (unit mm)*
%MOMM*%
%LPD*%
G01*
G04 APERTURE LIST*
G04 #@! TA.AperFunction,Profile*
%ADD10C,0.100000*%
G04 #@! TD*
G04 APERTURE END LIST*
D10*
X165883099Y-52951681D02*
X165859148Y-52993960D01*
X159119276Y-20199101D02*
X159050223Y-20167373D01*
X136762272Y-76475000D02*
X136762027Y-76475003D01*
X108241655Y-106949798D02*
X108242136Y-106949702D01*
X186259023Y-20687854D02*
X186208078Y-20631466D01*
X163495441Y-105909375D02*
X163495561Y-105909598D01*
X197758929Y-106503331D02*
X197759124Y-106503182D01*
X159318505Y-106640317D02*
X159381958Y-106598498D01*
X132797010Y-20296284D02*
X132731521Y-20257733D01*
X109240122Y-73475000D02*
X112009877Y-73475000D01*
X165433278Y-50570053D02*
X165476681Y-50591900D01*
X157510718Y-52630262D02*
X157504770Y-52582036D01*
X157640851Y-73956039D02*
X157666847Y-73914987D01*
X131838634Y-20002246D02*
X131756331Y-20000160D01*
X197431919Y-20231017D02*
X197431699Y-20230910D01*
X98731017Y-105881919D02*
X98736310Y-105892433D01*
X110293803Y-105364937D02*
X110310982Y-105438964D01*
X185527181Y-20157481D02*
X185526947Y-20157385D01*
X185040539Y-20021498D02*
X185040288Y-20021462D01*
X165518960Y-76334148D02*
X165476681Y-76358099D01*
X138661365Y-20002246D02*
X138661112Y-20002255D01*
X110601643Y-20867831D02*
X110601501Y-20868041D01*
X131256460Y-76149841D02*
X131224721Y-76113047D01*
X99746188Y-20148106D02*
X99745958Y-20148191D01*
X163253522Y-50472517D02*
X163253902Y-50472829D01*
X132140127Y-20038705D02*
X132065325Y-20025298D01*
X197254041Y-106801808D02*
X197265023Y-106797571D01*
X165035096Y-106938138D02*
X165035348Y-106938166D01*
X197759124Y-20446817D02*
X197758929Y-20446668D01*
X188755125Y-106948646D02*
X188755558Y-106948877D01*
X133323545Y-106184030D02*
X133323703Y-106183831D01*
X163252170Y-76478902D02*
X163251878Y-76479296D01*
X137381280Y-20542093D02*
X137363289Y-20559195D01*
X164543624Y-20129195D02*
X164473052Y-20157385D01*
X165883099Y-50998318D02*
X165904946Y-51041721D01*
X164835309Y-20043749D02*
X164835062Y-20043803D01*
X98736310Y-105892433D02*
X98736541Y-105892866D01*
X112518960Y-73615851D02*
X112560012Y-73641847D01*
X99222120Y-20462220D02*
X99094879Y-20577544D01*
X110257387Y-76475416D02*
X110256917Y-76475559D01*
X110863289Y-106390804D02*
X110881280Y-106407906D01*
X138509877Y-53475000D02*
X131990122Y-53475000D01*
X131095053Y-51041721D02*
X131116900Y-50998318D01*
X110256455Y-76475724D02*
X110256002Y-76475912D01*
X163256002Y-76475912D02*
X163255558Y-76476122D01*
X110251878Y-76479296D02*
X110251605Y-76479704D01*
X131256460Y-53149841D02*
X131224721Y-53113047D01*
X139383099Y-73998318D02*
X139404946Y-74041721D01*
X164473052Y-20157385D02*
X164472818Y-20157481D01*
X99379002Y-20344371D02*
X99241070Y-20446668D01*
X160224743Y-105265075D02*
X160228501Y-105240539D01*
X163809372Y-20613108D02*
X163809195Y-20613289D01*
X186118533Y-20541921D02*
X186062145Y-20490976D01*
X132360713Y-106854181D02*
X132432623Y-106829601D01*
X184844737Y-50485718D02*
X184892963Y-50479770D01*
X112980974Y-74271861D02*
X112989281Y-74319737D01*
X198413660Y-21419753D02*
X198413518Y-21419284D01*
X185263484Y-20067330D02*
X185263240Y-20067264D01*
X132797227Y-106653583D02*
X132818292Y-106640453D01*
X186136710Y-106390804D02*
X186136891Y-106390627D01*
X112243668Y-20000160D02*
X112161365Y-20002246D01*
X110601501Y-106081958D02*
X110601643Y-106082168D01*
X163250003Y-76487027D02*
X163250000Y-76487272D01*
X110957073Y-20474478D02*
X110956878Y-20474640D01*
X100304239Y-20009909D02*
X100303751Y-20009957D01*
X139099740Y-73669826D02*
X139138047Y-73699721D01*
X111859623Y-106911246D02*
X111859872Y-106911294D01*
X184004770Y-51367963D02*
X184010718Y-51319737D01*
X163250160Y-21993668D02*
X163250158Y-21993794D01*
X198416800Y-105518902D02*
X198416862Y-105518664D01*
X133338897Y-20785796D02*
X133323703Y-20766168D01*
X132984030Y-106523545D02*
X133042926Y-106475521D01*
X136750081Y-50465681D02*
X136750129Y-50466169D01*
X188753159Y-20002811D02*
X188752811Y-20003159D01*
X164117831Y-106598356D02*
X164118041Y-106598498D01*
X137381466Y-106408078D02*
X137437854Y-106459023D01*
X188349740Y-53280173D02*
X188310012Y-53308152D01*
X136750129Y-50466169D02*
X136750201Y-50466655D01*
X111959711Y-20021462D02*
X111959460Y-20021498D01*
X138434674Y-106924701D02*
X138434924Y-106924743D01*
X111181494Y-106640317D02*
X111181707Y-106640453D01*
X131863930Y-20003528D02*
X131863677Y-20003512D01*
X139404946Y-51041721D02*
X139424637Y-51086144D01*
X165256207Y-106949999D02*
X165256333Y-106950000D01*
X163407385Y-21223052D02*
X163379195Y-21293624D01*
X136845818Y-105560713D02*
X136870398Y-105632623D01*
X157519025Y-52678138D02*
X157510718Y-52630262D01*
X136907385Y-105726947D02*
X136907481Y-105727181D01*
X159884028Y-20847252D02*
X159839049Y-20785999D01*
X108251195Y-74416423D02*
X108254770Y-74367963D01*
X165560012Y-53308152D02*
X165518960Y-53334148D01*
X100291826Y-106938568D02*
X100292069Y-106938601D01*
X136960141Y-105841791D02*
X136960256Y-105842017D01*
X112433278Y-50570053D02*
X112476681Y-50591900D01*
X157504770Y-75582036D02*
X157501195Y-75533576D01*
X138933278Y-76379946D02*
X138888855Y-76399637D01*
X158338887Y-20002255D02*
X158338634Y-20002246D01*
X137160950Y-20785999D02*
X137115971Y-20847252D01*
X163262272Y-50475000D02*
X165009877Y-50475000D01*
X99388824Y-106612549D02*
X99389232Y-106612822D01*
X111035999Y-20410950D02*
X111035796Y-20411102D01*
X111859623Y-20038753D02*
X111835309Y-20043749D01*
X160249839Y-104956331D02*
X160249841Y-104956205D01*
X110407385Y-105726947D02*
X110407481Y-105727181D01*
X188493539Y-53149841D02*
X188460033Y-53185033D01*
X131611144Y-50550362D02*
X131656480Y-50532874D01*
X186398356Y-106082168D02*
X186398498Y-106081958D01*
X188674637Y-74086144D02*
X188692125Y-74131480D01*
X110407385Y-21223052D02*
X110379195Y-21293624D01*
X108246477Y-106947517D02*
X108246840Y-106947188D01*
X110937854Y-106459023D02*
X110938045Y-106459190D01*
X99241070Y-106503331D02*
X99379002Y-106605628D01*
X164934674Y-20025298D02*
X164859872Y-20038705D01*
X133740190Y-76475057D02*
X133737972Y-76475003D01*
X186136710Y-20559195D02*
X186118719Y-20542093D01*
X108539966Y-53185033D02*
X108506460Y-53149841D01*
X164639286Y-20095818D02*
X164567376Y-20120398D01*
X111015969Y-106523545D02*
X111016168Y-106523703D01*
X133620895Y-21293861D02*
X133620804Y-21293624D01*
X131057874Y-51131480D02*
X131075362Y-51086144D01*
X164567376Y-106829601D02*
X164639286Y-106854181D01*
X186453583Y-20952772D02*
X186440453Y-20931707D01*
X158565075Y-20025256D02*
X158540539Y-20021498D01*
X198413518Y-21419284D02*
X198409826Y-21408107D01*
X158640127Y-106911294D02*
X158640376Y-106911246D01*
X110251605Y-50470295D02*
X110251878Y-50470703D01*
X110250201Y-76483344D02*
X110250129Y-76483830D01*
X110615971Y-106102747D02*
X110660950Y-106164000D01*
X186724743Y-105265075D02*
X186728501Y-105240539D01*
X133682735Y-105463240D02*
X133688957Y-105439210D01*
X112107036Y-50479770D02*
X112155262Y-50485718D01*
X131743666Y-106950000D02*
X131743792Y-106949999D01*
X186749087Y-76481002D02*
X186748877Y-76480558D01*
X164472818Y-106792518D02*
X164473052Y-106792614D01*
X185902541Y-20365823D02*
X185882168Y-20351643D01*
X136750000Y-104943666D02*
X136750000Y-104943792D01*
X186550898Y-105819276D02*
X186582626Y-105750223D01*
X136752246Y-105038634D02*
X136752255Y-105038887D01*
X186492392Y-105931301D02*
X186504438Y-105909598D01*
X98511398Y-105157930D02*
X98511431Y-105158173D01*
X188555173Y-53074740D02*
X188525278Y-53113047D01*
X165058576Y-73476195D02*
X165107036Y-73479770D01*
X138236515Y-106882669D02*
X138236759Y-106882735D01*
X136754704Y-50473394D02*
X136755125Y-50473646D01*
X98830880Y-20899177D02*
X98830751Y-20899385D01*
X187759877Y-73475000D02*
X187808576Y-73476195D01*
X133118719Y-20542093D02*
X133118533Y-20541921D01*
X139138047Y-73699721D02*
X139174841Y-73731460D01*
X159759190Y-20688045D02*
X159759023Y-20687854D01*
X185336789Y-106861690D02*
X185360472Y-106854259D01*
X163661102Y-106164203D02*
X163676296Y-106183831D01*
X186323703Y-20766168D02*
X186323545Y-20765969D01*
X133539858Y-105841791D02*
X133550789Y-105819505D01*
X160039743Y-105842017D02*
X160039858Y-105841791D01*
X163460141Y-21108208D02*
X163449210Y-21130494D01*
X131010718Y-52630262D02*
X131004770Y-52582036D01*
X160182735Y-105463240D02*
X160188957Y-105439210D01*
X188583152Y-73914987D02*
X188609148Y-73956039D01*
X132619505Y-106750789D02*
X132641791Y-106739858D01*
X197768783Y-106495630D02*
X197777696Y-106487941D01*
X111035999Y-106539049D02*
X111097252Y-106584028D01*
X111736759Y-20067264D02*
X111736515Y-20067330D01*
X136750912Y-76481002D02*
X136750724Y-76481455D01*
X163615823Y-106102541D02*
X163615971Y-106102747D01*
X163250912Y-76481002D02*
X163250724Y-76481455D01*
X108773318Y-53358099D02*
X108731039Y-53334148D01*
X98730910Y-105881699D02*
X98731017Y-105881919D01*
X186323545Y-20765969D02*
X186275521Y-20707073D01*
X138434924Y-106924743D02*
X138459460Y-106928501D01*
X159543121Y-106475359D02*
X159561954Y-106459190D01*
X110258830Y-50474870D02*
X110259318Y-50474918D01*
X133749942Y-50465190D02*
X133749996Y-50462972D01*
X133740678Y-21810042D02*
X133738166Y-21785348D01*
X196708173Y-106938568D02*
X196878041Y-106913371D01*
X131194826Y-53074740D02*
X131166847Y-53035012D01*
X99931335Y-106866862D02*
X100097914Y-106908588D01*
X198490042Y-21803751D02*
X198488601Y-21792069D01*
X108243544Y-20000724D02*
X108243082Y-20000559D01*
X133738166Y-21785348D02*
X133738138Y-21785096D01*
X184095053Y-51041721D02*
X184116900Y-50998318D01*
X99222303Y-20462058D02*
X99222120Y-20462220D01*
X159839049Y-20785999D02*
X159838897Y-20785796D01*
X188730974Y-74271861D02*
X188739281Y-74319737D01*
X136756917Y-50474440D02*
X136757387Y-50474583D01*
X132239210Y-106888957D02*
X132263240Y-106882735D01*
X110345818Y-21389286D02*
X110345740Y-21389527D01*
X163288705Y-105340127D02*
X163288753Y-105340376D01*
X164639527Y-106854259D02*
X164663210Y-106861690D01*
X111835309Y-106906250D02*
X111859623Y-106911246D01*
X138976681Y-73591900D02*
X139018960Y-73615851D01*
X186259190Y-106261954D02*
X186275359Y-106243121D01*
X159823545Y-20765969D02*
X159775521Y-20707073D01*
X110250559Y-50468082D02*
X110250724Y-50468544D01*
X137790624Y-20245441D02*
X137790401Y-20245561D01*
X185263484Y-106882669D02*
X185336546Y-106861763D01*
X112433278Y-73570053D02*
X112476681Y-73591900D01*
X131057874Y-52818519D02*
X131042631Y-52772380D01*
X163345740Y-21389527D02*
X163338309Y-21413210D01*
X132456375Y-106820804D02*
X132526947Y-106792614D01*
X163601643Y-20867831D02*
X163601501Y-20868041D01*
X131361952Y-73699721D02*
X131400259Y-73669826D01*
X131611144Y-53399637D02*
X131566721Y-53379946D01*
X136755558Y-50473877D02*
X136756002Y-50474087D01*
X131702619Y-50517631D02*
X131749450Y-50504671D01*
X188093519Y-73532874D02*
X188138855Y-73550362D01*
X165859148Y-75993960D02*
X165833152Y-76035012D01*
X108366900Y-52951681D02*
X108345053Y-52908278D01*
X184140851Y-50956039D02*
X184166847Y-50914987D01*
X185065325Y-20025298D02*
X185065075Y-20025256D01*
X160241655Y-50474798D02*
X160242136Y-50474702D01*
X187857036Y-53470229D02*
X187808576Y-53473804D01*
X186746840Y-50472188D02*
X186747188Y-50471840D01*
X164663210Y-20088309D02*
X164639527Y-20095740D01*
X137363108Y-106390627D02*
X137363289Y-106390804D01*
X108539966Y-73764966D02*
X108575158Y-73731460D01*
X98590253Y-21407875D02*
X98590173Y-21408107D01*
X159690627Y-106336891D02*
X159690804Y-106336710D01*
X139275278Y-73836952D02*
X139305173Y-73875259D01*
X186620804Y-105656375D02*
X186620895Y-105656138D01*
X198053331Y-20741070D02*
X198053182Y-20740875D01*
X196683776Y-20009028D02*
X196512257Y-20000602D01*
X165035096Y-20011861D02*
X164959711Y-20021462D01*
X133661763Y-21413453D02*
X133661690Y-21413210D01*
X163938045Y-106459190D02*
X163956878Y-106475359D01*
X165980974Y-52678138D02*
X165970328Y-52725549D01*
X99077544Y-106355120D02*
X99077711Y-106355300D01*
X136960256Y-21107982D02*
X136960141Y-21108208D01*
X158111144Y-53399637D02*
X158066721Y-53379946D01*
X163724640Y-106243121D02*
X163740809Y-106261954D01*
X137880723Y-20199101D02*
X137880494Y-20199210D01*
X133492392Y-105931301D02*
X133504438Y-105909598D01*
X108242136Y-20000297D02*
X108241655Y-20000201D01*
X198490971Y-21816223D02*
X198490956Y-21815978D01*
X158202619Y-53432368D02*
X158156480Y-53417125D01*
X98830751Y-106050614D02*
X98830880Y-106050822D01*
X159402541Y-20365823D02*
X159382168Y-20351643D01*
X185983831Y-106523703D02*
X185984030Y-106523545D01*
X164835062Y-20043803D02*
X164761035Y-20060982D01*
X139470328Y-74224450D02*
X139480974Y-74271861D01*
X186724701Y-105265325D02*
X186724743Y-105265075D01*
X108247188Y-20003159D02*
X108246840Y-20002811D01*
X108246097Y-106947829D02*
X108246477Y-106947517D01*
X110546284Y-20952989D02*
X110507733Y-21018478D01*
X198162549Y-20888824D02*
X198155772Y-20879201D01*
X110275256Y-21684924D02*
X110271498Y-21709460D01*
X160092518Y-21222818D02*
X160082729Y-21200008D01*
X197068902Y-106866800D02*
X197080246Y-106863660D01*
X160250000Y-22006333D02*
X160249999Y-22006207D01*
X136752811Y-50471840D02*
X136753159Y-50472188D01*
X163254296Y-50473121D02*
X163254704Y-50473394D01*
X98736541Y-105892866D02*
X98742343Y-105903107D01*
X108249798Y-106941655D02*
X108249870Y-106941169D01*
X131140851Y-50956039D02*
X131166847Y-50914987D01*
X157501195Y-75533576D02*
X157500000Y-75484877D01*
X133062145Y-106459023D02*
X133118533Y-106408078D01*
X163293749Y-105364690D02*
X163293803Y-105364937D01*
X110250158Y-104956205D02*
X110250160Y-104956331D01*
X131939704Y-20009299D02*
X131863930Y-20003528D01*
X185164937Y-106906196D02*
X185238964Y-106889017D01*
X184964651Y-106938166D02*
X184964903Y-106938138D01*
X188752482Y-106946477D02*
X188752811Y-106946840D01*
X98500000Y-104937727D02*
X98500003Y-104937972D01*
X163256917Y-50474440D02*
X163257387Y-50474583D01*
X184566721Y-73570053D02*
X184611144Y-73550362D01*
X165638047Y-50699721D02*
X165674841Y-50731460D01*
X165942125Y-51131480D02*
X165957368Y-51177619D01*
X185238964Y-20060982D02*
X185164937Y-20043803D01*
X98509957Y-105146248D02*
X98511398Y-105157930D01*
X112035348Y-20011833D02*
X112035096Y-20011861D01*
X157595053Y-74041721D02*
X157616900Y-73998318D01*
X133749702Y-50467136D02*
X133749798Y-50466655D01*
X159464000Y-20410950D02*
X159402747Y-20365971D01*
X186742612Y-50474583D02*
X186743082Y-50474440D01*
X188750297Y-106942136D02*
X188750416Y-106942612D01*
X188762272Y-106950000D02*
X196487727Y-106950000D01*
X131439987Y-50641847D02*
X131481039Y-50615851D01*
X184749450Y-50504671D02*
X184796861Y-50494025D01*
X110251878Y-50470703D02*
X110252170Y-50471097D01*
X164380723Y-20199101D02*
X164380494Y-20199210D01*
X131029671Y-51224450D02*
X131042631Y-51177619D01*
X163310982Y-105438964D02*
X163311042Y-105439210D01*
X160092614Y-105726947D02*
X160120804Y-105656375D01*
X158066721Y-50570053D02*
X158111144Y-50550362D01*
X133654259Y-21389527D02*
X133654181Y-21389286D01*
X164663453Y-106861763D02*
X164736515Y-106882669D01*
X110660950Y-20785999D02*
X110615971Y-20847252D01*
X133749798Y-50466655D02*
X133749870Y-50466169D01*
X136754704Y-76476605D02*
X136754296Y-76476878D01*
X186661690Y-105536789D02*
X186661763Y-105536546D01*
X158066721Y-53379946D02*
X158023318Y-53358099D01*
X133582729Y-105749991D02*
X133592518Y-105727181D01*
X186747829Y-50471097D02*
X186748121Y-50470703D01*
X110250416Y-50467612D02*
X110250559Y-50468082D01*
X112060295Y-20009299D02*
X112060042Y-20009321D01*
X198490090Y-105145760D02*
X198490956Y-105134021D01*
X198162549Y-106061175D02*
X198162822Y-106060767D01*
X131361952Y-50699721D02*
X131400259Y-50669826D01*
X131964903Y-20011861D02*
X131964651Y-20011833D01*
X157939987Y-73641847D02*
X157981039Y-73615851D01*
X185731301Y-20257607D02*
X185709598Y-20245561D01*
X197091892Y-20090173D02*
X197080715Y-20086481D01*
X138535096Y-20011861D02*
X138459711Y-20021462D01*
X139275278Y-76113047D02*
X139243539Y-76149841D01*
X110250003Y-76487027D02*
X110250000Y-76487272D01*
X185040288Y-20021462D02*
X184964903Y-20011861D01*
X110724640Y-106243121D02*
X110740809Y-106261954D01*
X133749942Y-76484809D02*
X133749918Y-76484318D01*
X110724478Y-106242926D02*
X110724640Y-106243121D01*
X110661102Y-20785796D02*
X110660950Y-20785999D01*
X112833152Y-50914987D02*
X112859148Y-50956039D01*
X137950008Y-20167270D02*
X137949776Y-20167373D01*
X112833152Y-76035012D02*
X112805173Y-76074740D01*
X110379195Y-21293624D02*
X110379104Y-21293861D01*
X163317264Y-21486759D02*
X163311042Y-21510789D01*
X163601501Y-20868041D02*
X163559682Y-20931494D01*
X198268982Y-21068080D02*
X198263689Y-21057566D01*
X186440317Y-20931494D02*
X186398498Y-20868041D01*
X163275298Y-105265325D02*
X163288705Y-105340127D01*
X188707368Y-52772380D02*
X188692125Y-52818519D01*
X110251353Y-76480125D02*
X110251122Y-76480558D01*
X164859623Y-20038753D02*
X164835309Y-20043749D01*
X110615823Y-20847458D02*
X110601643Y-20867831D01*
X188758344Y-20000201D02*
X188757863Y-20000297D01*
X111663453Y-106861763D02*
X111736515Y-106882669D01*
X186682669Y-105463484D02*
X186682735Y-105463240D01*
X163311042Y-105439210D02*
X163317264Y-105463240D01*
X99734522Y-20152615D02*
X99723762Y-20157385D01*
X157939987Y-50641847D02*
X157981039Y-50615851D01*
X185040288Y-106928537D02*
X185040539Y-106928501D01*
X133743082Y-76475559D02*
X133742612Y-76475416D01*
X111117831Y-106598356D02*
X111118041Y-106598498D01*
X133275359Y-20706878D02*
X133259190Y-20688045D01*
X112009877Y-53475000D02*
X109240122Y-53475000D01*
X110546284Y-105997010D02*
X110546416Y-105997227D01*
X163259321Y-105139957D02*
X163261833Y-105164651D01*
X112161365Y-106947753D02*
X112243668Y-106949839D01*
X160249870Y-50466169D02*
X160249918Y-50465681D01*
X133259023Y-20687854D02*
X133208078Y-20631466D01*
X108250000Y-52484877D02*
X108250000Y-20012272D01*
X110449101Y-21130723D02*
X110417373Y-21199776D01*
X197768403Y-106495941D02*
X197768783Y-106495630D01*
X163379195Y-21293624D02*
X163379104Y-21293861D01*
X158202619Y-76432368D02*
X158156480Y-76417125D01*
X186744874Y-50473646D02*
X186745295Y-50473394D01*
X163881280Y-20542093D02*
X163863289Y-20559195D01*
X110251122Y-50469441D02*
X110251353Y-50469874D01*
X157504770Y-74367963D02*
X157510718Y-74319737D01*
X112161112Y-20002255D02*
X112136322Y-20003512D01*
X197442433Y-106713689D02*
X197442866Y-106713458D01*
X112883099Y-73998318D02*
X112904946Y-74041721D01*
X112743539Y-76149841D02*
X112710033Y-76185033D01*
X188633099Y-73998318D02*
X188654946Y-74041721D01*
X137291921Y-106318533D02*
X137292093Y-106318719D01*
X198263689Y-21057566D02*
X198263458Y-21057133D01*
X163256455Y-76475724D02*
X163256002Y-76475912D01*
X163251353Y-76480125D02*
X163251122Y-76480558D01*
X186749870Y-50466169D02*
X186749918Y-50465681D01*
X136759809Y-50474942D02*
X136762027Y-50474996D01*
X184892963Y-53470229D02*
X184844737Y-53464281D01*
X160238166Y-105164651D02*
X160240678Y-105139957D01*
X131029671Y-74224450D02*
X131042631Y-74177619D01*
X188753522Y-20002482D02*
X188753159Y-20002811D01*
X185336546Y-106861763D02*
X185336789Y-106861690D01*
X165995229Y-75582036D02*
X165989281Y-75630262D01*
X112775278Y-50836952D02*
X112805173Y-50875259D01*
X133749918Y-76484318D02*
X133749870Y-76483830D01*
X159940453Y-106018292D02*
X159953583Y-105997227D01*
X185065075Y-106924743D02*
X185065325Y-106924701D01*
X163250000Y-76487272D02*
X163250000Y-104943666D01*
X132456138Y-106820895D02*
X132456375Y-106820804D01*
X133749275Y-50468544D02*
X133749440Y-50468082D01*
X112775278Y-53113047D02*
X112743539Y-53149841D01*
X110252170Y-76478902D02*
X110251878Y-76479296D01*
X110956878Y-20474640D02*
X110938045Y-20490809D01*
X165060042Y-106940678D02*
X165060295Y-106940700D01*
X110495561Y-21040401D02*
X110495441Y-21040624D01*
X110345740Y-21389527D02*
X110338309Y-21413210D01*
X186688957Y-21510789D02*
X186682735Y-21486759D01*
X111035796Y-20411102D02*
X111016168Y-20426296D01*
X111543861Y-106820895D02*
X111567138Y-106829516D01*
X160092518Y-105727181D02*
X160092614Y-105726947D01*
X197265023Y-106797571D02*
X197265477Y-106797384D01*
X185881958Y-106598498D02*
X185882168Y-106598356D01*
X133748121Y-50470703D02*
X133748394Y-50470295D01*
X197080715Y-20086481D02*
X197080246Y-20086339D01*
X98536628Y-105328041D02*
X98536667Y-105328283D01*
X110345740Y-105560472D02*
X110345818Y-105560713D01*
X184194826Y-76074740D02*
X184166847Y-76035012D01*
X160120895Y-21293861D02*
X160120804Y-21293624D01*
X197080246Y-106863660D02*
X197080715Y-106863518D01*
X163259299Y-105139704D02*
X163259321Y-105139957D01*
X163251122Y-76480558D02*
X163250912Y-76481002D01*
X188755558Y-106948877D02*
X188756002Y-106949087D01*
X160082626Y-21199776D02*
X160050898Y-21130723D01*
X196902085Y-20041411D02*
X196901846Y-20041354D01*
X112883099Y-52951681D02*
X112859148Y-52993960D01*
X112518960Y-53334148D02*
X112476681Y-53358099D01*
X157542631Y-75772380D02*
X157529671Y-75725549D01*
X188750129Y-20008830D02*
X188750081Y-20009318D01*
X186746487Y-105063677D02*
X186747744Y-105038887D01*
X137880494Y-106750789D02*
X137880723Y-106750898D01*
X158664937Y-106906196D02*
X158738964Y-106889017D01*
X137597458Y-106584176D02*
X137617831Y-106598356D01*
X163261833Y-105164651D02*
X163261861Y-105164903D01*
X109094737Y-73485718D02*
X109142963Y-73479770D01*
X164859872Y-20038705D02*
X164859623Y-20038753D01*
X160244441Y-76476122D02*
X160243997Y-76475912D01*
X133706250Y-105364690D02*
X133711246Y-105340376D01*
X110250000Y-104943792D02*
X110250158Y-104956205D01*
X165388855Y-73550362D02*
X165433278Y-73570053D01*
X136960141Y-21108208D02*
X136949210Y-21130494D01*
X98509028Y-21816223D02*
X98500602Y-21987742D01*
X186728537Y-21709711D02*
X186728501Y-21709460D01*
X99094879Y-20577544D02*
X99094699Y-20577711D01*
X157825158Y-76218539D02*
X157789966Y-76185033D01*
X158932861Y-20120483D02*
X158932623Y-20120398D01*
X184029671Y-74224450D02*
X184042631Y-74177619D01*
X136754296Y-50473121D02*
X136754704Y-50473394D01*
X186061954Y-20490809D02*
X186043121Y-20474640D01*
X136917270Y-105749991D02*
X136917373Y-105750223D01*
X110495441Y-21040624D02*
X110460256Y-21107982D01*
X197068664Y-106866862D02*
X197068902Y-106866800D01*
X165155262Y-50485718D02*
X165203138Y-50494025D01*
X163255558Y-76476122D02*
X163255125Y-76476353D01*
X186745295Y-76476605D02*
X186744874Y-76476353D01*
X165998804Y-51416423D02*
X166000000Y-51465122D01*
X131702619Y-76432368D02*
X131656480Y-76417125D01*
X133745703Y-76476878D02*
X133745295Y-76476605D01*
X157900259Y-73669826D02*
X157939987Y-73641847D01*
X133706250Y-21585309D02*
X133706196Y-21585062D01*
X138236515Y-20067330D02*
X138163453Y-20088236D01*
X163253159Y-76477811D02*
X163252811Y-76478159D01*
X157724721Y-53113047D02*
X157694826Y-53074740D01*
X159297010Y-106653715D02*
X159297227Y-106653583D01*
X132964000Y-106539049D02*
X132964203Y-106538897D01*
X108269025Y-52678138D02*
X108260718Y-52630262D01*
X133190627Y-106336891D02*
X133190804Y-106336710D01*
X159209598Y-20245561D02*
X159209375Y-20245441D01*
X157825158Y-50731460D02*
X157861952Y-50699721D01*
X132881958Y-106598498D02*
X132882168Y-106598356D01*
X163792093Y-106318719D02*
X163809195Y-106336710D01*
X112243794Y-106949841D02*
X112256207Y-106949999D01*
X188751353Y-106944874D02*
X188751605Y-106945295D01*
X184400259Y-53280173D02*
X184361952Y-53250278D01*
X98657385Y-21223762D02*
X98652615Y-21234522D01*
X111472818Y-106792518D02*
X111473052Y-106792614D01*
X184566721Y-76379946D02*
X184523318Y-76358099D01*
X112203138Y-50494025D02*
X112250549Y-50504671D01*
X98742466Y-21046680D02*
X98742343Y-21046892D01*
X111016168Y-20426296D02*
X111015969Y-20426454D01*
X164035796Y-106538897D02*
X164035999Y-106539049D01*
X188757863Y-106949702D02*
X188758344Y-106949798D01*
X137437854Y-106459023D02*
X137438045Y-106459190D01*
X138756207Y-20000000D02*
X138743794Y-20000158D01*
X186550898Y-21130723D02*
X186550789Y-21130494D01*
X160240700Y-21810295D02*
X160240678Y-21810042D01*
X136761861Y-105164903D02*
X136771462Y-105240288D01*
X184004770Y-74367963D02*
X184010718Y-74319737D01*
X164268478Y-106692266D02*
X164268698Y-106692392D01*
X137101501Y-20868041D02*
X137059682Y-20931494D01*
X99723538Y-20157488D02*
X99568300Y-20230910D01*
X111663210Y-106861690D02*
X111663453Y-106861763D01*
X159464000Y-106539049D02*
X159464203Y-106538897D01*
X112942125Y-51131480D02*
X112957368Y-51177619D01*
X112256207Y-20000000D02*
X112243794Y-20000158D01*
X163271498Y-21709460D02*
X163271462Y-21709711D01*
X184523318Y-53358099D02*
X184481039Y-53334148D01*
X99077711Y-20594699D02*
X99077544Y-20594879D01*
X164959711Y-20021462D02*
X164959460Y-20021498D01*
X184611144Y-53399637D02*
X184566721Y-53379946D01*
X110250912Y-50468997D02*
X110251122Y-50469441D01*
X185456138Y-106820895D02*
X185456375Y-106820804D01*
X99557566Y-106713689D02*
X99568080Y-106718982D01*
X184010718Y-74319737D02*
X184019025Y-74271861D01*
X163250000Y-104943666D02*
X163250000Y-104943792D01*
X133747744Y-21911112D02*
X133746487Y-21886322D01*
X159838897Y-106164203D02*
X159839049Y-106164000D01*
X186550789Y-105819505D02*
X186550898Y-105819276D01*
X110661102Y-106164203D02*
X110676296Y-106183831D01*
X163258830Y-50474870D02*
X163259318Y-50474918D01*
X165161112Y-20002255D02*
X165136322Y-20003512D01*
X186737972Y-50474996D02*
X186740190Y-50474942D01*
X131001195Y-52533576D02*
X131000000Y-52484877D01*
X131361952Y-53250278D02*
X131325158Y-53218539D01*
X133629516Y-105632861D02*
X133629601Y-105632623D01*
X138163453Y-20088236D02*
X138163210Y-20088309D01*
X99907875Y-106859746D02*
X99908107Y-106859826D01*
X163345818Y-21389286D02*
X163345740Y-21389527D01*
X160249440Y-50468082D02*
X160249583Y-50467612D01*
X131566721Y-73570053D02*
X131611144Y-73550362D01*
X186042926Y-20474478D02*
X185984030Y-20426454D01*
X138655262Y-50485718D02*
X138703138Y-50494025D01*
X164543624Y-106820804D02*
X164543861Y-106820895D01*
X138797380Y-53432368D02*
X138750549Y-53445328D01*
X139457368Y-51177619D02*
X139470328Y-51224450D01*
X131439987Y-76308152D02*
X131400259Y-76280173D01*
X186504558Y-21040624D02*
X186504438Y-21040401D01*
X164567138Y-20120483D02*
X164543861Y-20129104D01*
X131892963Y-73479770D02*
X131941423Y-73476195D01*
X139489281Y-75630262D02*
X139480974Y-75678138D01*
X139210033Y-50764966D02*
X139243539Y-50800158D01*
X108816721Y-53379946D02*
X108773318Y-53358099D01*
X137790401Y-20245561D02*
X137768698Y-20257607D01*
X131481039Y-76334148D02*
X131439987Y-76308152D01*
X133740190Y-50474942D02*
X133740681Y-50474918D01*
X136775298Y-105265325D02*
X136788705Y-105340127D01*
X138933278Y-53379946D02*
X138888855Y-53399637D01*
X186706250Y-21585309D02*
X186706196Y-21585062D01*
X110252246Y-105038634D02*
X110252255Y-105038887D01*
X159231521Y-106692266D02*
X159297010Y-106653715D01*
X137059546Y-20931707D02*
X137046416Y-20952772D01*
X136960256Y-105842017D02*
X136995441Y-105909375D01*
X163791921Y-106318533D02*
X163792093Y-106318719D01*
X159636710Y-20559195D02*
X159618719Y-20542093D01*
X108240190Y-106949942D02*
X108240681Y-106949918D01*
X132964203Y-106538897D02*
X132983831Y-106523703D01*
X184004770Y-52582036D02*
X184001195Y-52533576D01*
X110407481Y-105727181D02*
X110417270Y-105749991D01*
X131075362Y-74086144D02*
X131095053Y-74041721D01*
X163338309Y-105536789D02*
X163345740Y-105560472D01*
X196683776Y-106940971D02*
X196684021Y-106940956D01*
X164035999Y-106539049D02*
X164097252Y-106584028D01*
X133629601Y-21317376D02*
X133629516Y-21317138D01*
X164118041Y-20351501D02*
X164117831Y-20351643D01*
X108952619Y-73517631D02*
X108999450Y-73504671D01*
X159026947Y-20157385D02*
X158956375Y-20129195D01*
X160242612Y-76475416D02*
X160242136Y-76475297D01*
X159898498Y-106081958D02*
X159940317Y-106018505D01*
X138797380Y-73517631D02*
X138843519Y-73532874D01*
X108241169Y-20000129D02*
X108240681Y-20000081D01*
X132731301Y-20257607D02*
X132709598Y-20245561D01*
X188609148Y-52993960D02*
X188583152Y-53035012D01*
X108390851Y-73956039D02*
X108416847Y-73914987D01*
X198463332Y-21621716D02*
X198461320Y-21610119D01*
X165107036Y-73479770D02*
X165155262Y-73485718D01*
X99546680Y-106707533D02*
X99546892Y-106707656D01*
X158023318Y-50591900D02*
X158066721Y-50570053D01*
X160249918Y-76484318D02*
X160249870Y-76483830D01*
X136907481Y-21222818D02*
X136907385Y-21223052D01*
X133737727Y-50475000D02*
X133737972Y-50474996D01*
X139243539Y-73800158D02*
X139275278Y-73836952D01*
X112058576Y-53473804D02*
X112009877Y-53475000D01*
X186740678Y-105139957D02*
X186740700Y-105139704D01*
X99568300Y-106719089D02*
X99723538Y-106792511D01*
X138043861Y-106820895D02*
X138067138Y-106829516D01*
X157616900Y-50998318D02*
X157640851Y-50956039D01*
X165476681Y-50591900D02*
X165518960Y-50615851D01*
X100097914Y-106908588D02*
X100098153Y-106908645D01*
X111450008Y-106782729D02*
X111472818Y-106792518D01*
X131095053Y-75908278D02*
X131075362Y-75863855D01*
X136775298Y-21684674D02*
X136775256Y-21684924D01*
X198409826Y-105541892D02*
X198413518Y-105530715D01*
X184523318Y-73591900D02*
X184566721Y-73570053D01*
X165743539Y-50800158D02*
X165775278Y-50836952D01*
X163345818Y-105560713D02*
X163370398Y-105632623D01*
X131523318Y-50591900D02*
X131566721Y-50570053D01*
X186738138Y-105164903D02*
X186738166Y-105164651D01*
X184194826Y-73875259D02*
X184224721Y-73836952D01*
X186492266Y-21018478D02*
X186453715Y-20952989D01*
X108269025Y-74271861D02*
X108279671Y-74224450D01*
X112035348Y-106938166D02*
X112060042Y-106940678D01*
X158763484Y-106882669D02*
X158836546Y-106861763D01*
X165599740Y-73669826D02*
X165638047Y-73699721D01*
X186592614Y-105726947D02*
X186620804Y-105656375D01*
X131796861Y-76455974D02*
X131749450Y-76445328D01*
X136753902Y-50472829D02*
X136754296Y-50473121D01*
X131400259Y-53280173D02*
X131361952Y-53250278D01*
X196695760Y-106940090D02*
X196696248Y-106940042D01*
X131166847Y-50914987D02*
X131194826Y-50875259D01*
X186744441Y-50473877D02*
X186744874Y-50473646D01*
X131964651Y-106938166D02*
X131964903Y-106938138D01*
X112775278Y-76113047D02*
X112743539Y-76149841D01*
X157981039Y-50615851D02*
X158023318Y-50591900D01*
X110252811Y-76478159D02*
X110252482Y-76478522D01*
X163275256Y-21684924D02*
X163271498Y-21709460D01*
X186398498Y-20868041D02*
X186398356Y-20867831D01*
X197453107Y-20242343D02*
X197442866Y-20236541D01*
X133689017Y-105438964D02*
X133706196Y-105364937D01*
X185456375Y-20129195D02*
X185456138Y-20129104D01*
X197453319Y-20242466D02*
X197453107Y-20242343D01*
X131042631Y-75772380D02*
X131029671Y-75725549D01*
X157501195Y-52533576D02*
X157500000Y-52484877D01*
X110881466Y-106408078D02*
X110937854Y-106459023D01*
X110253528Y-105063930D02*
X110259299Y-105139704D01*
X184749450Y-73504671D02*
X184796861Y-73494025D01*
X163559682Y-106018505D02*
X163601501Y-106081958D01*
X165904946Y-74041721D02*
X165924637Y-74086144D01*
X188750057Y-106940190D02*
X188750081Y-106940681D01*
X108279671Y-52725549D02*
X108269025Y-52678138D01*
X184325158Y-73731460D02*
X184361952Y-73699721D01*
X137535999Y-20410950D02*
X137535796Y-20411102D01*
X165058576Y-76473804D02*
X165009877Y-76475000D01*
X131702619Y-53432368D02*
X131656480Y-53417125D01*
X99240875Y-20446817D02*
X99231596Y-20454058D01*
X132432861Y-106829516D02*
X132456138Y-106820895D01*
X99399385Y-106619248D02*
X99546680Y-106707533D01*
X160249999Y-104943792D02*
X160250000Y-104943666D01*
X163251605Y-50470295D02*
X163251878Y-50470703D01*
X186746471Y-21886069D02*
X186740700Y-21810295D01*
X108237727Y-20000000D02*
X100512272Y-20000000D01*
X110317264Y-105463240D02*
X110317330Y-105463484D01*
X157500000Y-51465122D02*
X157501195Y-51416423D01*
X165388855Y-76399637D02*
X165343519Y-76417125D01*
X136845740Y-21389527D02*
X136838309Y-21413210D01*
X133582626Y-105750223D02*
X133582729Y-105749991D01*
X110250416Y-76482387D02*
X110250297Y-76482863D01*
X188751878Y-20004296D02*
X188751605Y-20004704D01*
X163271462Y-21709711D02*
X163261861Y-21785096D01*
X110250559Y-76481917D02*
X110250416Y-76482387D01*
X159618533Y-20541921D02*
X159562145Y-20490976D01*
X184756331Y-20000160D02*
X184756205Y-20000158D01*
X159953583Y-105997227D02*
X159953715Y-105997010D01*
X133338897Y-106164203D02*
X133339049Y-106164000D01*
X165343519Y-73532874D02*
X165388855Y-73550362D01*
X131075362Y-51086144D02*
X131095053Y-51041721D01*
X184863930Y-106946471D02*
X184939704Y-106940700D01*
X136756917Y-76475559D02*
X136756455Y-76475724D01*
X186750000Y-22006333D02*
X186749999Y-22006207D01*
X110259318Y-76475081D02*
X110258830Y-76475129D01*
X158363677Y-106946487D02*
X158363930Y-106946471D01*
X186275521Y-106242926D02*
X186323545Y-106184030D01*
X196487972Y-20000003D02*
X196487727Y-20000000D01*
X137597252Y-20365971D02*
X137535999Y-20410950D01*
X184256460Y-76149841D02*
X184224721Y-76113047D01*
X158540539Y-106928501D02*
X158565075Y-106924743D01*
X108243082Y-106949440D02*
X108243544Y-106949275D01*
X136751878Y-50470703D02*
X136752170Y-50471097D01*
X133737972Y-50474996D02*
X133740190Y-50474942D01*
X138607036Y-53470229D02*
X138558576Y-53473804D01*
X198500000Y-104937727D02*
X198500000Y-22012272D01*
X159953583Y-20952772D02*
X159940453Y-20931707D01*
X157724721Y-76113047D02*
X157694826Y-76074740D01*
X112924637Y-75863855D02*
X112904946Y-75908278D01*
X165203138Y-73494025D02*
X165250549Y-73504671D01*
X133747188Y-76478159D02*
X133746840Y-76477811D01*
X132983831Y-106523703D02*
X132984030Y-106523545D01*
X111859872Y-106911294D02*
X111934674Y-106924701D01*
X198458588Y-21597914D02*
X198416862Y-21431335D01*
X164567138Y-106829516D02*
X164567376Y-106829601D01*
X112998804Y-75533576D02*
X112995229Y-75582036D01*
X159690627Y-20613108D02*
X159636891Y-20559372D01*
X98536667Y-21621716D02*
X98536628Y-21621958D01*
X160237972Y-76475003D02*
X160237727Y-76475000D01*
X157640851Y-75993960D02*
X157616900Y-75951681D01*
X159690804Y-106336710D02*
X159707906Y-106318719D01*
X139333152Y-76035012D02*
X139305173Y-76074740D01*
X131481039Y-53334148D02*
X131439987Y-53308152D01*
X131000000Y-74465122D02*
X131001195Y-74416423D01*
X159483831Y-20426296D02*
X159464203Y-20411102D01*
X111097458Y-20365823D02*
X111097252Y-20365971D01*
X163250559Y-50468082D02*
X163250724Y-50468544D01*
X138535096Y-106938138D02*
X138535348Y-106938166D01*
X158464903Y-106938138D02*
X158540288Y-106928537D01*
X133747753Y-105038634D02*
X133749839Y-104956331D01*
X112710033Y-53185033D02*
X112674841Y-53218539D01*
X131289966Y-73764966D02*
X131325158Y-73731460D01*
X186384028Y-20847252D02*
X186339049Y-20785999D01*
X138260789Y-20061042D02*
X138236759Y-20067264D01*
X138756333Y-106950000D02*
X158243666Y-106950000D01*
X185456138Y-20129104D02*
X185432861Y-20120483D01*
X112297380Y-73517631D02*
X112343519Y-73532874D01*
X163258344Y-76475201D02*
X163257863Y-76475297D01*
X157557874Y-51131480D02*
X157575362Y-51086144D01*
X112433278Y-76379946D02*
X112388855Y-76399637D01*
X110258344Y-76475201D02*
X110257863Y-76475297D01*
X158392963Y-53470229D02*
X158344737Y-53464281D01*
X137880494Y-20199210D02*
X137858208Y-20210141D01*
X131194826Y-73875259D02*
X131224721Y-73836952D01*
X112297380Y-76432368D02*
X112250549Y-76445328D01*
X139480974Y-51271861D02*
X139489281Y-51319737D01*
X186338897Y-106164203D02*
X186339049Y-106164000D01*
X163259318Y-50474918D02*
X163259809Y-50474942D01*
X131166847Y-76035012D02*
X131140851Y-75993960D01*
X131749450Y-50504671D02*
X131796861Y-50494025D01*
X110338236Y-105536546D02*
X110338309Y-105536789D01*
X133745703Y-50473121D02*
X133746097Y-50472829D01*
X133398498Y-20868041D02*
X133398356Y-20867831D01*
X165674841Y-53218539D02*
X165638047Y-53250278D01*
X139457368Y-75772380D02*
X139442125Y-75818519D01*
X110259299Y-21810295D02*
X110253528Y-21886069D01*
X111202989Y-20296284D02*
X111202772Y-20296416D01*
X164959460Y-106928501D02*
X164959711Y-106928537D01*
X110937854Y-20490976D02*
X110881466Y-20541921D01*
X112599740Y-50669826D02*
X112638047Y-50699721D01*
X159636891Y-20559372D02*
X159636710Y-20559195D01*
X98844371Y-20879002D02*
X98844227Y-20879201D01*
X98742466Y-105903319D02*
X98830751Y-106050614D01*
X139018960Y-76334148D02*
X138976681Y-76358099D01*
X137363108Y-20559372D02*
X137309372Y-20613108D01*
X137880723Y-106750898D02*
X137949776Y-106782626D01*
X133747744Y-105038887D02*
X133747753Y-105038634D01*
X109094737Y-53464281D02*
X109046861Y-53455974D01*
X110250297Y-76482863D02*
X110250201Y-76483344D01*
X110370398Y-105632623D02*
X110370483Y-105632861D01*
X131838634Y-106947753D02*
X131838887Y-106947744D01*
X157666847Y-76035012D02*
X157640851Y-75993960D01*
X110250160Y-21993668D02*
X110250158Y-21993794D01*
X138756207Y-106949999D02*
X138756333Y-106950000D01*
X137363289Y-106390804D02*
X137381280Y-106407906D01*
X186629516Y-21317138D02*
X186620895Y-21293861D01*
X131001195Y-74416423D02*
X131004770Y-74367963D01*
X184611144Y-50550362D02*
X184656480Y-50532874D01*
X131400259Y-76280173D02*
X131361952Y-76250278D01*
X188745229Y-74367963D02*
X188748804Y-74416423D01*
X112674841Y-53218539D02*
X112638047Y-53250278D01*
X98586339Y-105530246D02*
X98586481Y-105530715D01*
X108292631Y-74177619D02*
X108307874Y-74131480D01*
X188754296Y-106948121D02*
X188754704Y-106948394D01*
X186492266Y-105931521D02*
X186492392Y-105931301D01*
X198413660Y-105530246D02*
X198416800Y-105518902D01*
X160050789Y-105819505D02*
X160050898Y-105819276D01*
X159636891Y-106390627D02*
X159690627Y-106336891D01*
X139480974Y-75678138D02*
X139470328Y-75725549D01*
X133741169Y-76475129D02*
X133740681Y-76475081D01*
X184029671Y-75725549D02*
X184019025Y-75678138D01*
X132140127Y-106911294D02*
X132140376Y-106911246D01*
X136838236Y-105536546D02*
X136838309Y-105536789D01*
X133740700Y-21810295D02*
X133740678Y-21810042D01*
X131941423Y-53473804D02*
X131892963Y-53470229D01*
X136838309Y-105536789D02*
X136845740Y-105560472D01*
X158464903Y-20011861D02*
X158464651Y-20011833D01*
X165970328Y-74224450D02*
X165980974Y-74271861D01*
X108240681Y-20000081D02*
X108240190Y-20000057D01*
X108248121Y-106945703D02*
X108248394Y-106945295D01*
X112343519Y-50532874D02*
X112388855Y-50550362D01*
X164934674Y-106924701D02*
X164934924Y-106924743D01*
X131656480Y-76417125D02*
X131611144Y-76399637D01*
X112805173Y-76074740D02*
X112775278Y-76113047D01*
X160004438Y-21040401D02*
X159992392Y-21018698D01*
X133750000Y-76487272D02*
X133749996Y-76487027D01*
X111015969Y-20426454D02*
X110957073Y-20474478D01*
X131439987Y-73641847D02*
X131481039Y-73615851D01*
X158836789Y-106861690D02*
X158860472Y-106854259D01*
X110250129Y-76483830D02*
X110250081Y-76484318D01*
X110252811Y-50471840D02*
X110253159Y-50472188D01*
X188753902Y-20002170D02*
X188753522Y-20002482D01*
X165989281Y-74319737D02*
X165995229Y-74367963D01*
X160039743Y-21107982D02*
X160004558Y-21040624D01*
X136750201Y-50466655D02*
X136750297Y-50467136D01*
X99568080Y-106718982D02*
X99568300Y-106719089D01*
X158464651Y-106938166D02*
X158464903Y-106938138D01*
X136751122Y-50469441D02*
X136751353Y-50469874D01*
X132040539Y-20021498D02*
X132040288Y-20021462D01*
X163660950Y-106164000D02*
X163661102Y-106164203D01*
X133746097Y-76477170D02*
X133745703Y-76476878D01*
X158932861Y-106829516D02*
X158956138Y-106820895D01*
X132731521Y-106692266D02*
X132797010Y-106653715D01*
X185964203Y-20411102D02*
X185964000Y-20410950D01*
X160240190Y-76475057D02*
X160237972Y-76475003D01*
X138560295Y-106940700D02*
X138636069Y-106946471D01*
X165136069Y-20003528D02*
X165060295Y-20009299D01*
X132526947Y-20157385D02*
X132456375Y-20129195D01*
X110338236Y-21413453D02*
X110317330Y-21486515D01*
X158296861Y-76455974D02*
X158249450Y-76445328D01*
X136759321Y-21810042D02*
X136759299Y-21810295D01*
X112297380Y-53432368D02*
X112250549Y-53445328D01*
X137617831Y-106598356D02*
X137618041Y-106598498D01*
X163676296Y-20766168D02*
X163661102Y-20785796D01*
X186384028Y-106102747D02*
X186384176Y-106102541D01*
X164016168Y-20426296D02*
X164015969Y-20426454D01*
X165924637Y-74086144D02*
X165942125Y-74131480D01*
X184439987Y-50641847D02*
X184481039Y-50615851D01*
X108307874Y-52818519D02*
X108292631Y-52772380D01*
X160129601Y-21317376D02*
X160129516Y-21317138D01*
X157510718Y-74319737D02*
X157519025Y-74271861D01*
X132040539Y-106928501D02*
X132065075Y-106924743D01*
X131941423Y-73476195D02*
X131990122Y-73475000D01*
X157825158Y-53218539D02*
X157789966Y-53185033D01*
X160189017Y-21511035D02*
X160188957Y-21510789D01*
X98837450Y-20888824D02*
X98837177Y-20889232D01*
X112638047Y-76250278D02*
X112599740Y-76280173D01*
X133453715Y-20952989D02*
X133453583Y-20952772D01*
X164639286Y-106854181D02*
X164639527Y-106854259D01*
X136753512Y-105063677D02*
X136753528Y-105063930D01*
X99077544Y-20594879D02*
X98962220Y-20722120D01*
X133398356Y-20867831D02*
X133384176Y-20847458D01*
X111736515Y-106882669D02*
X111736759Y-106882735D01*
X159318505Y-20309682D02*
X159318292Y-20309546D01*
X139500000Y-75484877D02*
X139498804Y-75533576D01*
X188268960Y-53334148D02*
X188226681Y-53358099D01*
X110293803Y-21585062D02*
X110293749Y-21585309D01*
X184838887Y-106947744D02*
X184863677Y-106946487D01*
X188751605Y-106945295D02*
X188751878Y-106945703D01*
X110938045Y-106459190D02*
X110956878Y-106475359D01*
X132527181Y-20157481D02*
X132526947Y-20157385D01*
X184838634Y-106947753D02*
X184838887Y-106947744D01*
X185456375Y-106820804D02*
X185526947Y-106792614D01*
X198162822Y-106060767D02*
X198169119Y-106050822D01*
X99734976Y-106797571D02*
X99745958Y-106801808D01*
X158338887Y-106947744D02*
X158363677Y-106946487D01*
X110271462Y-105240288D02*
X110271498Y-105240539D01*
X98538679Y-105339880D02*
X98538775Y-105340361D01*
X157756460Y-53149841D02*
X157724721Y-53113047D01*
X108260718Y-52630262D02*
X108254770Y-52582036D01*
X163293749Y-21585309D02*
X163288753Y-21609623D01*
X198169248Y-20899385D02*
X198169119Y-20899177D01*
X184075362Y-51086144D02*
X184095053Y-51041721D01*
X163546416Y-105997227D02*
X163559546Y-106018292D01*
X111357982Y-106739743D02*
X111358208Y-106739858D01*
X99086175Y-20585828D02*
X99085828Y-20586175D01*
X136753902Y-76477170D02*
X136753522Y-76477482D01*
X163258830Y-76475129D02*
X163258344Y-76475201D01*
X184749450Y-53445328D02*
X184702619Y-53432368D01*
X164268698Y-106692392D02*
X164290401Y-106704438D01*
X133744441Y-50473877D02*
X133744874Y-50473646D01*
X163495561Y-105909598D02*
X163507607Y-105931301D01*
X138888855Y-73550362D02*
X138933278Y-73570053D01*
X198416862Y-21431335D02*
X198416800Y-21431097D01*
X110724478Y-20707073D02*
X110676454Y-20765969D01*
X198461320Y-105339880D02*
X198463332Y-105328283D01*
X139099740Y-50669826D02*
X139138047Y-50699721D01*
X184796861Y-73494025D02*
X184844737Y-73485718D01*
X159119505Y-106750789D02*
X159141791Y-106739858D01*
X160182735Y-21486759D02*
X160182669Y-21486515D01*
X98837177Y-106060767D02*
X98837450Y-106061175D01*
X110370398Y-21317376D02*
X110345818Y-21389286D01*
X157981039Y-76334148D02*
X157939987Y-76308152D01*
X163250160Y-104956331D02*
X163252246Y-105038634D01*
X137161102Y-106164203D02*
X137176296Y-106183831D01*
X197092124Y-106859746D02*
X197253811Y-106801893D01*
X136750297Y-76482863D02*
X136750201Y-76483344D01*
X136759809Y-76475057D02*
X136759318Y-76475081D01*
X186682735Y-21486759D02*
X186682669Y-21486515D01*
X138236759Y-20067264D02*
X138236515Y-20067330D01*
X138607036Y-76470229D02*
X138558576Y-76473804D01*
X133208078Y-106318533D02*
X133259023Y-106262145D01*
X164015969Y-20426454D02*
X163957073Y-20474478D01*
X186453583Y-105997227D02*
X186453715Y-105997010D01*
X163676296Y-106183831D02*
X163676454Y-106184030D01*
X110255558Y-76476122D02*
X110255125Y-76476353D01*
X98736310Y-21057566D02*
X98731017Y-21068080D01*
X198499397Y-21987742D02*
X198490971Y-21816223D01*
X198037941Y-20722303D02*
X198037779Y-20722120D01*
X158256331Y-106949839D02*
X158338634Y-106947753D01*
X184075362Y-75863855D02*
X184057874Y-75818519D01*
X108325362Y-52863855D02*
X108307874Y-52818519D01*
X196487727Y-20000000D02*
X188762272Y-20000000D01*
X132065075Y-20025256D02*
X132040539Y-20021498D01*
X98500593Y-104962012D02*
X98500602Y-104962257D01*
X112924637Y-51086144D02*
X112942125Y-51131480D01*
X108249942Y-20009809D02*
X108249918Y-20009318D01*
X163251122Y-50469441D02*
X163251353Y-50469874D01*
X163253528Y-21886069D02*
X163253512Y-21886322D01*
X165957368Y-74177619D02*
X165970328Y-74224450D01*
X112904946Y-52908278D02*
X112883099Y-52951681D01*
X160243082Y-50474440D02*
X160243544Y-50474275D01*
X98509909Y-21804239D02*
X98509043Y-21815978D01*
X159884028Y-106102747D02*
X159884176Y-106102541D01*
X164761035Y-106889017D02*
X164835062Y-106906196D01*
X159382168Y-106598356D02*
X159402541Y-106584176D01*
X198488601Y-105157930D02*
X198490042Y-105146248D01*
X132731521Y-20257733D02*
X132731301Y-20257607D01*
X187905262Y-73485718D02*
X187953138Y-73494025D01*
X108249798Y-20008344D02*
X108249702Y-20007863D01*
X111181494Y-20309682D02*
X111118041Y-20351501D01*
X133740681Y-50474918D02*
X133741169Y-50474870D01*
X136750000Y-76487272D02*
X136750000Y-104943666D01*
X108250000Y-20012272D02*
X108249996Y-20012027D01*
X133745295Y-50473394D02*
X133745703Y-50473121D01*
X110271462Y-21709711D02*
X110261861Y-21785096D01*
X163317330Y-21486515D02*
X163317264Y-21486759D01*
X133682669Y-21486515D02*
X133661763Y-21413453D01*
X165009877Y-76475000D02*
X163262272Y-76475000D01*
X139099740Y-76280173D02*
X139060012Y-76308152D01*
X157640851Y-50956039D02*
X157666847Y-50914987D01*
X111835062Y-20043803D02*
X111761035Y-20060982D01*
X165775278Y-53113047D02*
X165743539Y-53149841D01*
X197276461Y-106792511D02*
X197431699Y-106719089D01*
X111202772Y-20296416D02*
X111181707Y-20309546D01*
X111639527Y-106854259D02*
X111663210Y-106861690D01*
X99399385Y-20330751D02*
X99399177Y-20330880D01*
X139174841Y-53218539D02*
X139138047Y-53250278D01*
X112599740Y-76280173D02*
X112560012Y-76308152D01*
X132818292Y-20309546D02*
X132797227Y-20296416D01*
X163317264Y-105463240D02*
X163317330Y-105463484D01*
X186740700Y-21810295D02*
X186740678Y-21810042D01*
X165805173Y-53074740D02*
X165775278Y-53113047D01*
X137702989Y-106653715D02*
X137768478Y-106692266D01*
X132550223Y-20167373D02*
X132549991Y-20167270D01*
X133744874Y-76476353D02*
X133744441Y-76476122D01*
X165989281Y-52630262D02*
X165980974Y-52678138D01*
X188226681Y-53358099D02*
X188183278Y-53379946D01*
X184481039Y-53334148D02*
X184439987Y-53308152D01*
X157861952Y-53250278D02*
X157825158Y-53218539D01*
X186654181Y-21389286D02*
X186629601Y-21317376D01*
X136817264Y-105463240D02*
X136817330Y-105463484D01*
X165805173Y-76074740D02*
X165775278Y-76113047D01*
X98657488Y-105726461D02*
X98730910Y-105881699D01*
X110317330Y-21486515D02*
X110317264Y-21486759D01*
X186740190Y-76475057D02*
X186737972Y-76475003D01*
X112161365Y-20002246D02*
X112161112Y-20002255D01*
X158392963Y-73479770D02*
X158441423Y-73476195D01*
X186504558Y-105909375D02*
X186539743Y-105842017D01*
X131289966Y-76185033D02*
X131256460Y-76149841D01*
X160082729Y-105749991D02*
X160092518Y-105727181D01*
X133384176Y-106102541D02*
X133398356Y-106082168D01*
X198045630Y-20731216D02*
X198037941Y-20722303D01*
X197092124Y-20090253D02*
X197091892Y-20090173D01*
X163724640Y-20706878D02*
X163724478Y-20707073D01*
X188750000Y-52484877D02*
X188748804Y-52533576D01*
X98837177Y-20889232D02*
X98830880Y-20899177D01*
X196901846Y-106908645D02*
X196902085Y-106908588D01*
X188047380Y-73517631D02*
X188093519Y-73532874D01*
X108243082Y-20000559D02*
X108242612Y-20000416D01*
X98946668Y-106208929D02*
X98946817Y-106209124D01*
X112599740Y-73669826D02*
X112638047Y-73699721D01*
X160129601Y-105632623D02*
X160154181Y-105560713D01*
X112674841Y-50731460D02*
X112710033Y-50764966D01*
X158664690Y-106906250D02*
X158664937Y-106906196D01*
X133724701Y-105265325D02*
X133724743Y-105265075D01*
X185239210Y-20061042D02*
X185238964Y-20060982D01*
X188762027Y-20000003D02*
X188759809Y-20000057D01*
X159026947Y-106792614D02*
X159027181Y-106792518D01*
X184990122Y-53475000D02*
X184941423Y-53473804D01*
X198045941Y-20731596D02*
X198045630Y-20731216D01*
X163250129Y-50466169D02*
X163250201Y-50466655D01*
X163251605Y-76479704D02*
X163251353Y-76480125D01*
X110261833Y-21785348D02*
X110259321Y-21810042D01*
X99557566Y-20236310D02*
X99557133Y-20236541D01*
X186749798Y-76483344D02*
X186749702Y-76482863D01*
X160240681Y-50474918D02*
X160241169Y-50474870D01*
X196696248Y-20009957D02*
X196695760Y-20009909D01*
X198053182Y-106209124D02*
X198053331Y-106208929D01*
X139138047Y-76250278D02*
X139099740Y-76280173D01*
X164639527Y-20095740D02*
X164639286Y-20095818D01*
X186440453Y-20931707D02*
X186440317Y-20931494D01*
X184611144Y-76399637D02*
X184566721Y-76379946D01*
X159838897Y-20785796D02*
X159823703Y-20766168D01*
X132881958Y-20351501D02*
X132818505Y-20309682D01*
X111736515Y-20067330D02*
X111663453Y-20088236D01*
X163256917Y-76475559D02*
X163256455Y-76475724D01*
X136758830Y-76475129D02*
X136758344Y-76475201D01*
X184325158Y-53218539D02*
X184289966Y-53185033D01*
X112998804Y-52533576D02*
X112995229Y-52582036D01*
X160249702Y-50467136D02*
X160249798Y-50466655D01*
X112476681Y-73591900D02*
X112518960Y-73615851D01*
X112256207Y-106949999D02*
X112256333Y-106950000D01*
X163338236Y-105536546D02*
X163338309Y-105536789D01*
X186661690Y-21413210D02*
X186654259Y-21389527D01*
X186749798Y-50466655D02*
X186749870Y-50466169D01*
X111959711Y-106928537D02*
X112035096Y-106938138D01*
X112980974Y-75678138D02*
X112970328Y-75725549D01*
X163253522Y-76477482D02*
X163253159Y-76477811D01*
X139424637Y-52863855D02*
X139404946Y-52908278D01*
X112136069Y-106946471D02*
X112136322Y-106946487D01*
X165924637Y-52863855D02*
X165904946Y-52908278D01*
X165060295Y-106940700D02*
X165136069Y-106946471D01*
X185641791Y-20210141D02*
X185619505Y-20199210D01*
X132983831Y-20426296D02*
X132964203Y-20411102D01*
X185263240Y-20067264D02*
X185239210Y-20061042D01*
X111543861Y-20129104D02*
X111543624Y-20129195D01*
X112674841Y-76218539D02*
X112638047Y-76250278D01*
X131019025Y-51271861D02*
X131029671Y-51224450D01*
X184029671Y-52725549D02*
X184019025Y-52678138D01*
X165107036Y-53470229D02*
X165058576Y-53473804D01*
X188750129Y-106941169D02*
X188750201Y-106941655D01*
X185526947Y-20157385D02*
X185456375Y-20129195D01*
X165250549Y-53445328D02*
X165203138Y-53455974D01*
X160206250Y-105364690D02*
X160211246Y-105340376D01*
X197431699Y-20230910D02*
X197276461Y-20157488D01*
X108248646Y-20005125D02*
X108248394Y-20004704D01*
X198490971Y-105133776D02*
X198499397Y-104962257D01*
X111639286Y-20095818D02*
X111567376Y-20120398D01*
X137597458Y-20365823D02*
X137597252Y-20365971D01*
X160092614Y-21223052D02*
X160092518Y-21222818D01*
X132263484Y-20067330D02*
X132263240Y-20067264D01*
X160249087Y-76481002D02*
X160248877Y-76480558D01*
X159049991Y-106782729D02*
X159050223Y-106782626D01*
X160206196Y-21585062D02*
X160189017Y-21511035D01*
X159050223Y-20167373D02*
X159049991Y-20167270D01*
X186749583Y-76482387D02*
X186749440Y-76481917D01*
X165161365Y-20002246D02*
X165161112Y-20002255D01*
X184116900Y-75951681D02*
X184095053Y-75908278D01*
X157789966Y-50764966D02*
X157825158Y-50731460D01*
X138797380Y-76432368D02*
X138750549Y-76445328D01*
X164567376Y-20120398D02*
X164567138Y-20120483D01*
X110252255Y-105038887D02*
X110253512Y-105063677D01*
X111761035Y-106889017D02*
X111835062Y-106906196D01*
X139305173Y-76074740D02*
X139275278Y-76113047D01*
X160250000Y-50462727D02*
X160250000Y-22006333D01*
X111097458Y-106584176D02*
X111117831Y-106598356D01*
X136845818Y-21389286D02*
X136845740Y-21389527D01*
X132642017Y-106739743D02*
X132709375Y-106704558D01*
X165833152Y-50914987D02*
X165859148Y-50956039D01*
X133749839Y-104956331D02*
X133749841Y-104956205D01*
X139498804Y-52533576D02*
X139495229Y-52582036D01*
X185818505Y-106640317D02*
X185881958Y-106598498D01*
X137681494Y-106640317D02*
X137681707Y-106640453D01*
X186398356Y-20867831D02*
X186384176Y-20847458D01*
X110956878Y-106475359D02*
X110957073Y-106475521D01*
X138459460Y-106928501D02*
X138459711Y-106928537D01*
X100304239Y-106940090D02*
X100315978Y-106940956D01*
X165924637Y-75863855D02*
X165904946Y-75908278D01*
X136750000Y-22006333D02*
X136750000Y-50462727D01*
X108242136Y-106949702D02*
X108242612Y-106949583D01*
X133275521Y-20707073D02*
X133275359Y-20706878D01*
X136811042Y-21510789D02*
X136810982Y-21511035D01*
X133746097Y-50472829D02*
X133746477Y-50472517D01*
X131964651Y-20011833D02*
X131939957Y-20009321D01*
X110379104Y-105656138D02*
X110379195Y-105656375D01*
X160237727Y-76475000D02*
X158490122Y-76475000D01*
X186741655Y-50474798D02*
X186742136Y-50474702D01*
X163253512Y-105063677D02*
X163253528Y-105063930D01*
X138067376Y-20120398D02*
X138067138Y-20120483D01*
X131004770Y-74367963D02*
X131010718Y-74319737D01*
X198490956Y-21815978D02*
X198490090Y-21804239D01*
X112518960Y-50615851D02*
X112560012Y-50641847D01*
X159464203Y-106538897D02*
X159483831Y-106523703D01*
X184941423Y-76473804D02*
X184892963Y-76470229D01*
X136752482Y-76478522D02*
X136752170Y-76478902D01*
X133620804Y-105656375D02*
X133620895Y-105656138D01*
X158640376Y-20038753D02*
X158640127Y-20038705D01*
X163275256Y-105265075D02*
X163275298Y-105265325D01*
X184166847Y-50914987D02*
X184194826Y-50875259D01*
X165775278Y-73836952D02*
X165805173Y-73875259D01*
X160224701Y-105265325D02*
X160224743Y-105265075D01*
X98500003Y-22012027D02*
X98500000Y-22012272D01*
X163255125Y-76476353D02*
X163254704Y-76476605D01*
X157616900Y-73998318D02*
X157640851Y-73956039D01*
X188183278Y-73570053D02*
X188226681Y-73591900D01*
X110253512Y-21886322D02*
X110252255Y-21911112D01*
X157595053Y-51041721D02*
X157616900Y-50998318D01*
X163259318Y-76475081D02*
X163258830Y-76475129D01*
X110262027Y-50474996D02*
X110262272Y-50475000D01*
X163311042Y-21510789D02*
X163310982Y-21511035D01*
X197442866Y-20236541D02*
X197442433Y-20236310D01*
X165970328Y-52725549D02*
X165957368Y-52772380D01*
X157789966Y-76185033D02*
X157756460Y-76149841D01*
X136750057Y-50465190D02*
X136750081Y-50465681D01*
X108249087Y-20006002D02*
X108248877Y-20005558D01*
X164859872Y-106911294D02*
X164934674Y-106924701D01*
X160249798Y-76483344D02*
X160249702Y-76482863D01*
X133748121Y-76479296D02*
X133747829Y-76478902D01*
X160247744Y-105038887D02*
X160247753Y-105038634D01*
X110258830Y-76475129D02*
X110258344Y-76475201D01*
X160249918Y-50465681D02*
X160249942Y-50465190D01*
X132709375Y-106704558D02*
X132709598Y-106704438D01*
X188745229Y-52582036D02*
X188739281Y-52630262D01*
X160240678Y-105139957D02*
X160240700Y-105139704D01*
X112256333Y-106950000D02*
X131743666Y-106950000D01*
X133062145Y-20490976D02*
X133061954Y-20490809D01*
X165957368Y-51177619D02*
X165970328Y-51224450D01*
X197276237Y-20157385D02*
X197265477Y-20152615D01*
X108246477Y-20002482D02*
X108246097Y-20002170D01*
X137597252Y-106584028D02*
X137597458Y-106584176D01*
X197253811Y-106801893D02*
X197254041Y-106801808D01*
X98538775Y-105340361D02*
X98541354Y-105351846D01*
X163250057Y-76484809D02*
X163250003Y-76487027D01*
X198342614Y-21223762D02*
X198342511Y-21223538D01*
X133654181Y-21389286D02*
X133629601Y-21317376D01*
X111760789Y-20061042D02*
X111736759Y-20067264D01*
X112256333Y-20000000D02*
X112256207Y-20000000D01*
X110250000Y-76487272D02*
X110250000Y-104943666D01*
X163495441Y-21040624D02*
X163460256Y-21107982D01*
X131325158Y-73731460D02*
X131361952Y-73699721D01*
X188493539Y-73800158D02*
X188525278Y-73836952D01*
X132549991Y-106782729D02*
X132550223Y-106782626D01*
X197068664Y-20083137D02*
X196902085Y-20041411D01*
X139333152Y-53035012D02*
X139305173Y-53074740D01*
X197091892Y-106859826D02*
X197092124Y-106859746D01*
X108247517Y-106946477D02*
X108247829Y-106946097D01*
X163740809Y-20688045D02*
X163724640Y-20706878D01*
X108906480Y-73532874D02*
X108952619Y-73517631D01*
X160248394Y-50470295D02*
X160248646Y-50469874D01*
X165388855Y-50550362D02*
X165433278Y-50570053D01*
X165476681Y-76358099D02*
X165433278Y-76379946D01*
X188750003Y-20012027D02*
X188750000Y-20012272D01*
X188138855Y-53399637D02*
X188093519Y-53417125D01*
X136752255Y-105038887D02*
X136753512Y-105063677D01*
X158296861Y-53455974D02*
X158249450Y-53445328D01*
X184566721Y-50570053D02*
X184611144Y-50550362D01*
X184756205Y-106949841D02*
X184756331Y-106949839D01*
X137790401Y-106704438D02*
X137790624Y-106704558D01*
X133339049Y-106164000D02*
X133384028Y-106102747D01*
X137224478Y-20707073D02*
X137176454Y-20765969D01*
X112970328Y-51224450D02*
X112980974Y-51271861D01*
X112970328Y-52725549D02*
X112957368Y-52772380D01*
X184611144Y-73550362D02*
X184656480Y-73532874D01*
X165957368Y-52772380D02*
X165942125Y-52818519D01*
X136750000Y-50462727D02*
X136750003Y-50462972D01*
X188720328Y-52725549D02*
X188707368Y-52772380D01*
X197442433Y-20236310D02*
X197431919Y-20231017D01*
X136756002Y-50474087D02*
X136756455Y-50474275D01*
X133592518Y-105727181D02*
X133592614Y-105726947D01*
X136949101Y-21130723D02*
X136917373Y-21199776D01*
X133539743Y-105842017D02*
X133539858Y-105841791D01*
X188424841Y-73731460D02*
X188460033Y-73764966D01*
X197777879Y-20462220D02*
X197777696Y-20462058D01*
X185549991Y-20167270D02*
X185527181Y-20157481D01*
X158439957Y-106940678D02*
X158464651Y-106938166D01*
X160120804Y-21293624D02*
X160092614Y-21223052D01*
X108249996Y-20012027D02*
X108249942Y-20009809D01*
X184400259Y-50669826D02*
X184439987Y-50641847D01*
X164736515Y-106882669D02*
X164736759Y-106882735D01*
X133136891Y-106390627D02*
X133190627Y-106336891D01*
X163792093Y-20631280D02*
X163791921Y-20631466D01*
X108248646Y-106944874D02*
X108248877Y-106944441D01*
X197442866Y-106713458D02*
X197453107Y-106707656D01*
X110262272Y-76475000D02*
X110262027Y-76475003D01*
X188750081Y-20009318D02*
X188750057Y-20009809D01*
X163250724Y-50468544D02*
X163250912Y-50468997D01*
X136949101Y-105819276D02*
X136949210Y-105819505D01*
X198263458Y-21057133D02*
X198257656Y-21046892D01*
X112161112Y-106947744D02*
X112161365Y-106947753D01*
X165924637Y-51086144D02*
X165942125Y-51131480D01*
X164097252Y-106584028D02*
X164097458Y-106584176D01*
X165904946Y-51041721D02*
X165924637Y-51086144D01*
X157640851Y-52993960D02*
X157616900Y-52951681D01*
X158640127Y-20038705D02*
X158565325Y-20025298D01*
X133492392Y-21018698D02*
X133492266Y-21018478D01*
X110495441Y-105909375D02*
X110495561Y-105909598D01*
X110256002Y-50474087D02*
X110256455Y-50474275D01*
X131289966Y-53185033D02*
X131256460Y-53149841D01*
X131844737Y-53464281D02*
X131796861Y-53455974D01*
X137176296Y-20766168D02*
X137161102Y-20785796D01*
X110293749Y-105364690D02*
X110293803Y-105364937D01*
X187808576Y-73476195D02*
X187857036Y-73479770D01*
X133682735Y-21486759D02*
X133682669Y-21486515D01*
X159708078Y-106318533D02*
X159759023Y-106262145D01*
X198045630Y-106218783D02*
X198045941Y-106218403D01*
X133741655Y-76475201D02*
X133741169Y-76475129D01*
X108575158Y-53218539D02*
X108539966Y-53185033D01*
X138335062Y-106906196D02*
X138335309Y-106906250D01*
X138750549Y-76445328D02*
X138703138Y-76455974D01*
X139495229Y-52582036D02*
X139489281Y-52630262D01*
X131194826Y-76074740D02*
X131166847Y-76035012D01*
X188748804Y-52533576D02*
X188745229Y-52582036D01*
X112250549Y-53445328D02*
X112203138Y-53455974D01*
X184743792Y-106949999D02*
X184756205Y-106949841D01*
X132882168Y-20351643D02*
X132881958Y-20351501D01*
X100109638Y-106911224D02*
X100110119Y-106911320D01*
X184863677Y-106946487D02*
X184863930Y-106946471D01*
X108237727Y-106950000D02*
X108237972Y-106949996D01*
X98590173Y-21408107D02*
X98586481Y-21419284D01*
X110740809Y-20688045D02*
X110724640Y-20706878D01*
X112638047Y-53250278D02*
X112599740Y-53280173D01*
X160243997Y-50474087D02*
X160244441Y-50473877D01*
X188750559Y-106943082D02*
X188750724Y-106943544D01*
X100512272Y-20000000D02*
X100512027Y-20000003D01*
X112743539Y-53149841D02*
X112710033Y-53185033D01*
X138236759Y-106882735D02*
X138260789Y-106888957D01*
X188750201Y-106941655D02*
X188750297Y-106942136D01*
X158243792Y-20000000D02*
X158243666Y-20000000D01*
X198155772Y-20879201D02*
X198155628Y-20879002D01*
X112980974Y-51271861D02*
X112989281Y-51319737D01*
X158441423Y-73476195D02*
X158490122Y-73475000D01*
X184749450Y-76445328D02*
X184702619Y-76432368D01*
X110275256Y-105265075D02*
X110275298Y-105265325D01*
X185797010Y-106653715D02*
X185797227Y-106653583D01*
X108366900Y-73998318D02*
X108390851Y-73956039D01*
X186748877Y-50469441D02*
X186749087Y-50468997D01*
X160248646Y-76480125D02*
X160248394Y-76479704D01*
X164472818Y-20157481D02*
X164450008Y-20167270D01*
X163809195Y-20613289D02*
X163792093Y-20631280D01*
X165859148Y-73956039D02*
X165883099Y-73998318D01*
X186711246Y-105340376D02*
X186711294Y-105340127D01*
X165009877Y-50475000D02*
X165058576Y-50476195D01*
X185964000Y-20410950D02*
X185902747Y-20365971D01*
X100292069Y-106938601D02*
X100303751Y-106940042D01*
X138636322Y-20003512D02*
X138636069Y-20003528D01*
X163257863Y-50474702D02*
X163258344Y-50474798D01*
X164450008Y-20167270D02*
X164449776Y-20167373D01*
X98648106Y-105703811D02*
X98648191Y-105704041D01*
X137101501Y-106081958D02*
X137101643Y-106082168D01*
X198499996Y-22012027D02*
X198499406Y-21987987D01*
X165035348Y-106938166D02*
X165060042Y-106940678D01*
X99568300Y-20230910D02*
X99568080Y-20231017D01*
X163259809Y-76475057D02*
X163259318Y-76475081D01*
X158023318Y-73591900D02*
X158066721Y-73570053D01*
X110957073Y-106475521D02*
X111015969Y-106523545D01*
X111934674Y-20025298D02*
X111859872Y-20038705D01*
X185164937Y-20043803D02*
X185164690Y-20043749D01*
X158344737Y-53464281D02*
X158296861Y-53455974D01*
X163379104Y-105656138D02*
X163379195Y-105656375D01*
X110253159Y-50472188D02*
X110253522Y-50472517D01*
X159708078Y-20631466D02*
X159707906Y-20631280D01*
X138661112Y-20002255D02*
X138636322Y-20003512D01*
X188707368Y-74177619D02*
X188720328Y-74224450D01*
X157542631Y-74177619D02*
X157557874Y-74131480D01*
X137457073Y-106475521D02*
X137515969Y-106523545D01*
X185619505Y-106750789D02*
X185641791Y-106739858D01*
X136817330Y-21486515D02*
X136817264Y-21486759D01*
X196487727Y-106950000D02*
X196487972Y-106949996D01*
X100487987Y-106949406D02*
X100512027Y-106949996D01*
X186737727Y-76475000D02*
X184990122Y-76475000D01*
X108251195Y-52533576D02*
X108250000Y-52484877D01*
X132164937Y-106906196D02*
X132238964Y-106889017D01*
X164358208Y-106739858D02*
X164380494Y-106750789D01*
X139359148Y-52993960D02*
X139333152Y-53035012D01*
X112476681Y-53358099D02*
X112433278Y-53379946D01*
X165995229Y-52582036D02*
X165989281Y-52630262D01*
X198463332Y-105328283D02*
X198463371Y-105328041D01*
X110250000Y-104943666D02*
X110250000Y-104943792D01*
X110275298Y-21684674D02*
X110275256Y-21684924D01*
X110253522Y-76477482D02*
X110253159Y-76477811D01*
X163250000Y-22006333D02*
X163250000Y-50462727D01*
X133453715Y-105997010D02*
X133492266Y-105931521D01*
X186747188Y-76478159D02*
X186746840Y-76477811D01*
X188751353Y-20005125D02*
X188751122Y-20005558D01*
X112995229Y-74367963D02*
X112998804Y-74416423D01*
X160247517Y-76478522D02*
X160247188Y-76478159D01*
X188654946Y-52908278D02*
X188633099Y-52951681D01*
X184095053Y-75908278D02*
X184075362Y-75863855D01*
X136775256Y-21684924D02*
X136771498Y-21709460D01*
X131656480Y-73532874D02*
X131702619Y-73517631D01*
X188750297Y-20007863D02*
X188750201Y-20008344D01*
X133190804Y-106336710D02*
X133207906Y-106318719D01*
X160240678Y-21810042D02*
X160238166Y-21785348D01*
X163250297Y-76482863D02*
X163250201Y-76483344D01*
X184702619Y-73517631D02*
X184749450Y-73504671D01*
X132164937Y-20043803D02*
X132164690Y-20043749D01*
X111268478Y-106692266D02*
X111268698Y-106692392D01*
X108249996Y-106937972D02*
X108250000Y-106937727D01*
X133323703Y-20766168D02*
X133323545Y-20765969D01*
X184194826Y-53074740D02*
X184166847Y-53035012D01*
X157575362Y-52863855D02*
X157557874Y-52818519D01*
X112989281Y-74319737D02*
X112995229Y-74367963D01*
X159992392Y-21018698D02*
X159992266Y-21018478D01*
X198409746Y-21407875D02*
X198351893Y-21246188D01*
X165710033Y-73764966D02*
X165743539Y-73800158D01*
X98536667Y-105328283D02*
X98538679Y-105339880D01*
X112805173Y-73875259D02*
X112833152Y-73914987D01*
X160188957Y-21510789D02*
X160182735Y-21486759D01*
X136788753Y-105340376D02*
X136793749Y-105364690D01*
X163293803Y-105364937D02*
X163310982Y-105438964D01*
X198263689Y-105892433D02*
X198268982Y-105881919D01*
X165805173Y-73875259D02*
X165833152Y-73914987D01*
X184075362Y-74086144D02*
X184095053Y-74041721D01*
X164357982Y-106739743D02*
X164358208Y-106739858D01*
X131000000Y-75484877D02*
X131000000Y-74465122D01*
X131796861Y-50494025D02*
X131844737Y-50485718D01*
X186747753Y-105038634D02*
X186749839Y-104956331D01*
X196889880Y-106911320D02*
X196890361Y-106911224D01*
X163601643Y-106082168D02*
X163615823Y-106102541D01*
X110370483Y-21317138D02*
X110370398Y-21317376D01*
X163250081Y-50465681D02*
X163250129Y-50466169D01*
X157595053Y-75908278D02*
X157575362Y-75863855D01*
X165883099Y-73998318D02*
X165904946Y-74041721D01*
X186582626Y-21199776D02*
X186550898Y-21130723D01*
X184057874Y-52818519D02*
X184042631Y-52772380D01*
X108689987Y-53308152D02*
X108650259Y-53280173D01*
X110863108Y-20559372D02*
X110809372Y-20613108D01*
X163259809Y-50474942D02*
X163262027Y-50474996D01*
X198490090Y-21804239D02*
X198490042Y-21803751D01*
X133592614Y-105726947D02*
X133620804Y-105656375D01*
X188183278Y-53379946D02*
X188138855Y-53399637D01*
X186323703Y-106183831D02*
X186338897Y-106164203D01*
X163417373Y-21199776D02*
X163417270Y-21200008D01*
X159483831Y-106523703D02*
X159484030Y-106523545D01*
X110256917Y-76475559D02*
X110256455Y-76475724D01*
X184838887Y-20002255D02*
X184838634Y-20002246D01*
X165250549Y-50504671D02*
X165297380Y-50517631D01*
X112998804Y-74416423D02*
X113000000Y-74465122D01*
X133711294Y-21609872D02*
X133711246Y-21609623D01*
X137857982Y-20210256D02*
X137790624Y-20245441D01*
X111639527Y-20095740D02*
X111639286Y-20095818D01*
X131892963Y-50479770D02*
X131941423Y-50476195D01*
X111736759Y-106882735D02*
X111760789Y-106888957D01*
X136759299Y-105139704D02*
X136759321Y-105139957D01*
X160247829Y-50471097D02*
X160248121Y-50470703D01*
X110370483Y-105632861D02*
X110379104Y-105656138D01*
X108474721Y-53113047D02*
X108444826Y-53074740D01*
X99557133Y-106713458D02*
X99557566Y-106713689D01*
X197276461Y-20157488D02*
X197276237Y-20157385D01*
X186740681Y-50474918D02*
X186741169Y-50474870D01*
X139359148Y-73956039D02*
X139383099Y-73998318D01*
X186749702Y-50467136D02*
X186749798Y-50466655D01*
X110317264Y-21486759D02*
X110311042Y-21510789D01*
X163660950Y-20785999D02*
X163615971Y-20847252D01*
X159940317Y-20931494D02*
X159898498Y-20868041D01*
X112743539Y-50800158D02*
X112775278Y-50836952D01*
X157542631Y-51177619D02*
X157557874Y-51131480D01*
X186748394Y-50470295D02*
X186748646Y-50469874D01*
X99557133Y-20236541D02*
X99546892Y-20242343D01*
X137972818Y-20157481D02*
X137950008Y-20167270D01*
X184743792Y-20000000D02*
X184743666Y-20000000D01*
X133539858Y-21108208D02*
X133539743Y-21107982D01*
X108250000Y-106937727D02*
X108250000Y-74465122D01*
X157510718Y-75630262D02*
X157504770Y-75582036D01*
X164380723Y-106750898D02*
X164449776Y-106782626D01*
X157694826Y-50875259D02*
X157724721Y-50836952D01*
X138750549Y-73504671D02*
X138797380Y-73517631D01*
X136788705Y-21609872D02*
X136775298Y-21684674D01*
X111934674Y-106924701D02*
X111934924Y-106924743D01*
X197265477Y-106797384D02*
X197276237Y-106792614D01*
X139495229Y-51367963D02*
X139498804Y-51416423D01*
X108248877Y-106944441D02*
X108249087Y-106943997D01*
X160245703Y-76476878D02*
X160245295Y-76476605D01*
X184166847Y-53035012D02*
X184140851Y-52993960D01*
X186061954Y-106459190D02*
X186062145Y-106459023D01*
X160211294Y-21609872D02*
X160211246Y-21609623D01*
X185709375Y-106704558D02*
X185709598Y-106704438D01*
X111380723Y-106750898D02*
X111449776Y-106782626D01*
X110338309Y-21413210D02*
X110338236Y-21413453D01*
X99231596Y-106495941D02*
X99240875Y-106503182D01*
X138163210Y-106861690D02*
X138163453Y-106861763D01*
X164181707Y-106640453D02*
X164202772Y-106653583D01*
X159027181Y-106792518D02*
X159049991Y-106782729D01*
X131939957Y-106940678D02*
X131964651Y-106938166D01*
X185619276Y-20199101D02*
X185550223Y-20167373D01*
X160249996Y-50462972D02*
X160250000Y-50462727D01*
X108246840Y-20002811D02*
X108246477Y-20002482D01*
X186749275Y-76481455D02*
X186749087Y-76481002D01*
X188757387Y-20000416D02*
X188756917Y-20000559D01*
X139305173Y-50875259D02*
X139333152Y-50914987D01*
X131566721Y-53379946D02*
X131523318Y-53358099D01*
X165743539Y-53149841D02*
X165710033Y-53185033D01*
X138139527Y-20095740D02*
X138139286Y-20095818D01*
X109142963Y-53470229D02*
X109094737Y-53464281D01*
X165980974Y-51271861D02*
X165989281Y-51319737D01*
X136750416Y-76482387D02*
X136750297Y-76482863D01*
X110546416Y-105997227D02*
X110559546Y-106018292D01*
X158439704Y-106940700D02*
X158439957Y-106940678D01*
X110460256Y-105842017D02*
X110495441Y-105909375D01*
X160242136Y-76475297D02*
X160241655Y-76475201D01*
X184000000Y-75484877D02*
X184000000Y-74465122D01*
X158256205Y-20000158D02*
X158243792Y-20000000D01*
X160247753Y-105038634D02*
X160249839Y-104956331D01*
X198500000Y-22012272D02*
X198499996Y-22012027D01*
X112107036Y-53470229D02*
X112058576Y-53473804D01*
X110379104Y-21293861D02*
X110370483Y-21317138D01*
X137046416Y-105997227D02*
X137059546Y-106018292D01*
X185882168Y-106598356D02*
X185902541Y-106584176D01*
X163881280Y-106407906D02*
X163881466Y-106408078D01*
X164380494Y-106750789D02*
X164380723Y-106750898D01*
X98509043Y-21815978D02*
X98509028Y-21816223D01*
X163507733Y-21018478D02*
X163507607Y-21018698D01*
X133118533Y-106408078D02*
X133118719Y-106407906D01*
X139359148Y-50956039D02*
X139383099Y-50998318D01*
X160238166Y-21785348D02*
X160238138Y-21785096D01*
X198463371Y-21621958D02*
X198463332Y-21621716D01*
X136750416Y-50467612D02*
X136750559Y-50468082D01*
X163460256Y-21107982D02*
X163460141Y-21108208D01*
X136750559Y-50468082D02*
X136750724Y-50468544D01*
X133724743Y-21684924D02*
X133724701Y-21684674D01*
X110255558Y-50473877D02*
X110256002Y-50474087D01*
X108390851Y-52993960D02*
X108366900Y-52951681D01*
X132902541Y-20365823D02*
X132882168Y-20351643D01*
X136788753Y-21609623D02*
X136788705Y-21609872D01*
X133746487Y-21886322D02*
X133746471Y-21886069D01*
X138655262Y-76464281D02*
X138607036Y-76470229D01*
X163288753Y-105340376D02*
X163293749Y-105364690D01*
X163661102Y-20785796D02*
X163660950Y-20785999D01*
X188609148Y-73956039D02*
X188633099Y-73998318D01*
X110250000Y-22006207D02*
X110250000Y-22006333D01*
X165433278Y-53379946D02*
X165388855Y-53399637D01*
X136907385Y-21223052D02*
X136879195Y-21293624D01*
X112599740Y-53280173D02*
X112560012Y-53308152D01*
X160082729Y-21200008D02*
X160082626Y-21199776D01*
X163258344Y-50474798D02*
X163258830Y-50474870D01*
X186749702Y-76482863D02*
X186749583Y-76482387D01*
X110253528Y-21886069D02*
X110253512Y-21886322D01*
X137515969Y-20426454D02*
X137457073Y-20474478D01*
X136917373Y-21199776D02*
X136917270Y-21200008D01*
X98742343Y-105903107D02*
X98742466Y-105903319D01*
X198257533Y-21046680D02*
X198169248Y-20899385D01*
X187759877Y-53475000D02*
X184990122Y-53475000D01*
X186724743Y-21684924D02*
X186724701Y-21684674D01*
X163417270Y-21200008D02*
X163407481Y-21222818D01*
X139174841Y-76218539D02*
X139138047Y-76250278D01*
X108731039Y-53334148D02*
X108689987Y-53308152D01*
X186748877Y-76480558D02*
X186748646Y-76480125D01*
X112989281Y-75630262D02*
X112980974Y-75678138D01*
X184042631Y-74177619D02*
X184057874Y-74131480D01*
X133592518Y-21222818D02*
X133582729Y-21200008D01*
X186629516Y-105632861D02*
X186629601Y-105632623D01*
X184481039Y-76334148D02*
X184439987Y-76308152D01*
X131361952Y-76250278D02*
X131325158Y-76218539D01*
X110791921Y-20631466D02*
X110740976Y-20687854D01*
X164290624Y-20245441D02*
X164290401Y-20245561D01*
X100316223Y-106940971D02*
X100487742Y-106949397D01*
X163254704Y-50473394D02*
X163255125Y-50473646D01*
X111449776Y-106782626D02*
X111450008Y-106782729D01*
X158066721Y-76379946D02*
X158023318Y-76358099D01*
X160161690Y-105536789D02*
X160161763Y-105536546D01*
X157939987Y-76308152D02*
X157900259Y-76280173D01*
X112710033Y-50764966D02*
X112743539Y-50800158D01*
X164117831Y-20351643D02*
X164097458Y-20365823D01*
X131844737Y-76464281D02*
X131796861Y-76455974D01*
X157756460Y-76149841D02*
X157724721Y-76113047D01*
X165155262Y-53464281D02*
X165107036Y-53470229D01*
X186743544Y-50474275D02*
X186743997Y-50474087D01*
X99241070Y-20446668D02*
X99240875Y-20446817D01*
X108249583Y-20007387D02*
X108249440Y-20006917D01*
X131566721Y-76379946D02*
X131523318Y-76358099D01*
X186706196Y-21585062D02*
X186689017Y-21511035D01*
X131001195Y-51416423D02*
X131004770Y-51367963D01*
X159381958Y-106598498D02*
X159382168Y-106598356D01*
X108861144Y-73550362D02*
X108906480Y-73532874D01*
X186539743Y-21107982D02*
X186504558Y-21040624D01*
X158464651Y-20011833D02*
X158439957Y-20009321D01*
X136995561Y-105909598D02*
X137007607Y-105931301D01*
X160249839Y-21993668D02*
X160247753Y-21911365D01*
X184400259Y-73669826D02*
X184439987Y-73641847D01*
X160248394Y-76479704D02*
X160248121Y-76479296D01*
X186190627Y-20613108D02*
X186136891Y-20559372D01*
X165957368Y-75772380D02*
X165942125Y-75818519D01*
X186744874Y-76476353D02*
X186744441Y-76476122D01*
X160250000Y-76487272D02*
X160249996Y-76487027D01*
X112957368Y-75772380D02*
X112942125Y-75818519D01*
X138560295Y-20009299D02*
X138560042Y-20009321D01*
X108906480Y-53417125D02*
X108861144Y-53399637D01*
X137291921Y-20631466D02*
X137240976Y-20687854D01*
X185550223Y-106782626D02*
X185619276Y-106750898D01*
X184004770Y-75582036D02*
X184001195Y-75533576D01*
X163252246Y-105038634D02*
X163252255Y-105038887D01*
X133749870Y-76483830D02*
X133749798Y-76483344D01*
X133323545Y-20765969D02*
X133275521Y-20707073D01*
X163252811Y-50471840D02*
X163253159Y-50472188D01*
X186706250Y-105364690D02*
X186711246Y-105340376D01*
X160243082Y-76475559D02*
X160242612Y-76475416D01*
X112388855Y-53399637D02*
X112343519Y-53417125D01*
X136757387Y-50474583D02*
X136757863Y-50474702D01*
X163257387Y-50474583D02*
X163257863Y-50474702D01*
X159707906Y-20631280D02*
X159690804Y-20613289D01*
X139383099Y-52951681D02*
X139359148Y-52993960D01*
X165859148Y-52993960D02*
X165833152Y-53035012D01*
X108248121Y-20004296D02*
X108247829Y-20003902D01*
X186136891Y-106390627D02*
X186190627Y-106336891D01*
X160161763Y-21413453D02*
X160161690Y-21413210D01*
X131523318Y-76358099D02*
X131481039Y-76334148D01*
X137535999Y-106539049D02*
X137597252Y-106584028D01*
X136753528Y-105063930D02*
X136759299Y-105139704D01*
X136755125Y-76476353D02*
X136754704Y-76476605D01*
X133706196Y-21585062D02*
X133689017Y-21511035D01*
X188750724Y-106943544D02*
X188750912Y-106943997D01*
X99379002Y-106605628D02*
X99379201Y-106605772D01*
X136756455Y-76475724D02*
X136756002Y-76475912D01*
X164181707Y-20309546D02*
X164181494Y-20309682D01*
X99745958Y-106801808D02*
X99746188Y-106801893D01*
X112833152Y-73914987D02*
X112859148Y-73956039D01*
X112343519Y-73532874D02*
X112388855Y-73550362D01*
X138359623Y-20038753D02*
X138335309Y-20043749D01*
X133749841Y-21993794D02*
X133749839Y-21993668D01*
X99231596Y-20454058D02*
X99231216Y-20454369D01*
X136753159Y-50472188D02*
X136753522Y-50472517D01*
X108249440Y-106943082D02*
X108249583Y-106942612D01*
X100315978Y-20009043D02*
X100304239Y-20009909D01*
X131796861Y-73494025D02*
X131844737Y-73485718D01*
X163250081Y-76484318D02*
X163250057Y-76484809D01*
X108246840Y-106947188D02*
X108247188Y-106946840D01*
X158363677Y-20003512D02*
X158338887Y-20002255D01*
X100121958Y-106913371D02*
X100291826Y-106938568D01*
X185549991Y-106782729D02*
X185550223Y-106782626D01*
X157666847Y-53035012D02*
X157640851Y-52993960D01*
X133749996Y-50462972D02*
X133750000Y-50462727D01*
X110407481Y-21222818D02*
X110407385Y-21223052D01*
X137516168Y-20426296D02*
X137515969Y-20426454D01*
X108241655Y-20000201D02*
X108241169Y-20000129D01*
X158249450Y-53445328D02*
X158202619Y-53432368D01*
X98583137Y-105518664D02*
X98583199Y-105518902D01*
X163252170Y-50471097D02*
X163252482Y-50471477D01*
X159823703Y-106183831D02*
X159838897Y-106164203D01*
X198461224Y-105340361D02*
X198461320Y-105339880D01*
X110253902Y-50472829D02*
X110254296Y-50473121D01*
X136752170Y-76478902D02*
X136751878Y-76479296D01*
X160154181Y-105560713D02*
X160154259Y-105560472D01*
X184844737Y-73485718D02*
X184892963Y-73479770D01*
X163791921Y-20631466D02*
X163740976Y-20687854D01*
X98511398Y-21792069D02*
X98509957Y-21803751D01*
X197759124Y-106503182D02*
X197768403Y-106495941D01*
X185619276Y-106750898D02*
X185619505Y-106750789D01*
X160188957Y-105439210D02*
X160189017Y-105438964D01*
X139174841Y-50731460D02*
X139210033Y-50764966D01*
X186742136Y-50474702D02*
X186742612Y-50474583D01*
X133746471Y-105063930D02*
X133746487Y-105063677D01*
X108244874Y-106948646D02*
X108245295Y-106948394D01*
X184361952Y-53250278D02*
X184325158Y-53218539D01*
X133749087Y-50468997D02*
X133749275Y-50468544D01*
X184029671Y-51224450D02*
X184042631Y-51177619D01*
X138703138Y-50494025D02*
X138750549Y-50504671D01*
X158344737Y-73485718D02*
X158392963Y-73479770D01*
X160211246Y-21609623D02*
X160206250Y-21585309D01*
X137516168Y-106523703D02*
X137535796Y-106538897D01*
X133747829Y-76478902D02*
X133747517Y-76478522D01*
X160224743Y-21684924D02*
X160224701Y-21684674D01*
X98648191Y-21245958D02*
X98648106Y-21246188D01*
X133743544Y-76475724D02*
X133743082Y-76475559D01*
X187905262Y-53464281D02*
X187857036Y-53470229D01*
X133190627Y-20613108D02*
X133136891Y-20559372D01*
X196707930Y-20011398D02*
X196696248Y-20009957D01*
X185239210Y-106888957D02*
X185263240Y-106882735D01*
X110250081Y-76484318D02*
X110250057Y-76484809D01*
X160154259Y-105560472D02*
X160161690Y-105536789D01*
X112203138Y-53455974D02*
X112155262Y-53464281D01*
X110507607Y-21018698D02*
X110495561Y-21040401D01*
X163881466Y-20541921D02*
X163881280Y-20542093D01*
X184756205Y-20000158D02*
X184743792Y-20000000D01*
X198269089Y-21068300D02*
X198268982Y-21068080D01*
X188674637Y-52863855D02*
X188654946Y-52908278D01*
X186398498Y-106081958D02*
X186440317Y-106018505D01*
X108575158Y-73731460D02*
X108611952Y-73699721D01*
X184990122Y-50475000D02*
X186737727Y-50475000D01*
X185818505Y-20309682D02*
X185818292Y-20309546D01*
X112995229Y-75582036D02*
X112989281Y-75630262D01*
X185818292Y-20309546D02*
X185797227Y-20296416D01*
X163559682Y-20931494D02*
X163559546Y-20931707D01*
X139495229Y-74367963D02*
X139498804Y-74416423D01*
X133190804Y-20613289D02*
X133190627Y-20613108D01*
X158956138Y-106820895D02*
X158956375Y-106820804D01*
X165297380Y-50517631D02*
X165343519Y-50532874D01*
X158664937Y-20043803D02*
X158664690Y-20043749D01*
X98511431Y-105158173D02*
X98536628Y-105328041D01*
X184116900Y-50998318D02*
X184140851Y-50956039D01*
X139243539Y-76149841D02*
X139210033Y-76185033D01*
X131743792Y-20000000D02*
X131743666Y-20000000D01*
X132432861Y-20120483D02*
X132432623Y-20120398D01*
X136995441Y-21040624D02*
X136960256Y-21107982D01*
X158540539Y-20021498D02*
X158540288Y-20021462D01*
X163676454Y-20765969D02*
X163676296Y-20766168D01*
X112250549Y-76445328D02*
X112203138Y-76455974D01*
X138043861Y-20129104D02*
X138043624Y-20129195D01*
X108243997Y-106949087D02*
X108244441Y-106948877D01*
X137973052Y-20157385D02*
X137972818Y-20157481D01*
X136750003Y-76487027D02*
X136750000Y-76487272D01*
X198409826Y-21408107D02*
X198409746Y-21407875D01*
X136750724Y-76481455D02*
X136750559Y-76481917D01*
X110792093Y-20631280D02*
X110791921Y-20631466D01*
X188752170Y-20003902D02*
X188751878Y-20004296D01*
X163250201Y-50466655D02*
X163250297Y-50467136D01*
X184289966Y-73764966D02*
X184325158Y-73731460D01*
X112775278Y-73836952D02*
X112805173Y-73875259D01*
X160240190Y-50474942D02*
X160240681Y-50474918D01*
X137515969Y-106523545D02*
X137516168Y-106523703D01*
X160241169Y-50474870D02*
X160241655Y-50474798D01*
X196487972Y-106949996D02*
X196512012Y-106949406D01*
X186741169Y-76475129D02*
X186740681Y-76475081D01*
X98500602Y-104962257D02*
X98509028Y-105133776D01*
X138558576Y-50476195D02*
X138607036Y-50479770D01*
X198169119Y-106050822D02*
X198169248Y-106050614D01*
X110559546Y-20931707D02*
X110546416Y-20952772D01*
X159297010Y-20296284D02*
X159231521Y-20257733D01*
X131256460Y-73800158D02*
X131289966Y-73764966D01*
X138655262Y-53464281D02*
X138607036Y-53470229D01*
X108237972Y-106949996D02*
X108240190Y-106949942D01*
X139243539Y-53149841D02*
X139210033Y-53185033D01*
X111567376Y-106829601D02*
X111639286Y-106854181D01*
X158111144Y-50550362D02*
X158156480Y-50532874D01*
X165203138Y-50494025D02*
X165250549Y-50504671D01*
X98652615Y-21234522D02*
X98652428Y-21234976D01*
X138843519Y-76417125D02*
X138797380Y-76432368D01*
X186539858Y-21108208D02*
X186539743Y-21107982D01*
X165942125Y-75818519D02*
X165924637Y-75863855D01*
X131166847Y-53035012D02*
X131140851Y-52993960D01*
X196878283Y-106913332D02*
X196889880Y-106911320D01*
X185964203Y-106538897D02*
X185983831Y-106523703D01*
X99240875Y-106503182D02*
X99241070Y-106503331D01*
X196684021Y-106940956D02*
X196695760Y-106940090D01*
X159775521Y-106242926D02*
X159823545Y-106184030D01*
X112883099Y-75951681D02*
X112859148Y-75993960D01*
X111358208Y-20210141D02*
X111357982Y-20210256D01*
X111118041Y-20351501D02*
X111117831Y-20351643D01*
X196512257Y-20000602D02*
X196512012Y-20000593D01*
X136756455Y-50474275D02*
X136756917Y-50474440D01*
X165833152Y-73914987D02*
X165859148Y-73956039D01*
X132336546Y-106861763D02*
X132336789Y-106861690D01*
X133661763Y-105536546D02*
X133682669Y-105463484D01*
X136750057Y-76484809D02*
X136750003Y-76487027D01*
X186453715Y-105997010D02*
X186492266Y-105931521D01*
X110601643Y-106082168D02*
X110615823Y-106102541D01*
X108611952Y-73699721D02*
X108650259Y-73669826D01*
X139500000Y-52484877D02*
X139498804Y-52533576D01*
X138335309Y-106906250D02*
X138359623Y-106911246D01*
X131256460Y-50800158D02*
X131289966Y-50764966D01*
X163259321Y-21810042D02*
X163259299Y-21810295D01*
X186629601Y-21317376D02*
X186629516Y-21317138D01*
X160246477Y-50472517D02*
X160246840Y-50472188D01*
X186742612Y-76475416D02*
X186742136Y-76475297D01*
X136756002Y-76475912D02*
X136755558Y-76476122D01*
X100121958Y-20036628D02*
X100121716Y-20036667D01*
X131749450Y-53445328D02*
X131702619Y-53432368D01*
X110495561Y-105909598D02*
X110507607Y-105931301D01*
X131964903Y-106938138D02*
X132040288Y-106928537D01*
X165107036Y-76470229D02*
X165058576Y-76473804D01*
X133207906Y-20631280D02*
X133190804Y-20613289D01*
X133749798Y-76483344D02*
X133749702Y-76482863D01*
X110938045Y-20490809D02*
X110937854Y-20490976D01*
X184939957Y-106940678D02*
X184964651Y-106938166D01*
X131990122Y-53475000D02*
X131941423Y-53473804D01*
X163250158Y-104956205D02*
X163250160Y-104956331D01*
X136755558Y-76476122D02*
X136755125Y-76476353D01*
X165009877Y-53475000D02*
X158490122Y-53475000D01*
X160206250Y-21585309D02*
X160206196Y-21585062D01*
X111450008Y-20167270D02*
X111449776Y-20167373D01*
X185731301Y-106692392D02*
X185731521Y-106692266D01*
X163288705Y-21609872D02*
X163275298Y-21684674D01*
X159775359Y-106243121D02*
X159775521Y-106242926D01*
X197922288Y-20594699D02*
X197914171Y-20586175D01*
X186062145Y-106459023D02*
X186118533Y-106408078D01*
X197914171Y-20586175D02*
X197913824Y-20585828D01*
X108247829Y-20003902D02*
X108247517Y-20003522D01*
X131224721Y-73836952D02*
X131256460Y-73800158D01*
X198416800Y-21431097D02*
X198413660Y-21419753D01*
X138335309Y-20043749D02*
X138335062Y-20043803D01*
X188226681Y-73591900D02*
X188268960Y-73615851D01*
X198347571Y-21234976D02*
X198347384Y-21234522D01*
X98962220Y-20722120D02*
X98962058Y-20722303D01*
X133749440Y-50468082D02*
X133749583Y-50467612D01*
X110252170Y-50471097D02*
X110252482Y-50471477D01*
X198409746Y-105542124D02*
X198409826Y-105541892D01*
X184439987Y-73641847D02*
X184481039Y-73615851D01*
X98844227Y-20879201D02*
X98837450Y-20888824D01*
X138139286Y-106854181D02*
X138139527Y-106854259D01*
X110254704Y-76476605D02*
X110254296Y-76476878D01*
X158441423Y-53473804D02*
X158392963Y-53470229D01*
X159402747Y-106584028D02*
X159464000Y-106539049D01*
X186747753Y-21911365D02*
X186747744Y-21911112D01*
X198490042Y-105146248D02*
X198490090Y-105145760D01*
X186749440Y-50468082D02*
X186749583Y-50467612D01*
X163449210Y-105819505D02*
X163460141Y-105841791D01*
X100098153Y-20041354D02*
X100097914Y-20041411D01*
X133384028Y-106102747D02*
X133384176Y-106102541D01*
X164202772Y-20296416D02*
X164181707Y-20309546D01*
X184000000Y-51465122D02*
X184001195Y-51416423D01*
X136752811Y-76478159D02*
X136752482Y-76478522D01*
X165833152Y-53035012D02*
X165805173Y-53074740D01*
X131075362Y-52863855D02*
X131057874Y-52818519D01*
X165107036Y-50479770D02*
X165155262Y-50485718D01*
X160246097Y-50472829D02*
X160246477Y-50472517D01*
X188000549Y-73504671D02*
X188047380Y-73517631D01*
X137176454Y-106184030D02*
X137224478Y-106242926D01*
X139404946Y-52908278D02*
X139383099Y-52951681D01*
X160250000Y-104943666D02*
X160250000Y-76487272D01*
X133737972Y-76475003D02*
X133737727Y-76475000D01*
X159050223Y-106782626D02*
X159119276Y-106750898D01*
X98962058Y-106227696D02*
X98962220Y-106227879D01*
X164835062Y-106906196D02*
X164835309Y-106906250D01*
X132238964Y-106889017D02*
X132239210Y-106888957D01*
X108249918Y-106940681D02*
X108249942Y-106940190D01*
X109191423Y-73476195D02*
X109240122Y-73475000D01*
X163271462Y-105240288D02*
X163271498Y-105240539D01*
X139470328Y-75725549D02*
X139457368Y-75772380D01*
X159992392Y-105931301D02*
X160004438Y-105909598D01*
X132709598Y-106704438D02*
X132731301Y-106692392D01*
X184656480Y-73532874D02*
X184702619Y-73517631D01*
X165980974Y-74271861D02*
X165989281Y-74319737D01*
X133711246Y-21609623D02*
X133706250Y-21585309D01*
X163252255Y-21911112D02*
X163252246Y-21911365D01*
X163407385Y-105726947D02*
X163407481Y-105727181D01*
X99919753Y-106863660D02*
X99931097Y-106866800D01*
X186207906Y-20631280D02*
X186190804Y-20613289D01*
X186190627Y-106336891D02*
X186190804Y-106336710D01*
X184941423Y-53473804D02*
X184892963Y-53470229D01*
X98954369Y-20731216D02*
X98954058Y-20731596D01*
X98736541Y-21057133D02*
X98736310Y-21057566D01*
X164380494Y-20199210D02*
X164358208Y-20210141D01*
X198342511Y-105726461D02*
X198342614Y-105726237D01*
X131796861Y-53455974D02*
X131749450Y-53445328D01*
X157504770Y-51367963D02*
X157510718Y-51319737D01*
X110252482Y-76478522D02*
X110252170Y-76478902D01*
X163250416Y-50467612D02*
X163250559Y-50468082D01*
X132456138Y-20129104D02*
X132432861Y-20120483D01*
X164663210Y-106861690D02*
X164663453Y-106861763D01*
X133741169Y-50474870D02*
X133741655Y-50474798D01*
X136750003Y-50462972D02*
X136750057Y-50465190D01*
X160129516Y-21317138D02*
X160120895Y-21293861D01*
X137973052Y-106792614D02*
X138043624Y-106820804D01*
X188424841Y-53218539D02*
X188388047Y-53250278D01*
X110863108Y-106390627D02*
X110863289Y-106390804D01*
X111543624Y-20129195D02*
X111473052Y-20157385D01*
X196512012Y-106949406D02*
X196512257Y-106949397D01*
X110257863Y-50474702D02*
X110258344Y-50474798D01*
X188753902Y-106947829D02*
X188754296Y-106948121D01*
X132164690Y-106906250D02*
X132164937Y-106906196D01*
X133743082Y-50474440D02*
X133743544Y-50474275D01*
X98648106Y-21246188D02*
X98590253Y-21407875D01*
X133740700Y-105139704D02*
X133746471Y-105063930D01*
X165710033Y-53185033D02*
X165674841Y-53218539D01*
X163293803Y-21585062D02*
X163293749Y-21585309D01*
X98541411Y-21597914D02*
X98541354Y-21598153D01*
X163863108Y-106390627D02*
X163863289Y-106390804D01*
X188756917Y-106949440D02*
X188757387Y-106949583D01*
X157900259Y-50669826D02*
X157939987Y-50641847D01*
X159142017Y-20210256D02*
X159141791Y-20210141D01*
X108248394Y-106945295D02*
X108248646Y-106944874D01*
X198155772Y-106070798D02*
X198162549Y-106061175D01*
X112136322Y-106946487D02*
X112161112Y-106947744D01*
X197620798Y-20344227D02*
X197611175Y-20337450D01*
X159940317Y-106018505D02*
X159940453Y-106018292D01*
X196901846Y-20041354D02*
X196890361Y-20038775D01*
X138703138Y-73494025D02*
X138750549Y-73504671D01*
X163250000Y-22006207D02*
X163250000Y-22006333D01*
X136761861Y-21785096D02*
X136761833Y-21785348D01*
X112859148Y-75993960D02*
X112833152Y-76035012D01*
X163256455Y-50474275D02*
X163256917Y-50474440D01*
X188758344Y-106949798D02*
X188758830Y-106949870D01*
X186740700Y-105139704D02*
X186746471Y-105063930D01*
X108773318Y-73591900D02*
X108816721Y-73570053D01*
X165035348Y-20011833D02*
X165035096Y-20011861D01*
X157900259Y-53280173D02*
X157861952Y-53250278D01*
X158256331Y-20000160D02*
X158256205Y-20000158D01*
X159759190Y-106261954D02*
X159775359Y-106243121D01*
X133746477Y-50472517D02*
X133746840Y-50472188D01*
X184941423Y-50476195D02*
X184990122Y-50475000D01*
X131566721Y-50570053D02*
X131611144Y-50550362D01*
X185983831Y-20426296D02*
X185964203Y-20411102D01*
X111859872Y-20038705D02*
X111859623Y-20038753D01*
X197600614Y-20330751D02*
X197453319Y-20242466D01*
X108254770Y-74367963D02*
X108260718Y-74319737D01*
X158565325Y-20025298D02*
X158565075Y-20025256D01*
X112155262Y-73485718D02*
X112203138Y-73494025D01*
X139500000Y-74465122D02*
X139500000Y-75484877D01*
X111016168Y-106523703D02*
X111035796Y-106538897D01*
X188555173Y-73875259D02*
X188583152Y-73914987D01*
X110881280Y-106407906D02*
X110881466Y-106408078D01*
X164268698Y-20257607D02*
X164268478Y-20257733D01*
X186747517Y-50471477D02*
X186747829Y-50471097D01*
X186749942Y-76484809D02*
X186749918Y-76484318D01*
X159823545Y-106184030D02*
X159823703Y-106183831D01*
X108249870Y-20008830D02*
X108249798Y-20008344D01*
X136907481Y-105727181D02*
X136917270Y-105749991D01*
X160249841Y-104956205D02*
X160249999Y-104943792D01*
X111268698Y-106692392D02*
X111290401Y-106704438D01*
X197905120Y-20577544D02*
X197777879Y-20462220D01*
X186743082Y-50474440D02*
X186743544Y-50474275D01*
X188756455Y-20000724D02*
X188756002Y-20000912D01*
X111835309Y-20043749D02*
X111835062Y-20043803D01*
X133440317Y-106018505D02*
X133440453Y-106018292D01*
X160228537Y-21709711D02*
X160228501Y-21709460D01*
X188525278Y-73836952D02*
X188555173Y-73875259D01*
X188748804Y-74416423D02*
X188750000Y-74465122D01*
X132336789Y-106861690D02*
X132360472Y-106854259D01*
X132065075Y-106924743D02*
X132065325Y-106924701D01*
X111380494Y-20199210D02*
X111358208Y-20210141D01*
X198499397Y-104962257D02*
X198499406Y-104962012D01*
X163370483Y-21317138D02*
X163370398Y-21317376D01*
X159484030Y-20426454D02*
X159483831Y-20426296D01*
X163250000Y-50462727D02*
X163250003Y-50462972D01*
X165297380Y-76432368D02*
X165250549Y-76445328D01*
X111358208Y-106739858D02*
X111380494Y-106750789D01*
X108249870Y-106941169D02*
X108249918Y-106940681D01*
X137617831Y-20351643D02*
X137597458Y-20365823D01*
X159543121Y-20474640D02*
X159542926Y-20474478D01*
X188750057Y-20009809D02*
X188750003Y-20012027D01*
X139489281Y-74319737D02*
X139495229Y-74367963D01*
X160241169Y-76475129D02*
X160240681Y-76475081D01*
X131863930Y-106946471D02*
X131939704Y-106940700D01*
X186747517Y-76478522D02*
X186747188Y-76478159D01*
X133740678Y-105139957D02*
X133740700Y-105139704D01*
X188138855Y-73550362D02*
X188183278Y-73570053D01*
X157981039Y-73615851D02*
X158023318Y-73591900D01*
X163370398Y-105632623D02*
X163370483Y-105632861D01*
X133748394Y-76479704D02*
X133748121Y-76479296D01*
X157756460Y-50800158D02*
X157789966Y-50764966D01*
X139275278Y-53113047D02*
X139243539Y-53149841D01*
X139498804Y-74416423D02*
X139500000Y-74465122D01*
X185360713Y-106854181D02*
X185432623Y-106829601D01*
X108245703Y-106948121D02*
X108246097Y-106947829D01*
X136793803Y-105364937D02*
X136810982Y-105438964D01*
X186749583Y-50467612D02*
X186749702Y-50467136D01*
X157789966Y-73764966D02*
X157825158Y-73731460D01*
X158439704Y-20009299D02*
X158363930Y-20003528D01*
X98500602Y-21987742D02*
X98500593Y-21987987D01*
X198416862Y-105518664D02*
X198458588Y-105352085D01*
X112989281Y-51319737D02*
X112995229Y-51367963D01*
X131863677Y-106946487D02*
X131863930Y-106946471D01*
X197922455Y-106355120D02*
X198037779Y-106227879D01*
X98742343Y-21046892D02*
X98736541Y-21057133D01*
X111449776Y-20167373D02*
X111380723Y-20199101D01*
X165904946Y-75908278D02*
X165883099Y-75951681D01*
X186062145Y-20490976D02*
X186061954Y-20490809D01*
X112998804Y-51416423D02*
X113000000Y-51465122D01*
X163449101Y-105819276D02*
X163449210Y-105819505D01*
X100512272Y-106950000D02*
X108237727Y-106950000D01*
X108248877Y-20005558D02*
X108248646Y-20005125D01*
X157756460Y-73800158D02*
X157789966Y-73764966D01*
X158256205Y-106949841D02*
X158256331Y-106949839D01*
X133742136Y-76475297D02*
X133741655Y-76475201D01*
X110338309Y-105536789D02*
X110345740Y-105560472D01*
X111639286Y-106854181D02*
X111639527Y-106854259D01*
X160238138Y-105164903D02*
X160238166Y-105164651D01*
X137681707Y-106640453D02*
X137702772Y-106653583D01*
X163250912Y-50468997D02*
X163251122Y-50469441D01*
X188525278Y-53113047D02*
X188493539Y-53149841D01*
X198490956Y-105134021D02*
X198490971Y-105133776D01*
X184939704Y-106940700D02*
X184939957Y-106940678D01*
X184756331Y-106949839D02*
X184838634Y-106947753D01*
X133629516Y-21317138D02*
X133620895Y-21293861D01*
X136759318Y-76475081D02*
X136758830Y-76475129D01*
X137858208Y-20210141D02*
X137857982Y-20210256D01*
X185336789Y-20088309D02*
X185336546Y-20088236D01*
X133747188Y-50471840D02*
X133747517Y-50471477D01*
X159618533Y-106408078D02*
X159618719Y-106407906D01*
X184702619Y-53432368D02*
X184656480Y-53417125D01*
X188750081Y-106940681D02*
X188750129Y-106941169D01*
X110253902Y-76477170D02*
X110253522Y-76477482D01*
X139333152Y-73914987D02*
X139359148Y-73956039D01*
X99077711Y-106355300D02*
X99085828Y-106363824D01*
X131838887Y-106947744D02*
X131863677Y-106946487D01*
X110275298Y-105265325D02*
X110288705Y-105340127D01*
X198263458Y-105892866D02*
X198263689Y-105892433D01*
X158490122Y-53475000D02*
X158441423Y-53473804D01*
X99546892Y-106707656D02*
X99557133Y-106713458D01*
X165599740Y-53280173D02*
X165560012Y-53308152D01*
X133620895Y-105656138D02*
X133629516Y-105632861D01*
X185642017Y-20210256D02*
X185641791Y-20210141D01*
X138434924Y-20025256D02*
X138434674Y-20025298D01*
X112155262Y-50485718D02*
X112203138Y-50494025D01*
X108247829Y-106946097D02*
X108248121Y-106945703D01*
X186136891Y-20559372D02*
X186136710Y-20559195D01*
X186749440Y-76481917D02*
X186749275Y-76481455D01*
X185964000Y-106539049D02*
X185964203Y-106538897D01*
X133688957Y-21510789D02*
X133682735Y-21486759D01*
X98590173Y-105541892D02*
X98590253Y-105542124D01*
X133042926Y-20474478D02*
X132984030Y-20426454D01*
X99389232Y-20337177D02*
X99388824Y-20337450D01*
X98657385Y-105726237D02*
X98657488Y-105726461D01*
X164181494Y-20309682D02*
X164118041Y-20351501D01*
X131325158Y-50731460D02*
X131361952Y-50699721D01*
X157519025Y-74271861D02*
X157529671Y-74224450D01*
X136750559Y-76481917D02*
X136750416Y-76482387D01*
X112518960Y-76334148D02*
X112476681Y-76358099D01*
X136753522Y-50472517D02*
X136753902Y-50472829D01*
X99919753Y-20086339D02*
X99919284Y-20086481D01*
X160120895Y-105656138D02*
X160129516Y-105632861D01*
X159209375Y-20245441D02*
X159142017Y-20210256D01*
X98946668Y-20741070D02*
X98844371Y-20879002D01*
X112009877Y-76475000D02*
X110262272Y-76475000D01*
X131057874Y-75818519D02*
X131042631Y-75772380D01*
X111268698Y-20257607D02*
X111268478Y-20257733D01*
X139442125Y-75818519D02*
X139424637Y-75863855D01*
X184523318Y-76358099D02*
X184481039Y-76334148D01*
X184019025Y-74271861D02*
X184029671Y-74224450D01*
X157510718Y-51319737D02*
X157519025Y-51271861D01*
X198461224Y-21609638D02*
X198458645Y-21598153D01*
X163254704Y-76476605D02*
X163254296Y-76476878D01*
X133746487Y-105063677D02*
X133747744Y-105038887D01*
X138636069Y-106946471D02*
X138636322Y-106946487D01*
X133323703Y-106183831D02*
X133338897Y-106164203D01*
X165518960Y-50615851D02*
X165560012Y-50641847D01*
X163507607Y-21018698D02*
X163495561Y-21040401D01*
X160004558Y-105909375D02*
X160039743Y-105842017D01*
X136949210Y-105819505D02*
X136960141Y-105841791D01*
X110257863Y-76475297D02*
X110257387Y-76475416D01*
X163262027Y-50474996D02*
X163262272Y-50475000D01*
X139495229Y-75582036D02*
X139489281Y-75630262D01*
X163253512Y-21886322D02*
X163252255Y-21911112D01*
X159297227Y-106653583D02*
X159318292Y-106640453D01*
X158243666Y-106950000D02*
X158243792Y-106949999D01*
X188762027Y-106949996D02*
X188762272Y-106950000D01*
X98500593Y-21987987D02*
X98500003Y-22012027D01*
X131140851Y-52993960D02*
X131116900Y-52951681D01*
X158156480Y-53417125D02*
X158111144Y-53399637D01*
X165060295Y-20009299D02*
X165060042Y-20009321D01*
X165743539Y-73800158D02*
X165775278Y-73836952D01*
X198155628Y-20879002D02*
X198053331Y-20741070D01*
X112995229Y-51367963D02*
X112998804Y-51416423D01*
X160050898Y-21130723D02*
X160050789Y-21130494D01*
X133061954Y-20490809D02*
X133043121Y-20474640D01*
X184001195Y-52533576D02*
X184000000Y-52484877D01*
X137240976Y-106262145D02*
X137291921Y-106318533D01*
X137059682Y-20931494D02*
X137059546Y-20931707D01*
X138067376Y-106829601D02*
X138139286Y-106854181D01*
X197453319Y-106707533D02*
X197600614Y-106619248D01*
X186539743Y-105842017D02*
X186539858Y-105841791D01*
X108247188Y-106946840D02*
X108247517Y-106946477D01*
X136750724Y-50468544D02*
X136750912Y-50468997D01*
X160039858Y-105841791D02*
X160050789Y-105819505D01*
X99094699Y-106372288D02*
X99094879Y-106372455D01*
X111380494Y-106750789D02*
X111380723Y-106750898D01*
X184057874Y-74131480D02*
X184075362Y-74086144D01*
X110417373Y-21199776D02*
X110417270Y-21200008D01*
X110615971Y-20847252D02*
X110615823Y-20847458D01*
X157529671Y-52725549D02*
X157519025Y-52678138D01*
X136775256Y-105265075D02*
X136775298Y-105265325D01*
X187953138Y-53455974D02*
X187905262Y-53464281D01*
X110261861Y-21785096D02*
X110261833Y-21785348D01*
X159561954Y-20490809D02*
X159543121Y-20474640D01*
X99723762Y-20157385D02*
X99723538Y-20157488D01*
X98538775Y-21609638D02*
X98538679Y-21610119D01*
X184439987Y-53308152D02*
X184400259Y-53280173D01*
X138976681Y-76358099D02*
X138933278Y-76379946D01*
X163957073Y-20474478D02*
X163956878Y-20474640D01*
X112035096Y-106938138D02*
X112035348Y-106938166D01*
X186654259Y-21389527D02*
X186654181Y-21389286D01*
X132140376Y-20038753D02*
X132140127Y-20038705D01*
X98946817Y-20740875D02*
X98946668Y-20741070D01*
X110310982Y-21511035D02*
X110293803Y-21585062D01*
X110271498Y-21709460D02*
X110271462Y-21709711D01*
X131004770Y-51367963D02*
X131010718Y-51319737D01*
X158249450Y-73504671D02*
X158296861Y-73494025D01*
X158441423Y-76473804D02*
X158392963Y-76470229D01*
X131057874Y-74131480D02*
X131075362Y-74086144D01*
X99568080Y-20231017D02*
X99557566Y-20236310D01*
X163250297Y-50467136D02*
X163250416Y-50467612D01*
X138743668Y-106949839D02*
X138743794Y-106949841D01*
X166000000Y-51465122D02*
X166000000Y-52484877D01*
X138139286Y-20095818D02*
X138067376Y-20120398D01*
X132040288Y-106928537D02*
X132040539Y-106928501D01*
X110809372Y-106336891D02*
X110863108Y-106390627D01*
X186749839Y-104956331D02*
X186749841Y-104956205D01*
X157575362Y-51086144D02*
X157595053Y-51041721D01*
X185731521Y-106692266D02*
X185797010Y-106653715D01*
X165833152Y-76035012D02*
X165805173Y-76074740D01*
X185140127Y-20038705D02*
X185065325Y-20025298D01*
X184010718Y-75630262D02*
X184004770Y-75582036D01*
X138067138Y-106829516D02*
X138067376Y-106829601D01*
X136758344Y-50474798D02*
X136758830Y-50474870D01*
X133384176Y-20847458D02*
X133384028Y-20847252D01*
X186743997Y-50474087D02*
X186744441Y-50473877D01*
X133737727Y-76475000D02*
X131990122Y-76475000D01*
X110250912Y-76481002D02*
X110250724Y-76481455D01*
X158490122Y-73475000D02*
X165009877Y-73475000D01*
X186275521Y-20707073D02*
X186275359Y-20706878D01*
X112942125Y-75818519D02*
X112924637Y-75863855D01*
X198458645Y-21598153D02*
X198458588Y-21597914D01*
X110740976Y-20687854D02*
X110740809Y-20688045D01*
X163257387Y-76475416D02*
X163256917Y-76475559D01*
X197068902Y-20083199D02*
X197068664Y-20083137D01*
X198053331Y-106208929D02*
X198155628Y-106070997D01*
X198488601Y-21792069D02*
X198488568Y-21791826D01*
X133744874Y-50473646D02*
X133745295Y-50473394D01*
X157542631Y-52772380D02*
X157529671Y-52725549D01*
X165476681Y-53358099D02*
X165433278Y-53379946D01*
X157789966Y-53185033D02*
X157756460Y-53149841D01*
X138560042Y-20009321D02*
X138535348Y-20011833D01*
X132164690Y-20043749D02*
X132140376Y-20038753D01*
X132065325Y-20025298D02*
X132065075Y-20025256D01*
X110250724Y-76481455D02*
X110250559Y-76481917D01*
X108999450Y-53445328D02*
X108952619Y-53432368D01*
X198499406Y-21987987D02*
X198499397Y-21987742D01*
X137457073Y-20474478D02*
X137456878Y-20474640D01*
X157666847Y-50914987D02*
X157694826Y-50875259D01*
X188750416Y-20007387D02*
X188750297Y-20007863D01*
X99734976Y-20152428D02*
X99734522Y-20152615D01*
X165155262Y-76464281D02*
X165107036Y-76470229D01*
X108249942Y-20009809D02*
X108249942Y-20009809D01*
X139424637Y-74086144D02*
X139442125Y-74131480D01*
X133742612Y-50474583D02*
X133743082Y-50474440D01*
X188759809Y-106949942D02*
X188762027Y-106949996D01*
X137949776Y-106782626D02*
X137950008Y-106782729D01*
X100303751Y-20009957D02*
X100292069Y-20011398D01*
X163809195Y-106336710D02*
X163809372Y-106336891D01*
X184892963Y-73479770D02*
X184941423Y-73476195D01*
X165518960Y-53334148D02*
X165476681Y-53358099D01*
X137224640Y-106243121D02*
X137240809Y-106261954D01*
X184844737Y-53464281D02*
X184796861Y-53455974D01*
X111202989Y-106653715D02*
X111268478Y-106692266D01*
X137681494Y-20309682D02*
X137618041Y-20351501D01*
X110417270Y-21200008D02*
X110407481Y-21222818D01*
X184042631Y-75772380D02*
X184029671Y-75725549D01*
X110311042Y-105439210D02*
X110317264Y-105463240D01*
X184001195Y-51416423D02*
X184004770Y-51367963D01*
X136917270Y-21200008D02*
X136907481Y-21222818D01*
X198169119Y-20899177D02*
X198162822Y-20889232D01*
X163262272Y-76475000D02*
X163262027Y-76475003D01*
X136750081Y-76484318D02*
X136750057Y-76484809D01*
X110507733Y-105931521D02*
X110546284Y-105997010D01*
X137007733Y-105931521D02*
X137046284Y-105997010D01*
X133582729Y-21200008D02*
X133582626Y-21199776D01*
X186748394Y-76479704D02*
X186748121Y-76479296D01*
X184439987Y-76308152D02*
X184400259Y-76280173D01*
X98731017Y-21068080D02*
X98730910Y-21068300D01*
X163676454Y-106184030D02*
X163724478Y-106242926D01*
X160244441Y-50473877D02*
X160244874Y-50473646D01*
X137007733Y-21018478D02*
X137007607Y-21018698D01*
X131656480Y-50532874D02*
X131702619Y-50517631D01*
X158956375Y-106820804D02*
X159026947Y-106792614D01*
X131140851Y-75993960D02*
X131116900Y-75951681D01*
X184656480Y-53417125D02*
X184611144Y-53399637D01*
X158249450Y-76445328D02*
X158202619Y-76432368D01*
X160248121Y-76479296D02*
X160247829Y-76478902D01*
X164663453Y-20088236D02*
X164663210Y-20088309D01*
X136995561Y-21040401D02*
X136995441Y-21040624D01*
X110559682Y-106018505D02*
X110601501Y-106081958D01*
X185882168Y-20351643D02*
X185881958Y-20351501D01*
X185902747Y-20365971D02*
X185902541Y-20365823D01*
X163261833Y-21785348D02*
X163259321Y-21810042D01*
X99085828Y-20586175D02*
X99077711Y-20594699D01*
X99231216Y-20454369D02*
X99222303Y-20462058D01*
X131844737Y-73485718D02*
X131892963Y-73479770D01*
X165060042Y-20009321D02*
X165035348Y-20011833D01*
X163253159Y-50472188D02*
X163253522Y-50472517D01*
X163256002Y-50474087D02*
X163256455Y-50474275D01*
X110262272Y-50475000D02*
X112009877Y-50475000D01*
X160246471Y-21886069D02*
X160240700Y-21810295D01*
X110724640Y-20706878D02*
X110724478Y-20707073D01*
X132818505Y-106640317D02*
X132881958Y-106598498D01*
X197620798Y-106605772D02*
X197620997Y-106605628D01*
X157939987Y-53308152D02*
X157900259Y-53280173D01*
X136879104Y-21293861D02*
X136870483Y-21317138D01*
X160244874Y-76476353D02*
X160244441Y-76476122D01*
X159953715Y-105997010D02*
X159992266Y-105931521D01*
X165518960Y-73615851D02*
X165560012Y-73641847D01*
X132360713Y-20095818D02*
X132360472Y-20095740D01*
X133136710Y-20559195D02*
X133118719Y-20542093D01*
X98586481Y-21419284D02*
X98586339Y-21419753D01*
X158363930Y-20003528D02*
X158363677Y-20003512D01*
X110250057Y-76484809D02*
X110250003Y-76487027D01*
X186745295Y-50473394D02*
X186745703Y-50473121D01*
X186711294Y-21609872D02*
X186711246Y-21609623D01*
X164016168Y-106523703D02*
X164035796Y-106538897D01*
X132902747Y-20365971D02*
X132902541Y-20365823D01*
X186208078Y-106318533D02*
X186259023Y-106262145D01*
X163253528Y-105063930D02*
X163259299Y-105139704D01*
X133749583Y-50467612D02*
X133749702Y-50467136D01*
X133743544Y-50474275D02*
X133743997Y-50474087D01*
X108689987Y-73641847D02*
X108731039Y-73615851D01*
X197913824Y-20585828D02*
X197905300Y-20577711D01*
X163250416Y-76482387D02*
X163250297Y-76482863D01*
X160246471Y-105063930D02*
X160246487Y-105063677D01*
X110252255Y-21911112D02*
X110252246Y-21911365D01*
X138703138Y-76455974D02*
X138655262Y-76464281D01*
X184566721Y-53379946D02*
X184523318Y-53358099D01*
X108292631Y-52772380D02*
X108279671Y-52725549D01*
X159402747Y-20365971D02*
X159402541Y-20365823D01*
X186654181Y-105560713D02*
X186654259Y-105560472D01*
X160246487Y-21886322D02*
X160246471Y-21886069D01*
X196890361Y-20038775D02*
X196889880Y-20038679D01*
X165998804Y-75533576D02*
X165995229Y-75582036D01*
X131939704Y-106940700D02*
X131939957Y-106940678D01*
X98837450Y-106061175D02*
X98844227Y-106070798D01*
X197610767Y-20337177D02*
X197600822Y-20330880D01*
X131116900Y-73998318D02*
X131140851Y-73956039D01*
X111380723Y-20199101D02*
X111380494Y-20199210D01*
X110254296Y-50473121D02*
X110254704Y-50473394D01*
X184256460Y-50800158D02*
X184289966Y-50764966D01*
X138459711Y-106928537D02*
X138535096Y-106938138D01*
X186746840Y-76477811D02*
X186746477Y-76477482D01*
X186384176Y-106102541D02*
X186398356Y-106082168D01*
X136817330Y-105463484D02*
X136838236Y-105536546D01*
X137101643Y-106082168D02*
X137115823Y-106102541D01*
X133746471Y-21886069D02*
X133740700Y-21810295D01*
X163253902Y-50472829D02*
X163254296Y-50473121D01*
X165256333Y-106950000D02*
X184743666Y-106950000D01*
X98590253Y-105542124D02*
X98648106Y-105703811D01*
X188754704Y-20001605D02*
X188754296Y-20001878D01*
X110254296Y-76476878D02*
X110253902Y-76477170D01*
X139060012Y-50641847D02*
X139099740Y-50669826D01*
X165970328Y-75725549D02*
X165957368Y-75772380D01*
X110449101Y-105819276D02*
X110449210Y-105819505D01*
X133748646Y-50469874D02*
X133748877Y-50469441D01*
X184256460Y-53149841D02*
X184224721Y-53113047D01*
X198458645Y-105351846D02*
X198461224Y-105340361D01*
X165599740Y-50669826D02*
X165638047Y-50699721D01*
X133550898Y-105819276D02*
X133582626Y-105750223D01*
X131756205Y-20000158D02*
X131743792Y-20000000D01*
X184656480Y-50532874D02*
X184702619Y-50517631D01*
X157825158Y-73731460D02*
X157861952Y-73699721D01*
X108248394Y-20004704D02*
X108248121Y-20004296D01*
X139424637Y-75863855D02*
X139404946Y-75908278D01*
X111118041Y-106598498D02*
X111181494Y-106640317D01*
X198458588Y-105352085D02*
X198458645Y-105351846D01*
X136771498Y-21709460D02*
X136771462Y-21709711D01*
X133550898Y-21130723D02*
X133550789Y-21130494D01*
X108237972Y-20000003D02*
X108237727Y-20000000D01*
X110255125Y-50473646D02*
X110255558Y-50473877D01*
X139442125Y-74131480D02*
X139457368Y-74177619D01*
X186711246Y-21609623D02*
X186706250Y-21585309D01*
X158738964Y-106889017D02*
X158739210Y-106888957D01*
X163252811Y-76478159D02*
X163252482Y-76478522D01*
X133748394Y-50470295D02*
X133748646Y-50469874D01*
X133453583Y-105997227D02*
X133453715Y-105997010D01*
X109191423Y-53473804D02*
X109142963Y-53470229D01*
X131095053Y-52908278D02*
X131075362Y-52863855D01*
X99931097Y-20083199D02*
X99919753Y-20086339D01*
X197905300Y-20577711D02*
X197905120Y-20577544D01*
X98583137Y-21431335D02*
X98541411Y-21597914D01*
X108474721Y-73836952D02*
X108506460Y-73800158D01*
X110251122Y-76480558D02*
X110250912Y-76481002D01*
X198461320Y-21610119D02*
X198461224Y-21609638D01*
X186688957Y-105439210D02*
X186689017Y-105438964D01*
X111934924Y-20025256D02*
X111934674Y-20025298D01*
X136870398Y-105632623D02*
X136870483Y-105632861D01*
X188753159Y-106947188D02*
X188753522Y-106947517D01*
X99086175Y-106364171D02*
X99094699Y-106372288D01*
X108240681Y-106949918D02*
X108241169Y-106949870D01*
X186741655Y-76475201D02*
X186741169Y-76475129D01*
X133259190Y-20688045D02*
X133259023Y-20687854D01*
X98830751Y-20899385D02*
X98742466Y-21046680D01*
X163724478Y-20707073D02*
X163676454Y-20765969D01*
X112924637Y-74086144D02*
X112942125Y-74131480D01*
X133749440Y-76481917D02*
X133749275Y-76481455D01*
X108506460Y-73800158D02*
X108539966Y-73764966D01*
X112638047Y-73699721D02*
X112674841Y-73731460D01*
X184361952Y-73699721D02*
X184400259Y-73669826D01*
X188093519Y-53417125D02*
X188047380Y-53432368D01*
X133550789Y-21130494D02*
X133539858Y-21108208D01*
X133747517Y-50471477D02*
X133747829Y-50471097D01*
X186728501Y-105240539D02*
X186728537Y-105240288D01*
X163724478Y-106242926D02*
X163724640Y-106243121D01*
X108249275Y-106943544D02*
X108249440Y-106943082D01*
X184481039Y-73615851D02*
X184523318Y-73591900D01*
X186724701Y-21684674D02*
X186711294Y-21609872D01*
X157500000Y-52484877D02*
X157500000Y-51465122D01*
X108245295Y-20001605D02*
X108244874Y-20001353D01*
X186748121Y-50470703D02*
X186748394Y-50470295D01*
X110250003Y-50462972D02*
X110250057Y-50465190D01*
X184523318Y-50591900D02*
X184566721Y-50570053D01*
X137790624Y-106704558D02*
X137857982Y-106739743D01*
X111567376Y-20120398D02*
X111567138Y-20120483D01*
X112833152Y-53035012D02*
X112805173Y-53074740D01*
X108245295Y-106948394D02*
X108245703Y-106948121D01*
X158932623Y-20120398D02*
X158860713Y-20095818D01*
X157595053Y-52908278D02*
X157575362Y-52863855D01*
X136788705Y-105340127D02*
X136788753Y-105340376D01*
X160211294Y-105340127D02*
X160224701Y-105265325D01*
X137768698Y-106692392D02*
X137790401Y-106704438D01*
X184939704Y-20009299D02*
X184863930Y-20003528D01*
X165560012Y-73641847D02*
X165599740Y-73669826D01*
X99389232Y-106612822D02*
X99399177Y-106619119D01*
X137618041Y-20351501D02*
X137617831Y-20351643D01*
X197905300Y-106372288D02*
X197913824Y-106364171D01*
X112560012Y-50641847D02*
X112599740Y-50669826D01*
X100487742Y-20000602D02*
X100316223Y-20009028D01*
X198342511Y-21223538D02*
X198269089Y-21068300D01*
X139442125Y-51131480D02*
X139457368Y-51177619D01*
X186743544Y-76475724D02*
X186743082Y-76475559D01*
X137702772Y-106653583D02*
X137702989Y-106653715D01*
X163615823Y-20847458D02*
X163601643Y-20867831D01*
X165599740Y-76280173D02*
X165560012Y-76308152D01*
X186746477Y-50472517D02*
X186746840Y-50472188D01*
X131095053Y-74041721D02*
X131116900Y-73998318D01*
X186745703Y-76476878D02*
X186745295Y-76476605D01*
X159231301Y-106692392D02*
X159231521Y-106692266D01*
X110288705Y-105340127D02*
X110288753Y-105340376D01*
X110250057Y-50465190D02*
X110250081Y-50465681D01*
X163250724Y-76481455D02*
X163250559Y-76481917D01*
X184964903Y-20011861D02*
X184964651Y-20011833D01*
X160249870Y-76483830D02*
X160249798Y-76483344D01*
X186738138Y-21785096D02*
X186728537Y-21709711D01*
X137438045Y-20490809D02*
X137437854Y-20490976D01*
X186043121Y-20474640D02*
X186042926Y-20474478D01*
X188730974Y-52678138D02*
X188720328Y-52725549D01*
X164202772Y-106653583D02*
X164202989Y-106653715D01*
X131702619Y-73517631D02*
X131749450Y-73504671D01*
X137240809Y-20688045D02*
X137224640Y-20706878D01*
X197265023Y-20152428D02*
X197254041Y-20148191D01*
X186728501Y-21709460D02*
X186724743Y-21684924D01*
X163956878Y-20474640D02*
X163938045Y-20490809D01*
X133748646Y-76480125D02*
X133748394Y-76479704D01*
X133706196Y-105364937D02*
X133706250Y-105364690D01*
X112805173Y-50875259D02*
X112833152Y-50914987D01*
X99931097Y-106866800D02*
X99931335Y-106866862D01*
X131990122Y-50475000D02*
X133737727Y-50475000D01*
X158540288Y-20021462D02*
X158464903Y-20011861D01*
X184166847Y-73914987D02*
X184194826Y-73875259D01*
X136870398Y-21317376D02*
X136845818Y-21389286D01*
X139457368Y-74177619D02*
X139470328Y-74224450D01*
X186748121Y-76479296D02*
X186747829Y-76478902D01*
X98730910Y-21068300D02*
X98657488Y-21223538D01*
X186749996Y-76487027D02*
X186749942Y-76484809D01*
X186592614Y-21223052D02*
X186592518Y-21222818D01*
X163507733Y-105931521D02*
X163546284Y-105997010D01*
X133750000Y-22006333D02*
X133749999Y-22006207D01*
X166000000Y-75484877D02*
X165998804Y-75533576D01*
X99379201Y-20344227D02*
X99379002Y-20344371D01*
X184964903Y-106938138D02*
X185040288Y-106928537D01*
X133043121Y-20474640D02*
X133042926Y-20474478D01*
X159542926Y-20474478D02*
X159484030Y-20426454D01*
X131439987Y-53308152D02*
X131400259Y-53280173D01*
X186741169Y-50474870D02*
X186741655Y-50474798D01*
X164097458Y-20365823D02*
X164097252Y-20365971D01*
X196707930Y-106938601D02*
X196708173Y-106938568D01*
X133398356Y-106082168D02*
X133398498Y-106081958D01*
X186208078Y-20631466D02*
X186207906Y-20631280D01*
X112058576Y-50476195D02*
X112107036Y-50479770D01*
X131939957Y-20009321D02*
X131939704Y-20009299D01*
X188720328Y-74224450D02*
X188730974Y-74271861D01*
X184361952Y-76250278D02*
X184325158Y-76218539D01*
X108307874Y-74131480D02*
X108325362Y-74086144D01*
X164473052Y-106792614D02*
X164543624Y-106820804D01*
X197600822Y-20330880D02*
X197600614Y-20330751D01*
X133749870Y-50466169D02*
X133749918Y-50465681D01*
X110253522Y-50472517D02*
X110253902Y-50472829D01*
X185902541Y-106584176D02*
X185902747Y-106584028D01*
X112989281Y-52630262D02*
X112980974Y-52678138D01*
X139500000Y-51465122D02*
X139500000Y-52484877D01*
X188756002Y-106949087D02*
X188756455Y-106949275D01*
X198463371Y-105328041D02*
X198488568Y-105158173D01*
X110256002Y-76475912D02*
X110255558Y-76476122D01*
X131990122Y-73475000D02*
X138509877Y-73475000D01*
X132984030Y-20426454D02*
X132983831Y-20426296D01*
X187857036Y-73479770D02*
X187905262Y-73485718D01*
X138888855Y-50550362D02*
X138933278Y-50570053D01*
X186654259Y-105560472D02*
X186661690Y-105536789D01*
X185797227Y-106653583D02*
X185818292Y-106640453D01*
X111290624Y-106704558D02*
X111357982Y-106739743D01*
X186743997Y-76475912D02*
X186743544Y-76475724D01*
X132040288Y-20021462D02*
X131964903Y-20011861D01*
X133742136Y-50474702D02*
X133742612Y-50474583D01*
X159940453Y-20931707D02*
X159940317Y-20931494D01*
X165560012Y-50641847D02*
X165599740Y-50669826D01*
X165297380Y-73517631D02*
X165343519Y-73532874D01*
X184400259Y-76280173D02*
X184361952Y-76250278D01*
X99222120Y-106487779D02*
X99222303Y-106487941D01*
X138558576Y-73476195D02*
X138607036Y-73479770D01*
X160224701Y-21684674D02*
X160211294Y-21609872D01*
X136752255Y-21911112D02*
X136752246Y-21911365D01*
X108240190Y-20000057D02*
X108237972Y-20000003D01*
X99931335Y-20083137D02*
X99931097Y-20083199D01*
X137059546Y-106018292D02*
X137059682Y-106018505D01*
X159464203Y-20411102D02*
X159464000Y-20410950D01*
X164035999Y-20410950D02*
X164035796Y-20411102D01*
X138661112Y-106947744D02*
X138661365Y-106947753D01*
X157504770Y-52582036D02*
X157501195Y-52533576D01*
X159992266Y-105931521D02*
X159992392Y-105931301D01*
X160246840Y-50472188D02*
X160247188Y-50471840D01*
X110288753Y-105340376D02*
X110293749Y-105364690D01*
X163881466Y-106408078D02*
X163937854Y-106459023D01*
X131611144Y-76399637D02*
X131566721Y-76379946D01*
X196878283Y-20036667D02*
X196878041Y-20036628D01*
X186737727Y-50475000D02*
X186737972Y-50474996D01*
X197276237Y-106792614D02*
X197276461Y-106792511D01*
X110460141Y-21108208D02*
X110449210Y-21130494D01*
X136817264Y-21486759D02*
X136811042Y-21510789D01*
X110262027Y-76475003D02*
X110259809Y-76475057D01*
X159318292Y-106640453D02*
X159318505Y-106640317D01*
X132065325Y-106924701D02*
X132140127Y-106911294D01*
X110460141Y-105841791D02*
X110460256Y-105842017D01*
X108416847Y-73914987D02*
X108444826Y-73875259D01*
X136750912Y-50468997D02*
X136751122Y-50469441D01*
X99388824Y-20337450D02*
X99379201Y-20344227D01*
X198499406Y-104962012D02*
X198499996Y-104937972D01*
X137161102Y-20785796D02*
X137160950Y-20785999D01*
X110250201Y-50466655D02*
X110250297Y-50467136D01*
X137160950Y-106164000D02*
X137161102Y-106164203D01*
X139480974Y-74271861D02*
X139489281Y-74319737D01*
X163252255Y-105038887D02*
X163253512Y-105063677D01*
X132263240Y-20067264D02*
X132239210Y-20061042D01*
X157724721Y-73836952D02*
X157756460Y-73800158D01*
X111473052Y-20157385D02*
X111472818Y-20157481D01*
X133749841Y-104956205D02*
X133749999Y-104943792D01*
X163288753Y-21609623D02*
X163288705Y-21609872D01*
X186737972Y-76475003D02*
X186737727Y-76475000D01*
X163546284Y-105997010D02*
X163546416Y-105997227D01*
X186453715Y-20952989D02*
X186453583Y-20952772D01*
X139174841Y-73731460D02*
X139210033Y-73764966D01*
X110250297Y-50467136D02*
X110250416Y-50467612D01*
X165136069Y-106946471D02*
X165136322Y-106946487D01*
X99379201Y-106605772D02*
X99388824Y-106612549D01*
X165743539Y-76149841D02*
X165710033Y-76185033D01*
X197265477Y-20152615D02*
X197265023Y-20152428D01*
X110676296Y-20766168D02*
X110661102Y-20785796D01*
X163449101Y-21130723D02*
X163417373Y-21199776D01*
X158023318Y-76358099D02*
X157981039Y-76334148D01*
X133747753Y-21911365D02*
X133747744Y-21911112D01*
X186745703Y-50473121D02*
X186746097Y-50472829D01*
X138043624Y-106820804D02*
X138043861Y-106820895D01*
X160247744Y-21911112D02*
X160246487Y-21886322D01*
X165859148Y-50956039D02*
X165883099Y-50998318D01*
X163262027Y-76475003D02*
X163259809Y-76475057D01*
X112388855Y-50550362D02*
X112433278Y-50570053D01*
X163255125Y-50473646D02*
X163255558Y-50473877D01*
X133728501Y-105240539D02*
X133728537Y-105240288D01*
X110676454Y-106184030D02*
X110724478Y-106242926D01*
X165980974Y-75678138D02*
X165970328Y-75725549D01*
X132731301Y-106692392D02*
X132731521Y-106692266D01*
X184863930Y-20003528D02*
X184863677Y-20003512D01*
X186746477Y-76477482D02*
X186746097Y-76477170D01*
X110250000Y-50462727D02*
X110250003Y-50462972D01*
X184361952Y-50699721D02*
X184400259Y-50669826D01*
X160189017Y-105438964D02*
X160206196Y-105364937D01*
X136771462Y-105240288D02*
X136771498Y-105240539D01*
X112980974Y-52678138D02*
X112970328Y-52725549D01*
X198499996Y-104937972D02*
X198500000Y-104937727D01*
X98844227Y-106070798D02*
X98844371Y-106070997D01*
X138888855Y-53399637D02*
X138843519Y-53417125D01*
X197453107Y-106707656D02*
X197453319Y-106707533D01*
X139498804Y-51416423D02*
X139500000Y-51465122D01*
X137857982Y-106739743D02*
X137858208Y-106739858D01*
X110615823Y-106102541D02*
X110615971Y-106102747D01*
X187953138Y-73494025D02*
X188000549Y-73504671D01*
X108247517Y-20003522D02*
X108247188Y-20003159D01*
X136751353Y-50469874D02*
X136751605Y-50470295D01*
X165433278Y-73570053D02*
X165476681Y-73591900D01*
X186682735Y-105463240D02*
X186688957Y-105439210D01*
X160248877Y-50469441D02*
X160249087Y-50468997D01*
X160247188Y-76478159D02*
X160246840Y-76477811D01*
X185432861Y-20120483D02*
X185432623Y-20120398D01*
X100315978Y-106940956D02*
X100316223Y-106940971D01*
X98946817Y-106209124D02*
X98954058Y-106218403D01*
X163271498Y-105240539D02*
X163275256Y-105265075D01*
X186207906Y-106318719D02*
X186208078Y-106318533D01*
X165388855Y-53399637D02*
X165343519Y-53417125D01*
X188750000Y-106937727D02*
X188750003Y-106937972D01*
X98652428Y-105715023D02*
X98652615Y-105715477D01*
X188756455Y-106949275D02*
X188756917Y-106949440D01*
X185984030Y-106523545D02*
X186042926Y-106475521D01*
X111567138Y-106829516D02*
X111567376Y-106829601D01*
X164035796Y-20411102D02*
X164016168Y-20426296D01*
X163615971Y-106102747D02*
X163660950Y-106164000D01*
X184481039Y-50615851D02*
X184523318Y-50591900D01*
X133539743Y-21107982D02*
X133504558Y-21040624D01*
X185360713Y-20095818D02*
X185360472Y-20095740D01*
X186620804Y-21293624D02*
X186592614Y-21223052D01*
X112388855Y-73550362D02*
X112433278Y-73570053D01*
X137309195Y-20613289D02*
X137292093Y-20631280D01*
X185360472Y-106854259D02*
X185360713Y-106854181D01*
X100121716Y-106913332D02*
X100121958Y-106913371D01*
X138750549Y-53445328D02*
X138703138Y-53455974D01*
X137858208Y-106739858D02*
X137880494Y-106750789D01*
X197768783Y-20454369D02*
X197768403Y-20454058D01*
X110271498Y-105240539D02*
X110275256Y-105265075D01*
X163740809Y-106261954D02*
X163740976Y-106262145D01*
X132360472Y-20095740D02*
X132336789Y-20088309D01*
X136810982Y-105438964D02*
X136811042Y-105439210D01*
X198347384Y-21234522D02*
X198342614Y-21223762D01*
X108249702Y-20007863D02*
X108249583Y-20007387D01*
X163310982Y-21511035D02*
X163293803Y-21585062D01*
X198351808Y-105704041D02*
X198351893Y-105703811D01*
X186728537Y-105240288D02*
X186738138Y-105164903D01*
X184844737Y-76464281D02*
X184796861Y-76455974D01*
X163615971Y-20847252D02*
X163615823Y-20847458D01*
X184194826Y-50875259D02*
X184224721Y-50836952D01*
X163546416Y-20952772D02*
X163546284Y-20952989D01*
X185432623Y-20120398D02*
X185360713Y-20095818D01*
X158836546Y-106861763D02*
X158836789Y-106861690D01*
X133682669Y-105463484D02*
X133682735Y-105463240D01*
X131749450Y-73504671D02*
X131796861Y-73494025D01*
X165243794Y-106949841D02*
X165256207Y-106949999D01*
X138558576Y-76473804D02*
X138509877Y-76475000D01*
X138163453Y-106861763D02*
X138236515Y-106882669D01*
X136752170Y-50471097D02*
X136752482Y-50471477D01*
X133740681Y-76475081D02*
X133740190Y-76475057D01*
X163407481Y-21222818D02*
X163407385Y-21223052D01*
X159231521Y-20257733D02*
X159231301Y-20257607D01*
X160248646Y-50469874D02*
X160248877Y-50469441D01*
X136753159Y-76477811D02*
X136752811Y-76478159D01*
X165058576Y-50476195D02*
X165107036Y-50479770D01*
X108241169Y-106949870D02*
X108241655Y-106949798D01*
X163601501Y-106081958D02*
X163601643Y-106082168D01*
X108279671Y-74224450D02*
X108292631Y-74177619D01*
X158296861Y-73494025D02*
X158344737Y-73485718D01*
X111290401Y-106704438D02*
X111290624Y-106704558D01*
X136751353Y-76480125D02*
X136751122Y-76480558D01*
X163250003Y-50462972D02*
X163250057Y-50465190D01*
X164736759Y-20067264D02*
X164736515Y-20067330D01*
X112710033Y-76185033D02*
X112674841Y-76218539D01*
X184042631Y-51177619D02*
X184057874Y-51131480D01*
X159823703Y-20766168D02*
X159823545Y-20765969D01*
X198488568Y-105158173D02*
X198488601Y-105157930D01*
X184095053Y-74041721D02*
X184116900Y-73998318D01*
X112297380Y-50517631D02*
X112343519Y-50532874D01*
X188752811Y-106946840D02*
X188753159Y-106947188D01*
X165256207Y-20000000D02*
X165243794Y-20000158D01*
X186440453Y-106018292D02*
X186453583Y-105997227D01*
X108650259Y-53280173D02*
X108611952Y-53250278D01*
X160245295Y-50473394D02*
X160245703Y-50473121D01*
X184702619Y-50517631D02*
X184749450Y-50504671D01*
X198169248Y-106050614D02*
X198257533Y-105903319D01*
X108249702Y-106942136D02*
X108249798Y-106941655D01*
X197905120Y-106372455D02*
X197905300Y-106372288D01*
X133453583Y-20952772D02*
X133440453Y-20931707D01*
X198413518Y-105530715D02*
X198413660Y-105530246D01*
X198351893Y-21246188D02*
X198351808Y-21245958D01*
X163255558Y-50473877D02*
X163256002Y-50474087D01*
X99723762Y-106792614D02*
X99734522Y-106797384D01*
X160241655Y-76475201D02*
X160241169Y-76475129D01*
X157500000Y-75484877D02*
X157500000Y-74465122D01*
X133492266Y-21018478D02*
X133453715Y-20952989D01*
X184140851Y-73956039D02*
X184166847Y-73914987D01*
X196708173Y-20011431D02*
X196707930Y-20011398D01*
X188755125Y-20001353D02*
X188754704Y-20001605D01*
X111760789Y-106888957D02*
X111761035Y-106889017D01*
X188750912Y-106943997D02*
X188751122Y-106944441D01*
X159775521Y-20707073D02*
X159775359Y-20706878D01*
X139498804Y-75533576D02*
X139495229Y-75582036D01*
X158763240Y-20067264D02*
X158739210Y-20061042D01*
X133728537Y-21709711D02*
X133728501Y-21709460D01*
X163938045Y-20490809D02*
X163937854Y-20490976D01*
X159775359Y-20706878D02*
X159759190Y-20688045D01*
X133661690Y-105536789D02*
X133661763Y-105536546D01*
X158739210Y-106888957D02*
X158763240Y-106882735D01*
X112058576Y-73476195D02*
X112107036Y-73479770D01*
X132619276Y-20199101D02*
X132550223Y-20167373D01*
X132239210Y-20061042D02*
X132238964Y-20060982D01*
X185164690Y-20043749D02*
X185140376Y-20038753D01*
X160243997Y-76475912D02*
X160243544Y-76475724D01*
X164959460Y-20021498D02*
X164934924Y-20025256D01*
X139018960Y-73615851D02*
X139060012Y-73641847D01*
X137115971Y-106102747D02*
X137160950Y-106164000D01*
X188692125Y-52818519D02*
X188674637Y-52863855D01*
X158763240Y-106882735D02*
X158763484Y-106882669D01*
X186550789Y-21130494D02*
X186539858Y-21108208D01*
X133749702Y-76482863D02*
X133749583Y-76482387D01*
X132456375Y-20129195D02*
X132456138Y-20129104D01*
X164760789Y-106888957D02*
X164761035Y-106889017D01*
X160206196Y-105364937D02*
X160206250Y-105364690D01*
X132360472Y-106854259D02*
X132360713Y-106854181D01*
X138535348Y-106938166D02*
X138560042Y-106940678D01*
X160182669Y-21486515D02*
X160161763Y-21413453D01*
X160246097Y-76477170D02*
X160245703Y-76476878D01*
X110311042Y-21510789D02*
X110310982Y-21511035D01*
X157616900Y-52951681D02*
X157595053Y-52908278D01*
X132526947Y-106792614D02*
X132527181Y-106792518D01*
X164202989Y-20296284D02*
X164202772Y-20296416D01*
X160242612Y-50474583D02*
X160243082Y-50474440D01*
X100487987Y-20000593D02*
X100487742Y-20000602D01*
X132549991Y-20167270D02*
X132527181Y-20157481D01*
X133061954Y-106459190D02*
X133062145Y-106459023D01*
X132818292Y-106640453D02*
X132818505Y-106640317D01*
X132882168Y-106598356D02*
X132902541Y-106584176D01*
X111181707Y-20309546D02*
X111181494Y-20309682D01*
X165995229Y-74367963D02*
X165998804Y-74416423D01*
X188751605Y-20004704D02*
X188751353Y-20005125D01*
X139138047Y-53250278D02*
X139099740Y-53280173D01*
X188751878Y-106945703D02*
X188752170Y-106946097D01*
X139060012Y-76308152D02*
X139018960Y-76334148D01*
X188388047Y-73699721D02*
X188424841Y-73731460D01*
X112107036Y-73479770D02*
X112155262Y-73485718D01*
X185065325Y-106924701D02*
X185140127Y-106911294D01*
X131042631Y-74177619D02*
X131057874Y-74131480D01*
X136755125Y-50473646D02*
X136755558Y-50473877D01*
X197600614Y-106619248D02*
X197600822Y-106619119D01*
X158439957Y-20009321D02*
X158439704Y-20009299D01*
X131523318Y-53358099D02*
X131481039Y-53334148D01*
X131990122Y-76475000D02*
X131941423Y-76473804D01*
X197080715Y-106863518D02*
X197091892Y-106859826D01*
X184140851Y-52993960D02*
X184116900Y-52951681D01*
X136793749Y-105364690D02*
X136793803Y-105364937D01*
X158860713Y-106854181D02*
X158932623Y-106829601D01*
X165638047Y-73699721D02*
X165674841Y-73731460D01*
X112250549Y-50504671D02*
X112297380Y-50517631D01*
X164118041Y-106598498D02*
X164181494Y-106640317D01*
X196878041Y-20036628D02*
X196708173Y-20011431D01*
X184224721Y-53113047D02*
X184194826Y-53074740D01*
X99919284Y-106863518D02*
X99919753Y-106863660D01*
X159618719Y-20542093D02*
X159618533Y-20541921D01*
X136762272Y-50475000D02*
X138509877Y-50475000D01*
X184892963Y-50479770D02*
X184941423Y-50476195D01*
X157694826Y-73875259D02*
X157724721Y-73836952D01*
X108249942Y-106940190D02*
X108249996Y-106937972D01*
X188759318Y-20000081D02*
X188758830Y-20000129D01*
X133592614Y-21223052D02*
X133592518Y-21222818D01*
X131029671Y-75725549D02*
X131019025Y-75678138D01*
X186740681Y-76475081D02*
X186740190Y-76475057D01*
X131194826Y-50875259D02*
X131224721Y-50836952D01*
X185642017Y-106739743D02*
X185709375Y-106704558D01*
X139275278Y-50836952D02*
X139305173Y-50875259D01*
X186043121Y-106475359D02*
X186061954Y-106459190D01*
X133738138Y-105164903D02*
X133738166Y-105164651D01*
X112859148Y-73956039D02*
X112883099Y-73998318D01*
X188750000Y-74465122D02*
X188750000Y-106937727D01*
X112107036Y-76470229D02*
X112058576Y-76473804D01*
X186118719Y-20542093D02*
X186118533Y-20541921D01*
X157500000Y-74465122D02*
X157501195Y-74416423D01*
X165256333Y-20000000D02*
X165256207Y-20000000D01*
X184075362Y-52863855D02*
X184057874Y-52818519D01*
X137437854Y-20490976D02*
X137381466Y-20541921D01*
X164290401Y-106704438D02*
X164290624Y-106704558D01*
X132709375Y-20245441D02*
X132642017Y-20210256D01*
X138933278Y-73570053D02*
X138976681Y-73591900D01*
X165989281Y-51319737D02*
X165995229Y-51367963D01*
X112560012Y-73641847D02*
X112599740Y-73669826D01*
X112035096Y-20011861D02*
X111959711Y-20021462D01*
X184743666Y-20000000D02*
X165256333Y-20000000D01*
X188739281Y-52630262D02*
X188730974Y-52678138D01*
X188750000Y-20012272D02*
X188750000Y-52484877D01*
X164358208Y-20210141D02*
X164357982Y-20210256D01*
X110250158Y-21993794D02*
X110250000Y-22006207D01*
X139470328Y-52725549D02*
X139457368Y-52772380D01*
X136917373Y-105750223D02*
X136949101Y-105819276D01*
X110449210Y-21130494D02*
X110449101Y-21130723D01*
X197253811Y-20148106D02*
X197092124Y-20090253D01*
X136949210Y-21130494D02*
X136949101Y-21130723D01*
X110660950Y-106164000D02*
X110661102Y-106164203D01*
X165710033Y-50764966D02*
X165743539Y-50800158D01*
X136870483Y-105632861D02*
X136879104Y-105656138D01*
X108506460Y-53149841D02*
X108474721Y-53113047D01*
X133711294Y-105340127D02*
X133724701Y-105265325D01*
X163251353Y-50469874D02*
X163251605Y-50470295D01*
X157501195Y-74416423D02*
X157504770Y-74367963D01*
X188268960Y-73615851D02*
X188310012Y-73641847D01*
X133339049Y-20785999D02*
X133338897Y-20785796D01*
X185140127Y-106911294D02*
X185140376Y-106911246D01*
X197610767Y-106612822D02*
X197611175Y-106612549D01*
X98954369Y-106218783D02*
X98962058Y-106227696D01*
X159707906Y-106318719D02*
X159708078Y-106318533D01*
X186259023Y-106262145D02*
X186259190Y-106261954D01*
X112970328Y-75725549D02*
X112957368Y-75772380D01*
X157529671Y-51224450D02*
X157542631Y-51177619D01*
X133504558Y-21040624D02*
X133504438Y-21040401D01*
X160249942Y-76484809D02*
X160249918Y-76484318D01*
X99546680Y-20242466D02*
X99399385Y-20330751D01*
X160243544Y-50474275D02*
X160243997Y-50474087D01*
X157900259Y-76280173D02*
X157861952Y-76250278D01*
X112560012Y-53308152D02*
X112518960Y-53334148D01*
X163275298Y-21684674D02*
X163275256Y-21684924D01*
X184042631Y-52772380D02*
X184029671Y-52725549D01*
X131611144Y-73550362D02*
X131656480Y-73532874D01*
X137950008Y-106782729D02*
X137972818Y-106792518D01*
X184019025Y-75678138D02*
X184010718Y-75630262D01*
X136870483Y-21317138D02*
X136870398Y-21317376D01*
X133748877Y-50469441D02*
X133749087Y-50468997D01*
X163253902Y-76477170D02*
X163253522Y-76477482D01*
X163261861Y-105164903D02*
X163271462Y-105240288D01*
X160237727Y-50475000D02*
X160237972Y-50474996D01*
X100303751Y-106940042D02*
X100304239Y-106940090D01*
X136810982Y-21511035D02*
X136793803Y-21585062D01*
X136753522Y-76477482D02*
X136753159Y-76477811D01*
X184990122Y-76475000D02*
X184941423Y-76473804D01*
X163379104Y-21293861D02*
X163370483Y-21317138D01*
X159209598Y-106704438D02*
X159231301Y-106692392D01*
X159297227Y-20296416D02*
X159297010Y-20296284D01*
X98648191Y-105704041D02*
X98652428Y-105715023D01*
X197922455Y-20594879D02*
X197922288Y-20594699D01*
X98500003Y-104937972D02*
X98500593Y-104962012D01*
X131400259Y-50669826D02*
X131439987Y-50641847D01*
X111934924Y-106924743D02*
X111959460Y-106928501D01*
X198053182Y-20740875D02*
X198045941Y-20731596D01*
X188757863Y-20000297D02*
X188757387Y-20000416D01*
X165883099Y-75951681D02*
X165859148Y-75993960D01*
X163250057Y-50465190D02*
X163250081Y-50465681D01*
X186118533Y-106408078D02*
X186118719Y-106407906D01*
X139383099Y-50998318D02*
X139404946Y-51041721D01*
X186747744Y-21911112D02*
X186746487Y-21886322D01*
X160243544Y-76475724D02*
X160243082Y-76475559D01*
X198347384Y-105715477D02*
X198347571Y-105715023D01*
X188750416Y-106942612D02*
X188750559Y-106943082D01*
X132550223Y-106782626D02*
X132619276Y-106750898D01*
X188750912Y-20006002D02*
X188750724Y-20006455D01*
X159318292Y-20309546D02*
X159297227Y-20296416D01*
X184796861Y-76455974D02*
X184749450Y-76445328D01*
X132263484Y-106882669D02*
X132336546Y-106861763D01*
X110256917Y-50474440D02*
X110257387Y-50474583D01*
X132527181Y-106792518D02*
X132549991Y-106782729D01*
X160249798Y-50466655D02*
X160249870Y-50466169D01*
X108244441Y-20001122D02*
X108243997Y-20000912D01*
X137381280Y-106407906D02*
X137381466Y-106408078D01*
X133582626Y-21199776D02*
X133550898Y-21130723D01*
X132641791Y-106739858D02*
X132642017Y-106739743D01*
X166000000Y-52484877D02*
X165998804Y-52533576D01*
X98511431Y-21791826D02*
X98511398Y-21792069D01*
X163250158Y-21993794D02*
X163250000Y-22006207D01*
X139333152Y-50914987D02*
X139359148Y-50956039D01*
X112924637Y-52863855D02*
X112904946Y-52908278D01*
X137224478Y-106242926D02*
X137224640Y-106243121D01*
X158565325Y-106924701D02*
X158640127Y-106911294D01*
X131075362Y-75863855D02*
X131057874Y-75818519D01*
X196902085Y-106908588D02*
X197068664Y-106866862D01*
X110601501Y-20868041D02*
X110559682Y-20931494D01*
X164761035Y-20060982D02*
X164760789Y-20061042D01*
X113000000Y-51465122D02*
X113000000Y-52484877D01*
X165805173Y-50875259D02*
X165833152Y-50914987D01*
X110250724Y-50468544D02*
X110250912Y-50468997D01*
X185881958Y-20351501D02*
X185818505Y-20309682D01*
X112805173Y-53074740D02*
X112775278Y-53113047D01*
X163338236Y-21413453D02*
X163317330Y-21486515D01*
X137702772Y-20296416D02*
X137681707Y-20309546D01*
X110257387Y-50474583D02*
X110257863Y-50474702D01*
X185797010Y-20296284D02*
X185731521Y-20257733D01*
X198351808Y-21245958D02*
X198347571Y-21234976D01*
X157519025Y-75678138D02*
X157510718Y-75630262D01*
X163495561Y-21040401D02*
X163495441Y-21040624D01*
X138260789Y-106888957D02*
X138261035Y-106889017D01*
X184000000Y-74465122D02*
X184001195Y-74416423D01*
X157575362Y-75863855D02*
X157557874Y-75818519D01*
X138509877Y-76475000D02*
X136762272Y-76475000D01*
X159382168Y-20351643D02*
X159381958Y-20351501D01*
X138459460Y-20021498D02*
X138434924Y-20025256D01*
X131743666Y-20000000D02*
X112256333Y-20000000D01*
X132797010Y-106653715D02*
X132797227Y-106653583D01*
X139138047Y-50699721D02*
X139174841Y-50731460D01*
X110460256Y-21107982D02*
X110460141Y-21108208D01*
X163252246Y-21911365D02*
X163250160Y-21993668D01*
X136750201Y-76483344D02*
X136750129Y-76483830D01*
X186539858Y-105841791D02*
X186550789Y-105819505D01*
X136793803Y-21585062D02*
X136793749Y-21585309D01*
X186744441Y-76476122D02*
X186743997Y-76475912D01*
X198037941Y-106227696D02*
X198045630Y-106218783D01*
X110259809Y-50474942D02*
X110262027Y-50474996D01*
X163251878Y-50470703D02*
X163252170Y-50471097D01*
X164450008Y-106782729D02*
X164472818Y-106792518D01*
X100110119Y-106911320D02*
X100121716Y-106913332D01*
X112136322Y-20003512D02*
X112136069Y-20003528D01*
X139099740Y-53280173D02*
X139060012Y-53308152D01*
X112710033Y-73764966D02*
X112743539Y-73800158D01*
X164959711Y-106928537D02*
X165035096Y-106938138D01*
X198037779Y-20722120D02*
X197922455Y-20594879D01*
X186338897Y-20785796D02*
X186323703Y-20766168D01*
X131941423Y-76473804D02*
X131892963Y-76470229D01*
X160249702Y-76482863D02*
X160249583Y-76482387D01*
X198351893Y-105703811D02*
X198409746Y-105542124D01*
X110252246Y-21911365D02*
X110250160Y-21993668D01*
X185526947Y-106792614D02*
X185527181Y-106792518D01*
X133259023Y-106262145D02*
X133259190Y-106261954D01*
X112155262Y-53464281D02*
X112107036Y-53470229D01*
X163957073Y-106475521D02*
X164015969Y-106523545D01*
X157861952Y-50699721D02*
X157900259Y-50669826D01*
X157861952Y-73699721D02*
X157900259Y-73669826D01*
X132964000Y-20410950D02*
X132902747Y-20365971D01*
X136879104Y-105656138D02*
X136879195Y-105656375D01*
X197611175Y-20337450D02*
X197610767Y-20337177D01*
X196889880Y-20038679D02*
X196878283Y-20036667D01*
X137768478Y-20257733D02*
X137702989Y-20296284D01*
X163417373Y-105750223D02*
X163449101Y-105819276D01*
X131941423Y-50476195D02*
X131990122Y-50475000D01*
X184289966Y-76185033D02*
X184256460Y-76149841D01*
X98844371Y-106070997D02*
X98946668Y-106208929D01*
X112343519Y-76417125D02*
X112297380Y-76432368D01*
X136838236Y-21413453D02*
X136817330Y-21486515D01*
X196878041Y-106913371D02*
X196878283Y-106913332D01*
X132642017Y-20210256D02*
X132641791Y-20210141D01*
X157861952Y-76250278D02*
X157825158Y-76218539D01*
X163863108Y-20559372D02*
X163809372Y-20613108D01*
X112058576Y-76473804D02*
X112009877Y-76475000D01*
X139480974Y-52678138D02*
X139470328Y-52725549D01*
X186384176Y-20847458D02*
X186384028Y-20847252D01*
X186629601Y-105632623D02*
X186654181Y-105560713D01*
X111761035Y-20060982D02*
X111760789Y-20061042D01*
X165989281Y-75630262D02*
X165980974Y-75678138D01*
X164543861Y-20129104D02*
X164543624Y-20129195D01*
X138067138Y-20120483D02*
X138043861Y-20129104D01*
X184019025Y-52678138D02*
X184010718Y-52630262D01*
X157694826Y-76074740D02*
X157666847Y-76035012D01*
X160249583Y-50467612D02*
X160249702Y-50467136D01*
X158066721Y-73570053D02*
X158111144Y-73550362D01*
X159119505Y-20199210D02*
X159119276Y-20199101D01*
X158932623Y-106829601D02*
X158932861Y-106829516D01*
X137046284Y-20952989D02*
X137007733Y-21018478D01*
X99094879Y-106372455D02*
X99222120Y-106487779D01*
X184057874Y-75818519D02*
X184042631Y-75772380D01*
X165243668Y-106949839D02*
X165243794Y-106949841D01*
X108243997Y-20000912D02*
X108243544Y-20000724D01*
X157616900Y-75951681D02*
X157595053Y-75908278D01*
X160249087Y-50468997D02*
X160249275Y-50468544D01*
X186592518Y-21222818D02*
X186582729Y-21200008D01*
X110250000Y-22006333D02*
X110250000Y-50462727D01*
X131001195Y-75533576D02*
X131000000Y-75484877D01*
X137224640Y-20706878D02*
X137224478Y-20707073D01*
X186747188Y-50471840D02*
X186747517Y-50471477D01*
X163254296Y-76476878D02*
X163253902Y-76477170D01*
X197758929Y-20446668D02*
X197620997Y-20344371D01*
X131004770Y-75582036D02*
X131001195Y-75533576D01*
X188000549Y-53445328D02*
X187953138Y-53455974D01*
X158243792Y-106949999D02*
X158256205Y-106949841D01*
X186118719Y-106407906D02*
X186136710Y-106390804D01*
X138359872Y-20038705D02*
X138359623Y-20038753D01*
X98509909Y-105145760D02*
X98509957Y-105146248D01*
X164859623Y-106911246D02*
X164859872Y-106911294D01*
X186620895Y-21293861D02*
X186620804Y-21293624D01*
X197431699Y-106719089D02*
X197431919Y-106718982D01*
X186711294Y-105340127D02*
X186724701Y-105265325D01*
X131400259Y-73669826D02*
X131439987Y-73641847D01*
X108650259Y-73669826D02*
X108689987Y-73641847D01*
X163740976Y-106262145D02*
X163791921Y-106318533D01*
X133440317Y-20931494D02*
X133398498Y-20868041D01*
X98962220Y-106227879D02*
X99077544Y-106355120D01*
X196512257Y-106949397D02*
X196683776Y-106940971D01*
X163559546Y-106018292D02*
X163559682Y-106018505D01*
X112343519Y-53417125D02*
X112297380Y-53432368D01*
X186750000Y-76487272D02*
X186749996Y-76487027D01*
X188759809Y-20000057D02*
X188759318Y-20000081D01*
X108861144Y-53399637D02*
X108816721Y-53379946D01*
X133629601Y-105632623D02*
X133654181Y-105560713D01*
X139404946Y-75908278D02*
X139383099Y-75951681D01*
X110254704Y-50473394D02*
X110255125Y-50473646D01*
X110259321Y-21810042D02*
X110259299Y-21810295D01*
X160249841Y-21993794D02*
X160249839Y-21993668D01*
X158836789Y-20088309D02*
X158836546Y-20088236D01*
X138560042Y-106940678D02*
X138560295Y-106940700D01*
X164290401Y-20245561D02*
X164268698Y-20257607D01*
X131481039Y-73615851D02*
X131523318Y-73591900D01*
X133749999Y-104943792D02*
X133750000Y-104943666D01*
X100097914Y-20041411D02*
X99931335Y-20083137D01*
X157557874Y-74131480D02*
X157575362Y-74086144D01*
X188310012Y-53308152D02*
X188268960Y-53334148D01*
X110379195Y-105656375D02*
X110407385Y-105726947D01*
X159542926Y-106475521D02*
X159543121Y-106475359D01*
X133689017Y-21511035D02*
X133688957Y-21510789D01*
X186742136Y-76475297D02*
X186741655Y-76475201D01*
X133738138Y-21785096D02*
X133728537Y-21709711D01*
X165970328Y-51224450D02*
X165980974Y-51271861D01*
X133743997Y-50474087D02*
X133744441Y-50473877D01*
X165058576Y-53473804D02*
X165009877Y-53475000D01*
X136758344Y-76475201D02*
X136757863Y-76475297D01*
X133550789Y-105819505D02*
X133550898Y-105819276D01*
X164290624Y-106704558D02*
X164357982Y-106739743D01*
X137972818Y-106792518D02*
X137973052Y-106792614D01*
X184702619Y-76432368D02*
X184656480Y-76417125D01*
X133738166Y-105164651D02*
X133740678Y-105139957D01*
X159381958Y-20351501D02*
X159318505Y-20309682D01*
X112155262Y-76464281D02*
X112107036Y-76470229D01*
X197620997Y-106605628D02*
X197758929Y-106503331D01*
X196512012Y-20000593D02*
X196487972Y-20000003D01*
X138976681Y-50591900D02*
X139018960Y-50615851D01*
X159049991Y-20167270D02*
X159027181Y-20157481D01*
X133275359Y-106243121D02*
X133275521Y-106242926D01*
X136750129Y-76483830D02*
X136750081Y-76484318D01*
X158392963Y-50479770D02*
X158441423Y-50476195D01*
X108325362Y-74086144D02*
X108345053Y-74041721D01*
X132902541Y-106584176D02*
X132902747Y-106584028D01*
X133398498Y-106081958D02*
X133440317Y-106018505D01*
X186323545Y-106184030D02*
X186323703Y-106183831D01*
X185731521Y-20257733D02*
X185731301Y-20257607D01*
X108242612Y-20000416D02*
X108242136Y-20000297D01*
X136750000Y-104943792D02*
X136750158Y-104956205D01*
X198257656Y-105903107D02*
X198263458Y-105892866D01*
X133749087Y-76481002D02*
X133748877Y-76480558D01*
X110259321Y-105139957D02*
X110261833Y-105164651D01*
X164097458Y-106584176D02*
X164117831Y-106598356D01*
X186190804Y-20613289D02*
X186190627Y-20613108D01*
X160249275Y-76481455D02*
X160249087Y-76481002D01*
X158363930Y-106946471D02*
X158439704Y-106940700D01*
X137240809Y-106261954D02*
X137240976Y-106262145D01*
X138558576Y-53473804D02*
X138509877Y-53475000D01*
X138335062Y-20043803D02*
X138261035Y-20060982D01*
X196696248Y-106940042D02*
X196707930Y-106938601D01*
X159898498Y-20868041D02*
X159898356Y-20867831D01*
X131756331Y-106949839D02*
X131838634Y-106947753D01*
X99222303Y-106487941D02*
X99231216Y-106495630D01*
X157724721Y-50836952D02*
X157756460Y-50800158D01*
X184001195Y-74416423D02*
X184004770Y-74367963D01*
X139018960Y-53334148D02*
X138976681Y-53358099D01*
X110255125Y-76476353D02*
X110254704Y-76476605D01*
X112060295Y-106940700D02*
X112136069Y-106946471D01*
X112859148Y-50956039D02*
X112883099Y-50998318D01*
X185263240Y-106882735D02*
X185263484Y-106882669D01*
X186749996Y-50462972D02*
X186750000Y-50462727D01*
X160247188Y-50471840D02*
X160247517Y-50471477D01*
X131000000Y-51465122D02*
X131001195Y-51416423D01*
X131844737Y-50485718D02*
X131892963Y-50479770D01*
X184140851Y-75993960D02*
X184116900Y-75951681D01*
X112060042Y-106940678D02*
X112060295Y-106940700D01*
X188751122Y-106944441D02*
X188751353Y-106944874D01*
X137363289Y-20559195D02*
X137363108Y-20559372D01*
X186042926Y-106475521D02*
X186043121Y-106475359D01*
X132336546Y-20088236D02*
X132263484Y-20067330D01*
X163250201Y-76483344D02*
X163250129Y-76483830D01*
X100292069Y-20011398D02*
X100291826Y-20011431D01*
X110881280Y-20542093D02*
X110863289Y-20559195D01*
X165203138Y-76455974D02*
X165155262Y-76464281D01*
X158156480Y-50532874D02*
X158202619Y-50517631D01*
X132797227Y-20296416D02*
X132797010Y-20296284D01*
X138261035Y-20060982D02*
X138260789Y-20061042D01*
X159618719Y-106407906D02*
X159636710Y-106390804D01*
X133724743Y-105265075D02*
X133728501Y-105240539D01*
X184000000Y-52484877D02*
X184000000Y-51465122D01*
X188739281Y-74319737D02*
X188745229Y-74367963D01*
X111835062Y-106906196D02*
X111835309Y-106906250D01*
X132263240Y-106882735D02*
X132263484Y-106882669D01*
X158738964Y-20060982D02*
X158664937Y-20043803D01*
X136757387Y-76475416D02*
X136756917Y-76475559D01*
X136751122Y-76480558D02*
X136750912Y-76481002D01*
X99399177Y-106619119D02*
X99399385Y-106619248D01*
X110559546Y-106018292D02*
X110559682Y-106018505D01*
X188753522Y-106947517D02*
X188753902Y-106947829D01*
X131892963Y-76470229D02*
X131844737Y-76464281D01*
X110261861Y-105164903D02*
X110271462Y-105240288D01*
X110261833Y-105164651D02*
X110261861Y-105164903D01*
X98657488Y-21223538D02*
X98657385Y-21223762D01*
X136750158Y-104956205D02*
X136750160Y-104956331D01*
X184256460Y-73800158D02*
X184289966Y-73764966D01*
X188388047Y-53250278D02*
X188349740Y-53280173D01*
X136750000Y-22006207D02*
X136750000Y-22006333D01*
X100110119Y-20038679D02*
X100109638Y-20038775D01*
X186582729Y-105749991D02*
X186592518Y-105727181D01*
X158296861Y-50494025D02*
X158344737Y-50485718D01*
X98652615Y-105715477D02*
X98657385Y-105726237D01*
X186504438Y-105909598D02*
X186504558Y-105909375D01*
X98962058Y-20722303D02*
X98954369Y-20731216D01*
X157694826Y-53074740D02*
X157666847Y-53035012D01*
X108249440Y-20006917D02*
X108249275Y-20006455D01*
X137007607Y-21018698D02*
X136995561Y-21040401D01*
X160228501Y-21709460D02*
X160224743Y-21684924D01*
X160050789Y-21130494D02*
X160039858Y-21108208D01*
X137309372Y-20613108D02*
X137309195Y-20613289D01*
X131481039Y-50615851D02*
X131523318Y-50591900D01*
X132709598Y-20245561D02*
X132709375Y-20245441D01*
X198342614Y-105726237D02*
X198347384Y-105715477D01*
X137309372Y-106336891D02*
X137363108Y-106390627D01*
X188756002Y-20000912D02*
X188755558Y-20001122D01*
X158202619Y-73517631D02*
X158249450Y-73504671D01*
X186740678Y-21810042D02*
X186738166Y-21785348D01*
X198268982Y-105881919D02*
X198269089Y-105881699D01*
X139442125Y-52818519D02*
X139424637Y-52863855D01*
X165942125Y-52818519D02*
X165924637Y-52863855D01*
X110250160Y-104956331D02*
X110252246Y-105038634D01*
X112433278Y-53379946D02*
X112388855Y-53399637D01*
X184325158Y-76218539D02*
X184289966Y-76185033D01*
X131019025Y-52678138D02*
X131010718Y-52630262D01*
X158338634Y-106947753D02*
X158338887Y-106947744D01*
X158344737Y-76464281D02*
X158296861Y-76455974D01*
X159027181Y-20157481D02*
X159026947Y-20157385D01*
X108731039Y-73615851D02*
X108773318Y-73591900D01*
X139305173Y-73875259D02*
X139333152Y-73914987D01*
X186689017Y-21511035D02*
X186688957Y-21510789D01*
X110809195Y-20613289D02*
X110792093Y-20631280D01*
X163252482Y-76478522D02*
X163252170Y-76478902D01*
X186339049Y-20785999D02*
X186338897Y-20785796D01*
X186746097Y-50472829D02*
X186746477Y-50472517D01*
X110791921Y-106318533D02*
X110792093Y-106318719D01*
X188756917Y-20000559D02*
X188756455Y-20000724D01*
X186440317Y-106018505D02*
X186440453Y-106018292D01*
X184095053Y-52908278D02*
X184075362Y-52863855D01*
X131166847Y-73914987D02*
X131194826Y-73875259D01*
X136771498Y-105240539D02*
X136775256Y-105265075D01*
X99085828Y-106363824D02*
X99086175Y-106364171D01*
X136753512Y-21886322D02*
X136752255Y-21911112D01*
X158344737Y-50485718D02*
X158392963Y-50479770D01*
X133749918Y-50465681D02*
X133749942Y-50465190D01*
X196684021Y-20009043D02*
X196683776Y-20009028D01*
X131010718Y-74319737D02*
X131019025Y-74271861D01*
X137535796Y-106538897D02*
X137535999Y-106539049D01*
X160129516Y-105632861D02*
X160129601Y-105632623D01*
X131325158Y-76218539D02*
X131289966Y-76185033D01*
X110546416Y-20952772D02*
X110546284Y-20952989D01*
X136845740Y-105560472D02*
X136845818Y-105560713D01*
X159759023Y-20687854D02*
X159708078Y-20631466D01*
X99919284Y-20086481D02*
X99908107Y-20090173D01*
X188047380Y-53432368D02*
X188000549Y-53445328D01*
X165243668Y-20000160D02*
X165161365Y-20002246D01*
X188757387Y-106949583D02*
X188757863Y-106949702D01*
X131042631Y-52772380D02*
X131029671Y-52725549D01*
X138359872Y-106911294D02*
X138434674Y-106924701D01*
X164015969Y-106523545D02*
X164016168Y-106523703D01*
X98536628Y-21621958D02*
X98511431Y-21791826D01*
X186339049Y-106164000D02*
X186384028Y-106102747D01*
X98541354Y-105351846D02*
X98541411Y-105352085D01*
X99908107Y-106859826D02*
X99919284Y-106863518D01*
X163252482Y-50471477D02*
X163252811Y-50471840D01*
X138459711Y-20021462D02*
X138459460Y-20021498D01*
X159231301Y-20257607D02*
X159209598Y-20245561D01*
X98954058Y-106218403D02*
X98954369Y-106218783D01*
X100121716Y-20036667D02*
X100110119Y-20038679D01*
X136750158Y-21993794D02*
X136750000Y-22006207D01*
X112560012Y-76308152D02*
X112518960Y-76334148D01*
X188752170Y-106946097D02*
X188752482Y-106946477D01*
X185040539Y-106928501D02*
X185065075Y-106924743D01*
X159953715Y-20952989D02*
X159953583Y-20952772D01*
X133749999Y-22006207D02*
X133749841Y-21993794D01*
X160082626Y-105750223D02*
X160082729Y-105749991D01*
X137381466Y-20541921D02*
X137381280Y-20542093D01*
X164202989Y-106653715D02*
X164268478Y-106692266D01*
X160242136Y-50474702D02*
X160242612Y-50474583D01*
X158956138Y-20129104D02*
X158932861Y-20120483D01*
X185984030Y-20426454D02*
X185983831Y-20426296D01*
X138843519Y-53417125D02*
X138797380Y-53432368D01*
X186749087Y-50468997D02*
X186749275Y-50468544D01*
X133504438Y-21040401D02*
X133492392Y-21018698D01*
X160249996Y-76487027D02*
X160249942Y-76484809D01*
X164760789Y-20061042D02*
X164736759Y-20067264D01*
X136759299Y-21810295D02*
X136753528Y-21886069D01*
X160237972Y-50474996D02*
X160240190Y-50474942D01*
X186750000Y-104943666D02*
X186750000Y-76487272D01*
X159562145Y-106459023D02*
X159618533Y-106408078D01*
X185641791Y-106739858D02*
X185642017Y-106739743D01*
X163338309Y-21413210D02*
X163338236Y-21413453D01*
X138743794Y-20000158D02*
X138743668Y-20000160D01*
X163370483Y-105632861D02*
X163379104Y-105656138D01*
X108249275Y-20006455D02*
X108249087Y-20006002D01*
X139457368Y-52772380D02*
X139442125Y-52818519D01*
X138976681Y-53358099D02*
X138933278Y-53379946D01*
X158156480Y-76417125D02*
X158111144Y-76399637D01*
X186746487Y-21886322D02*
X186746471Y-21886069D01*
X100512027Y-106949996D02*
X100512272Y-106950000D01*
X111290624Y-20245441D02*
X111290401Y-20245561D01*
X110740976Y-106262145D02*
X110791921Y-106318533D01*
X110507607Y-105931301D02*
X110507733Y-105931521D01*
X112942125Y-74131480D02*
X112957368Y-74177619D01*
X108246097Y-20002170D02*
X108245703Y-20001878D01*
X160245703Y-50473121D02*
X160246097Y-50472829D01*
X110259809Y-76475057D02*
X110259318Y-76475081D01*
X110740809Y-106261954D02*
X110740976Y-106262145D01*
X184656480Y-76417125D02*
X184611144Y-76399637D01*
X132619505Y-20199210D02*
X132619276Y-20199101D01*
X165250549Y-76445328D02*
X165203138Y-76455974D01*
X166000000Y-74465122D02*
X166000000Y-75484877D01*
X111473052Y-106792614D02*
X111543624Y-106820804D01*
X131010718Y-75630262D02*
X131004770Y-75582036D01*
X185238964Y-106889017D02*
X185239210Y-106888957D01*
X185432623Y-106829601D02*
X185432861Y-106829516D01*
X133661690Y-21413210D02*
X133654259Y-21389527D01*
X158763484Y-20067330D02*
X158763240Y-20067264D01*
X110417270Y-105749991D02*
X110417373Y-105750223D01*
X133118533Y-20541921D02*
X133062145Y-20490976D01*
X165942125Y-74131480D02*
X165957368Y-74177619D01*
X133136891Y-20559372D02*
X133136710Y-20559195D01*
X158111144Y-73550362D02*
X158156480Y-73532874D01*
X186275359Y-20706878D02*
X186259190Y-20688045D01*
X98509043Y-105134021D02*
X98509909Y-105145760D01*
X99723538Y-106792511D02*
X99723762Y-106792614D01*
X108244874Y-20001353D02*
X108244441Y-20001122D01*
X186743082Y-76475559D02*
X186742612Y-76475416D01*
X112476681Y-50591900D02*
X112518960Y-50615851D01*
X138743668Y-20000160D02*
X138661365Y-20002246D01*
X133275521Y-106242926D02*
X133323545Y-106184030D01*
X108244441Y-106948877D02*
X108244874Y-106948646D01*
X137101643Y-20867831D02*
X137101501Y-20868041D01*
X163250129Y-76483830D02*
X163250081Y-76484318D01*
X186740190Y-50474942D02*
X186740681Y-50474918D01*
X113000000Y-75484877D02*
X112998804Y-75533576D01*
X110310982Y-105438964D02*
X110311042Y-105439210D01*
X136761833Y-21785348D02*
X136759321Y-21810042D01*
X137007607Y-105931301D02*
X137007733Y-105931521D01*
X110863289Y-20559195D02*
X110863108Y-20559372D01*
X133504438Y-105909598D02*
X133504558Y-105909375D01*
X99399177Y-20330880D02*
X99389232Y-20337177D01*
X133749583Y-76482387D02*
X133749440Y-76481917D01*
X164449776Y-20167373D02*
X164380723Y-20199101D01*
X100316223Y-20009028D02*
X100315978Y-20009043D01*
X188754296Y-20001878D02*
X188753902Y-20002170D01*
X133742612Y-76475416D02*
X133742136Y-76475297D01*
X131116900Y-50998318D02*
X131140851Y-50956039D01*
X98954058Y-20731596D02*
X98946817Y-20740875D01*
X197913824Y-106364171D02*
X197914171Y-106363824D01*
X110288705Y-21609872D02*
X110275298Y-21684674D01*
X138797380Y-50517631D02*
X138843519Y-50532874D01*
X186275359Y-106243121D02*
X186275521Y-106242926D01*
X132238964Y-20060982D02*
X132164937Y-20043803D01*
X136751605Y-76479704D02*
X136751353Y-76480125D01*
X158860472Y-106854259D02*
X158860713Y-106854181D01*
X164357982Y-20210256D02*
X164290624Y-20245441D01*
X197080246Y-20086339D02*
X197068902Y-20083199D01*
X165155262Y-73485718D02*
X165203138Y-73494025D01*
X185902747Y-106584028D02*
X185964000Y-106539049D01*
X133748877Y-76480558D02*
X133748646Y-76480125D01*
X110259299Y-105139704D02*
X110259321Y-105139957D01*
X131838887Y-20002255D02*
X131838634Y-20002246D01*
X185619505Y-20199210D02*
X185619276Y-20199101D01*
X99231216Y-106495630D02*
X99231596Y-106495941D01*
X186682669Y-21486515D02*
X186661763Y-21413453D01*
X158540288Y-106928537D02*
X158540539Y-106928501D01*
X133711246Y-105340376D02*
X133711294Y-105340127D01*
X165904946Y-52908278D02*
X165883099Y-52951681D01*
X158202619Y-50517631D02*
X158249450Y-50504671D01*
X159142017Y-106739743D02*
X159209375Y-106704558D01*
X164934924Y-20025256D02*
X164934674Y-20025298D01*
X136811042Y-105439210D02*
X136817264Y-105463240D01*
X132432623Y-106829601D02*
X132432861Y-106829516D01*
X112060042Y-20009321D02*
X112035348Y-20011833D01*
X159884176Y-106102541D02*
X159898356Y-106082168D01*
X188460033Y-53185033D02*
X188424841Y-53218539D01*
X111959460Y-20021498D02*
X111934924Y-20025256D01*
X157501195Y-51416423D02*
X157504770Y-51367963D01*
X186749918Y-50465681D02*
X186749942Y-50465190D01*
X139470328Y-51224450D02*
X139480974Y-51271861D01*
X160247753Y-21911365D02*
X160247744Y-21911112D01*
X138535348Y-20011833D02*
X138535096Y-20011861D01*
X163317330Y-105463484D02*
X163338236Y-105536546D01*
X131863677Y-20003512D02*
X131838887Y-20002255D01*
X160248877Y-76480558D02*
X160248646Y-76480125D01*
X184990122Y-73475000D02*
X187759877Y-73475000D01*
X99908107Y-20090173D02*
X99907875Y-20090253D01*
X133440453Y-20931707D02*
X133440317Y-20931494D01*
X188692125Y-74131480D02*
X188707368Y-74177619D01*
X185140376Y-20038753D02*
X185140127Y-20038705D01*
X185709375Y-20245441D02*
X185642017Y-20210256D01*
X185360472Y-20095740D02*
X185336789Y-20088309D01*
X160161690Y-21413210D02*
X160154259Y-21389527D01*
X186504438Y-21040401D02*
X186492392Y-21018698D01*
X99734522Y-106797384D02*
X99734976Y-106797571D01*
X157529671Y-75725549D02*
X157519025Y-75678138D01*
X108249087Y-106943997D02*
X108249275Y-106943544D01*
X165674841Y-73731460D02*
X165710033Y-73764966D01*
X136751605Y-50470295D02*
X136751878Y-50470703D01*
X158156480Y-73532874D02*
X158202619Y-73517631D01*
X111567138Y-20120483D02*
X111543861Y-20129104D01*
X132902747Y-106584028D02*
X132964000Y-106539049D01*
X110417373Y-105750223D02*
X110449101Y-105819276D01*
X108242612Y-106949583D02*
X108243082Y-106949440D01*
X112203138Y-76455974D02*
X112155262Y-76464281D01*
X165710033Y-76185033D02*
X165674841Y-76218539D01*
X136759321Y-105139957D02*
X136761833Y-105164651D01*
X186747744Y-105038887D02*
X186747753Y-105038634D01*
X131019025Y-75678138D02*
X131010718Y-75630262D01*
X184863677Y-20003512D02*
X184838887Y-20002255D01*
X100098153Y-106908645D02*
X100109638Y-106911224D01*
X197914171Y-106363824D02*
X197922288Y-106355300D01*
X139359148Y-75993960D02*
X139333152Y-76035012D01*
X137618041Y-106598498D02*
X137681494Y-106640317D01*
X186738166Y-105164651D02*
X186740678Y-105139957D01*
X165775278Y-50836952D02*
X165805173Y-50875259D01*
X165297380Y-53432368D02*
X165250549Y-53445328D01*
X188755558Y-20001122D02*
X188755125Y-20001353D01*
X133043121Y-106475359D02*
X133061954Y-106459190D01*
X184019025Y-51271861D02*
X184029671Y-51224450D01*
X133749275Y-76481455D02*
X133749087Y-76481002D01*
X136757863Y-76475297D02*
X136757387Y-76475416D01*
X160246477Y-76477482D02*
X160246097Y-76477170D01*
X112743539Y-73800158D02*
X112775278Y-73836952D01*
X165995229Y-51367963D02*
X165998804Y-51416423D01*
X131224721Y-76113047D02*
X131194826Y-76074740D01*
X98541411Y-105352085D02*
X98583137Y-105518664D01*
X136751878Y-76479296D02*
X136751605Y-76479704D01*
X160004438Y-105909598D02*
X160004558Y-105909375D01*
X163507607Y-105931301D02*
X163507733Y-105931521D01*
X186582729Y-21200008D02*
X186582626Y-21199776D01*
X110250129Y-50466169D02*
X110250201Y-50466655D01*
X163559546Y-20931707D02*
X163546416Y-20952772D01*
X188583152Y-53035012D02*
X188555173Y-53074740D01*
X137768698Y-20257607D02*
X137768478Y-20257733D01*
X136752482Y-50471477D02*
X136752811Y-50471840D01*
X112904946Y-74041721D02*
X112924637Y-74086144D01*
X112957368Y-52772380D02*
X112942125Y-52818519D01*
X110345818Y-105560713D02*
X110370398Y-105632623D01*
X160249942Y-50465190D02*
X160249996Y-50462972D01*
X111181707Y-106640453D02*
X111202772Y-106653583D01*
X165674841Y-76218539D02*
X165638047Y-76250278D01*
X136761833Y-105164651D02*
X136761861Y-105164903D01*
X137176454Y-20765969D02*
X137176296Y-20766168D01*
X136995441Y-105909375D02*
X136995561Y-105909598D01*
X159484030Y-106523545D02*
X159542926Y-106475521D01*
X112995229Y-52582036D02*
X112989281Y-52630262D01*
X133440453Y-106018292D02*
X133453583Y-105997227D01*
X185709598Y-106704438D02*
X185731301Y-106692392D01*
X136754296Y-76476878D02*
X136753902Y-76477170D01*
X110259318Y-50474918D02*
X110259809Y-50474942D01*
X159898356Y-106082168D02*
X159898498Y-106081958D01*
X186749999Y-22006207D02*
X186749841Y-21993794D01*
X98586339Y-21419753D02*
X98583199Y-21431097D01*
X184796861Y-50494025D02*
X184844737Y-50485718D01*
X108260718Y-74319737D02*
X108269025Y-74271861D01*
X131042631Y-51177619D02*
X131057874Y-51131480D01*
X98509957Y-21803751D02*
X98509909Y-21804239D01*
X137115823Y-20847458D02*
X137101643Y-20867831D01*
X158664690Y-20043749D02*
X158640376Y-20038753D01*
X138139527Y-106854259D02*
X138163210Y-106861690D01*
X185140376Y-106911246D02*
X185164690Y-106906250D01*
X112904946Y-75908278D02*
X112883099Y-75951681D01*
X138703138Y-53455974D02*
X138655262Y-53464281D01*
X186749275Y-50468544D02*
X186749440Y-50468082D01*
X159402541Y-106584176D02*
X159402747Y-106584028D01*
X163251878Y-76479296D02*
X163251605Y-76479704D01*
X184166847Y-76035012D02*
X184140851Y-75993960D01*
X186661763Y-105536546D02*
X186682669Y-105463484D01*
X197611175Y-106612549D02*
X197620798Y-106605772D01*
X108250000Y-74465122D02*
X108251195Y-74416423D01*
X198162822Y-20889232D02*
X198162549Y-20888824D01*
X188751122Y-20005558D02*
X188750912Y-20006002D01*
X138509877Y-50475000D02*
X138558576Y-50476195D01*
X100487742Y-106949397D02*
X100487987Y-106949406D01*
X131756331Y-20000160D02*
X131756205Y-20000158D01*
X163809372Y-106336891D02*
X163863108Y-106390627D01*
X160249275Y-50468544D02*
X160249440Y-50468082D01*
X184941423Y-73476195D02*
X184990122Y-73475000D01*
X165136322Y-20003512D02*
X165136069Y-20003528D01*
X186749841Y-21993794D02*
X186749839Y-21993668D01*
X136793749Y-21585309D02*
X136788753Y-21609623D01*
X139018960Y-50615851D02*
X139060012Y-50641847D01*
X186738166Y-21785348D02*
X186738138Y-21785096D01*
X160244874Y-50473646D02*
X160245295Y-50473394D01*
X133208078Y-20631466D02*
X133207906Y-20631280D01*
X137115971Y-20847252D02*
X137115823Y-20847458D01*
X110809195Y-106336710D02*
X110809372Y-106336891D01*
X165638047Y-53250278D02*
X165599740Y-53280173D01*
X184010718Y-52630262D02*
X184004770Y-52582036D01*
X112638047Y-50699721D02*
X112674841Y-50731460D01*
X137681707Y-20309546D02*
X137681494Y-20309682D01*
X131029671Y-52725549D02*
X131019025Y-52678138D01*
X112970328Y-74224450D02*
X112980974Y-74271861D01*
X160050898Y-105819276D02*
X160082626Y-105750223D01*
X136758830Y-50474870D02*
X136759318Y-50474918D01*
X100109638Y-20038775D02*
X100098153Y-20041354D01*
X158956375Y-20129195D02*
X158956138Y-20129104D01*
X184289966Y-50764966D02*
X184325158Y-50731460D01*
X198045941Y-106218403D02*
X198053182Y-106209124D01*
X159119276Y-106750898D02*
X159119505Y-106750789D01*
X160245295Y-76476605D02*
X160244874Y-76476353D01*
X112957368Y-74177619D02*
X112970328Y-74224450D01*
X100512027Y-20000003D02*
X100487987Y-20000593D01*
X138843519Y-50532874D02*
X138888855Y-50550362D01*
X136750297Y-50467136D02*
X136750416Y-50467612D01*
X186749839Y-21993668D02*
X186747753Y-21911365D01*
X197431919Y-106718982D02*
X197442433Y-106713689D01*
X138661365Y-106947753D02*
X138743668Y-106949839D01*
X184796861Y-53455974D02*
X184749450Y-53445328D01*
X160228501Y-105240539D02*
X160228537Y-105240288D01*
X133747829Y-50471097D02*
X133748121Y-50470703D01*
X158640376Y-106911246D02*
X158664690Y-106906250D01*
X131019025Y-74271861D02*
X131029671Y-74224450D01*
X133728501Y-21709460D02*
X133724743Y-21684924D01*
X112476681Y-76358099D02*
X112433278Y-76379946D01*
X163956878Y-106475359D02*
X163957073Y-106475521D01*
X111472818Y-20157481D02*
X111450008Y-20167270D01*
X109046861Y-53455974D02*
X108999450Y-53445328D01*
X186492392Y-21018698D02*
X186492266Y-21018478D01*
X160249440Y-76481917D02*
X160249275Y-76481455D01*
X159636710Y-106390804D02*
X159636891Y-106390627D01*
X133136710Y-106390804D02*
X133136891Y-106390627D01*
X131756205Y-106949841D02*
X131756331Y-106949839D01*
X113000000Y-52484877D02*
X112998804Y-52533576D01*
X184325158Y-50731460D02*
X184361952Y-50699721D01*
X133749996Y-76487027D02*
X133749942Y-76484809D01*
X165476681Y-73591900D02*
X165518960Y-73615851D01*
X108243544Y-106949275D02*
X108243997Y-106949087D01*
X110317330Y-105463484D02*
X110338236Y-105536546D01*
X108416847Y-53035012D02*
X108390851Y-52993960D01*
X160120804Y-105656375D02*
X160120895Y-105656138D01*
X165998804Y-74416423D02*
X166000000Y-74465122D01*
X186748646Y-76480125D02*
X186748394Y-76479704D01*
X132432623Y-20120398D02*
X132360713Y-20095818D01*
X160004558Y-21040624D02*
X160004438Y-21040401D01*
X133724701Y-21684674D02*
X133711294Y-21609872D01*
X163250000Y-104943792D02*
X163250158Y-104956205D01*
X197922288Y-106355300D02*
X197922455Y-106355120D01*
X158023318Y-53358099D02*
X157981039Y-53334148D01*
X138043624Y-20129195D02*
X137973052Y-20157385D01*
X112203138Y-73494025D02*
X112250549Y-73504671D01*
X138509877Y-73475000D02*
X138558576Y-73476195D01*
X133492266Y-105931521D02*
X133492392Y-105931301D01*
X111097252Y-20365971D02*
X111035999Y-20410950D01*
X196695760Y-20009909D02*
X196684021Y-20009043D01*
X139210033Y-53185033D02*
X139174841Y-53218539D01*
X165433278Y-76379946D02*
X165388855Y-76399637D01*
X131743792Y-106949999D02*
X131756205Y-106949841D01*
X110258344Y-50474798D02*
X110258830Y-50474870D01*
X186592518Y-105727181D02*
X186592614Y-105726947D01*
X188752811Y-20003159D02*
X188752482Y-20003522D01*
X112883099Y-50998318D02*
X112904946Y-51041721D01*
X133042926Y-106475521D02*
X133043121Y-106475359D01*
X110253512Y-105063677D02*
X110253528Y-105063930D01*
X139243539Y-50800158D02*
X139275278Y-50836952D01*
X136750160Y-104956331D02*
X136752246Y-105038634D01*
X184743666Y-106950000D02*
X184743792Y-106949999D01*
X165674841Y-50731460D02*
X165710033Y-50764966D01*
X184010718Y-51319737D02*
X184019025Y-51271861D01*
X112009877Y-50475000D02*
X112058576Y-50476195D01*
X112942125Y-52818519D02*
X112924637Y-52863855D01*
X138261035Y-106889017D02*
X138335062Y-106906196D01*
X137046284Y-105997010D02*
X137046416Y-105997227D01*
X157666847Y-73914987D02*
X157694826Y-73875259D01*
X186749942Y-50465190D02*
X186749996Y-50462972D01*
X137240976Y-20687854D02*
X137240809Y-20688045D01*
X133207906Y-106318719D02*
X133208078Y-106318533D01*
X131892963Y-53470229D02*
X131844737Y-53464281D01*
X137438045Y-106459190D02*
X137456878Y-106475359D01*
X110809372Y-20613108D02*
X110809195Y-20613289D01*
X133746840Y-76477811D02*
X133746477Y-76477482D01*
X158860472Y-20095740D02*
X158836789Y-20088309D01*
X131010718Y-51319737D02*
X131019025Y-51271861D01*
X110559682Y-20931494D02*
X110559546Y-20931707D01*
X109046861Y-73494025D02*
X109094737Y-73485718D01*
X163370398Y-21317376D02*
X163345818Y-21389286D01*
X186582626Y-105750223D02*
X186582729Y-105749991D01*
X138756333Y-20000000D02*
X138756207Y-20000000D01*
X160246487Y-105063677D02*
X160247744Y-105038887D01*
X184001195Y-75533576D02*
X184000000Y-75484877D01*
X133746840Y-50472188D02*
X133747188Y-50471840D01*
X160249999Y-22006207D02*
X160249841Y-21993794D01*
X197768403Y-20454058D02*
X197759124Y-20446817D01*
X186748646Y-50469874D02*
X186748877Y-50469441D01*
X137309195Y-106336710D02*
X137309372Y-106336891D01*
X112904946Y-51041721D02*
X112924637Y-51086144D01*
X136750160Y-21993668D02*
X136750158Y-21993794D01*
X110792093Y-106318719D02*
X110809195Y-106336710D01*
X98583199Y-21431097D02*
X98583137Y-21431335D01*
X131140851Y-73956039D02*
X131166847Y-73914987D01*
X138933278Y-50570053D02*
X138976681Y-50591900D01*
X184892963Y-76470229D02*
X184844737Y-76464281D01*
X133654181Y-105560713D02*
X133654259Y-105560472D01*
X110256455Y-50474275D02*
X110256917Y-50474440D01*
X165136322Y-106946487D02*
X165161112Y-106947744D01*
X111357982Y-20210256D02*
X111290624Y-20245441D01*
X186746471Y-105063930D02*
X186746487Y-105063677D01*
X98583199Y-105518902D02*
X98586339Y-105530246D01*
X136757863Y-50474702D02*
X136758344Y-50474798D01*
X163379195Y-105656375D02*
X163407385Y-105726947D01*
X99746188Y-106801893D02*
X99907875Y-106859746D01*
X137046416Y-20952772D02*
X137046284Y-20952989D01*
X133384028Y-20847252D02*
X133339049Y-20785999D01*
X133504558Y-105909375D02*
X133539743Y-105842017D01*
X165343519Y-76417125D02*
X165297380Y-76432368D01*
X110449210Y-105819505D02*
X110460141Y-105841791D01*
X186259190Y-20688045D02*
X186259023Y-20687854D01*
X132964203Y-20411102D02*
X132964000Y-20410950D01*
X186749999Y-104943792D02*
X186750000Y-104943666D01*
X165250549Y-73504671D02*
X165297380Y-73517631D01*
X139305173Y-53074740D02*
X139275278Y-53113047D01*
X158565075Y-106924743D02*
X158565325Y-106924701D01*
X133259190Y-106261954D02*
X133275359Y-106243121D01*
X160247829Y-76478902D02*
X160247517Y-76478522D01*
X108345053Y-52908278D02*
X108325362Y-52863855D01*
X163546284Y-20952989D02*
X163507733Y-21018478D01*
X136771462Y-21709711D02*
X136761861Y-21785096D01*
X111268478Y-20257733D02*
X111202989Y-20296284D01*
X163259299Y-21810295D02*
X163253528Y-21886069D01*
X165343519Y-53417125D02*
X165297380Y-53432368D01*
X160154259Y-21389527D02*
X160154181Y-21389286D01*
X132818505Y-20309682D02*
X132818292Y-20309546D01*
X136752246Y-21911365D02*
X136750160Y-21993668D01*
X160249583Y-76482387D02*
X160249440Y-76481917D01*
X137292093Y-106318719D02*
X137309195Y-106336710D01*
X131325158Y-53218539D02*
X131289966Y-53185033D01*
X158243666Y-20000000D02*
X138756333Y-20000000D01*
X160154181Y-21389286D02*
X160129601Y-21317376D01*
X108952619Y-53432368D02*
X108906480Y-53417125D01*
X112388855Y-76399637D02*
X112343519Y-76417125D01*
X198257656Y-21046892D02*
X198257533Y-21046680D01*
X138636069Y-20003528D02*
X138560295Y-20009299D01*
X160248121Y-50470703D02*
X160248394Y-50470295D01*
X108611952Y-53250278D02*
X108575158Y-53218539D01*
X188758830Y-20000129D02*
X188758344Y-20000201D01*
X137535796Y-20411102D02*
X137516168Y-20426296D01*
X108245703Y-20001878D02*
X108245295Y-20001605D01*
X186706196Y-105364937D02*
X186706250Y-105364690D01*
X184116900Y-52951681D02*
X184095053Y-52908278D01*
X164835309Y-106906250D02*
X164859623Y-106911246D01*
X157557874Y-52818519D02*
X157542631Y-52772380D01*
X133620804Y-21293624D02*
X133592614Y-21223052D01*
X133743997Y-76475912D02*
X133743544Y-76475724D01*
X110251353Y-50469874D02*
X110251605Y-50470295D01*
X188762272Y-20000000D02*
X188762027Y-20000003D01*
X186689017Y-105438964D02*
X186706196Y-105364937D01*
X184838634Y-20002246D02*
X184756331Y-20000160D01*
X158111144Y-76399637D02*
X158066721Y-76379946D01*
X136879195Y-105656375D02*
X136907385Y-105726947D01*
X184224721Y-50836952D02*
X184256460Y-50800158D01*
X164736515Y-20067330D02*
X164663453Y-20088236D01*
X138163210Y-20088309D02*
X138139527Y-20095740D01*
X108816721Y-73570053D02*
X108861144Y-73550362D01*
X139060012Y-73641847D02*
X139099740Y-73669826D01*
X165203138Y-53455974D02*
X165155262Y-53464281D01*
X110250081Y-50465681D02*
X110250129Y-50466169D01*
X163257863Y-76475297D02*
X163257387Y-76475416D01*
X159898356Y-20867831D02*
X159884176Y-20847458D01*
X163937854Y-20490976D02*
X163881466Y-20541921D01*
X159690804Y-20613289D02*
X159690627Y-20613108D01*
X186750000Y-50462727D02*
X186750000Y-22006333D01*
X113000000Y-74465122D02*
X113000000Y-75484877D01*
X160240681Y-76475081D02*
X160240190Y-76475057D01*
X164097252Y-20365971D02*
X164035999Y-20410950D01*
X109142963Y-73479770D02*
X109191423Y-73476195D01*
X186749841Y-104956205D02*
X186749999Y-104943792D01*
X185527181Y-106792518D02*
X185549991Y-106782729D01*
X159209375Y-106704558D02*
X159209598Y-106704438D01*
X185432861Y-106829516D02*
X185456138Y-106820895D01*
X133746477Y-76477482D02*
X133746097Y-76477170D01*
X112136069Y-20003528D02*
X112060295Y-20009299D01*
X165560012Y-76308152D02*
X165518960Y-76334148D01*
X186661763Y-21413453D02*
X186661690Y-21413210D01*
X158490122Y-50475000D02*
X160237727Y-50475000D01*
X138434674Y-20025298D02*
X138359872Y-20038705D01*
X137456878Y-106475359D02*
X137457073Y-106475521D01*
X159759023Y-106262145D02*
X159759190Y-106261954D01*
X139489281Y-51319737D02*
X139495229Y-51367963D01*
X112009877Y-73475000D02*
X112058576Y-73476195D01*
X138359623Y-106911246D02*
X138359872Y-106911294D01*
X164736759Y-106882735D02*
X164760789Y-106888957D01*
X188310012Y-73641847D02*
X188349740Y-73669826D01*
X98538679Y-21610119D02*
X98536667Y-21621716D01*
X98500000Y-22012272D02*
X98500000Y-104937727D01*
X159992266Y-21018478D02*
X159953715Y-20952989D01*
X196890361Y-106911224D02*
X196901846Y-106908645D01*
X139404946Y-74041721D02*
X139424637Y-74086144D01*
X108444826Y-73875259D02*
X108474721Y-73836952D01*
X184289966Y-53185033D02*
X184256460Y-53149841D01*
X188750003Y-106937972D02*
X188750057Y-106940190D01*
X188752482Y-20003522D02*
X188752170Y-20003902D01*
X188633099Y-52951681D02*
X188609148Y-52993960D01*
X98586481Y-105530715D02*
X98590173Y-105541892D01*
X163250559Y-76481917D02*
X163250416Y-76482387D01*
X133118719Y-106407906D02*
X133136710Y-106390804D01*
X110676454Y-20765969D02*
X110676296Y-20766168D01*
X184116900Y-73998318D02*
X184140851Y-73956039D01*
X111035796Y-106538897D02*
X111035999Y-106539049D01*
X98509028Y-105133776D02*
X98509043Y-105134021D01*
X132619276Y-106750898D02*
X132619505Y-106750789D01*
X110507733Y-21018478D02*
X110507607Y-21018698D01*
X165161112Y-106947744D02*
X165161365Y-106947753D01*
X160247517Y-50471477D02*
X160247829Y-50471097D01*
X131224721Y-50836952D02*
X131256460Y-50800158D01*
X158836546Y-20088236D02*
X158763484Y-20067330D01*
X186190804Y-106336710D02*
X186207906Y-106318719D01*
X158392963Y-76470229D02*
X158344737Y-76464281D01*
X99094699Y-20577711D02*
X99086175Y-20585828D01*
X136762027Y-76475003D02*
X136759809Y-76475057D01*
X131116900Y-75951681D02*
X131095053Y-75908278D01*
X159561954Y-106459190D02*
X159562145Y-106459023D01*
X138750549Y-50504671D02*
X138797380Y-50517631D01*
X165243794Y-20000158D02*
X165243668Y-20000160D01*
X160039858Y-21108208D02*
X160039743Y-21107982D01*
X198269089Y-105881699D02*
X198342511Y-105726461D01*
X133728537Y-105240288D02*
X133738138Y-105164903D01*
X185550223Y-20167373D02*
X185549991Y-20167270D01*
X160228537Y-105240288D02*
X160238138Y-105164903D01*
X112243668Y-106949839D02*
X112243794Y-106949841D01*
X136759318Y-50474918D02*
X136759809Y-50474942D01*
X108249918Y-20009318D02*
X108249870Y-20008830D01*
X188349740Y-73669826D02*
X188388047Y-73699721D01*
X163460256Y-105842017D02*
X163495441Y-105909375D01*
X112859148Y-52993960D02*
X112833152Y-53035012D01*
X158441423Y-50476195D02*
X158490122Y-50475000D01*
X188750724Y-20006455D02*
X188750559Y-20006917D01*
X137702989Y-20296284D02*
X137702772Y-20296416D01*
X112674841Y-73731460D02*
X112710033Y-73764966D01*
X110251605Y-76479704D02*
X110251353Y-76480125D01*
X160238138Y-21785096D02*
X160228537Y-21709711D01*
X137059682Y-106018505D02*
X137101501Y-106081958D01*
X163740976Y-20687854D02*
X163740809Y-20688045D01*
X136879195Y-21293624D02*
X136879104Y-21293861D01*
X186749918Y-76484318D02*
X186749870Y-76483830D01*
X109240122Y-53475000D02*
X109191423Y-53473804D01*
X164181494Y-106640317D02*
X164181707Y-106640453D01*
X139383099Y-75951681D02*
X139359148Y-75993960D01*
X165998804Y-52533576D02*
X165995229Y-52582036D01*
X159884176Y-20847458D02*
X159884028Y-20847252D01*
X165775278Y-76113047D02*
X165743539Y-76149841D01*
X159839049Y-106164000D02*
X159884028Y-106102747D01*
X110253159Y-76477811D02*
X110252811Y-76478159D01*
X131000000Y-52484877D02*
X131000000Y-51465122D01*
X133654259Y-105560472D02*
X133661690Y-105536789D01*
X131116900Y-52951681D02*
X131095053Y-52908278D01*
X110252482Y-50471477D02*
X110252811Y-50471840D01*
X112243794Y-20000158D02*
X112243668Y-20000160D01*
X185336546Y-20088236D02*
X185263484Y-20067330D01*
X138888855Y-76399637D02*
X138843519Y-76417125D01*
X159141791Y-20210141D02*
X159119505Y-20199210D01*
X133747517Y-76478522D02*
X133747188Y-76478159D01*
X138743794Y-106949841D02*
X138756207Y-106949999D01*
X185164690Y-106906250D02*
X185164937Y-106906196D01*
X197777696Y-106487941D02*
X197777879Y-106487779D01*
X99907875Y-20090253D02*
X99746188Y-20148106D01*
X131289966Y-50764966D02*
X131325158Y-50731460D01*
X137292093Y-20631280D02*
X137291921Y-20631466D01*
X185709598Y-20245561D02*
X185709375Y-20245441D01*
X185797227Y-20296416D02*
X185797010Y-20296284D01*
X110676296Y-106183831D02*
X110676454Y-106184030D01*
X164268478Y-20257733D02*
X164202989Y-20296284D01*
X160211246Y-105340376D02*
X160211294Y-105340127D01*
X137115823Y-106102541D02*
X137115971Y-106102747D01*
X165343519Y-50532874D02*
X165388855Y-50550362D01*
X133750000Y-50462727D02*
X133750000Y-22006333D01*
X137176296Y-106183831D02*
X137176454Y-106184030D01*
X132336789Y-20088309D02*
X132336546Y-20088236D01*
X163863289Y-106390804D02*
X163881280Y-106407906D01*
X158249450Y-50504671D02*
X158296861Y-50494025D01*
X163863289Y-20559195D02*
X163863108Y-20559372D01*
X131523318Y-73591900D02*
X131566721Y-73570053D01*
X188750559Y-20006917D02*
X188750416Y-20007387D01*
X186749870Y-76483830D02*
X186749798Y-76483344D01*
X160240700Y-105139704D02*
X160246471Y-105063930D01*
X133750000Y-104943666D02*
X133750000Y-76487272D01*
X163261861Y-21785096D02*
X163261833Y-21785348D01*
X133741655Y-50474798D02*
X133742136Y-50474702D01*
X197777879Y-106487779D02*
X197905120Y-106372455D01*
X197600822Y-106619119D02*
X197610767Y-106612822D01*
X163449210Y-21130494D02*
X163449101Y-21130723D01*
X111543624Y-106820804D02*
X111543861Y-106820895D01*
X131004770Y-52582036D02*
X131001195Y-52533576D01*
X138843519Y-73532874D02*
X138888855Y-73550362D01*
X184224721Y-76113047D02*
X184194826Y-76074740D01*
X131224721Y-53113047D02*
X131194826Y-53074740D01*
X138607036Y-73479770D02*
X138655262Y-73485718D01*
X160182669Y-105463484D02*
X160182735Y-105463240D01*
X137949776Y-20167373D02*
X137880723Y-20199101D01*
X139210033Y-73764966D02*
X139243539Y-73800158D01*
X108444826Y-53074740D02*
X108416847Y-53035012D01*
X163460141Y-105841791D02*
X163460256Y-105842017D01*
X188758830Y-106949870D02*
X188759318Y-106949918D01*
X133744441Y-76476122D02*
X133743997Y-76475912D01*
X184939957Y-20009321D02*
X184939704Y-20009299D01*
X108249583Y-106942612D02*
X108249702Y-106942136D01*
X186747829Y-76478902D02*
X186747517Y-76478522D01*
X186620895Y-105656138D02*
X186629516Y-105632861D01*
X111663210Y-20088309D02*
X111639527Y-20095740D01*
X108345053Y-74041721D02*
X108366900Y-73998318D01*
X136838309Y-21413210D02*
X136838236Y-21413453D01*
X139424637Y-51086144D02*
X139442125Y-51131480D01*
X131749450Y-76445328D02*
X131702619Y-76432368D01*
X198155628Y-106070997D02*
X198155772Y-106070798D01*
X132641791Y-20210141D02*
X132619505Y-20199210D01*
X188460033Y-73764966D02*
X188493539Y-73800158D01*
X184224721Y-73836952D02*
X184256460Y-73800158D01*
X139489281Y-52630262D02*
X139480974Y-52678138D01*
X111663453Y-20088236D02*
X111663210Y-20088309D01*
X110288753Y-21609623D02*
X110288705Y-21609872D01*
X188754704Y-106948394D02*
X188755125Y-106948646D01*
X188750201Y-20008344D02*
X188750129Y-20008830D01*
X137768478Y-106692266D02*
X137768698Y-106692392D01*
X188759318Y-106949918D02*
X188759809Y-106949942D01*
X197254041Y-20148191D02*
X197253811Y-20148106D01*
X111202772Y-106653583D02*
X111202989Y-106653715D01*
X139210033Y-76185033D02*
X139174841Y-76218539D01*
X163407481Y-105727181D02*
X163417270Y-105749991D01*
X164543861Y-106820895D02*
X164567138Y-106829516D01*
X111959460Y-106928501D02*
X111959711Y-106928537D01*
X158338634Y-20002246D02*
X158256331Y-20000160D01*
X98541354Y-21598153D02*
X98538775Y-21609638D01*
X138636322Y-106946487D02*
X138661112Y-106947744D01*
X198257533Y-105903319D02*
X198257656Y-105903107D01*
X157519025Y-51271861D02*
X157529671Y-51224450D01*
X157529671Y-74224450D02*
X157542631Y-74177619D01*
X197620997Y-20344371D02*
X197620798Y-20344227D01*
X110293749Y-21585309D02*
X110288753Y-21609623D01*
X99546892Y-20242343D02*
X99546680Y-20242466D01*
X138655262Y-73485718D02*
X138703138Y-73494025D01*
X164934924Y-106924743D02*
X164959460Y-106928501D01*
X108999450Y-73504671D02*
X109046861Y-73494025D01*
X163417270Y-105749991D02*
X163417373Y-105750223D01*
X112250549Y-73504671D02*
X112297380Y-73517631D01*
X110881466Y-20541921D02*
X110881280Y-20542093D01*
X187808576Y-53473804D02*
X187759877Y-53475000D01*
X131656480Y-53417125D02*
X131611144Y-53399637D01*
X132140376Y-106911246D02*
X132164690Y-106906250D01*
X198347571Y-105715023D02*
X198351808Y-105704041D01*
X99745958Y-20148191D02*
X99734976Y-20152428D01*
X163937854Y-106459023D02*
X163938045Y-106459190D01*
X165161365Y-106947753D02*
X165243668Y-106949839D01*
X159141791Y-106739858D02*
X159142017Y-106739743D01*
X98830880Y-106050822D02*
X98837177Y-106060767D01*
X137456878Y-20474640D02*
X137438045Y-20490809D01*
X164449776Y-106782626D02*
X164450008Y-106782729D01*
X158860713Y-20095818D02*
X158860472Y-20095740D01*
X186746097Y-76477170D02*
X186745703Y-76476878D01*
X160246840Y-76477811D02*
X160246477Y-76477482D01*
X197777696Y-20462058D02*
X197768783Y-20454369D01*
X184057874Y-51131480D02*
X184075362Y-51086144D01*
X133745295Y-76476605D02*
X133744874Y-76476353D01*
X133749839Y-21993668D02*
X133747753Y-21911365D01*
X111290401Y-20245561D02*
X111268698Y-20257607D01*
X184964651Y-20011833D02*
X184939957Y-20009321D01*
X138607036Y-50479770D02*
X138655262Y-50485718D01*
X188654946Y-74041721D02*
X188674637Y-74086144D01*
X158739210Y-20061042D02*
X158738964Y-20060982D01*
X158490122Y-76475000D02*
X158441423Y-76473804D01*
X165009877Y-73475000D02*
X165058576Y-73476195D01*
X165638047Y-76250278D02*
X165599740Y-76280173D01*
X185065075Y-20025256D02*
X185040539Y-20021498D01*
X157557874Y-75818519D02*
X157542631Y-75772380D01*
X198037779Y-106227879D02*
X198037941Y-106227696D01*
X111097252Y-106584028D02*
X111097458Y-106584176D01*
X136753528Y-21886069D02*
X136753512Y-21886322D01*
X136762027Y-50474996D02*
X136762272Y-50475000D01*
X133688957Y-105439210D02*
X133689017Y-105438964D01*
X139060012Y-53308152D02*
X139018960Y-53334148D01*
X112957368Y-51177619D02*
X112970328Y-51224450D01*
X111117831Y-20351643D02*
X111097458Y-20365823D01*
X198488568Y-21791826D02*
X198463371Y-21621958D01*
X163345740Y-105560472D02*
X163345818Y-105560713D01*
X100291826Y-20011431D02*
X100121958Y-20036628D01*
X108254770Y-52582036D02*
X108251195Y-52533576D01*
X160161763Y-105536546D02*
X160182669Y-105463484D01*
X159562145Y-20490976D02*
X159561954Y-20490809D01*
X157575362Y-74086144D02*
X157595053Y-74041721D01*
X157981039Y-53334148D02*
X157939987Y-53308152D01*
X185818292Y-106640453D02*
X185818505Y-106640317D01*
X98652428Y-21234976D02*
X98648191Y-21245958D01*
M02*
