M48
; FORMAT={-:-/ absolute / metric / decimal}
; #@! TF.GenerationSoftware,Kicad,Pcbnew,6.0.10+dfsg-1~bpo11+1
; #@! TF.FileFunction,Plated,1,2,PTH
FMAT,2
METRIC
; #@! TA.AperFunction,Plated,PTH,ViaDrill
T1C0.300
; #@! TA.AperFunction,Plated,PTH,ComponentDrill
T2C0.600
%
G90
G05
T1
X111.05Y-86.125
X111.05Y-93.825
X111.212Y-30.412
X111.65Y-85.25
X111.75Y-96.675
X111.95Y-22.5
X111.95Y-26.275
X112.45Y-34.0
X112.45Y-83.25
X112.65Y-96.675
X113.33Y-85.17
X113.7Y-102.225
X113.75Y-22.4
X114.237Y-88.737
X114.35Y-81.25
X114.35Y-86.25
X114.95Y-45.7
X115.149Y-100.475
X115.45Y-22.387
X115.65Y-26.375
X115.794Y-24.444
X115.805Y-94.62
X115.85Y-91.15
X116.25Y-41.7
X116.45Y-45.7
X116.55Y-81.25
X116.562Y-32.562
X116.75Y-37.4
X116.799Y-98.824
X117.35Y-38.2
X117.35Y-41.7
X117.9Y-98.825
X118.45Y-27.9
X118.55Y-81.25
X118.8Y-85.35
X119.25Y-96.375
X119.3Y-27.85
X119.737Y-43.788
X121.332Y-101.704
X121.35Y-103.725
X121.75Y-23.774
X121.799Y-25.748
X122.201Y-101.202
X122.25Y-103.175
X122.65Y-23.224
X122.668Y-25.246
X124.262Y-83.162
X124.7Y-99.1
X124.75Y-30.575
X125.2Y-41.6
X125.45Y-45.7
X125.55Y-99.05
X126.1Y-28.125
X126.65Y-85.25
X126.65Y-88.749
X127.201Y-28.126
X127.25Y-89.55
X127.438Y-94.387
X127.45Y-45.7
X127.55Y-81.25
X127.75Y-85.25
X128.15Y-35.8
X128.195Y-32.33
X128.206Y-102.506
X128.35Y-100.575
X128.55Y-104.562
X128.851Y-26.475
X129.05Y-81.25
X129.65Y-40.7
X129.65Y-45.7
X129.762Y-38.212
X130.25Y-104.55
X130.3Y-24.725
X130.67Y-41.78
X131.35Y-30.275
X131.55Y-43.7
X131.55Y-92.95
X132.05Y-100.675
X132.05Y-104.45
X132.25Y-30.275
X132.35Y-41.7
X132.787Y-96.537
X132.95Y-33.125
X132.95Y-40.825
X137.55Y-86.125
X137.55Y-93.825
X137.713Y-30.412
X138.15Y-85.25
X138.25Y-96.675
X138.45Y-22.5
X138.45Y-26.275
X138.95Y-34.0
X138.95Y-83.25
X139.15Y-96.675
X139.83Y-85.17
X140.2Y-102.225
X140.25Y-22.4
X140.737Y-88.737
X140.85Y-81.25
X140.85Y-86.25
X141.45Y-45.7
X141.649Y-100.475
X141.95Y-22.387
X142.15Y-26.375
X142.294Y-24.444
X142.305Y-94.62
X142.35Y-91.15
X142.75Y-41.7
X142.95Y-45.7
X143.05Y-81.25
X143.062Y-32.562
X143.25Y-37.4
X143.299Y-98.824
X143.85Y-38.2
X143.85Y-41.7
X144.4Y-98.825
X144.95Y-27.9
X145.05Y-81.25
X145.3Y-85.35
X145.75Y-96.375
X145.8Y-27.85
X146.237Y-43.788
X147.832Y-101.704
X147.85Y-103.725
X148.25Y-23.774
X148.299Y-25.748
X148.701Y-101.202
X148.75Y-103.175
X149.15Y-23.224
X149.168Y-25.246
X150.762Y-83.162
X151.2Y-99.1
X151.25Y-30.575
X151.7Y-41.6
X151.95Y-45.7
X152.05Y-99.05
X152.6Y-28.125
X153.15Y-85.25
X153.15Y-88.749
X153.701Y-28.126
X153.75Y-89.55
X153.938Y-94.387
X153.95Y-45.7
X154.05Y-81.25
X154.25Y-85.25
X154.65Y-35.8
X154.695Y-32.33
X154.706Y-102.506
X154.85Y-100.575
X155.05Y-104.562
X155.351Y-26.475
X155.55Y-81.25
X156.15Y-40.7
X156.15Y-45.7
X156.262Y-38.212
X156.75Y-104.55
X156.8Y-24.725
X157.17Y-41.78
X157.85Y-30.275
X158.05Y-43.7
X158.05Y-92.95
X158.55Y-100.675
X158.55Y-104.45
X158.75Y-30.275
X158.85Y-41.7
X159.287Y-96.537
X159.45Y-33.125
X159.45Y-40.825
X164.05Y-86.125
X164.05Y-93.825
X164.213Y-30.412
X164.65Y-85.25
X164.75Y-96.675
X164.95Y-22.5
X164.95Y-26.275
X165.45Y-34.0
X165.45Y-83.25
X165.65Y-96.675
X166.33Y-85.17
X166.7Y-102.225
X166.75Y-22.4
X167.237Y-88.737
X167.35Y-81.25
X167.35Y-86.25
X167.95Y-45.7
X168.149Y-100.475
X168.45Y-22.387
X168.65Y-26.375
X168.794Y-24.444
X168.805Y-94.62
X168.85Y-91.15
X169.25Y-41.7
X169.45Y-45.7
X169.55Y-81.25
X169.562Y-32.562
X169.75Y-37.4
X169.799Y-98.824
X170.35Y-38.2
X170.35Y-41.7
X170.9Y-98.825
X171.45Y-27.9
X171.55Y-81.25
X171.8Y-85.35
X172.25Y-96.375
X172.3Y-27.85
X172.737Y-43.788
X174.332Y-101.704
X174.35Y-103.725
X174.75Y-23.774
X174.799Y-25.748
X175.201Y-101.202
X175.25Y-103.175
X175.65Y-23.224
X175.668Y-25.246
X177.262Y-83.162
X177.7Y-99.1
X177.75Y-30.575
X178.2Y-41.6
X178.45Y-45.7
X178.55Y-99.05
X179.1Y-28.125
X179.65Y-85.25
X179.65Y-88.749
X180.201Y-28.126
X180.25Y-89.55
X180.438Y-94.387
X180.45Y-45.7
X180.55Y-81.25
X180.75Y-85.25
X181.15Y-35.8
X181.195Y-32.33
X181.206Y-102.506
X181.35Y-100.575
X181.55Y-104.562
X181.851Y-26.475
X182.05Y-81.25
X182.65Y-40.7
X182.65Y-45.7
X182.762Y-38.212
X183.25Y-104.55
X183.3Y-24.725
X183.67Y-41.78
X184.35Y-30.275
X184.55Y-43.7
X184.55Y-92.95
X185.05Y-100.675
X185.05Y-104.45
X185.25Y-30.275
X185.35Y-41.7
X185.787Y-96.537
X185.95Y-33.125
X185.95Y-40.825
T2
G00X116.93Y-100.295
M15
G01X116.93Y-101.395
M16
G05
G00X116.93Y-104.725
M15
G01X116.93Y-105.325
M16
G05
G00X118.43Y-22.225
M15
G01X118.43Y-21.625
M16
G05
G00X118.43Y-26.655
M15
G01X118.43Y-25.555
M16
G05
G00X125.57Y-100.295
M15
G01X125.57Y-101.395
M16
G05
G00X125.57Y-104.725
M15
G01X125.57Y-105.325
M16
G05
G00X127.07Y-22.225
M15
G01X127.07Y-21.625
M16
G05
G00X127.07Y-26.655
M15
G01X127.07Y-25.555
M16
G05
G00X143.43Y-100.295
M15
G01X143.43Y-101.395
M16
G05
G00X143.43Y-104.725
M15
G01X143.43Y-105.325
M16
G05
G00X144.93Y-22.225
M15
G01X144.93Y-21.625
M16
G05
G00X144.93Y-26.655
M15
G01X144.93Y-25.555
M16
G05
G00X152.07Y-100.295
M15
G01X152.07Y-101.395
M16
G05
G00X152.07Y-104.725
M15
G01X152.07Y-105.325
M16
G05
G00X153.57Y-22.225
M15
G01X153.57Y-21.625
M16
G05
G00X153.57Y-26.655
M15
G01X153.57Y-25.555
M16
G05
G00X169.93Y-100.295
M15
G01X169.93Y-101.395
M16
G05
G00X169.93Y-104.725
M15
G01X169.93Y-105.325
M16
G05
G00X171.43Y-22.225
M15
G01X171.43Y-21.625
M16
G05
G00X171.43Y-26.655
M15
G01X171.43Y-25.555
M16
G05
G00X178.57Y-100.295
M15
G01X178.57Y-101.395
M16
G05
G00X178.57Y-104.725
M15
G01X178.57Y-105.325
M16
G05
G00X180.07Y-22.225
M15
G01X180.07Y-21.625
M16
G05
G00X180.07Y-26.655
M15
G01X180.07Y-25.555
M16
G05
T0
M30
