M48
; FORMAT={-:-/ absolute / metric / decimal}
; #@! TF.GenerationSoftware,Kicad,Pcbnew,6.0.10+dfsg-1~bpo11+1
; #@! TF.FileFunction,NonPlated,1,2,NPTH
FMAT,2
METRIC
; #@! TA.AperFunction,NonPlated,NPTH,ComponentDrill
T1C0.500
; #@! TA.AperFunction,NonPlated,NPTH,ComponentDrill
T2C0.650
; #@! TA.AperFunction,NonPlated,NPTH,ComponentDrill
T3C0.700
; #@! TA.AperFunction,NonPlated,NPTH,ComponentDrill
T4C0.900
%
G90
G05
T1
X113.0Y-50.975
X113.0Y-75.975
X114.0Y-50.975
X114.0Y-75.975
X115.0Y-50.975
X115.0Y-75.975
X116.0Y-50.975
X116.0Y-75.975
X117.0Y-50.975
X117.0Y-75.975
X118.0Y-50.975
X118.0Y-75.975
X119.0Y-50.975
X119.0Y-75.975
X120.0Y-50.975
X120.0Y-75.975
X121.0Y-50.975
X121.0Y-75.975
X122.0Y-50.975
X122.0Y-75.975
X123.0Y-50.975
X123.0Y-75.975
X124.0Y-50.975
X124.0Y-75.975
X125.0Y-50.975
X125.0Y-75.975
X126.0Y-50.975
X126.0Y-75.975
X127.0Y-50.975
X127.0Y-75.975
X128.0Y-50.975
X128.0Y-75.975
X129.0Y-50.975
X129.0Y-75.975
X130.0Y-50.975
X130.0Y-75.975
X131.0Y-50.975
X131.0Y-75.975
X139.5Y-50.975
X139.5Y-75.975
X140.5Y-50.975
X140.5Y-75.975
X141.5Y-50.975
X141.5Y-75.975
X142.5Y-50.975
X142.5Y-75.975
X143.5Y-50.975
X143.5Y-75.975
X144.5Y-50.975
X144.5Y-75.975
X145.5Y-50.975
X145.5Y-75.975
X146.5Y-50.975
X146.5Y-75.975
X147.5Y-50.975
X147.5Y-75.975
X148.5Y-50.975
X148.5Y-75.975
X149.5Y-50.975
X149.5Y-75.975
X150.5Y-50.975
X150.5Y-75.975
X151.5Y-50.975
X151.5Y-75.975
X152.5Y-50.975
X152.5Y-75.975
X153.5Y-50.975
X153.5Y-75.975
X154.5Y-50.975
X154.5Y-75.975
X155.5Y-50.975
X155.5Y-75.975
X156.5Y-50.975
X156.5Y-75.975
X157.5Y-50.975
X157.5Y-75.975
X166.0Y-50.975
X166.0Y-75.975
X167.0Y-50.975
X167.0Y-75.975
X168.0Y-50.975
X168.0Y-75.975
X169.0Y-50.975
X169.0Y-75.975
X170.0Y-50.975
X170.0Y-75.975
X171.0Y-50.975
X171.0Y-75.975
X172.0Y-50.975
X172.0Y-75.975
X173.0Y-50.975
X173.0Y-75.975
X174.0Y-50.975
X174.0Y-75.975
X175.0Y-50.975
X175.0Y-75.975
X176.0Y-50.975
X176.0Y-75.975
X177.0Y-50.975
X177.0Y-75.975
X178.0Y-50.975
X178.0Y-75.975
X179.0Y-50.975
X179.0Y-75.975
X180.0Y-50.975
X180.0Y-75.975
X181.0Y-50.975
X181.0Y-75.975
X182.0Y-50.975
X182.0Y-75.975
X183.0Y-50.975
X183.0Y-75.975
X184.0Y-50.975
X184.0Y-75.975
T2
X118.36Y-101.375
X119.86Y-25.575
X124.14Y-101.375
X125.64Y-25.575
X144.86Y-101.375
X146.36Y-25.575
X150.64Y-101.375
X152.14Y-25.575
X171.36Y-101.375
X172.86Y-25.575
X177.14Y-101.375
X178.64Y-25.575
T3
X111.755Y-35.15
X111.755Y-36.85
X132.244Y-90.1
X132.244Y-91.8
X138.255Y-35.15
X138.255Y-36.85
X158.744Y-90.1
X158.744Y-91.8
X164.755Y-35.15
X164.755Y-36.85
X185.244Y-90.1
X185.244Y-91.8
T4
X112.218Y-88.475
X112.218Y-91.475
X131.782Y-35.475
X131.782Y-38.475
X138.718Y-88.475
X138.718Y-91.475
X158.282Y-35.475
X158.282Y-38.475
X165.218Y-88.475
X165.218Y-91.475
X184.782Y-35.475
X184.782Y-38.475
T0
M30
