G04 #@! TF.GenerationSoftware,KiCad,Pcbnew,6.0.7+dfsg-1~bpo11+1*
G04 #@! TF.ProjectId,project,70726f6a-6563-4742-9e6b-696361645f70,rev?*
G04 #@! TF.SameCoordinates,Original*
G04 #@! TF.FileFunction,Copper,L1,Top*
G04 #@! TF.FilePolarity,Positive*
%FSLAX46Y46*%
G04 Gerber Fmt 4.6, Leading zero omitted, Abs format (unit mm)*
%MOMM*%
%LPD*%
G01*
G04 APERTURE LIST*
G04 #@! TA.AperFunction,Profile*
%ADD10C,0.100000*%
G04 #@! TD*
G04 #@! TA.AperFunction,SMDPad,CuDef*
%ADD11R,0.600000X0.450000*%
G04 #@! TD*
G04 #@! TA.AperFunction,SMDPad,CuDef*
%ADD12R,1.500000X0.700000*%
G04 #@! TD*
G04 #@! TA.AperFunction,SMDPad,CuDef*
%ADD13R,0.800000X1.000000*%
G04 #@! TD*
G04 #@! TA.AperFunction,SMDPad,CuDef*
%ADD14R,0.600000X1.450000*%
G04 #@! TD*
G04 #@! TA.AperFunction,SMDPad,CuDef*
%ADD15R,0.300000X1.450000*%
G04 #@! TD*
G04 #@! TA.AperFunction,ComponentPad*
%ADD16O,1.000000X2.100000*%
G04 #@! TD*
G04 #@! TA.AperFunction,ComponentPad*
%ADD17O,1.000000X1.600000*%
G04 #@! TD*
G04 #@! TA.AperFunction,SMDPad,CuDef*
%ADD18R,0.700000X0.450000*%
G04 #@! TD*
G04 #@! TA.AperFunction,ViaPad*
%ADD19C,0.700000*%
G04 #@! TD*
G04 #@! TA.AperFunction,Conductor*
%ADD20C,0.500000*%
G04 #@! TD*
G04 #@! TA.AperFunction,Conductor*
%ADD21C,1.000000*%
G04 #@! TD*
G04 #@! TA.AperFunction,Conductor*
%ADD22C,0.300000*%
G04 #@! TD*
G04 #@! TA.AperFunction,Conductor*
%ADD23C,0.400000*%
G04 #@! TD*
G04 #@! TA.AperFunction,Conductor*
%ADD24C,1.500000*%
G04 #@! TD*
G04 APERTURE END LIST*
D10*
X122250000Y-126475000D02*
X101150000Y-126475000D01*
X123500000Y-98000000D02*
X123500000Y-126475000D01*
X100000000Y-98000000D02*
X100000000Y-126475000D01*
X123500000Y-98000000D02*
G75*
G03*
X121500000Y-96000000I-2000000J0D01*
G01*
X122250000Y-126475000D02*
X123500000Y-126475000D01*
X102000000Y-96000000D02*
X121500000Y-96000000D01*
X101150000Y-126475000D02*
X100000000Y-126475000D01*
X102000000Y-96000000D02*
G75*
G03*
X100000000Y-98000000I0J-2000000D01*
G01*
G04 #@! TA.AperFunction,SMDPad,CuDef*
G36*
G01*
X112550000Y-120925000D02*
X111650000Y-120925000D01*
G75*
G02*
X111400000Y-120675000I0J250000D01*
G01*
X111400000Y-120150000D01*
G75*
G02*
X111650000Y-119900000I250000J0D01*
G01*
X112550000Y-119900000D01*
G75*
G02*
X112800000Y-120150000I0J-250000D01*
G01*
X112800000Y-120675000D01*
G75*
G02*
X112550000Y-120925000I-250000J0D01*
G01*
G37*
G04 #@! TD.AperFunction*
G04 #@! TA.AperFunction,SMDPad,CuDef*
G36*
G01*
X112550000Y-119100000D02*
X111650000Y-119100000D01*
G75*
G02*
X111400000Y-118850000I0J250000D01*
G01*
X111400000Y-118325000D01*
G75*
G02*
X111650000Y-118075000I250000J0D01*
G01*
X112550000Y-118075000D01*
G75*
G02*
X112800000Y-118325000I0J-250000D01*
G01*
X112800000Y-118850000D01*
G75*
G02*
X112550000Y-119100000I-250000J0D01*
G01*
G37*
G04 #@! TD.AperFunction*
G04 #@! TA.AperFunction,SMDPad,CuDef*
G36*
G01*
X110325000Y-106925000D02*
X110325000Y-107825000D01*
G75*
G02*
X110075000Y-108075000I-250000J0D01*
G01*
X109550000Y-108075000D01*
G75*
G02*
X109300000Y-107825000I0J250000D01*
G01*
X109300000Y-106925000D01*
G75*
G02*
X109550000Y-106675000I250000J0D01*
G01*
X110075000Y-106675000D01*
G75*
G02*
X110325000Y-106925000I0J-250000D01*
G01*
G37*
G04 #@! TD.AperFunction*
G04 #@! TA.AperFunction,SMDPad,CuDef*
G36*
G01*
X108500000Y-106925000D02*
X108500000Y-107825000D01*
G75*
G02*
X108250000Y-108075000I-250000J0D01*
G01*
X107725000Y-108075000D01*
G75*
G02*
X107475000Y-107825000I0J250000D01*
G01*
X107475000Y-106925000D01*
G75*
G02*
X107725000Y-106675000I250000J0D01*
G01*
X108250000Y-106675000D01*
G75*
G02*
X108500000Y-106925000I0J-250000D01*
G01*
G37*
G04 #@! TD.AperFunction*
G04 #@! TA.AperFunction,SMDPad,CuDef*
G36*
G01*
X109625000Y-118050000D02*
X110575000Y-118050000D01*
G75*
G02*
X110825000Y-118300000I0J-250000D01*
G01*
X110825000Y-118800000D01*
G75*
G02*
X110575000Y-119050000I-250000J0D01*
G01*
X109625000Y-119050000D01*
G75*
G02*
X109375000Y-118800000I0J250000D01*
G01*
X109375000Y-118300000D01*
G75*
G02*
X109625000Y-118050000I250000J0D01*
G01*
G37*
G04 #@! TD.AperFunction*
G04 #@! TA.AperFunction,SMDPad,CuDef*
G36*
G01*
X109625000Y-119950000D02*
X110575000Y-119950000D01*
G75*
G02*
X110825000Y-120200000I0J-250000D01*
G01*
X110825000Y-120700000D01*
G75*
G02*
X110575000Y-120950000I-250000J0D01*
G01*
X109625000Y-120950000D01*
G75*
G02*
X109375000Y-120700000I0J250000D01*
G01*
X109375000Y-120200000D01*
G75*
G02*
X109625000Y-119950000I250000J0D01*
G01*
G37*
G04 #@! TD.AperFunction*
G04 #@! TA.AperFunction,SMDPad,CuDef*
G36*
G01*
X103450000Y-118075000D02*
X104350000Y-118075000D01*
G75*
G02*
X104600000Y-118325000I0J-250000D01*
G01*
X104600000Y-118850000D01*
G75*
G02*
X104350000Y-119100000I-250000J0D01*
G01*
X103450000Y-119100000D01*
G75*
G02*
X103200000Y-118850000I0J250000D01*
G01*
X103200000Y-118325000D01*
G75*
G02*
X103450000Y-118075000I250000J0D01*
G01*
G37*
G04 #@! TD.AperFunction*
G04 #@! TA.AperFunction,SMDPad,CuDef*
G36*
G01*
X103450000Y-119900000D02*
X104350000Y-119900000D01*
G75*
G02*
X104600000Y-120150000I0J-250000D01*
G01*
X104600000Y-120675000D01*
G75*
G02*
X104350000Y-120925000I-250000J0D01*
G01*
X103450000Y-120925000D01*
G75*
G02*
X103200000Y-120675000I0J250000D01*
G01*
X103200000Y-120150000D01*
G75*
G02*
X103450000Y-119900000I250000J0D01*
G01*
G37*
G04 #@! TD.AperFunction*
G04 #@! TA.AperFunction,SMDPad,CuDef*
G36*
G01*
X103350000Y-98900000D02*
X103350000Y-99850000D01*
G75*
G02*
X103100000Y-100100000I-250000J0D01*
G01*
X102600000Y-100100000D01*
G75*
G02*
X102350000Y-99850000I0J250000D01*
G01*
X102350000Y-98900000D01*
G75*
G02*
X102600000Y-98650000I250000J0D01*
G01*
X103100000Y-98650000D01*
G75*
G02*
X103350000Y-98900000I0J-250000D01*
G01*
G37*
G04 #@! TD.AperFunction*
G04 #@! TA.AperFunction,SMDPad,CuDef*
G36*
G01*
X101450000Y-98900000D02*
X101450000Y-99850000D01*
G75*
G02*
X101200000Y-100100000I-250000J0D01*
G01*
X100700000Y-100100000D01*
G75*
G02*
X100450000Y-99850000I0J250000D01*
G01*
X100450000Y-98900000D01*
G75*
G02*
X100700000Y-98650000I250000J0D01*
G01*
X101200000Y-98650000D01*
G75*
G02*
X101450000Y-98900000I0J-250000D01*
G01*
G37*
G04 #@! TD.AperFunction*
G04 #@! TA.AperFunction,SMDPad,CuDef*
G36*
G01*
X100475000Y-101831250D02*
X100475000Y-100918750D01*
G75*
G02*
X100718750Y-100675000I243750J0D01*
G01*
X101206250Y-100675000D01*
G75*
G02*
X101450000Y-100918750I0J-243750D01*
G01*
X101450000Y-101831250D01*
G75*
G02*
X101206250Y-102075000I-243750J0D01*
G01*
X100718750Y-102075000D01*
G75*
G02*
X100475000Y-101831250I0J243750D01*
G01*
G37*
G04 #@! TD.AperFunction*
G04 #@! TA.AperFunction,SMDPad,CuDef*
G36*
G01*
X102350000Y-101831250D02*
X102350000Y-100918750D01*
G75*
G02*
X102593750Y-100675000I243750J0D01*
G01*
X103081250Y-100675000D01*
G75*
G02*
X103325000Y-100918750I0J-243750D01*
G01*
X103325000Y-101831250D01*
G75*
G02*
X103081250Y-102075000I-243750J0D01*
G01*
X102593750Y-102075000D01*
G75*
G02*
X102350000Y-101831250I0J243750D01*
G01*
G37*
G04 #@! TD.AperFunction*
G04 #@! TA.AperFunction,SMDPad,CuDef*
G36*
G01*
X100475000Y-103831250D02*
X100475000Y-102918750D01*
G75*
G02*
X100718750Y-102675000I243750J0D01*
G01*
X101206250Y-102675000D01*
G75*
G02*
X101450000Y-102918750I0J-243750D01*
G01*
X101450000Y-103831250D01*
G75*
G02*
X101206250Y-104075000I-243750J0D01*
G01*
X100718750Y-104075000D01*
G75*
G02*
X100475000Y-103831250I0J243750D01*
G01*
G37*
G04 #@! TD.AperFunction*
G04 #@! TA.AperFunction,SMDPad,CuDef*
G36*
G01*
X102350000Y-103831250D02*
X102350000Y-102918750D01*
G75*
G02*
X102593750Y-102675000I243750J0D01*
G01*
X103081250Y-102675000D01*
G75*
G02*
X103325000Y-102918750I0J-243750D01*
G01*
X103325000Y-103831250D01*
G75*
G02*
X103081250Y-104075000I-243750J0D01*
G01*
X102593750Y-104075000D01*
G75*
G02*
X102350000Y-103831250I0J243750D01*
G01*
G37*
G04 #@! TD.AperFunction*
G04 #@! TA.AperFunction,SMDPad,CuDef*
G36*
G01*
X119150000Y-107750000D02*
X119150000Y-106800000D01*
G75*
G02*
X119400000Y-106550000I250000J0D01*
G01*
X119900000Y-106550000D01*
G75*
G02*
X120150000Y-106800000I0J-250000D01*
G01*
X120150000Y-107750000D01*
G75*
G02*
X119900000Y-108000000I-250000J0D01*
G01*
X119400000Y-108000000D01*
G75*
G02*
X119150000Y-107750000I0J250000D01*
G01*
G37*
G04 #@! TD.AperFunction*
G04 #@! TA.AperFunction,SMDPad,CuDef*
G36*
G01*
X121050000Y-107750000D02*
X121050000Y-106800000D01*
G75*
G02*
X121300000Y-106550000I250000J0D01*
G01*
X121800000Y-106550000D01*
G75*
G02*
X122050000Y-106800000I0J-250000D01*
G01*
X122050000Y-107750000D01*
G75*
G02*
X121800000Y-108000000I-250000J0D01*
G01*
X121300000Y-108000000D01*
G75*
G02*
X121050000Y-107750000I0J250000D01*
G01*
G37*
G04 #@! TD.AperFunction*
G04 #@! TA.AperFunction,SMDPad,CuDef*
G36*
G01*
X118550000Y-120925000D02*
X117650000Y-120925000D01*
G75*
G02*
X117400000Y-120675000I0J250000D01*
G01*
X117400000Y-120150000D01*
G75*
G02*
X117650000Y-119900000I250000J0D01*
G01*
X118550000Y-119900000D01*
G75*
G02*
X118800000Y-120150000I0J-250000D01*
G01*
X118800000Y-120675000D01*
G75*
G02*
X118550000Y-120925000I-250000J0D01*
G01*
G37*
G04 #@! TD.AperFunction*
G04 #@! TA.AperFunction,SMDPad,CuDef*
G36*
G01*
X118550000Y-119100000D02*
X117650000Y-119100000D01*
G75*
G02*
X117400000Y-118850000I0J250000D01*
G01*
X117400000Y-118325000D01*
G75*
G02*
X117650000Y-118075000I250000J0D01*
G01*
X118550000Y-118075000D01*
G75*
G02*
X118800000Y-118325000I0J-250000D01*
G01*
X118800000Y-118850000D01*
G75*
G02*
X118550000Y-119100000I-250000J0D01*
G01*
G37*
G04 #@! TD.AperFunction*
G04 #@! TA.AperFunction,SMDPad,CuDef*
G36*
G01*
X117795000Y-109525000D02*
X118095000Y-109525000D01*
G75*
G02*
X118245000Y-109675000I0J-150000D01*
G01*
X118245000Y-111325000D01*
G75*
G02*
X118095000Y-111475000I-150000J0D01*
G01*
X117795000Y-111475000D01*
G75*
G02*
X117645000Y-111325000I0J150000D01*
G01*
X117645000Y-109675000D01*
G75*
G02*
X117795000Y-109525000I150000J0D01*
G01*
G37*
G04 #@! TD.AperFunction*
G04 #@! TA.AperFunction,SMDPad,CuDef*
G36*
G01*
X116525000Y-109525000D02*
X116825000Y-109525000D01*
G75*
G02*
X116975000Y-109675000I0J-150000D01*
G01*
X116975000Y-111325000D01*
G75*
G02*
X116825000Y-111475000I-150000J0D01*
G01*
X116525000Y-111475000D01*
G75*
G02*
X116375000Y-111325000I0J150000D01*
G01*
X116375000Y-109675000D01*
G75*
G02*
X116525000Y-109525000I150000J0D01*
G01*
G37*
G04 #@! TD.AperFunction*
G04 #@! TA.AperFunction,SMDPad,CuDef*
G36*
G01*
X115255000Y-109525000D02*
X115555000Y-109525000D01*
G75*
G02*
X115705000Y-109675000I0J-150000D01*
G01*
X115705000Y-111325000D01*
G75*
G02*
X115555000Y-111475000I-150000J0D01*
G01*
X115255000Y-111475000D01*
G75*
G02*
X115105000Y-111325000I0J150000D01*
G01*
X115105000Y-109675000D01*
G75*
G02*
X115255000Y-109525000I150000J0D01*
G01*
G37*
G04 #@! TD.AperFunction*
G04 #@! TA.AperFunction,SMDPad,CuDef*
G36*
G01*
X113985000Y-109525000D02*
X114285000Y-109525000D01*
G75*
G02*
X114435000Y-109675000I0J-150000D01*
G01*
X114435000Y-111325000D01*
G75*
G02*
X114285000Y-111475000I-150000J0D01*
G01*
X113985000Y-111475000D01*
G75*
G02*
X113835000Y-111325000I0J150000D01*
G01*
X113835000Y-109675000D01*
G75*
G02*
X113985000Y-109525000I150000J0D01*
G01*
G37*
G04 #@! TD.AperFunction*
G04 #@! TA.AperFunction,SMDPad,CuDef*
G36*
G01*
X112715000Y-109525000D02*
X113015000Y-109525000D01*
G75*
G02*
X113165000Y-109675000I0J-150000D01*
G01*
X113165000Y-111325000D01*
G75*
G02*
X113015000Y-111475000I-150000J0D01*
G01*
X112715000Y-111475000D01*
G75*
G02*
X112565000Y-111325000I0J150000D01*
G01*
X112565000Y-109675000D01*
G75*
G02*
X112715000Y-109525000I150000J0D01*
G01*
G37*
G04 #@! TD.AperFunction*
G04 #@! TA.AperFunction,SMDPad,CuDef*
G36*
G01*
X111445000Y-109525000D02*
X111745000Y-109525000D01*
G75*
G02*
X111895000Y-109675000I0J-150000D01*
G01*
X111895000Y-111325000D01*
G75*
G02*
X111745000Y-111475000I-150000J0D01*
G01*
X111445000Y-111475000D01*
G75*
G02*
X111295000Y-111325000I0J150000D01*
G01*
X111295000Y-109675000D01*
G75*
G02*
X111445000Y-109525000I150000J0D01*
G01*
G37*
G04 #@! TD.AperFunction*
G04 #@! TA.AperFunction,SMDPad,CuDef*
G36*
G01*
X110175000Y-109525000D02*
X110475000Y-109525000D01*
G75*
G02*
X110625000Y-109675000I0J-150000D01*
G01*
X110625000Y-111325000D01*
G75*
G02*
X110475000Y-111475000I-150000J0D01*
G01*
X110175000Y-111475000D01*
G75*
G02*
X110025000Y-111325000I0J150000D01*
G01*
X110025000Y-109675000D01*
G75*
G02*
X110175000Y-109525000I150000J0D01*
G01*
G37*
G04 #@! TD.AperFunction*
G04 #@! TA.AperFunction,SMDPad,CuDef*
G36*
G01*
X108905000Y-109525000D02*
X109205000Y-109525000D01*
G75*
G02*
X109355000Y-109675000I0J-150000D01*
G01*
X109355000Y-111325000D01*
G75*
G02*
X109205000Y-111475000I-150000J0D01*
G01*
X108905000Y-111475000D01*
G75*
G02*
X108755000Y-111325000I0J150000D01*
G01*
X108755000Y-109675000D01*
G75*
G02*
X108905000Y-109525000I150000J0D01*
G01*
G37*
G04 #@! TD.AperFunction*
G04 #@! TA.AperFunction,SMDPad,CuDef*
G36*
G01*
X108905000Y-114475000D02*
X109205000Y-114475000D01*
G75*
G02*
X109355000Y-114625000I0J-150000D01*
G01*
X109355000Y-116275000D01*
G75*
G02*
X109205000Y-116425000I-150000J0D01*
G01*
X108905000Y-116425000D01*
G75*
G02*
X108755000Y-116275000I0J150000D01*
G01*
X108755000Y-114625000D01*
G75*
G02*
X108905000Y-114475000I150000J0D01*
G01*
G37*
G04 #@! TD.AperFunction*
G04 #@! TA.AperFunction,SMDPad,CuDef*
G36*
G01*
X110175000Y-114475000D02*
X110475000Y-114475000D01*
G75*
G02*
X110625000Y-114625000I0J-150000D01*
G01*
X110625000Y-116275000D01*
G75*
G02*
X110475000Y-116425000I-150000J0D01*
G01*
X110175000Y-116425000D01*
G75*
G02*
X110025000Y-116275000I0J150000D01*
G01*
X110025000Y-114625000D01*
G75*
G02*
X110175000Y-114475000I150000J0D01*
G01*
G37*
G04 #@! TD.AperFunction*
G04 #@! TA.AperFunction,SMDPad,CuDef*
G36*
G01*
X111445000Y-114475000D02*
X111745000Y-114475000D01*
G75*
G02*
X111895000Y-114625000I0J-150000D01*
G01*
X111895000Y-116275000D01*
G75*
G02*
X111745000Y-116425000I-150000J0D01*
G01*
X111445000Y-116425000D01*
G75*
G02*
X111295000Y-116275000I0J150000D01*
G01*
X111295000Y-114625000D01*
G75*
G02*
X111445000Y-114475000I150000J0D01*
G01*
G37*
G04 #@! TD.AperFunction*
G04 #@! TA.AperFunction,SMDPad,CuDef*
G36*
G01*
X112715000Y-114475000D02*
X113015000Y-114475000D01*
G75*
G02*
X113165000Y-114625000I0J-150000D01*
G01*
X113165000Y-116275000D01*
G75*
G02*
X113015000Y-116425000I-150000J0D01*
G01*
X112715000Y-116425000D01*
G75*
G02*
X112565000Y-116275000I0J150000D01*
G01*
X112565000Y-114625000D01*
G75*
G02*
X112715000Y-114475000I150000J0D01*
G01*
G37*
G04 #@! TD.AperFunction*
G04 #@! TA.AperFunction,SMDPad,CuDef*
G36*
G01*
X113985000Y-114475000D02*
X114285000Y-114475000D01*
G75*
G02*
X114435000Y-114625000I0J-150000D01*
G01*
X114435000Y-116275000D01*
G75*
G02*
X114285000Y-116425000I-150000J0D01*
G01*
X113985000Y-116425000D01*
G75*
G02*
X113835000Y-116275000I0J150000D01*
G01*
X113835000Y-114625000D01*
G75*
G02*
X113985000Y-114475000I150000J0D01*
G01*
G37*
G04 #@! TD.AperFunction*
G04 #@! TA.AperFunction,SMDPad,CuDef*
G36*
G01*
X115255000Y-114475000D02*
X115555000Y-114475000D01*
G75*
G02*
X115705000Y-114625000I0J-150000D01*
G01*
X115705000Y-116275000D01*
G75*
G02*
X115555000Y-116425000I-150000J0D01*
G01*
X115255000Y-116425000D01*
G75*
G02*
X115105000Y-116275000I0J150000D01*
G01*
X115105000Y-114625000D01*
G75*
G02*
X115255000Y-114475000I150000J0D01*
G01*
G37*
G04 #@! TD.AperFunction*
G04 #@! TA.AperFunction,SMDPad,CuDef*
G36*
G01*
X116525000Y-114475000D02*
X116825000Y-114475000D01*
G75*
G02*
X116975000Y-114625000I0J-150000D01*
G01*
X116975000Y-116275000D01*
G75*
G02*
X116825000Y-116425000I-150000J0D01*
G01*
X116525000Y-116425000D01*
G75*
G02*
X116375000Y-116275000I0J150000D01*
G01*
X116375000Y-114625000D01*
G75*
G02*
X116525000Y-114475000I150000J0D01*
G01*
G37*
G04 #@! TD.AperFunction*
G04 #@! TA.AperFunction,SMDPad,CuDef*
G36*
G01*
X117795000Y-114475000D02*
X118095000Y-114475000D01*
G75*
G02*
X118245000Y-114625000I0J-150000D01*
G01*
X118245000Y-116275000D01*
G75*
G02*
X118095000Y-116425000I-150000J0D01*
G01*
X117795000Y-116425000D01*
G75*
G02*
X117645000Y-116275000I0J150000D01*
G01*
X117645000Y-114625000D01*
G75*
G02*
X117795000Y-114475000I150000J0D01*
G01*
G37*
G04 #@! TD.AperFunction*
G04 #@! TA.AperFunction,SMDPad,CuDef*
G36*
G01*
X115650000Y-107750000D02*
X115650000Y-106800000D01*
G75*
G02*
X115900000Y-106550000I250000J0D01*
G01*
X116400000Y-106550000D01*
G75*
G02*
X116650000Y-106800000I0J-250000D01*
G01*
X116650000Y-107750000D01*
G75*
G02*
X116400000Y-108000000I-250000J0D01*
G01*
X115900000Y-108000000D01*
G75*
G02*
X115650000Y-107750000I0J250000D01*
G01*
G37*
G04 #@! TD.AperFunction*
G04 #@! TA.AperFunction,SMDPad,CuDef*
G36*
G01*
X117550000Y-107750000D02*
X117550000Y-106800000D01*
G75*
G02*
X117800000Y-106550000I250000J0D01*
G01*
X118300000Y-106550000D01*
G75*
G02*
X118550000Y-106800000I0J-250000D01*
G01*
X118550000Y-107750000D01*
G75*
G02*
X118300000Y-108000000I-250000J0D01*
G01*
X117800000Y-108000000D01*
G75*
G02*
X117550000Y-107750000I0J250000D01*
G01*
G37*
G04 #@! TD.AperFunction*
G04 #@! TA.AperFunction,SMDPad,CuDef*
G36*
G01*
X103975000Y-99825000D02*
X103975000Y-98925000D01*
G75*
G02*
X104225000Y-98675000I250000J0D01*
G01*
X104750000Y-98675000D01*
G75*
G02*
X105000000Y-98925000I0J-250000D01*
G01*
X105000000Y-99825000D01*
G75*
G02*
X104750000Y-100075000I-250000J0D01*
G01*
X104225000Y-100075000D01*
G75*
G02*
X103975000Y-99825000I0J250000D01*
G01*
G37*
G04 #@! TD.AperFunction*
G04 #@! TA.AperFunction,SMDPad,CuDef*
G36*
G01*
X105800000Y-99825000D02*
X105800000Y-98925000D01*
G75*
G02*
X106050000Y-98675000I250000J0D01*
G01*
X106575000Y-98675000D01*
G75*
G02*
X106825000Y-98925000I0J-250000D01*
G01*
X106825000Y-99825000D01*
G75*
G02*
X106575000Y-100075000I-250000J0D01*
G01*
X106050000Y-100075000D01*
G75*
G02*
X105800000Y-99825000I0J250000D01*
G01*
G37*
G04 #@! TD.AperFunction*
D11*
X121550000Y-97575000D03*
X119450000Y-97575000D03*
G04 #@! TA.AperFunction,SMDPad,CuDef*
G36*
G01*
X103975000Y-103825000D02*
X103975000Y-102925000D01*
G75*
G02*
X104225000Y-102675000I250000J0D01*
G01*
X104750000Y-102675000D01*
G75*
G02*
X105000000Y-102925000I0J-250000D01*
G01*
X105000000Y-103825000D01*
G75*
G02*
X104750000Y-104075000I-250000J0D01*
G01*
X104225000Y-104075000D01*
G75*
G02*
X103975000Y-103825000I0J250000D01*
G01*
G37*
G04 #@! TD.AperFunction*
G04 #@! TA.AperFunction,SMDPad,CuDef*
G36*
G01*
X105800000Y-103825000D02*
X105800000Y-102925000D01*
G75*
G02*
X106050000Y-102675000I250000J0D01*
G01*
X106575000Y-102675000D01*
G75*
G02*
X106825000Y-102925000I0J-250000D01*
G01*
X106825000Y-103825000D01*
G75*
G02*
X106575000Y-104075000I-250000J0D01*
G01*
X106050000Y-104075000D01*
G75*
G02*
X105800000Y-103825000I0J250000D01*
G01*
G37*
G04 #@! TD.AperFunction*
G04 #@! TA.AperFunction,SMDPad,CuDef*
G36*
G01*
X103975000Y-97825000D02*
X103975000Y-96925000D01*
G75*
G02*
X104225000Y-96675000I250000J0D01*
G01*
X104750000Y-96675000D01*
G75*
G02*
X105000000Y-96925000I0J-250000D01*
G01*
X105000000Y-97825000D01*
G75*
G02*
X104750000Y-98075000I-250000J0D01*
G01*
X104225000Y-98075000D01*
G75*
G02*
X103975000Y-97825000I0J250000D01*
G01*
G37*
G04 #@! TD.AperFunction*
G04 #@! TA.AperFunction,SMDPad,CuDef*
G36*
G01*
X105800000Y-97825000D02*
X105800000Y-96925000D01*
G75*
G02*
X106050000Y-96675000I250000J0D01*
G01*
X106575000Y-96675000D01*
G75*
G02*
X106825000Y-96925000I0J-250000D01*
G01*
X106825000Y-97825000D01*
G75*
G02*
X106575000Y-98075000I-250000J0D01*
G01*
X106050000Y-98075000D01*
G75*
G02*
X105800000Y-97825000I0J250000D01*
G01*
G37*
G04 #@! TD.AperFunction*
G04 #@! TA.AperFunction,SMDPad,CuDef*
G36*
G01*
X122100000Y-103275000D02*
X122100000Y-103575000D01*
G75*
G02*
X121950000Y-103725000I-150000J0D01*
G01*
X120925000Y-103725000D01*
G75*
G02*
X120775000Y-103575000I0J150000D01*
G01*
X120775000Y-103275000D01*
G75*
G02*
X120925000Y-103125000I150000J0D01*
G01*
X121950000Y-103125000D01*
G75*
G02*
X122100000Y-103275000I0J-150000D01*
G01*
G37*
G04 #@! TD.AperFunction*
G04 #@! TA.AperFunction,SMDPad,CuDef*
G36*
G01*
X122100000Y-102325000D02*
X122100000Y-102625000D01*
G75*
G02*
X121950000Y-102775000I-150000J0D01*
G01*
X120925000Y-102775000D01*
G75*
G02*
X120775000Y-102625000I0J150000D01*
G01*
X120775000Y-102325000D01*
G75*
G02*
X120925000Y-102175000I150000J0D01*
G01*
X121950000Y-102175000D01*
G75*
G02*
X122100000Y-102325000I0J-150000D01*
G01*
G37*
G04 #@! TD.AperFunction*
G04 #@! TA.AperFunction,SMDPad,CuDef*
G36*
G01*
X122100000Y-101375000D02*
X122100000Y-101675000D01*
G75*
G02*
X121950000Y-101825000I-150000J0D01*
G01*
X120925000Y-101825000D01*
G75*
G02*
X120775000Y-101675000I0J150000D01*
G01*
X120775000Y-101375000D01*
G75*
G02*
X120925000Y-101225000I150000J0D01*
G01*
X121950000Y-101225000D01*
G75*
G02*
X122100000Y-101375000I0J-150000D01*
G01*
G37*
G04 #@! TD.AperFunction*
G04 #@! TA.AperFunction,SMDPad,CuDef*
G36*
G01*
X119825000Y-101375000D02*
X119825000Y-101675000D01*
G75*
G02*
X119675000Y-101825000I-150000J0D01*
G01*
X118650000Y-101825000D01*
G75*
G02*
X118500000Y-101675000I0J150000D01*
G01*
X118500000Y-101375000D01*
G75*
G02*
X118650000Y-101225000I150000J0D01*
G01*
X119675000Y-101225000D01*
G75*
G02*
X119825000Y-101375000I0J-150000D01*
G01*
G37*
G04 #@! TD.AperFunction*
G04 #@! TA.AperFunction,SMDPad,CuDef*
G36*
G01*
X119825000Y-103275000D02*
X119825000Y-103575000D01*
G75*
G02*
X119675000Y-103725000I-150000J0D01*
G01*
X118650000Y-103725000D01*
G75*
G02*
X118500000Y-103575000I0J150000D01*
G01*
X118500000Y-103275000D01*
G75*
G02*
X118650000Y-103125000I150000J0D01*
G01*
X119675000Y-103125000D01*
G75*
G02*
X119825000Y-103275000I0J-150000D01*
G01*
G37*
G04 #@! TD.AperFunction*
G04 #@! TA.AperFunction,SMDPad,CuDef*
G36*
G01*
X103975000Y-107825000D02*
X103975000Y-106925000D01*
G75*
G02*
X104225000Y-106675000I250000J0D01*
G01*
X104750000Y-106675000D01*
G75*
G02*
X105000000Y-106925000I0J-250000D01*
G01*
X105000000Y-107825000D01*
G75*
G02*
X104750000Y-108075000I-250000J0D01*
G01*
X104225000Y-108075000D01*
G75*
G02*
X103975000Y-107825000I0J250000D01*
G01*
G37*
G04 #@! TD.AperFunction*
G04 #@! TA.AperFunction,SMDPad,CuDef*
G36*
G01*
X105800000Y-107825000D02*
X105800000Y-106925000D01*
G75*
G02*
X106050000Y-106675000I250000J0D01*
G01*
X106575000Y-106675000D01*
G75*
G02*
X106825000Y-106925000I0J-250000D01*
G01*
X106825000Y-107825000D01*
G75*
G02*
X106575000Y-108075000I-250000J0D01*
G01*
X106050000Y-108075000D01*
G75*
G02*
X105800000Y-107825000I0J250000D01*
G01*
G37*
G04 #@! TD.AperFunction*
G04 #@! TA.AperFunction,SMDPad,CuDef*
G36*
G01*
X114800000Y-107375000D02*
X114800000Y-107675000D01*
G75*
G02*
X114650000Y-107825000I-150000J0D01*
G01*
X113625000Y-107825000D01*
G75*
G02*
X113475000Y-107675000I0J150000D01*
G01*
X113475000Y-107375000D01*
G75*
G02*
X113625000Y-107225000I150000J0D01*
G01*
X114650000Y-107225000D01*
G75*
G02*
X114800000Y-107375000I0J-150000D01*
G01*
G37*
G04 #@! TD.AperFunction*
G04 #@! TA.AperFunction,SMDPad,CuDef*
G36*
G01*
X114800000Y-106425000D02*
X114800000Y-106725000D01*
G75*
G02*
X114650000Y-106875000I-150000J0D01*
G01*
X113625000Y-106875000D01*
G75*
G02*
X113475000Y-106725000I0J150000D01*
G01*
X113475000Y-106425000D01*
G75*
G02*
X113625000Y-106275000I150000J0D01*
G01*
X114650000Y-106275000D01*
G75*
G02*
X114800000Y-106425000I0J-150000D01*
G01*
G37*
G04 #@! TD.AperFunction*
G04 #@! TA.AperFunction,SMDPad,CuDef*
G36*
G01*
X114800000Y-105475000D02*
X114800000Y-105775000D01*
G75*
G02*
X114650000Y-105925000I-150000J0D01*
G01*
X113625000Y-105925000D01*
G75*
G02*
X113475000Y-105775000I0J150000D01*
G01*
X113475000Y-105475000D01*
G75*
G02*
X113625000Y-105325000I150000J0D01*
G01*
X114650000Y-105325000D01*
G75*
G02*
X114800000Y-105475000I0J-150000D01*
G01*
G37*
G04 #@! TD.AperFunction*
G04 #@! TA.AperFunction,SMDPad,CuDef*
G36*
G01*
X112525000Y-105475000D02*
X112525000Y-105775000D01*
G75*
G02*
X112375000Y-105925000I-150000J0D01*
G01*
X111350000Y-105925000D01*
G75*
G02*
X111200000Y-105775000I0J150000D01*
G01*
X111200000Y-105475000D01*
G75*
G02*
X111350000Y-105325000I150000J0D01*
G01*
X112375000Y-105325000D01*
G75*
G02*
X112525000Y-105475000I0J-150000D01*
G01*
G37*
G04 #@! TD.AperFunction*
G04 #@! TA.AperFunction,SMDPad,CuDef*
G36*
G01*
X112525000Y-106425000D02*
X112525000Y-106725000D01*
G75*
G02*
X112375000Y-106875000I-150000J0D01*
G01*
X111350000Y-106875000D01*
G75*
G02*
X111200000Y-106725000I0J150000D01*
G01*
X111200000Y-106425000D01*
G75*
G02*
X111350000Y-106275000I150000J0D01*
G01*
X112375000Y-106275000D01*
G75*
G02*
X112525000Y-106425000I0J-150000D01*
G01*
G37*
G04 #@! TD.AperFunction*
G04 #@! TA.AperFunction,SMDPad,CuDef*
G36*
G01*
X112525000Y-107375000D02*
X112525000Y-107675000D01*
G75*
G02*
X112375000Y-107825000I-150000J0D01*
G01*
X111350000Y-107825000D01*
G75*
G02*
X111200000Y-107675000I0J150000D01*
G01*
X111200000Y-107375000D01*
G75*
G02*
X111350000Y-107225000I150000J0D01*
G01*
X112375000Y-107225000D01*
G75*
G02*
X112525000Y-107375000I0J-150000D01*
G01*
G37*
G04 #@! TD.AperFunction*
D12*
X119770000Y-115225000D03*
X119770000Y-112225000D03*
X119770000Y-110725000D03*
D13*
X120420000Y-116625000D03*
X120420000Y-109325000D03*
X122630000Y-116625000D03*
X122630000Y-109325000D03*
G04 #@! TA.AperFunction,SMDPad,CuDef*
G36*
G01*
X100475000Y-107831250D02*
X100475000Y-106918750D01*
G75*
G02*
X100718750Y-106675000I243750J0D01*
G01*
X101206250Y-106675000D01*
G75*
G02*
X101450000Y-106918750I0J-243750D01*
G01*
X101450000Y-107831250D01*
G75*
G02*
X101206250Y-108075000I-243750J0D01*
G01*
X100718750Y-108075000D01*
G75*
G02*
X100475000Y-107831250I0J243750D01*
G01*
G37*
G04 #@! TD.AperFunction*
G04 #@! TA.AperFunction,SMDPad,CuDef*
G36*
G01*
X102350000Y-107831250D02*
X102350000Y-106918750D01*
G75*
G02*
X102593750Y-106675000I243750J0D01*
G01*
X103081250Y-106675000D01*
G75*
G02*
X103325000Y-106918750I0J-243750D01*
G01*
X103325000Y-107831250D01*
G75*
G02*
X103081250Y-108075000I-243750J0D01*
G01*
X102593750Y-108075000D01*
G75*
G02*
X102350000Y-107831250I0J243750D01*
G01*
G37*
G04 #@! TD.AperFunction*
G04 #@! TA.AperFunction,SMDPad,CuDef*
G36*
G01*
X110350000Y-104900000D02*
X110350000Y-105850000D01*
G75*
G02*
X110100000Y-106100000I-250000J0D01*
G01*
X109600000Y-106100000D01*
G75*
G02*
X109350000Y-105850000I0J250000D01*
G01*
X109350000Y-104900000D01*
G75*
G02*
X109600000Y-104650000I250000J0D01*
G01*
X110100000Y-104650000D01*
G75*
G02*
X110350000Y-104900000I0J-250000D01*
G01*
G37*
G04 #@! TD.AperFunction*
G04 #@! TA.AperFunction,SMDPad,CuDef*
G36*
G01*
X108450000Y-104900000D02*
X108450000Y-105850000D01*
G75*
G02*
X108200000Y-106100000I-250000J0D01*
G01*
X107700000Y-106100000D01*
G75*
G02*
X107450000Y-105850000I0J250000D01*
G01*
X107450000Y-104900000D01*
G75*
G02*
X107700000Y-104650000I250000J0D01*
G01*
X108200000Y-104650000D01*
G75*
G02*
X108450000Y-104900000I0J-250000D01*
G01*
G37*
G04 #@! TD.AperFunction*
G04 #@! TA.AperFunction,SMDPad,CuDef*
G36*
G01*
X100475000Y-105831250D02*
X100475000Y-104918750D01*
G75*
G02*
X100718750Y-104675000I243750J0D01*
G01*
X101206250Y-104675000D01*
G75*
G02*
X101450000Y-104918750I0J-243750D01*
G01*
X101450000Y-105831250D01*
G75*
G02*
X101206250Y-106075000I-243750J0D01*
G01*
X100718750Y-106075000D01*
G75*
G02*
X100475000Y-105831250I0J243750D01*
G01*
G37*
G04 #@! TD.AperFunction*
G04 #@! TA.AperFunction,SMDPad,CuDef*
G36*
G01*
X102350000Y-105831250D02*
X102350000Y-104918750D01*
G75*
G02*
X102593750Y-104675000I243750J0D01*
G01*
X103081250Y-104675000D01*
G75*
G02*
X103325000Y-104918750I0J-243750D01*
G01*
X103325000Y-105831250D01*
G75*
G02*
X103081250Y-106075000I-243750J0D01*
G01*
X102593750Y-106075000D01*
G75*
G02*
X102350000Y-105831250I0J243750D01*
G01*
G37*
G04 #@! TD.AperFunction*
G04 #@! TA.AperFunction,SMDPad,CuDef*
G36*
G01*
X103975000Y-101825000D02*
X103975000Y-100925000D01*
G75*
G02*
X104225000Y-100675000I250000J0D01*
G01*
X104750000Y-100675000D01*
G75*
G02*
X105000000Y-100925000I0J-250000D01*
G01*
X105000000Y-101825000D01*
G75*
G02*
X104750000Y-102075000I-250000J0D01*
G01*
X104225000Y-102075000D01*
G75*
G02*
X103975000Y-101825000I0J250000D01*
G01*
G37*
G04 #@! TD.AperFunction*
G04 #@! TA.AperFunction,SMDPad,CuDef*
G36*
G01*
X105800000Y-101825000D02*
X105800000Y-100925000D01*
G75*
G02*
X106050000Y-100675000I250000J0D01*
G01*
X106575000Y-100675000D01*
G75*
G02*
X106825000Y-100925000I0J-250000D01*
G01*
X106825000Y-101825000D01*
G75*
G02*
X106575000Y-102075000I-250000J0D01*
G01*
X106050000Y-102075000D01*
G75*
G02*
X105800000Y-101825000I0J250000D01*
G01*
G37*
G04 #@! TD.AperFunction*
D14*
X115750000Y-103020000D03*
X114950000Y-103020000D03*
D15*
X113750000Y-103020000D03*
X112750000Y-103020000D03*
X112250000Y-103020000D03*
X111250000Y-103020000D03*
D14*
X110050000Y-103020000D03*
X109250000Y-103020000D03*
X109250000Y-103020000D03*
X110050000Y-103020000D03*
D15*
X110750000Y-103020000D03*
X111750000Y-103020000D03*
X113250000Y-103020000D03*
X114250000Y-103020000D03*
D14*
X114950000Y-103020000D03*
X115750000Y-103020000D03*
D16*
X116820000Y-102105000D03*
D17*
X108180000Y-97925000D03*
X116820000Y-97925000D03*
D16*
X108180000Y-102105000D03*
G04 #@! TA.AperFunction,SMDPad,CuDef*
G36*
G01*
X101250000Y-118075000D02*
X102150000Y-118075000D01*
G75*
G02*
X102400000Y-118325000I0J-250000D01*
G01*
X102400000Y-118850000D01*
G75*
G02*
X102150000Y-119100000I-250000J0D01*
G01*
X101250000Y-119100000D01*
G75*
G02*
X101000000Y-118850000I0J250000D01*
G01*
X101000000Y-118325000D01*
G75*
G02*
X101250000Y-118075000I250000J0D01*
G01*
G37*
G04 #@! TD.AperFunction*
G04 #@! TA.AperFunction,SMDPad,CuDef*
G36*
G01*
X101250000Y-119900000D02*
X102150000Y-119900000D01*
G75*
G02*
X102400000Y-120150000I0J-250000D01*
G01*
X102400000Y-120675000D01*
G75*
G02*
X102150000Y-120925000I-250000J0D01*
G01*
X101250000Y-120925000D01*
G75*
G02*
X101000000Y-120675000I0J250000D01*
G01*
X101000000Y-120150000D01*
G75*
G02*
X101250000Y-119900000I250000J0D01*
G01*
G37*
G04 #@! TD.AperFunction*
G04 #@! TA.AperFunction,SMDPad,CuDef*
G36*
G01*
X122575000Y-120950000D02*
X121625000Y-120950000D01*
G75*
G02*
X121375000Y-120700000I0J250000D01*
G01*
X121375000Y-120200000D01*
G75*
G02*
X121625000Y-119950000I250000J0D01*
G01*
X122575000Y-119950000D01*
G75*
G02*
X122825000Y-120200000I0J-250000D01*
G01*
X122825000Y-120700000D01*
G75*
G02*
X122575000Y-120950000I-250000J0D01*
G01*
G37*
G04 #@! TD.AperFunction*
G04 #@! TA.AperFunction,SMDPad,CuDef*
G36*
G01*
X122575000Y-119050000D02*
X121625000Y-119050000D01*
G75*
G02*
X121375000Y-118800000I0J250000D01*
G01*
X121375000Y-118300000D01*
G75*
G02*
X121625000Y-118050000I250000J0D01*
G01*
X122575000Y-118050000D01*
G75*
G02*
X122825000Y-118300000I0J-250000D01*
G01*
X122825000Y-118800000D01*
G75*
G02*
X122575000Y-119050000I-250000J0D01*
G01*
G37*
G04 #@! TD.AperFunction*
G04 #@! TA.AperFunction,SMDPad,CuDef*
G36*
G01*
X103200000Y-114150000D02*
X102600000Y-114150000D01*
G75*
G02*
X102500000Y-114050000I0J100000D01*
G01*
X102500000Y-113350000D01*
G75*
G02*
X102600000Y-113250000I100000J0D01*
G01*
X103200000Y-113250000D01*
G75*
G02*
X103300000Y-113350000I0J-100000D01*
G01*
X103300000Y-114050000D01*
G75*
G02*
X103200000Y-114150000I-100000J0D01*
G01*
G37*
G04 #@! TD.AperFunction*
G04 #@! TA.AperFunction,SMDPad,CuDef*
G36*
G01*
X103200000Y-110750000D02*
X102600000Y-110750000D01*
G75*
G02*
X102500000Y-110650000I0J100000D01*
G01*
X102500000Y-109950000D01*
G75*
G02*
X102600000Y-109850000I100000J0D01*
G01*
X103200000Y-109850000D01*
G75*
G02*
X103300000Y-109950000I0J-100000D01*
G01*
X103300000Y-110650000D01*
G75*
G02*
X103200000Y-110750000I-100000J0D01*
G01*
G37*
G04 #@! TD.AperFunction*
G04 #@! TA.AperFunction,SMDPad,CuDef*
G36*
G01*
X101500000Y-110000000D02*
X100500000Y-110000000D01*
G75*
G02*
X100400000Y-109900000I0J100000D01*
G01*
X100400000Y-109500000D01*
G75*
G02*
X100500000Y-109400000I100000J0D01*
G01*
X101500000Y-109400000D01*
G75*
G02*
X101600000Y-109500000I0J-100000D01*
G01*
X101600000Y-109900000D01*
G75*
G02*
X101500000Y-110000000I-100000J0D01*
G01*
G37*
G04 #@! TD.AperFunction*
G04 #@! TA.AperFunction,SMDPad,CuDef*
G36*
G01*
X101500000Y-114600000D02*
X100500000Y-114600000D01*
G75*
G02*
X100400000Y-114500000I0J100000D01*
G01*
X100400000Y-114100000D01*
G75*
G02*
X100500000Y-114000000I100000J0D01*
G01*
X101500000Y-114000000D01*
G75*
G02*
X101600000Y-114100000I0J-100000D01*
G01*
X101600000Y-114500000D01*
G75*
G02*
X101500000Y-114600000I-100000J0D01*
G01*
G37*
G04 #@! TD.AperFunction*
G04 #@! TA.AperFunction,SMDPad,CuDef*
G36*
G01*
X103975000Y-105825000D02*
X103975000Y-104925000D01*
G75*
G02*
X104225000Y-104675000I250000J0D01*
G01*
X104750000Y-104675000D01*
G75*
G02*
X105000000Y-104925000I0J-250000D01*
G01*
X105000000Y-105825000D01*
G75*
G02*
X104750000Y-106075000I-250000J0D01*
G01*
X104225000Y-106075000D01*
G75*
G02*
X103975000Y-105825000I0J250000D01*
G01*
G37*
G04 #@! TD.AperFunction*
G04 #@! TA.AperFunction,SMDPad,CuDef*
G36*
G01*
X105800000Y-105825000D02*
X105800000Y-104925000D01*
G75*
G02*
X106050000Y-104675000I250000J0D01*
G01*
X106575000Y-104675000D01*
G75*
G02*
X106825000Y-104925000I0J-250000D01*
G01*
X106825000Y-105825000D01*
G75*
G02*
X106575000Y-106075000I-250000J0D01*
G01*
X106050000Y-106075000D01*
G75*
G02*
X105800000Y-105825000I0J250000D01*
G01*
G37*
G04 #@! TD.AperFunction*
G04 #@! TA.AperFunction,SMDPad,CuDef*
G36*
G01*
X108550000Y-120925000D02*
X107650000Y-120925000D01*
G75*
G02*
X107400000Y-120675000I0J250000D01*
G01*
X107400000Y-120150000D01*
G75*
G02*
X107650000Y-119900000I250000J0D01*
G01*
X108550000Y-119900000D01*
G75*
G02*
X108800000Y-120150000I0J-250000D01*
G01*
X108800000Y-120675000D01*
G75*
G02*
X108550000Y-120925000I-250000J0D01*
G01*
G37*
G04 #@! TD.AperFunction*
G04 #@! TA.AperFunction,SMDPad,CuDef*
G36*
G01*
X108550000Y-119100000D02*
X107650000Y-119100000D01*
G75*
G02*
X107400000Y-118850000I0J250000D01*
G01*
X107400000Y-118325000D01*
G75*
G02*
X107650000Y-118075000I250000J0D01*
G01*
X108550000Y-118075000D01*
G75*
G02*
X108800000Y-118325000I0J-250000D01*
G01*
X108800000Y-118850000D01*
G75*
G02*
X108550000Y-119100000I-250000J0D01*
G01*
G37*
G04 #@! TD.AperFunction*
G04 #@! TA.AperFunction,SMDPad,CuDef*
G36*
G01*
X119650000Y-118075000D02*
X120550000Y-118075000D01*
G75*
G02*
X120800000Y-118325000I0J-250000D01*
G01*
X120800000Y-118850000D01*
G75*
G02*
X120550000Y-119100000I-250000J0D01*
G01*
X119650000Y-119100000D01*
G75*
G02*
X119400000Y-118850000I0J250000D01*
G01*
X119400000Y-118325000D01*
G75*
G02*
X119650000Y-118075000I250000J0D01*
G01*
G37*
G04 #@! TD.AperFunction*
G04 #@! TA.AperFunction,SMDPad,CuDef*
G36*
G01*
X119650000Y-119900000D02*
X120550000Y-119900000D01*
G75*
G02*
X120800000Y-120150000I0J-250000D01*
G01*
X120800000Y-120675000D01*
G75*
G02*
X120550000Y-120925000I-250000J0D01*
G01*
X119650000Y-120925000D01*
G75*
G02*
X119400000Y-120675000I0J250000D01*
G01*
X119400000Y-120150000D01*
G75*
G02*
X119650000Y-119900000I250000J0D01*
G01*
G37*
G04 #@! TD.AperFunction*
G04 #@! TA.AperFunction,SMDPad,CuDef*
G36*
G01*
X106550000Y-120925000D02*
X105650000Y-120925000D01*
G75*
G02*
X105400000Y-120675000I0J250000D01*
G01*
X105400000Y-120150000D01*
G75*
G02*
X105650000Y-119900000I250000J0D01*
G01*
X106550000Y-119900000D01*
G75*
G02*
X106800000Y-120150000I0J-250000D01*
G01*
X106800000Y-120675000D01*
G75*
G02*
X106550000Y-120925000I-250000J0D01*
G01*
G37*
G04 #@! TD.AperFunction*
G04 #@! TA.AperFunction,SMDPad,CuDef*
G36*
G01*
X106550000Y-119100000D02*
X105650000Y-119100000D01*
G75*
G02*
X105400000Y-118850000I0J250000D01*
G01*
X105400000Y-118325000D01*
G75*
G02*
X105650000Y-118075000I250000J0D01*
G01*
X106550000Y-118075000D01*
G75*
G02*
X106800000Y-118325000I0J-250000D01*
G01*
X106800000Y-118850000D01*
G75*
G02*
X106550000Y-119100000I-250000J0D01*
G01*
G37*
G04 #@! TD.AperFunction*
G04 #@! TA.AperFunction,SMDPad,CuDef*
G36*
G01*
X116550000Y-120925000D02*
X115650000Y-120925000D01*
G75*
G02*
X115400000Y-120675000I0J250000D01*
G01*
X115400000Y-120150000D01*
G75*
G02*
X115650000Y-119900000I250000J0D01*
G01*
X116550000Y-119900000D01*
G75*
G02*
X116800000Y-120150000I0J-250000D01*
G01*
X116800000Y-120675000D01*
G75*
G02*
X116550000Y-120925000I-250000J0D01*
G01*
G37*
G04 #@! TD.AperFunction*
G04 #@! TA.AperFunction,SMDPad,CuDef*
G36*
G01*
X116550000Y-119100000D02*
X115650000Y-119100000D01*
G75*
G02*
X115400000Y-118850000I0J250000D01*
G01*
X115400000Y-118325000D01*
G75*
G02*
X115650000Y-118075000I250000J0D01*
G01*
X116550000Y-118075000D01*
G75*
G02*
X116800000Y-118325000I0J-250000D01*
G01*
X116800000Y-118850000D01*
G75*
G02*
X116550000Y-119100000I-250000J0D01*
G01*
G37*
G04 #@! TD.AperFunction*
D18*
X103600000Y-117050000D03*
X103600000Y-115750000D03*
X101600000Y-116400000D03*
X105100000Y-115750000D03*
X105100000Y-117050000D03*
X107100000Y-116400000D03*
G04 #@! TA.AperFunction,SMDPad,CuDef*
G36*
G01*
X122050000Y-99200000D02*
X122050000Y-100150000D01*
G75*
G02*
X121800000Y-100400000I-250000J0D01*
G01*
X121300000Y-100400000D01*
G75*
G02*
X121050000Y-100150000I0J250000D01*
G01*
X121050000Y-99200000D01*
G75*
G02*
X121300000Y-98950000I250000J0D01*
G01*
X121800000Y-98950000D01*
G75*
G02*
X122050000Y-99200000I0J-250000D01*
G01*
G37*
G04 #@! TD.AperFunction*
G04 #@! TA.AperFunction,SMDPad,CuDef*
G36*
G01*
X120150000Y-99200000D02*
X120150000Y-100150000D01*
G75*
G02*
X119900000Y-100400000I-250000J0D01*
G01*
X119400000Y-100400000D01*
G75*
G02*
X119150000Y-100150000I0J250000D01*
G01*
X119150000Y-99200000D01*
G75*
G02*
X119400000Y-98950000I250000J0D01*
G01*
X119900000Y-98950000D01*
G75*
G02*
X120150000Y-99200000I0J-250000D01*
G01*
G37*
G04 #@! TD.AperFunction*
G04 #@! TA.AperFunction,SMDPad,CuDef*
G36*
G01*
X119150000Y-105750000D02*
X119150000Y-104800000D01*
G75*
G02*
X119400000Y-104550000I250000J0D01*
G01*
X119900000Y-104550000D01*
G75*
G02*
X120150000Y-104800000I0J-250000D01*
G01*
X120150000Y-105750000D01*
G75*
G02*
X119900000Y-106000000I-250000J0D01*
G01*
X119400000Y-106000000D01*
G75*
G02*
X119150000Y-105750000I0J250000D01*
G01*
G37*
G04 #@! TD.AperFunction*
G04 #@! TA.AperFunction,SMDPad,CuDef*
G36*
G01*
X121050000Y-105750000D02*
X121050000Y-104800000D01*
G75*
G02*
X121300000Y-104550000I250000J0D01*
G01*
X121800000Y-104550000D01*
G75*
G02*
X122050000Y-104800000I0J-250000D01*
G01*
X122050000Y-105750000D01*
G75*
G02*
X121800000Y-106000000I-250000J0D01*
G01*
X121300000Y-106000000D01*
G75*
G02*
X121050000Y-105750000I0J250000D01*
G01*
G37*
G04 #@! TD.AperFunction*
G04 #@! TA.AperFunction,ConnectorPad*
G36*
G01*
X102850000Y-126050000D02*
X101450000Y-126050000D01*
G75*
G02*
X101150000Y-125750000I0J300000D01*
G01*
X101150000Y-123350000D01*
G75*
G02*
X101450000Y-123050000I300000J0D01*
G01*
X102850000Y-123050000D01*
G75*
G02*
X103150000Y-123350000I0J-300000D01*
G01*
X103150000Y-125750000D01*
G75*
G02*
X102850000Y-126050000I-300000J0D01*
G01*
G37*
G04 #@! TD.AperFunction*
G04 #@! TA.AperFunction,ConnectorPad*
G36*
G01*
X105390000Y-126050000D02*
X103990000Y-126050000D01*
G75*
G02*
X103690000Y-125750000I0J300000D01*
G01*
X103690000Y-123350000D01*
G75*
G02*
X103990000Y-123050000I300000J0D01*
G01*
X105390000Y-123050000D01*
G75*
G02*
X105690000Y-123350000I0J-300000D01*
G01*
X105690000Y-125750000D01*
G75*
G02*
X105390000Y-126050000I-300000J0D01*
G01*
G37*
G04 #@! TD.AperFunction*
G04 #@! TA.AperFunction,ConnectorPad*
G36*
G01*
X107930000Y-126050000D02*
X106530000Y-126050000D01*
G75*
G02*
X106230000Y-125750000I0J300000D01*
G01*
X106230000Y-123350000D01*
G75*
G02*
X106530000Y-123050000I300000J0D01*
G01*
X107930000Y-123050000D01*
G75*
G02*
X108230000Y-123350000I0J-300000D01*
G01*
X108230000Y-125750000D01*
G75*
G02*
X107930000Y-126050000I-300000J0D01*
G01*
G37*
G04 #@! TD.AperFunction*
G04 #@! TA.AperFunction,ConnectorPad*
G36*
G01*
X110470000Y-126050000D02*
X109070000Y-126050000D01*
G75*
G02*
X108770000Y-125750000I0J300000D01*
G01*
X108770000Y-123350000D01*
G75*
G02*
X109070000Y-123050000I300000J0D01*
G01*
X110470000Y-123050000D01*
G75*
G02*
X110770000Y-123350000I0J-300000D01*
G01*
X110770000Y-125750000D01*
G75*
G02*
X110470000Y-126050000I-300000J0D01*
G01*
G37*
G04 #@! TD.AperFunction*
G04 #@! TA.AperFunction,ConnectorPad*
G36*
G01*
X113010000Y-126050000D02*
X111610000Y-126050000D01*
G75*
G02*
X111310000Y-125750000I0J300000D01*
G01*
X111310000Y-123350000D01*
G75*
G02*
X111610000Y-123050000I300000J0D01*
G01*
X113010000Y-123050000D01*
G75*
G02*
X113310000Y-123350000I0J-300000D01*
G01*
X113310000Y-125750000D01*
G75*
G02*
X113010000Y-126050000I-300000J0D01*
G01*
G37*
G04 #@! TD.AperFunction*
G04 #@! TA.AperFunction,ConnectorPad*
G36*
G01*
X115550000Y-126050000D02*
X114150000Y-126050000D01*
G75*
G02*
X113850000Y-125750000I0J300000D01*
G01*
X113850000Y-123350000D01*
G75*
G02*
X114150000Y-123050000I300000J0D01*
G01*
X115550000Y-123050000D01*
G75*
G02*
X115850000Y-123350000I0J-300000D01*
G01*
X115850000Y-125750000D01*
G75*
G02*
X115550000Y-126050000I-300000J0D01*
G01*
G37*
G04 #@! TD.AperFunction*
G04 #@! TA.AperFunction,ConnectorPad*
G36*
G01*
X118090000Y-126050000D02*
X116690000Y-126050000D01*
G75*
G02*
X116390000Y-125750000I0J300000D01*
G01*
X116390000Y-123350000D01*
G75*
G02*
X116690000Y-123050000I300000J0D01*
G01*
X118090000Y-123050000D01*
G75*
G02*
X118390000Y-123350000I0J-300000D01*
G01*
X118390000Y-125750000D01*
G75*
G02*
X118090000Y-126050000I-300000J0D01*
G01*
G37*
G04 #@! TD.AperFunction*
G04 #@! TA.AperFunction,ConnectorPad*
G36*
G01*
X120630000Y-126050000D02*
X119230000Y-126050000D01*
G75*
G02*
X118930000Y-125750000I0J300000D01*
G01*
X118930000Y-123350000D01*
G75*
G02*
X119230000Y-123050000I300000J0D01*
G01*
X120630000Y-123050000D01*
G75*
G02*
X120930000Y-123350000I0J-300000D01*
G01*
X120930000Y-125750000D01*
G75*
G02*
X120630000Y-126050000I-300000J0D01*
G01*
G37*
G04 #@! TD.AperFunction*
G04 #@! TA.AperFunction,SMDPad,CuDef*
G36*
G01*
X114550000Y-120925000D02*
X113650000Y-120925000D01*
G75*
G02*
X113400000Y-120675000I0J250000D01*
G01*
X113400000Y-120150000D01*
G75*
G02*
X113650000Y-119900000I250000J0D01*
G01*
X114550000Y-119900000D01*
G75*
G02*
X114800000Y-120150000I0J-250000D01*
G01*
X114800000Y-120675000D01*
G75*
G02*
X114550000Y-120925000I-250000J0D01*
G01*
G37*
G04 #@! TD.AperFunction*
G04 #@! TA.AperFunction,SMDPad,CuDef*
G36*
G01*
X114550000Y-119100000D02*
X113650000Y-119100000D01*
G75*
G02*
X113400000Y-118850000I0J250000D01*
G01*
X113400000Y-118325000D01*
G75*
G02*
X113650000Y-118075000I250000J0D01*
G01*
X114550000Y-118075000D01*
G75*
G02*
X114800000Y-118325000I0J-250000D01*
G01*
X114800000Y-118850000D01*
G75*
G02*
X114550000Y-119100000I-250000J0D01*
G01*
G37*
G04 #@! TD.AperFunction*
D19*
X109487500Y-119787500D03*
X117900000Y-111800000D03*
X100962500Y-106412500D03*
X105200000Y-98387500D03*
X120420000Y-117780000D03*
X101700000Y-98500000D03*
X117945000Y-108330000D03*
X122700000Y-109125000D03*
X108200000Y-103900000D03*
X121100000Y-106275000D03*
X122000000Y-106275000D03*
X115850000Y-104125000D03*
X120050000Y-100725000D03*
X102200000Y-110000000D03*
X122700000Y-116825000D03*
X114500000Y-106575000D03*
X122100000Y-117700000D03*
X118601472Y-102475000D03*
X109050000Y-103850000D03*
X116950736Y-104125736D03*
X103500000Y-98400000D03*
X105543726Y-100443779D03*
X119512500Y-114212500D03*
X121300000Y-119700000D03*
X106312500Y-108562500D03*
X119400000Y-116700000D03*
X112400000Y-99224500D03*
X112417763Y-101246242D03*
X111500000Y-99774500D03*
X111549216Y-101747850D03*
X104700000Y-121700000D03*
X106200000Y-121700000D03*
X115200000Y-121700000D03*
X114950000Y-117600000D03*
X117200000Y-121700000D03*
X119400000Y-121700000D03*
X107100000Y-114200500D03*
X107100000Y-117700000D03*
X106500000Y-113400000D03*
X106000000Y-117700000D03*
X105400000Y-102375000D03*
X101700000Y-102275000D03*
D20*
X101600000Y-116600000D02*
X100500000Y-117700000D01*
X107300000Y-122500000D02*
X102400000Y-122500000D01*
X101600000Y-116400000D02*
X101600000Y-115300000D01*
X112100000Y-120412500D02*
X112100000Y-121300000D01*
X112100000Y-121300000D02*
X111800000Y-121600000D01*
X108200000Y-121600000D02*
X107300000Y-122500000D01*
X100500000Y-121100000D02*
X102150000Y-122750000D01*
X102900000Y-114000000D02*
X102900000Y-113700000D01*
X101600000Y-116400000D02*
X101600000Y-116600000D01*
X102400000Y-122500000D02*
X102150000Y-122750000D01*
X111800000Y-121600000D02*
X108200000Y-121600000D01*
X101600000Y-115300000D02*
X102900000Y-114000000D01*
X110150000Y-118550000D02*
X110100000Y-118550000D01*
X112012500Y-120412500D02*
X110150000Y-118550000D01*
X100500000Y-117700000D02*
X100500000Y-121100000D01*
X112100000Y-120412500D02*
X112012500Y-120412500D01*
X102150000Y-122750000D02*
X102150000Y-124550000D01*
X118601472Y-102475000D02*
X116950736Y-104125736D01*
X104487500Y-99375000D02*
X104487500Y-99100000D01*
X120420000Y-117780000D02*
X120420000Y-118267500D01*
X109487500Y-119787500D02*
X110100000Y-120400000D01*
X107950000Y-105375000D02*
X107950000Y-104150000D01*
X116801472Y-104275000D02*
X116950736Y-104125736D01*
X121550000Y-106725000D02*
X121100000Y-106275000D01*
X115850000Y-104125000D02*
X116000000Y-104275000D01*
X100962500Y-106412500D02*
X100962500Y-107375000D01*
X122700000Y-116695000D02*
X122630000Y-116625000D01*
X120420000Y-108555000D02*
X121550000Y-107425000D01*
X120420000Y-116625000D02*
X121025000Y-116625000D01*
X122700000Y-109255000D02*
X122630000Y-109325000D01*
X109050000Y-103850000D02*
X109250000Y-103650000D01*
X117945000Y-110500000D02*
X117945000Y-111755000D01*
X102900000Y-110300000D02*
X102500000Y-110300000D01*
X120420000Y-109325000D02*
X120420000Y-108555000D01*
X121550000Y-107275000D02*
X121550000Y-105275000D01*
X121550000Y-107425000D02*
X122700000Y-108575000D01*
X119650000Y-99675000D02*
X120050000Y-100075000D01*
X117945000Y-111755000D02*
X117900000Y-111800000D01*
X122700000Y-109125000D02*
X122700000Y-109255000D01*
X117945000Y-108330000D02*
X117945000Y-107380000D01*
X122700000Y-108575000D02*
X122700000Y-109125000D01*
X107950000Y-104150000D02*
X108200000Y-103900000D01*
X110100000Y-120400000D02*
X110100000Y-120450000D01*
X104487500Y-97675000D02*
X104487500Y-97375000D01*
X115750000Y-104025000D02*
X115850000Y-104125000D01*
X100962500Y-105375000D02*
X100962500Y-106412500D01*
X117945000Y-110500000D02*
X117945000Y-108330000D01*
X105200000Y-98387500D02*
X104487500Y-97675000D01*
X118601472Y-102475000D02*
X121437500Y-102475000D01*
X121550000Y-105825000D02*
X122000000Y-106275000D01*
X121550000Y-107275000D02*
X121550000Y-106725000D01*
X120050000Y-100075000D02*
X120050000Y-100725000D01*
X116000000Y-104275000D02*
X116801472Y-104275000D01*
X100950000Y-99375000D02*
X100950000Y-99250000D01*
X121550000Y-107425000D02*
X121550000Y-107275000D01*
X109250000Y-103650000D02*
X109250000Y-103020000D01*
X121025000Y-116625000D02*
X122100000Y-117700000D01*
X108200000Y-103900000D02*
X109000000Y-103900000D01*
X109000000Y-103900000D02*
X109050000Y-103850000D01*
X100950000Y-99250000D02*
X101700000Y-98500000D01*
X115750000Y-103020000D02*
X115750000Y-104025000D01*
X117945000Y-107380000D02*
X118050000Y-107275000D01*
X104487500Y-99100000D02*
X105200000Y-98387500D01*
X122100000Y-117700000D02*
X122100000Y-118550000D01*
X120420000Y-116625000D02*
X120420000Y-117780000D01*
X120420000Y-118267500D02*
X120100000Y-118587500D01*
X122700000Y-116825000D02*
X122700000Y-116695000D01*
X121550000Y-105275000D02*
X121550000Y-105825000D01*
X102500000Y-110300000D02*
X102200000Y-110000000D01*
D21*
X121550000Y-99675000D02*
X121550000Y-97575000D01*
D20*
X122550000Y-103025000D02*
X122150000Y-103425000D01*
X121437500Y-99787500D02*
X121550000Y-99675000D01*
X121998528Y-101525000D02*
X122550000Y-102076472D01*
X122150000Y-103425000D02*
X121437500Y-103425000D01*
X121437500Y-101525000D02*
X121998528Y-101525000D01*
X121437500Y-101525000D02*
X121437500Y-99787500D01*
X122550000Y-102076472D02*
X122550000Y-103025000D01*
X114500000Y-108675000D02*
X115800000Y-108675000D01*
X105543726Y-100606226D02*
X106312500Y-101375000D01*
X114135000Y-110500000D02*
X114135000Y-109040000D01*
X108656472Y-111925000D02*
X107987500Y-111256028D01*
X117945000Y-115450000D02*
X117945000Y-118432500D01*
X119650000Y-107275000D02*
X119650000Y-105275000D01*
X102850000Y-99050000D02*
X103500000Y-98400000D01*
X119450000Y-103425000D02*
X119900000Y-103875000D01*
X107987500Y-107127449D02*
X106312500Y-105452449D01*
X119162500Y-103425000D02*
X119450000Y-103425000D01*
X118100000Y-118587500D02*
X116100000Y-118587500D01*
X114100000Y-118587500D02*
X112100000Y-118587500D01*
X117945000Y-115450000D02*
X117945000Y-113655000D01*
X114135000Y-110500000D02*
X114135000Y-111665000D01*
X113875000Y-111925000D02*
X108656472Y-111925000D01*
X115800000Y-108675000D02*
X116150000Y-108325000D01*
X106312500Y-103375000D02*
X106312500Y-105375000D01*
X119570000Y-107905000D02*
X119570000Y-110525000D01*
X119770000Y-112225000D02*
X119770000Y-110725000D01*
X119900000Y-105025000D02*
X119650000Y-105275000D01*
X114135000Y-111665000D02*
X113875000Y-111925000D01*
X119650000Y-107825000D02*
X119570000Y-107905000D01*
X119900000Y-103875000D02*
X119900000Y-105025000D01*
X116150000Y-107275000D02*
X116150000Y-106025000D01*
X107987500Y-111256028D02*
X107987500Y-107375000D01*
X119570000Y-110525000D02*
X119770000Y-110725000D01*
X106312500Y-103375000D02*
X106312500Y-101375000D01*
X102850000Y-99375000D02*
X102850000Y-99050000D01*
X116100000Y-118587500D02*
X114100000Y-118587500D01*
X105543726Y-100443779D02*
X105543726Y-100606226D01*
X106312500Y-105452449D02*
X106312500Y-105375000D01*
X117945000Y-118432500D02*
X118100000Y-118587500D01*
X119650000Y-107275000D02*
X119650000Y-107825000D01*
X107987500Y-107375000D02*
X107987500Y-107127449D01*
X117945000Y-113655000D02*
X119375000Y-112225000D01*
X114135000Y-109040000D02*
X114500000Y-108675000D01*
X116150000Y-108325000D02*
X116150000Y-107275000D01*
X116150000Y-106025000D02*
X116900000Y-105275000D01*
X116900000Y-105275000D02*
X119650000Y-105275000D01*
X119375000Y-112225000D02*
X119770000Y-112225000D01*
X119930000Y-124550000D02*
X119930000Y-124070000D01*
X122100000Y-121900000D02*
X122100000Y-120450000D01*
X122100000Y-120450000D02*
X122050000Y-120450000D01*
X119400000Y-115595000D02*
X119400000Y-116700000D01*
X122050000Y-120450000D02*
X121300000Y-119700000D01*
X119770000Y-114470000D02*
X119770000Y-115225000D01*
X119512500Y-114212500D02*
X119770000Y-114470000D01*
X119770000Y-115225000D02*
X119400000Y-115595000D01*
X119930000Y-124070000D02*
X122100000Y-121900000D01*
X106312500Y-108562500D02*
X106312500Y-107375000D01*
D21*
X119000000Y-97575000D02*
X118450000Y-98125000D01*
D22*
X113300000Y-100475000D02*
X111664596Y-100475000D01*
X114950000Y-103020000D02*
X114950000Y-102125000D01*
X110050000Y-102089596D02*
X110050000Y-103020000D01*
D21*
X118450000Y-98125000D02*
X118450000Y-99125000D01*
D22*
X111664596Y-100475000D02*
X110050000Y-102089596D01*
D21*
X113800000Y-99975000D02*
X113300000Y-100475000D01*
X118450000Y-99125000D02*
X117600000Y-99975000D01*
X119450000Y-97575000D02*
X119000000Y-97575000D01*
D22*
X114950000Y-102125000D02*
X113300000Y-100475000D01*
D21*
X117600000Y-99975000D02*
X113800000Y-99975000D01*
D22*
X106312500Y-97375000D02*
X106312500Y-97613135D01*
X113750000Y-101917894D02*
X113750000Y-103020000D01*
X112616521Y-101445000D02*
X113277106Y-101445000D01*
X107774365Y-99075000D02*
X112250500Y-99075000D01*
X112250500Y-99075000D02*
X112400000Y-99224500D01*
X112417763Y-101246242D02*
X112616521Y-101445000D01*
X113277106Y-101445000D02*
X113750000Y-101917894D01*
X106312500Y-97613135D02*
X107774365Y-99075000D01*
X113800000Y-104675000D02*
X113292894Y-104675000D01*
X114137500Y-105012500D02*
X113800000Y-104675000D01*
X112580000Y-104095000D02*
X112750000Y-103925000D01*
X114137500Y-105625000D02*
X114137500Y-105012500D01*
X111750000Y-103020000D02*
X111750000Y-103925000D01*
X112750000Y-104132106D02*
X112750000Y-103925000D01*
X111750000Y-103925000D02*
X111920000Y-104095000D01*
X113292894Y-104675000D02*
X112750000Y-104132106D01*
X112750000Y-103925000D02*
X112750000Y-103020000D01*
X111920000Y-104095000D02*
X112580000Y-104095000D01*
X113250000Y-102125000D02*
X113250000Y-103020000D01*
X115200000Y-105317893D02*
X115200000Y-107275000D01*
X113070000Y-101945000D02*
X113250000Y-102125000D01*
X113500000Y-104175000D02*
X114057107Y-104175000D01*
X113250000Y-103925000D02*
X113500000Y-104175000D01*
X114950000Y-107525000D02*
X114137500Y-107525000D01*
X115200000Y-107275000D02*
X114950000Y-107525000D01*
X112450000Y-101945000D02*
X113070000Y-101945000D01*
X114057107Y-104175000D02*
X115200000Y-105317893D01*
X112250000Y-103020000D02*
X112250000Y-102145000D01*
X112250000Y-102145000D02*
X112450000Y-101945000D01*
X113250000Y-103020000D02*
X113250000Y-103925000D01*
X111499500Y-99775000D02*
X106712500Y-99775000D01*
X111352066Y-101945000D02*
X111549216Y-101747850D01*
X110950000Y-101945000D02*
X111352066Y-101945000D01*
X111500000Y-99774500D02*
X111499500Y-99775000D01*
X110750000Y-102145000D02*
X110950000Y-101945000D01*
X106712500Y-99775000D02*
X106312500Y-99375000D01*
X110750000Y-103020000D02*
X110750000Y-102145000D01*
D20*
X105987500Y-120412500D02*
X106100000Y-120412500D01*
X104700000Y-121700000D02*
X105987500Y-120412500D01*
X106700000Y-121700000D02*
X107987500Y-120412500D01*
X106200000Y-121700000D02*
X106700000Y-121700000D01*
X107987500Y-120412500D02*
X108100000Y-120412500D01*
X114100000Y-121300000D02*
X114100000Y-120412500D01*
X107230000Y-124550000D02*
X107230000Y-123970000D01*
X113000000Y-122400000D02*
X114100000Y-121300000D01*
X107230000Y-123970000D02*
X108800000Y-122400000D01*
X108800000Y-122400000D02*
X113000000Y-122400000D01*
X108300000Y-117600000D02*
X107100000Y-116400000D01*
X115800000Y-121700000D02*
X116100000Y-121400000D01*
X114950000Y-117600000D02*
X108300000Y-117600000D01*
X115200000Y-121700000D02*
X115800000Y-121700000D01*
X116100000Y-121400000D02*
X116100000Y-120412500D01*
X117200000Y-121700000D02*
X117800000Y-121700000D01*
X118100000Y-121400000D02*
X118100000Y-120412500D01*
X117800000Y-121700000D02*
X118100000Y-121400000D01*
X119400000Y-121700000D02*
X119800000Y-121700000D01*
X120100000Y-121400000D02*
X120100000Y-120412500D01*
X119800000Y-121700000D02*
X120100000Y-121400000D01*
X104487500Y-105375000D02*
X102837500Y-105375000D01*
X107987500Y-118587500D02*
X107100000Y-117700000D01*
X108100000Y-118587500D02*
X107987500Y-118587500D01*
X105200500Y-114200500D02*
X104300000Y-113300000D01*
X114454898Y-113325000D02*
X107975500Y-113325000D01*
X101900000Y-104312500D02*
X100962500Y-103375000D01*
X102456389Y-108675000D02*
X101900000Y-108118611D01*
X116675000Y-111104899D02*
X114454898Y-113325000D01*
X107975500Y-113325000D02*
X107100000Y-114200500D01*
X116675000Y-110500000D02*
X116675000Y-111104899D01*
X101900000Y-108118611D02*
X101900000Y-104312500D01*
X104300000Y-113300000D02*
X104300000Y-109900000D01*
X107100000Y-114200500D02*
X105200500Y-114200500D01*
X104300000Y-109900000D02*
X103075000Y-108675000D01*
X103075000Y-108675000D02*
X102456389Y-108675000D01*
X104487500Y-103375000D02*
X102837500Y-103375000D01*
X106125000Y-113400000D02*
X105400000Y-112675000D01*
X107575000Y-112625000D02*
X114164949Y-112625000D01*
X106100000Y-117800000D02*
X106000000Y-117700000D01*
X106500000Y-113400000D02*
X106800000Y-113400000D01*
D23*
X105400000Y-102375000D02*
X105400000Y-108475000D01*
D20*
X100962500Y-101375000D02*
X100962500Y-101537500D01*
X114164949Y-112625000D02*
X115405000Y-111384949D01*
X105400000Y-112675000D02*
X105400000Y-108475000D01*
X106100000Y-118587500D02*
X106100000Y-117800000D01*
X100962500Y-101537500D02*
X101700000Y-102275000D01*
X106800000Y-113400000D02*
X107575000Y-112625000D01*
X115405000Y-111384949D02*
X115405000Y-110500000D01*
X106500000Y-113400000D02*
X106125000Y-113400000D01*
X104487500Y-101375000D02*
X102837500Y-101375000D01*
X104487500Y-107375000D02*
X102837500Y-107375000D01*
D22*
X102850000Y-116625000D02*
X103075000Y-116400000D01*
X104450000Y-116400000D02*
X105100000Y-115750000D01*
X102850000Y-119262500D02*
X102850000Y-116625000D01*
X103075000Y-116400000D02*
X104450000Y-116400000D01*
X101700000Y-120412500D02*
X102850000Y-119262500D01*
X105050000Y-119262500D02*
X105050000Y-117100000D01*
X105050000Y-117100000D02*
X105100000Y-117050000D01*
X103900000Y-120412500D02*
X105050000Y-119262500D01*
D20*
X114135000Y-115450000D02*
X114135000Y-116003528D01*
X105100000Y-117000000D02*
X105100000Y-117050000D01*
X113263528Y-116875000D02*
X108656472Y-116875000D01*
X108200000Y-116418528D02*
X108200000Y-116025000D01*
X114135000Y-116003528D02*
X113263528Y-116875000D01*
X108656472Y-116875000D02*
X108200000Y-116418528D01*
X108200000Y-116025000D02*
X107875000Y-115700000D01*
X106400000Y-115700000D02*
X105100000Y-117000000D01*
X107875000Y-115700000D02*
X106400000Y-115700000D01*
D22*
X103600000Y-117050000D02*
X103600000Y-118287500D01*
X103600000Y-118287500D02*
X103900000Y-118587500D01*
D20*
X104350000Y-115000000D02*
X103600000Y-115750000D01*
D22*
X102350000Y-117937500D02*
X102350000Y-116417894D01*
X102350000Y-116417894D02*
X103017894Y-115750000D01*
D20*
X107600000Y-115000000D02*
X104350000Y-115000000D01*
X115405000Y-115450000D02*
X115405000Y-114896472D01*
D22*
X101700000Y-118587500D02*
X102350000Y-117937500D01*
D20*
X108575000Y-114025000D02*
X107600000Y-115000000D01*
D22*
X103017894Y-115750000D02*
X103600000Y-115750000D01*
D20*
X114533528Y-114025000D02*
X108575000Y-114025000D01*
X115405000Y-114896472D02*
X114533528Y-114025000D01*
X112865000Y-108810000D02*
X112865000Y-110500000D01*
X113000000Y-106201472D02*
X113000000Y-108675000D01*
X113000000Y-108675000D02*
X112865000Y-108810000D01*
X111862500Y-105625000D02*
X112423528Y-105625000D01*
X112423528Y-105625000D02*
X113000000Y-106201472D01*
X111595000Y-107792500D02*
X111862500Y-107525000D01*
X111595000Y-110500000D02*
X111595000Y-107792500D01*
X109812500Y-107375000D02*
X110000000Y-107187500D01*
X111862500Y-106575000D02*
X110612500Y-106575000D01*
X110000000Y-105525000D02*
X109850000Y-105375000D01*
X109850000Y-105825000D02*
X109850000Y-105375000D01*
X110600000Y-106575000D02*
X109850000Y-105825000D01*
X110612500Y-106575000D02*
X109812500Y-107375000D01*
X110000000Y-107187500D02*
X110000000Y-105525000D01*
X111862500Y-106575000D02*
X110600000Y-106575000D01*
D24*
X108180000Y-97925000D02*
X116820000Y-97925000D01*
M02*
