G04 #@! TF.GenerationSoftware,KiCad,Pcbnew,6.0.7+dfsg-1~bpo11+1*
G04 #@! TF.ProjectId,project,70726f6a-6563-4742-9e6b-696361645f70,rev?*
G04 #@! TF.SameCoordinates,Original*
G04 #@! TF.FileFunction,Soldermask,Top*
G04 #@! TF.FilePolarity,Negative*
%FSLAX46Y46*%
G04 Gerber Fmt 4.6, Leading zero omitted, Abs format (unit mm)*
%MOMM*%
%LPD*%
G01*
G04 APERTURE LIST*
%ADD10C,0.150000*%
G04 #@! TA.AperFunction,Profile*
%ADD11C,0.100000*%
G04 #@! TD*
%ADD12R,0.600000X0.450000*%
%ADD13C,0.900000*%
%ADD14R,1.500000X0.700000*%
%ADD15R,0.800000X1.000000*%
%ADD16C,0.650000*%
%ADD17R,0.600000X1.450000*%
%ADD18R,0.300000X1.450000*%
%ADD19O,1.000000X2.100000*%
%ADD20O,1.000000X1.600000*%
%ADD21C,0.600000*%
%ADD22R,0.700000X0.450000*%
G04 APERTURE END LIST*
D10*
X107500000Y-97375000D02*
X117500000Y-97375000D01*
X117500000Y-97375000D02*
X117500000Y-98475000D01*
X117500000Y-98475000D02*
X107500000Y-98475000D01*
X107500000Y-98475000D02*
X107500000Y-97375000D01*
G36*
X107500000Y-97375000D02*
G01*
X117500000Y-97375000D01*
X117500000Y-98475000D01*
X107500000Y-98475000D01*
X107500000Y-97375000D01*
G37*
D11*
X122250000Y-126475000D02*
X101150000Y-126475000D01*
X123500000Y-98000000D02*
X123500000Y-126475000D01*
X100000000Y-98000000D02*
X100000000Y-126475000D01*
X123500000Y-98000000D02*
G75*
G03*
X121500000Y-96000000I-2000000J0D01*
G01*
X122250000Y-126475000D02*
X123500000Y-126475000D01*
X102000000Y-96000000D02*
X121500000Y-96000000D01*
X101150000Y-126475000D02*
X100000000Y-126475000D01*
X102000000Y-96000000D02*
G75*
G03*
X100000000Y-98000000I0J-2000000D01*
G01*
G36*
G01*
X112550000Y-120925000D02*
X111650000Y-120925000D01*
G75*
G02*
X111400000Y-120675000I0J250000D01*
G01*
X111400000Y-120150000D01*
G75*
G02*
X111650000Y-119900000I250000J0D01*
G01*
X112550000Y-119900000D01*
G75*
G02*
X112800000Y-120150000I0J-250000D01*
G01*
X112800000Y-120675000D01*
G75*
G02*
X112550000Y-120925000I-250000J0D01*
G01*
G37*
G36*
G01*
X112550000Y-119100000D02*
X111650000Y-119100000D01*
G75*
G02*
X111400000Y-118850000I0J250000D01*
G01*
X111400000Y-118325000D01*
G75*
G02*
X111650000Y-118075000I250000J0D01*
G01*
X112550000Y-118075000D01*
G75*
G02*
X112800000Y-118325000I0J-250000D01*
G01*
X112800000Y-118850000D01*
G75*
G02*
X112550000Y-119100000I-250000J0D01*
G01*
G37*
G36*
G01*
X110325000Y-106925000D02*
X110325000Y-107825000D01*
G75*
G02*
X110075000Y-108075000I-250000J0D01*
G01*
X109550000Y-108075000D01*
G75*
G02*
X109300000Y-107825000I0J250000D01*
G01*
X109300000Y-106925000D01*
G75*
G02*
X109550000Y-106675000I250000J0D01*
G01*
X110075000Y-106675000D01*
G75*
G02*
X110325000Y-106925000I0J-250000D01*
G01*
G37*
G36*
G01*
X108500000Y-106925000D02*
X108500000Y-107825000D01*
G75*
G02*
X108250000Y-108075000I-250000J0D01*
G01*
X107725000Y-108075000D01*
G75*
G02*
X107475000Y-107825000I0J250000D01*
G01*
X107475000Y-106925000D01*
G75*
G02*
X107725000Y-106675000I250000J0D01*
G01*
X108250000Y-106675000D01*
G75*
G02*
X108500000Y-106925000I0J-250000D01*
G01*
G37*
G36*
G01*
X109625000Y-118050000D02*
X110575000Y-118050000D01*
G75*
G02*
X110825000Y-118300000I0J-250000D01*
G01*
X110825000Y-118800000D01*
G75*
G02*
X110575000Y-119050000I-250000J0D01*
G01*
X109625000Y-119050000D01*
G75*
G02*
X109375000Y-118800000I0J250000D01*
G01*
X109375000Y-118300000D01*
G75*
G02*
X109625000Y-118050000I250000J0D01*
G01*
G37*
G36*
G01*
X109625000Y-119950000D02*
X110575000Y-119950000D01*
G75*
G02*
X110825000Y-120200000I0J-250000D01*
G01*
X110825000Y-120700000D01*
G75*
G02*
X110575000Y-120950000I-250000J0D01*
G01*
X109625000Y-120950000D01*
G75*
G02*
X109375000Y-120700000I0J250000D01*
G01*
X109375000Y-120200000D01*
G75*
G02*
X109625000Y-119950000I250000J0D01*
G01*
G37*
G36*
G01*
X103450000Y-118075000D02*
X104350000Y-118075000D01*
G75*
G02*
X104600000Y-118325000I0J-250000D01*
G01*
X104600000Y-118850000D01*
G75*
G02*
X104350000Y-119100000I-250000J0D01*
G01*
X103450000Y-119100000D01*
G75*
G02*
X103200000Y-118850000I0J250000D01*
G01*
X103200000Y-118325000D01*
G75*
G02*
X103450000Y-118075000I250000J0D01*
G01*
G37*
G36*
G01*
X103450000Y-119900000D02*
X104350000Y-119900000D01*
G75*
G02*
X104600000Y-120150000I0J-250000D01*
G01*
X104600000Y-120675000D01*
G75*
G02*
X104350000Y-120925000I-250000J0D01*
G01*
X103450000Y-120925000D01*
G75*
G02*
X103200000Y-120675000I0J250000D01*
G01*
X103200000Y-120150000D01*
G75*
G02*
X103450000Y-119900000I250000J0D01*
G01*
G37*
G36*
G01*
X103350000Y-98900000D02*
X103350000Y-99850000D01*
G75*
G02*
X103100000Y-100100000I-250000J0D01*
G01*
X102600000Y-100100000D01*
G75*
G02*
X102350000Y-99850000I0J250000D01*
G01*
X102350000Y-98900000D01*
G75*
G02*
X102600000Y-98650000I250000J0D01*
G01*
X103100000Y-98650000D01*
G75*
G02*
X103350000Y-98900000I0J-250000D01*
G01*
G37*
G36*
G01*
X101450000Y-98900000D02*
X101450000Y-99850000D01*
G75*
G02*
X101200000Y-100100000I-250000J0D01*
G01*
X100700000Y-100100000D01*
G75*
G02*
X100450000Y-99850000I0J250000D01*
G01*
X100450000Y-98900000D01*
G75*
G02*
X100700000Y-98650000I250000J0D01*
G01*
X101200000Y-98650000D01*
G75*
G02*
X101450000Y-98900000I0J-250000D01*
G01*
G37*
G36*
G01*
X100475000Y-101831250D02*
X100475000Y-100918750D01*
G75*
G02*
X100718750Y-100675000I243750J0D01*
G01*
X101206250Y-100675000D01*
G75*
G02*
X101450000Y-100918750I0J-243750D01*
G01*
X101450000Y-101831250D01*
G75*
G02*
X101206250Y-102075000I-243750J0D01*
G01*
X100718750Y-102075000D01*
G75*
G02*
X100475000Y-101831250I0J243750D01*
G01*
G37*
G36*
G01*
X102350000Y-101831250D02*
X102350000Y-100918750D01*
G75*
G02*
X102593750Y-100675000I243750J0D01*
G01*
X103081250Y-100675000D01*
G75*
G02*
X103325000Y-100918750I0J-243750D01*
G01*
X103325000Y-101831250D01*
G75*
G02*
X103081250Y-102075000I-243750J0D01*
G01*
X102593750Y-102075000D01*
G75*
G02*
X102350000Y-101831250I0J243750D01*
G01*
G37*
G36*
G01*
X100475000Y-103831250D02*
X100475000Y-102918750D01*
G75*
G02*
X100718750Y-102675000I243750J0D01*
G01*
X101206250Y-102675000D01*
G75*
G02*
X101450000Y-102918750I0J-243750D01*
G01*
X101450000Y-103831250D01*
G75*
G02*
X101206250Y-104075000I-243750J0D01*
G01*
X100718750Y-104075000D01*
G75*
G02*
X100475000Y-103831250I0J243750D01*
G01*
G37*
G36*
G01*
X102350000Y-103831250D02*
X102350000Y-102918750D01*
G75*
G02*
X102593750Y-102675000I243750J0D01*
G01*
X103081250Y-102675000D01*
G75*
G02*
X103325000Y-102918750I0J-243750D01*
G01*
X103325000Y-103831250D01*
G75*
G02*
X103081250Y-104075000I-243750J0D01*
G01*
X102593750Y-104075000D01*
G75*
G02*
X102350000Y-103831250I0J243750D01*
G01*
G37*
G36*
G01*
X119150000Y-107750000D02*
X119150000Y-106800000D01*
G75*
G02*
X119400000Y-106550000I250000J0D01*
G01*
X119900000Y-106550000D01*
G75*
G02*
X120150000Y-106800000I0J-250000D01*
G01*
X120150000Y-107750000D01*
G75*
G02*
X119900000Y-108000000I-250000J0D01*
G01*
X119400000Y-108000000D01*
G75*
G02*
X119150000Y-107750000I0J250000D01*
G01*
G37*
G36*
G01*
X121050000Y-107750000D02*
X121050000Y-106800000D01*
G75*
G02*
X121300000Y-106550000I250000J0D01*
G01*
X121800000Y-106550000D01*
G75*
G02*
X122050000Y-106800000I0J-250000D01*
G01*
X122050000Y-107750000D01*
G75*
G02*
X121800000Y-108000000I-250000J0D01*
G01*
X121300000Y-108000000D01*
G75*
G02*
X121050000Y-107750000I0J250000D01*
G01*
G37*
G36*
G01*
X118550000Y-120925000D02*
X117650000Y-120925000D01*
G75*
G02*
X117400000Y-120675000I0J250000D01*
G01*
X117400000Y-120150000D01*
G75*
G02*
X117650000Y-119900000I250000J0D01*
G01*
X118550000Y-119900000D01*
G75*
G02*
X118800000Y-120150000I0J-250000D01*
G01*
X118800000Y-120675000D01*
G75*
G02*
X118550000Y-120925000I-250000J0D01*
G01*
G37*
G36*
G01*
X118550000Y-119100000D02*
X117650000Y-119100000D01*
G75*
G02*
X117400000Y-118850000I0J250000D01*
G01*
X117400000Y-118325000D01*
G75*
G02*
X117650000Y-118075000I250000J0D01*
G01*
X118550000Y-118075000D01*
G75*
G02*
X118800000Y-118325000I0J-250000D01*
G01*
X118800000Y-118850000D01*
G75*
G02*
X118550000Y-119100000I-250000J0D01*
G01*
G37*
G36*
G01*
X117795000Y-109525000D02*
X118095000Y-109525000D01*
G75*
G02*
X118245000Y-109675000I0J-150000D01*
G01*
X118245000Y-111325000D01*
G75*
G02*
X118095000Y-111475000I-150000J0D01*
G01*
X117795000Y-111475000D01*
G75*
G02*
X117645000Y-111325000I0J150000D01*
G01*
X117645000Y-109675000D01*
G75*
G02*
X117795000Y-109525000I150000J0D01*
G01*
G37*
G36*
G01*
X116525000Y-109525000D02*
X116825000Y-109525000D01*
G75*
G02*
X116975000Y-109675000I0J-150000D01*
G01*
X116975000Y-111325000D01*
G75*
G02*
X116825000Y-111475000I-150000J0D01*
G01*
X116525000Y-111475000D01*
G75*
G02*
X116375000Y-111325000I0J150000D01*
G01*
X116375000Y-109675000D01*
G75*
G02*
X116525000Y-109525000I150000J0D01*
G01*
G37*
G36*
G01*
X115255000Y-109525000D02*
X115555000Y-109525000D01*
G75*
G02*
X115705000Y-109675000I0J-150000D01*
G01*
X115705000Y-111325000D01*
G75*
G02*
X115555000Y-111475000I-150000J0D01*
G01*
X115255000Y-111475000D01*
G75*
G02*
X115105000Y-111325000I0J150000D01*
G01*
X115105000Y-109675000D01*
G75*
G02*
X115255000Y-109525000I150000J0D01*
G01*
G37*
G36*
G01*
X113985000Y-109525000D02*
X114285000Y-109525000D01*
G75*
G02*
X114435000Y-109675000I0J-150000D01*
G01*
X114435000Y-111325000D01*
G75*
G02*
X114285000Y-111475000I-150000J0D01*
G01*
X113985000Y-111475000D01*
G75*
G02*
X113835000Y-111325000I0J150000D01*
G01*
X113835000Y-109675000D01*
G75*
G02*
X113985000Y-109525000I150000J0D01*
G01*
G37*
G36*
G01*
X112715000Y-109525000D02*
X113015000Y-109525000D01*
G75*
G02*
X113165000Y-109675000I0J-150000D01*
G01*
X113165000Y-111325000D01*
G75*
G02*
X113015000Y-111475000I-150000J0D01*
G01*
X112715000Y-111475000D01*
G75*
G02*
X112565000Y-111325000I0J150000D01*
G01*
X112565000Y-109675000D01*
G75*
G02*
X112715000Y-109525000I150000J0D01*
G01*
G37*
G36*
G01*
X111445000Y-109525000D02*
X111745000Y-109525000D01*
G75*
G02*
X111895000Y-109675000I0J-150000D01*
G01*
X111895000Y-111325000D01*
G75*
G02*
X111745000Y-111475000I-150000J0D01*
G01*
X111445000Y-111475000D01*
G75*
G02*
X111295000Y-111325000I0J150000D01*
G01*
X111295000Y-109675000D01*
G75*
G02*
X111445000Y-109525000I150000J0D01*
G01*
G37*
G36*
G01*
X110175000Y-109525000D02*
X110475000Y-109525000D01*
G75*
G02*
X110625000Y-109675000I0J-150000D01*
G01*
X110625000Y-111325000D01*
G75*
G02*
X110475000Y-111475000I-150000J0D01*
G01*
X110175000Y-111475000D01*
G75*
G02*
X110025000Y-111325000I0J150000D01*
G01*
X110025000Y-109675000D01*
G75*
G02*
X110175000Y-109525000I150000J0D01*
G01*
G37*
G36*
G01*
X108905000Y-109525000D02*
X109205000Y-109525000D01*
G75*
G02*
X109355000Y-109675000I0J-150000D01*
G01*
X109355000Y-111325000D01*
G75*
G02*
X109205000Y-111475000I-150000J0D01*
G01*
X108905000Y-111475000D01*
G75*
G02*
X108755000Y-111325000I0J150000D01*
G01*
X108755000Y-109675000D01*
G75*
G02*
X108905000Y-109525000I150000J0D01*
G01*
G37*
G36*
G01*
X108905000Y-114475000D02*
X109205000Y-114475000D01*
G75*
G02*
X109355000Y-114625000I0J-150000D01*
G01*
X109355000Y-116275000D01*
G75*
G02*
X109205000Y-116425000I-150000J0D01*
G01*
X108905000Y-116425000D01*
G75*
G02*
X108755000Y-116275000I0J150000D01*
G01*
X108755000Y-114625000D01*
G75*
G02*
X108905000Y-114475000I150000J0D01*
G01*
G37*
G36*
G01*
X110175000Y-114475000D02*
X110475000Y-114475000D01*
G75*
G02*
X110625000Y-114625000I0J-150000D01*
G01*
X110625000Y-116275000D01*
G75*
G02*
X110475000Y-116425000I-150000J0D01*
G01*
X110175000Y-116425000D01*
G75*
G02*
X110025000Y-116275000I0J150000D01*
G01*
X110025000Y-114625000D01*
G75*
G02*
X110175000Y-114475000I150000J0D01*
G01*
G37*
G36*
G01*
X111445000Y-114475000D02*
X111745000Y-114475000D01*
G75*
G02*
X111895000Y-114625000I0J-150000D01*
G01*
X111895000Y-116275000D01*
G75*
G02*
X111745000Y-116425000I-150000J0D01*
G01*
X111445000Y-116425000D01*
G75*
G02*
X111295000Y-116275000I0J150000D01*
G01*
X111295000Y-114625000D01*
G75*
G02*
X111445000Y-114475000I150000J0D01*
G01*
G37*
G36*
G01*
X112715000Y-114475000D02*
X113015000Y-114475000D01*
G75*
G02*
X113165000Y-114625000I0J-150000D01*
G01*
X113165000Y-116275000D01*
G75*
G02*
X113015000Y-116425000I-150000J0D01*
G01*
X112715000Y-116425000D01*
G75*
G02*
X112565000Y-116275000I0J150000D01*
G01*
X112565000Y-114625000D01*
G75*
G02*
X112715000Y-114475000I150000J0D01*
G01*
G37*
G36*
G01*
X113985000Y-114475000D02*
X114285000Y-114475000D01*
G75*
G02*
X114435000Y-114625000I0J-150000D01*
G01*
X114435000Y-116275000D01*
G75*
G02*
X114285000Y-116425000I-150000J0D01*
G01*
X113985000Y-116425000D01*
G75*
G02*
X113835000Y-116275000I0J150000D01*
G01*
X113835000Y-114625000D01*
G75*
G02*
X113985000Y-114475000I150000J0D01*
G01*
G37*
G36*
G01*
X115255000Y-114475000D02*
X115555000Y-114475000D01*
G75*
G02*
X115705000Y-114625000I0J-150000D01*
G01*
X115705000Y-116275000D01*
G75*
G02*
X115555000Y-116425000I-150000J0D01*
G01*
X115255000Y-116425000D01*
G75*
G02*
X115105000Y-116275000I0J150000D01*
G01*
X115105000Y-114625000D01*
G75*
G02*
X115255000Y-114475000I150000J0D01*
G01*
G37*
G36*
G01*
X116525000Y-114475000D02*
X116825000Y-114475000D01*
G75*
G02*
X116975000Y-114625000I0J-150000D01*
G01*
X116975000Y-116275000D01*
G75*
G02*
X116825000Y-116425000I-150000J0D01*
G01*
X116525000Y-116425000D01*
G75*
G02*
X116375000Y-116275000I0J150000D01*
G01*
X116375000Y-114625000D01*
G75*
G02*
X116525000Y-114475000I150000J0D01*
G01*
G37*
G36*
G01*
X117795000Y-114475000D02*
X118095000Y-114475000D01*
G75*
G02*
X118245000Y-114625000I0J-150000D01*
G01*
X118245000Y-116275000D01*
G75*
G02*
X118095000Y-116425000I-150000J0D01*
G01*
X117795000Y-116425000D01*
G75*
G02*
X117645000Y-116275000I0J150000D01*
G01*
X117645000Y-114625000D01*
G75*
G02*
X117795000Y-114475000I150000J0D01*
G01*
G37*
G36*
G01*
X115650000Y-107750000D02*
X115650000Y-106800000D01*
G75*
G02*
X115900000Y-106550000I250000J0D01*
G01*
X116400000Y-106550000D01*
G75*
G02*
X116650000Y-106800000I0J-250000D01*
G01*
X116650000Y-107750000D01*
G75*
G02*
X116400000Y-108000000I-250000J0D01*
G01*
X115900000Y-108000000D01*
G75*
G02*
X115650000Y-107750000I0J250000D01*
G01*
G37*
G36*
G01*
X117550000Y-107750000D02*
X117550000Y-106800000D01*
G75*
G02*
X117800000Y-106550000I250000J0D01*
G01*
X118300000Y-106550000D01*
G75*
G02*
X118550000Y-106800000I0J-250000D01*
G01*
X118550000Y-107750000D01*
G75*
G02*
X118300000Y-108000000I-250000J0D01*
G01*
X117800000Y-108000000D01*
G75*
G02*
X117550000Y-107750000I0J250000D01*
G01*
G37*
G36*
G01*
X103975000Y-99825000D02*
X103975000Y-98925000D01*
G75*
G02*
X104225000Y-98675000I250000J0D01*
G01*
X104750000Y-98675000D01*
G75*
G02*
X105000000Y-98925000I0J-250000D01*
G01*
X105000000Y-99825000D01*
G75*
G02*
X104750000Y-100075000I-250000J0D01*
G01*
X104225000Y-100075000D01*
G75*
G02*
X103975000Y-99825000I0J250000D01*
G01*
G37*
G36*
G01*
X105800000Y-99825000D02*
X105800000Y-98925000D01*
G75*
G02*
X106050000Y-98675000I250000J0D01*
G01*
X106575000Y-98675000D01*
G75*
G02*
X106825000Y-98925000I0J-250000D01*
G01*
X106825000Y-99825000D01*
G75*
G02*
X106575000Y-100075000I-250000J0D01*
G01*
X106050000Y-100075000D01*
G75*
G02*
X105800000Y-99825000I0J250000D01*
G01*
G37*
D12*
X121550000Y-97575000D03*
X119450000Y-97575000D03*
G36*
G01*
X103975000Y-103825000D02*
X103975000Y-102925000D01*
G75*
G02*
X104225000Y-102675000I250000J0D01*
G01*
X104750000Y-102675000D01*
G75*
G02*
X105000000Y-102925000I0J-250000D01*
G01*
X105000000Y-103825000D01*
G75*
G02*
X104750000Y-104075000I-250000J0D01*
G01*
X104225000Y-104075000D01*
G75*
G02*
X103975000Y-103825000I0J250000D01*
G01*
G37*
G36*
G01*
X105800000Y-103825000D02*
X105800000Y-102925000D01*
G75*
G02*
X106050000Y-102675000I250000J0D01*
G01*
X106575000Y-102675000D01*
G75*
G02*
X106825000Y-102925000I0J-250000D01*
G01*
X106825000Y-103825000D01*
G75*
G02*
X106575000Y-104075000I-250000J0D01*
G01*
X106050000Y-104075000D01*
G75*
G02*
X105800000Y-103825000I0J250000D01*
G01*
G37*
G36*
G01*
X103975000Y-97825000D02*
X103975000Y-96925000D01*
G75*
G02*
X104225000Y-96675000I250000J0D01*
G01*
X104750000Y-96675000D01*
G75*
G02*
X105000000Y-96925000I0J-250000D01*
G01*
X105000000Y-97825000D01*
G75*
G02*
X104750000Y-98075000I-250000J0D01*
G01*
X104225000Y-98075000D01*
G75*
G02*
X103975000Y-97825000I0J250000D01*
G01*
G37*
G36*
G01*
X105800000Y-97825000D02*
X105800000Y-96925000D01*
G75*
G02*
X106050000Y-96675000I250000J0D01*
G01*
X106575000Y-96675000D01*
G75*
G02*
X106825000Y-96925000I0J-250000D01*
G01*
X106825000Y-97825000D01*
G75*
G02*
X106575000Y-98075000I-250000J0D01*
G01*
X106050000Y-98075000D01*
G75*
G02*
X105800000Y-97825000I0J250000D01*
G01*
G37*
G36*
G01*
X122100000Y-103275000D02*
X122100000Y-103575000D01*
G75*
G02*
X121950000Y-103725000I-150000J0D01*
G01*
X120925000Y-103725000D01*
G75*
G02*
X120775000Y-103575000I0J150000D01*
G01*
X120775000Y-103275000D01*
G75*
G02*
X120925000Y-103125000I150000J0D01*
G01*
X121950000Y-103125000D01*
G75*
G02*
X122100000Y-103275000I0J-150000D01*
G01*
G37*
G36*
G01*
X122100000Y-102325000D02*
X122100000Y-102625000D01*
G75*
G02*
X121950000Y-102775000I-150000J0D01*
G01*
X120925000Y-102775000D01*
G75*
G02*
X120775000Y-102625000I0J150000D01*
G01*
X120775000Y-102325000D01*
G75*
G02*
X120925000Y-102175000I150000J0D01*
G01*
X121950000Y-102175000D01*
G75*
G02*
X122100000Y-102325000I0J-150000D01*
G01*
G37*
G36*
G01*
X122100000Y-101375000D02*
X122100000Y-101675000D01*
G75*
G02*
X121950000Y-101825000I-150000J0D01*
G01*
X120925000Y-101825000D01*
G75*
G02*
X120775000Y-101675000I0J150000D01*
G01*
X120775000Y-101375000D01*
G75*
G02*
X120925000Y-101225000I150000J0D01*
G01*
X121950000Y-101225000D01*
G75*
G02*
X122100000Y-101375000I0J-150000D01*
G01*
G37*
G36*
G01*
X119825000Y-101375000D02*
X119825000Y-101675000D01*
G75*
G02*
X119675000Y-101825000I-150000J0D01*
G01*
X118650000Y-101825000D01*
G75*
G02*
X118500000Y-101675000I0J150000D01*
G01*
X118500000Y-101375000D01*
G75*
G02*
X118650000Y-101225000I150000J0D01*
G01*
X119675000Y-101225000D01*
G75*
G02*
X119825000Y-101375000I0J-150000D01*
G01*
G37*
G36*
G01*
X119825000Y-103275000D02*
X119825000Y-103575000D01*
G75*
G02*
X119675000Y-103725000I-150000J0D01*
G01*
X118650000Y-103725000D01*
G75*
G02*
X118500000Y-103575000I0J150000D01*
G01*
X118500000Y-103275000D01*
G75*
G02*
X118650000Y-103125000I150000J0D01*
G01*
X119675000Y-103125000D01*
G75*
G02*
X119825000Y-103275000I0J-150000D01*
G01*
G37*
G36*
G01*
X103975000Y-107825000D02*
X103975000Y-106925000D01*
G75*
G02*
X104225000Y-106675000I250000J0D01*
G01*
X104750000Y-106675000D01*
G75*
G02*
X105000000Y-106925000I0J-250000D01*
G01*
X105000000Y-107825000D01*
G75*
G02*
X104750000Y-108075000I-250000J0D01*
G01*
X104225000Y-108075000D01*
G75*
G02*
X103975000Y-107825000I0J250000D01*
G01*
G37*
G36*
G01*
X105800000Y-107825000D02*
X105800000Y-106925000D01*
G75*
G02*
X106050000Y-106675000I250000J0D01*
G01*
X106575000Y-106675000D01*
G75*
G02*
X106825000Y-106925000I0J-250000D01*
G01*
X106825000Y-107825000D01*
G75*
G02*
X106575000Y-108075000I-250000J0D01*
G01*
X106050000Y-108075000D01*
G75*
G02*
X105800000Y-107825000I0J250000D01*
G01*
G37*
G36*
G01*
X114800000Y-107375000D02*
X114800000Y-107675000D01*
G75*
G02*
X114650000Y-107825000I-150000J0D01*
G01*
X113625000Y-107825000D01*
G75*
G02*
X113475000Y-107675000I0J150000D01*
G01*
X113475000Y-107375000D01*
G75*
G02*
X113625000Y-107225000I150000J0D01*
G01*
X114650000Y-107225000D01*
G75*
G02*
X114800000Y-107375000I0J-150000D01*
G01*
G37*
G36*
G01*
X114800000Y-106425000D02*
X114800000Y-106725000D01*
G75*
G02*
X114650000Y-106875000I-150000J0D01*
G01*
X113625000Y-106875000D01*
G75*
G02*
X113475000Y-106725000I0J150000D01*
G01*
X113475000Y-106425000D01*
G75*
G02*
X113625000Y-106275000I150000J0D01*
G01*
X114650000Y-106275000D01*
G75*
G02*
X114800000Y-106425000I0J-150000D01*
G01*
G37*
G36*
G01*
X114800000Y-105475000D02*
X114800000Y-105775000D01*
G75*
G02*
X114650000Y-105925000I-150000J0D01*
G01*
X113625000Y-105925000D01*
G75*
G02*
X113475000Y-105775000I0J150000D01*
G01*
X113475000Y-105475000D01*
G75*
G02*
X113625000Y-105325000I150000J0D01*
G01*
X114650000Y-105325000D01*
G75*
G02*
X114800000Y-105475000I0J-150000D01*
G01*
G37*
G36*
G01*
X112525000Y-105475000D02*
X112525000Y-105775000D01*
G75*
G02*
X112375000Y-105925000I-150000J0D01*
G01*
X111350000Y-105925000D01*
G75*
G02*
X111200000Y-105775000I0J150000D01*
G01*
X111200000Y-105475000D01*
G75*
G02*
X111350000Y-105325000I150000J0D01*
G01*
X112375000Y-105325000D01*
G75*
G02*
X112525000Y-105475000I0J-150000D01*
G01*
G37*
G36*
G01*
X112525000Y-106425000D02*
X112525000Y-106725000D01*
G75*
G02*
X112375000Y-106875000I-150000J0D01*
G01*
X111350000Y-106875000D01*
G75*
G02*
X111200000Y-106725000I0J150000D01*
G01*
X111200000Y-106425000D01*
G75*
G02*
X111350000Y-106275000I150000J0D01*
G01*
X112375000Y-106275000D01*
G75*
G02*
X112525000Y-106425000I0J-150000D01*
G01*
G37*
G36*
G01*
X112525000Y-107375000D02*
X112525000Y-107675000D01*
G75*
G02*
X112375000Y-107825000I-150000J0D01*
G01*
X111350000Y-107825000D01*
G75*
G02*
X111200000Y-107675000I0J150000D01*
G01*
X111200000Y-107375000D01*
G75*
G02*
X111350000Y-107225000I150000J0D01*
G01*
X112375000Y-107225000D01*
G75*
G02*
X112525000Y-107375000I0J-150000D01*
G01*
G37*
D13*
X121530000Y-114475000D03*
X121530000Y-111475000D03*
D14*
X119770000Y-115225000D03*
X119770000Y-112225000D03*
X119770000Y-110725000D03*
D15*
X120420000Y-116625000D03*
X122630000Y-109325000D03*
X120420000Y-109325000D03*
X122630000Y-116625000D03*
G36*
G01*
X100475000Y-107831250D02*
X100475000Y-106918750D01*
G75*
G02*
X100718750Y-106675000I243750J0D01*
G01*
X101206250Y-106675000D01*
G75*
G02*
X101450000Y-106918750I0J-243750D01*
G01*
X101450000Y-107831250D01*
G75*
G02*
X101206250Y-108075000I-243750J0D01*
G01*
X100718750Y-108075000D01*
G75*
G02*
X100475000Y-107831250I0J243750D01*
G01*
G37*
G36*
G01*
X102350000Y-107831250D02*
X102350000Y-106918750D01*
G75*
G02*
X102593750Y-106675000I243750J0D01*
G01*
X103081250Y-106675000D01*
G75*
G02*
X103325000Y-106918750I0J-243750D01*
G01*
X103325000Y-107831250D01*
G75*
G02*
X103081250Y-108075000I-243750J0D01*
G01*
X102593750Y-108075000D01*
G75*
G02*
X102350000Y-107831250I0J243750D01*
G01*
G37*
G36*
G01*
X110350000Y-104900000D02*
X110350000Y-105850000D01*
G75*
G02*
X110100000Y-106100000I-250000J0D01*
G01*
X109600000Y-106100000D01*
G75*
G02*
X109350000Y-105850000I0J250000D01*
G01*
X109350000Y-104900000D01*
G75*
G02*
X109600000Y-104650000I250000J0D01*
G01*
X110100000Y-104650000D01*
G75*
G02*
X110350000Y-104900000I0J-250000D01*
G01*
G37*
G36*
G01*
X108450000Y-104900000D02*
X108450000Y-105850000D01*
G75*
G02*
X108200000Y-106100000I-250000J0D01*
G01*
X107700000Y-106100000D01*
G75*
G02*
X107450000Y-105850000I0J250000D01*
G01*
X107450000Y-104900000D01*
G75*
G02*
X107700000Y-104650000I250000J0D01*
G01*
X108200000Y-104650000D01*
G75*
G02*
X108450000Y-104900000I0J-250000D01*
G01*
G37*
G36*
G01*
X100475000Y-105831250D02*
X100475000Y-104918750D01*
G75*
G02*
X100718750Y-104675000I243750J0D01*
G01*
X101206250Y-104675000D01*
G75*
G02*
X101450000Y-104918750I0J-243750D01*
G01*
X101450000Y-105831250D01*
G75*
G02*
X101206250Y-106075000I-243750J0D01*
G01*
X100718750Y-106075000D01*
G75*
G02*
X100475000Y-105831250I0J243750D01*
G01*
G37*
G36*
G01*
X102350000Y-105831250D02*
X102350000Y-104918750D01*
G75*
G02*
X102593750Y-104675000I243750J0D01*
G01*
X103081250Y-104675000D01*
G75*
G02*
X103325000Y-104918750I0J-243750D01*
G01*
X103325000Y-105831250D01*
G75*
G02*
X103081250Y-106075000I-243750J0D01*
G01*
X102593750Y-106075000D01*
G75*
G02*
X102350000Y-105831250I0J243750D01*
G01*
G37*
G36*
G01*
X103975000Y-101825000D02*
X103975000Y-100925000D01*
G75*
G02*
X104225000Y-100675000I250000J0D01*
G01*
X104750000Y-100675000D01*
G75*
G02*
X105000000Y-100925000I0J-250000D01*
G01*
X105000000Y-101825000D01*
G75*
G02*
X104750000Y-102075000I-250000J0D01*
G01*
X104225000Y-102075000D01*
G75*
G02*
X103975000Y-101825000I0J250000D01*
G01*
G37*
G36*
G01*
X105800000Y-101825000D02*
X105800000Y-100925000D01*
G75*
G02*
X106050000Y-100675000I250000J0D01*
G01*
X106575000Y-100675000D01*
G75*
G02*
X106825000Y-100925000I0J-250000D01*
G01*
X106825000Y-101825000D01*
G75*
G02*
X106575000Y-102075000I-250000J0D01*
G01*
X106050000Y-102075000D01*
G75*
G02*
X105800000Y-101825000I0J250000D01*
G01*
G37*
D16*
X115390000Y-101575000D03*
X109610000Y-101575000D03*
D17*
X115750000Y-103020000D03*
X114950000Y-103020000D03*
D18*
X113750000Y-103020000D03*
X112750000Y-103020000D03*
X112250000Y-103020000D03*
X111250000Y-103020000D03*
D17*
X110050000Y-103020000D03*
X109250000Y-103020000D03*
X109250000Y-103020000D03*
X110050000Y-103020000D03*
D18*
X110750000Y-103020000D03*
X111750000Y-103020000D03*
X113250000Y-103020000D03*
X114250000Y-103020000D03*
D17*
X114950000Y-103020000D03*
X115750000Y-103020000D03*
D19*
X116820000Y-102105000D03*
X108180000Y-102105000D03*
D20*
X108180000Y-97925000D03*
X116820000Y-97925000D03*
G36*
G01*
X101250000Y-118075000D02*
X102150000Y-118075000D01*
G75*
G02*
X102400000Y-118325000I0J-250000D01*
G01*
X102400000Y-118850000D01*
G75*
G02*
X102150000Y-119100000I-250000J0D01*
G01*
X101250000Y-119100000D01*
G75*
G02*
X101000000Y-118850000I0J250000D01*
G01*
X101000000Y-118325000D01*
G75*
G02*
X101250000Y-118075000I250000J0D01*
G01*
G37*
G36*
G01*
X101250000Y-119900000D02*
X102150000Y-119900000D01*
G75*
G02*
X102400000Y-120150000I0J-250000D01*
G01*
X102400000Y-120675000D01*
G75*
G02*
X102150000Y-120925000I-250000J0D01*
G01*
X101250000Y-120925000D01*
G75*
G02*
X101000000Y-120675000I0J250000D01*
G01*
X101000000Y-120150000D01*
G75*
G02*
X101250000Y-119900000I250000J0D01*
G01*
G37*
G36*
G01*
X122575000Y-120950000D02*
X121625000Y-120950000D01*
G75*
G02*
X121375000Y-120700000I0J250000D01*
G01*
X121375000Y-120200000D01*
G75*
G02*
X121625000Y-119950000I250000J0D01*
G01*
X122575000Y-119950000D01*
G75*
G02*
X122825000Y-120200000I0J-250000D01*
G01*
X122825000Y-120700000D01*
G75*
G02*
X122575000Y-120950000I-250000J0D01*
G01*
G37*
G36*
G01*
X122575000Y-119050000D02*
X121625000Y-119050000D01*
G75*
G02*
X121375000Y-118800000I0J250000D01*
G01*
X121375000Y-118300000D01*
G75*
G02*
X121625000Y-118050000I250000J0D01*
G01*
X122575000Y-118050000D01*
G75*
G02*
X122825000Y-118300000I0J-250000D01*
G01*
X122825000Y-118800000D01*
G75*
G02*
X122575000Y-119050000I-250000J0D01*
G01*
G37*
D21*
X101500000Y-111150000D03*
X101500000Y-112850000D03*
G36*
G01*
X103200000Y-114150000D02*
X102600000Y-114150000D01*
G75*
G02*
X102500000Y-114050000I0J100000D01*
G01*
X102500000Y-113350000D01*
G75*
G02*
X102600000Y-113250000I100000J0D01*
G01*
X103200000Y-113250000D01*
G75*
G02*
X103300000Y-113350000I0J-100000D01*
G01*
X103300000Y-114050000D01*
G75*
G02*
X103200000Y-114150000I-100000J0D01*
G01*
G37*
G36*
G01*
X103200000Y-110750000D02*
X102600000Y-110750000D01*
G75*
G02*
X102500000Y-110650000I0J100000D01*
G01*
X102500000Y-109950000D01*
G75*
G02*
X102600000Y-109850000I100000J0D01*
G01*
X103200000Y-109850000D01*
G75*
G02*
X103300000Y-109950000I0J-100000D01*
G01*
X103300000Y-110650000D01*
G75*
G02*
X103200000Y-110750000I-100000J0D01*
G01*
G37*
G36*
G01*
X101500000Y-110000000D02*
X100500000Y-110000000D01*
G75*
G02*
X100400000Y-109900000I0J100000D01*
G01*
X100400000Y-109500000D01*
G75*
G02*
X100500000Y-109400000I100000J0D01*
G01*
X101500000Y-109400000D01*
G75*
G02*
X101600000Y-109500000I0J-100000D01*
G01*
X101600000Y-109900000D01*
G75*
G02*
X101500000Y-110000000I-100000J0D01*
G01*
G37*
G36*
G01*
X101500000Y-114600000D02*
X100500000Y-114600000D01*
G75*
G02*
X100400000Y-114500000I0J100000D01*
G01*
X100400000Y-114100000D01*
G75*
G02*
X100500000Y-114000000I100000J0D01*
G01*
X101500000Y-114000000D01*
G75*
G02*
X101600000Y-114100000I0J-100000D01*
G01*
X101600000Y-114500000D01*
G75*
G02*
X101500000Y-114600000I-100000J0D01*
G01*
G37*
G36*
G01*
X103975000Y-105825000D02*
X103975000Y-104925000D01*
G75*
G02*
X104225000Y-104675000I250000J0D01*
G01*
X104750000Y-104675000D01*
G75*
G02*
X105000000Y-104925000I0J-250000D01*
G01*
X105000000Y-105825000D01*
G75*
G02*
X104750000Y-106075000I-250000J0D01*
G01*
X104225000Y-106075000D01*
G75*
G02*
X103975000Y-105825000I0J250000D01*
G01*
G37*
G36*
G01*
X105800000Y-105825000D02*
X105800000Y-104925000D01*
G75*
G02*
X106050000Y-104675000I250000J0D01*
G01*
X106575000Y-104675000D01*
G75*
G02*
X106825000Y-104925000I0J-250000D01*
G01*
X106825000Y-105825000D01*
G75*
G02*
X106575000Y-106075000I-250000J0D01*
G01*
X106050000Y-106075000D01*
G75*
G02*
X105800000Y-105825000I0J250000D01*
G01*
G37*
G36*
G01*
X108550000Y-120925000D02*
X107650000Y-120925000D01*
G75*
G02*
X107400000Y-120675000I0J250000D01*
G01*
X107400000Y-120150000D01*
G75*
G02*
X107650000Y-119900000I250000J0D01*
G01*
X108550000Y-119900000D01*
G75*
G02*
X108800000Y-120150000I0J-250000D01*
G01*
X108800000Y-120675000D01*
G75*
G02*
X108550000Y-120925000I-250000J0D01*
G01*
G37*
G36*
G01*
X108550000Y-119100000D02*
X107650000Y-119100000D01*
G75*
G02*
X107400000Y-118850000I0J250000D01*
G01*
X107400000Y-118325000D01*
G75*
G02*
X107650000Y-118075000I250000J0D01*
G01*
X108550000Y-118075000D01*
G75*
G02*
X108800000Y-118325000I0J-250000D01*
G01*
X108800000Y-118850000D01*
G75*
G02*
X108550000Y-119100000I-250000J0D01*
G01*
G37*
G36*
G01*
X119650000Y-118075000D02*
X120550000Y-118075000D01*
G75*
G02*
X120800000Y-118325000I0J-250000D01*
G01*
X120800000Y-118850000D01*
G75*
G02*
X120550000Y-119100000I-250000J0D01*
G01*
X119650000Y-119100000D01*
G75*
G02*
X119400000Y-118850000I0J250000D01*
G01*
X119400000Y-118325000D01*
G75*
G02*
X119650000Y-118075000I250000J0D01*
G01*
G37*
G36*
G01*
X119650000Y-119900000D02*
X120550000Y-119900000D01*
G75*
G02*
X120800000Y-120150000I0J-250000D01*
G01*
X120800000Y-120675000D01*
G75*
G02*
X120550000Y-120925000I-250000J0D01*
G01*
X119650000Y-120925000D01*
G75*
G02*
X119400000Y-120675000I0J250000D01*
G01*
X119400000Y-120150000D01*
G75*
G02*
X119650000Y-119900000I250000J0D01*
G01*
G37*
G36*
G01*
X106550000Y-120925000D02*
X105650000Y-120925000D01*
G75*
G02*
X105400000Y-120675000I0J250000D01*
G01*
X105400000Y-120150000D01*
G75*
G02*
X105650000Y-119900000I250000J0D01*
G01*
X106550000Y-119900000D01*
G75*
G02*
X106800000Y-120150000I0J-250000D01*
G01*
X106800000Y-120675000D01*
G75*
G02*
X106550000Y-120925000I-250000J0D01*
G01*
G37*
G36*
G01*
X106550000Y-119100000D02*
X105650000Y-119100000D01*
G75*
G02*
X105400000Y-118850000I0J250000D01*
G01*
X105400000Y-118325000D01*
G75*
G02*
X105650000Y-118075000I250000J0D01*
G01*
X106550000Y-118075000D01*
G75*
G02*
X106800000Y-118325000I0J-250000D01*
G01*
X106800000Y-118850000D01*
G75*
G02*
X106550000Y-119100000I-250000J0D01*
G01*
G37*
G36*
G01*
X116550000Y-120925000D02*
X115650000Y-120925000D01*
G75*
G02*
X115400000Y-120675000I0J250000D01*
G01*
X115400000Y-120150000D01*
G75*
G02*
X115650000Y-119900000I250000J0D01*
G01*
X116550000Y-119900000D01*
G75*
G02*
X116800000Y-120150000I0J-250000D01*
G01*
X116800000Y-120675000D01*
G75*
G02*
X116550000Y-120925000I-250000J0D01*
G01*
G37*
G36*
G01*
X116550000Y-119100000D02*
X115650000Y-119100000D01*
G75*
G02*
X115400000Y-118850000I0J250000D01*
G01*
X115400000Y-118325000D01*
G75*
G02*
X115650000Y-118075000I250000J0D01*
G01*
X116550000Y-118075000D01*
G75*
G02*
X116800000Y-118325000I0J-250000D01*
G01*
X116800000Y-118850000D01*
G75*
G02*
X116550000Y-119100000I-250000J0D01*
G01*
G37*
D22*
X103600000Y-117050000D03*
X103600000Y-115750000D03*
X101600000Y-116400000D03*
X105100000Y-115750000D03*
X105100000Y-117050000D03*
X107100000Y-116400000D03*
G36*
G01*
X122050000Y-99200000D02*
X122050000Y-100150000D01*
G75*
G02*
X121800000Y-100400000I-250000J0D01*
G01*
X121300000Y-100400000D01*
G75*
G02*
X121050000Y-100150000I0J250000D01*
G01*
X121050000Y-99200000D01*
G75*
G02*
X121300000Y-98950000I250000J0D01*
G01*
X121800000Y-98950000D01*
G75*
G02*
X122050000Y-99200000I0J-250000D01*
G01*
G37*
G36*
G01*
X120150000Y-99200000D02*
X120150000Y-100150000D01*
G75*
G02*
X119900000Y-100400000I-250000J0D01*
G01*
X119400000Y-100400000D01*
G75*
G02*
X119150000Y-100150000I0J250000D01*
G01*
X119150000Y-99200000D01*
G75*
G02*
X119400000Y-98950000I250000J0D01*
G01*
X119900000Y-98950000D01*
G75*
G02*
X120150000Y-99200000I0J-250000D01*
G01*
G37*
G36*
G01*
X119150000Y-105750000D02*
X119150000Y-104800000D01*
G75*
G02*
X119400000Y-104550000I250000J0D01*
G01*
X119900000Y-104550000D01*
G75*
G02*
X120150000Y-104800000I0J-250000D01*
G01*
X120150000Y-105750000D01*
G75*
G02*
X119900000Y-106000000I-250000J0D01*
G01*
X119400000Y-106000000D01*
G75*
G02*
X119150000Y-105750000I0J250000D01*
G01*
G37*
G36*
G01*
X121050000Y-105750000D02*
X121050000Y-104800000D01*
G75*
G02*
X121300000Y-104550000I250000J0D01*
G01*
X121800000Y-104550000D01*
G75*
G02*
X122050000Y-104800000I0J-250000D01*
G01*
X122050000Y-105750000D01*
G75*
G02*
X121800000Y-106000000I-250000J0D01*
G01*
X121300000Y-106000000D01*
G75*
G02*
X121050000Y-105750000I0J250000D01*
G01*
G37*
G36*
G01*
X102850000Y-126050000D02*
X101450000Y-126050000D01*
G75*
G02*
X101150000Y-125750000I0J300000D01*
G01*
X101150000Y-123350000D01*
G75*
G02*
X101450000Y-123050000I300000J0D01*
G01*
X102850000Y-123050000D01*
G75*
G02*
X103150000Y-123350000I0J-300000D01*
G01*
X103150000Y-125750000D01*
G75*
G02*
X102850000Y-126050000I-300000J0D01*
G01*
G37*
G36*
G01*
X105390000Y-126050000D02*
X103990000Y-126050000D01*
G75*
G02*
X103690000Y-125750000I0J300000D01*
G01*
X103690000Y-123350000D01*
G75*
G02*
X103990000Y-123050000I300000J0D01*
G01*
X105390000Y-123050000D01*
G75*
G02*
X105690000Y-123350000I0J-300000D01*
G01*
X105690000Y-125750000D01*
G75*
G02*
X105390000Y-126050000I-300000J0D01*
G01*
G37*
G36*
G01*
X107930000Y-126050000D02*
X106530000Y-126050000D01*
G75*
G02*
X106230000Y-125750000I0J300000D01*
G01*
X106230000Y-123350000D01*
G75*
G02*
X106530000Y-123050000I300000J0D01*
G01*
X107930000Y-123050000D01*
G75*
G02*
X108230000Y-123350000I0J-300000D01*
G01*
X108230000Y-125750000D01*
G75*
G02*
X107930000Y-126050000I-300000J0D01*
G01*
G37*
G36*
G01*
X110470000Y-126050000D02*
X109070000Y-126050000D01*
G75*
G02*
X108770000Y-125750000I0J300000D01*
G01*
X108770000Y-123350000D01*
G75*
G02*
X109070000Y-123050000I300000J0D01*
G01*
X110470000Y-123050000D01*
G75*
G02*
X110770000Y-123350000I0J-300000D01*
G01*
X110770000Y-125750000D01*
G75*
G02*
X110470000Y-126050000I-300000J0D01*
G01*
G37*
G36*
G01*
X113010000Y-126050000D02*
X111610000Y-126050000D01*
G75*
G02*
X111310000Y-125750000I0J300000D01*
G01*
X111310000Y-123350000D01*
G75*
G02*
X111610000Y-123050000I300000J0D01*
G01*
X113010000Y-123050000D01*
G75*
G02*
X113310000Y-123350000I0J-300000D01*
G01*
X113310000Y-125750000D01*
G75*
G02*
X113010000Y-126050000I-300000J0D01*
G01*
G37*
G36*
G01*
X115550000Y-126050000D02*
X114150000Y-126050000D01*
G75*
G02*
X113850000Y-125750000I0J300000D01*
G01*
X113850000Y-123350000D01*
G75*
G02*
X114150000Y-123050000I300000J0D01*
G01*
X115550000Y-123050000D01*
G75*
G02*
X115850000Y-123350000I0J-300000D01*
G01*
X115850000Y-125750000D01*
G75*
G02*
X115550000Y-126050000I-300000J0D01*
G01*
G37*
G36*
G01*
X118090000Y-126050000D02*
X116690000Y-126050000D01*
G75*
G02*
X116390000Y-125750000I0J300000D01*
G01*
X116390000Y-123350000D01*
G75*
G02*
X116690000Y-123050000I300000J0D01*
G01*
X118090000Y-123050000D01*
G75*
G02*
X118390000Y-123350000I0J-300000D01*
G01*
X118390000Y-125750000D01*
G75*
G02*
X118090000Y-126050000I-300000J0D01*
G01*
G37*
G36*
G01*
X120630000Y-126050000D02*
X119230000Y-126050000D01*
G75*
G02*
X118930000Y-125750000I0J300000D01*
G01*
X118930000Y-123350000D01*
G75*
G02*
X119230000Y-123050000I300000J0D01*
G01*
X120630000Y-123050000D01*
G75*
G02*
X120930000Y-123350000I0J-300000D01*
G01*
X120930000Y-125750000D01*
G75*
G02*
X120630000Y-126050000I-300000J0D01*
G01*
G37*
G36*
G01*
X114550000Y-120925000D02*
X113650000Y-120925000D01*
G75*
G02*
X113400000Y-120675000I0J250000D01*
G01*
X113400000Y-120150000D01*
G75*
G02*
X113650000Y-119900000I250000J0D01*
G01*
X114550000Y-119900000D01*
G75*
G02*
X114800000Y-120150000I0J-250000D01*
G01*
X114800000Y-120675000D01*
G75*
G02*
X114550000Y-120925000I-250000J0D01*
G01*
G37*
G36*
G01*
X114550000Y-119100000D02*
X113650000Y-119100000D01*
G75*
G02*
X113400000Y-118850000I0J250000D01*
G01*
X113400000Y-118325000D01*
G75*
G02*
X113650000Y-118075000I250000J0D01*
G01*
X114550000Y-118075000D01*
G75*
G02*
X114800000Y-118325000I0J-250000D01*
G01*
X114800000Y-118850000D01*
G75*
G02*
X114550000Y-119100000I-250000J0D01*
G01*
G37*
M02*
